<?xml version="1.0" standalone="no"?>
<!DOCTYPE svg PUBLIC "-//W3C//DTD SVG 1.1//EN" "http://www.w3.org/Graphics/SVG/1.1/DTD/svg11.dtd" >
<svg xmlns="http://www.w3.org/2000/svg">
<metadata>
This is a custom SVG webfont generated by Font Squirrel.
Copyright   : Copyright 2012 Adobe Systems Incorporated All rights reserved
Designer    : Sam Collins
</metadata>
<defs>
<font id="ZocialRegular" horiz-adv-x="2048" >
<font-face units-per-em="2048" ascent="1675" descent="-373" />
<missing-glyph horiz-adv-x="512" />
<glyph unicode=" "  horiz-adv-x="512" />
<glyph unicode="&#x09;" horiz-adv-x="512" />
<glyph unicode="&#xa0;" horiz-adv-x="512" />
<glyph unicode="!" d="M10 631q0 440 288 728t728 288t728 -288t288 -728q0 -373 -211 -641.5t-574 -349.5q-18 35 -68 106.5t-71 114.5q131 -53 176 -54q33 0 33 103q0 190 -35 190q-51 0 -198 -112q0 29 -31 24h-10q-53 141 -54 252q0 31 7 62q188 -92 303 -93q63 0 191 37t128 80 q0 27 -35 27q-53 0 -153.5 -14.5t-153.5 -14.5q-55 0 -121.5 29t-66.5 78q0 10 3 15t9 6t12 0t16.5 -2t18.5 -1q18 0 53 -5t52 -5q63 0 259.5 74.5t196.5 115.5q0 25 -38 35t-70 10q-29 0 -86.5 -15t-125 -36.5t-89.5 -28.5q8 41 8 66q0 96 -51.5 224t-118.5 190 q-55 49 -148 67q-57 74 -179 134.5t-216 60.5q-18 0 -56 -7t-48 -10l-45 -63l12 -2q14 0 44 4t44 4q70 0 160 -29q-57 -29 -101 -38q-4 -2 -26.5 -5.5t-37.5 -6.5t-28.5 -12t-13.5 -24q115 12 172 13q78 0 123 -15q-158 -18 -243 -108t-85 -248q0 -55 8 -102 q39 -246 150 -734q68 -315 76 -348l2 -8q-328 102 -514.5 380t-186.5 630zM590 885q0 -12 6 -25q-2 33 37 57.5t74 24.5q16 0 41 -10q-20 27 -60 26q-35 0 -66.5 -19t-31.5 -54zM657 731.5q0 26.5 21.5 48t48.5 21.5t48.5 -21.5t21.5 -48t-21.5 -48t-48.5 -21.5t-48.5 21.5 t-21.5 48zM739 754q0 -16 18.5 -16.5t18.5 16.5q0 18 -18.5 18t-18.5 -18zM1083 932q16 27 76 26q27 0 68 -20q-20 45 -72 45q-64 0 -72 -51zM1130 772q0 25 18.5 42t41.5 17q25 0 42 -17t17 -42q0 -23 -17.5 -41t-41.5 -18q-23 0 -41.5 18t-18.5 41zM1202 793q0 -16 15 -17 q16 0 16 17q0 14 -16 14q-15 0 -15 -14z" />
<glyph unicode="&#x22;" horiz-adv-x="2650" d="M0 823q0 215 107.5 385t279.5 269.5t369.5 150.5t398.5 51q59 0 88 -2q236 -12 463 -84q178 -57 340 -152t300 -223t221 -300.5t83 -360.5q0 -27 -2 -39q-23 -311 -247 -524t-550 -301q-219 -61 -469 -62h-16q-412 0 -645 109q-12 4 -14 12q0 4 6 4q2 0 7 -1t7 -1 q102 -25 182 -24q49 0 96.5 9t89.5 41t42 81q0 25 -13 49q-18 33 -119.5 68.5t-233.5 68.5t-155 41q-164 53 -284 135q0 2 7 19.5l12 30t14.5 24.5t17.5 12h367q18 0 33.5 -44t43 -89t72.5 -45q37 0 63.5 23.5t26.5 60.5q0 23 -172 408t-217 473q-12 31 -33 30 q-16 0 -26 -18l-6 -12q-16 -31 -107 -234l-219 -487l-14 -31q-195 223 -195 479zM446 483q0 20 111 265l10 6q12 0 66.5 -130t54.5 -143q0 -8 -10 -8h-221q-11 0 -11 10zM1075 231q0 -92 96.5 -92t96.5 92v795q0 92 -96.5 92t-96.5 -92v-795zM1454 231q0 -92 96.5 -92 t96.5 92v371l188 -379q27 -59 84 -59q66 0 94 59l187 379v-371q0 -92 96 -92q98 0 98 92v795q0 92 -96 92q-72 0 -96 -59l-283 -619l-272 619q-29 59 -99 59q-94 0 -94 -92v-795z" />
<glyph unicode="#" horiz-adv-x="2066" d="M0 -369v1026h1026v-1026h-1026zM1042 653v1026h1024v-1026h-1024z" />
<glyph unicode="$" horiz-adv-x="1994" d="M0 -147l397 1824h897q102 0 197.5 -36.5t173.5 -113.5t107.5 -193.5t-0.5 -276.5q-59 -279 -263 -438.5t-479 -159.5h-375l-129 -606h-526zM205 -371h526l129 604h377q274 0 477 160t264 438q57 276 -88 449q68 -152 25 -348q-59 -279 -263 -438.5t-478 -159.5h-375 l-129 -604h-443zM731 807h170l86 375h256q4 0 35 -6q-16 59 -64.5 95t-113.5 36h-256zM987 809q98 4 183 75.5t108 172.5q0 4 2 12t2 12h-233z" />
<glyph unicode="%" horiz-adv-x="1959" d="M0 -137v1052q0 367 173 570t532 203h589h533q-10 -10 -107.5 -108.5t-205 -207t-223 -224.5t-194.5 -190.5t-85 -74.5q-31 0 -31 32v320h-98q-121 0 -194 -13.5t-129 -53.5t-79.5 -115.5t-23.5 -196.5v-537zM137 -377q10 10 107.5 108.5t205 207t223 224.5t194.5 190.5 t85 74.5q31 0 31 -33v-319h98q238 0 331 72.5t93 306.5v536l459 457v-1053q0 -367 -173 -569.5t-531 -202.5h-590h-533z" />
<glyph unicode="&#x26;" horiz-adv-x="1886" d="M0 453v551q0 53 39 91t90 38q53 0 91 -38t38 -91v-551q0 -53 -38 -91t-91 -38t-91 38t-38 91zM354 248v856h1176v-856q0 -53 -38 -91t-91 -38h-918q-53 0 -91 38t-38 91zM354 1200h1176q0 236 -174 387.5t-414 151.5t-414 -151.5t-174 -387.5zM561 1847q0 16 14 17 q6 0 15 -4l100 -183l-31 -16q-98 180 -98 186zM592 195q0 55 39 92t96 37q51 0 90 -39t39 -90v-414q0 -57 -39 -93t-96 -36q-53 0 -91 38t-38 91v414zM602 1464.5q0 32.5 24.5 56t57.5 23.5t56.5 -23.5t23.5 -56.5q0 -35 -23.5 -58.5t-58.5 -23.5q-33 0 -56.5 25t-23.5 57.5 zM1028 195q0 55 40 92t95 37q53 0 91 -38t38 -91v-414q0 -57 -39 -93t-96 -36q-53 0 -91 38t-38 91v414zM1120 1464.5q0 32.5 24.5 56t57.5 23.5t56.5 -23.5t23.5 -56.5q0 -35 -24.5 -58.5t-57.5 -23.5t-56.5 25t-23.5 57.5zM1194 1677q4 6 28.5 58.5t48 90.5t38 38 t14.5 -19v-4l-98 -182zM1626 453v548q0 53 38 92.5t91 39.5t91 -39t38 -93v-548q0 -53 -38 -91t-91 -38t-92 38t-37 91z" />
<glyph unicode="'" horiz-adv-x="1687" d="M0 659q0 219 59 414q57 188 170 326q115 137 277 209q166 74 364 73q262 0 445 -125q184 -121 278 -321q94 -195 95 -401q0 -190 -97 -246q-96 -55 -270 -56h-866q0 -174 61 -303q59 -133 156 -196q102 -68 217 -68q84 0 145 21q63 20 127 67q63 45 115 97q51 51 135 141 q31 33 96 33q70 0 111 -43q43 -43 43 -119q0 -66 -47 -160q-43 -88 -144 -174q-94 -84 -237 -139.5t-330 -55.5q-428 0 -665 277q-238 278 -238 749zM455 819h802q-14 256 -122 385q-104 127 -279 127q-168 0 -272 -129q-106 -129 -129 -383z" />
<glyph unicode="(" horiz-adv-x="1169" d="M0 -150v1610q0 90 64.5 154.5t154.5 64.5h731q90 0 154.5 -64.5t64.5 -154.5v-1610q0 -90 -64.5 -154.5t-154.5 -64.5h-731q-90 0 -154.5 64.5t-64.5 154.5zM68 70h1030v1245h-1030v-1245zM408 1497q0 -20 13 -33.5t34 -13.5h260q20 0 33.5 13.5t13.5 33.5 q0 18 -13.5 31.5t-33.5 13.5h-260q-20 0 -33.5 -13.5t-13.5 -31.5zM496 -147.5q0 -38.5 27.5 -65.5t66.5 -27t65.5 27t26.5 65.5t-26.5 65.5t-65.5 27t-66.5 -27t-27.5 -65.5z" />
<glyph unicode=")" horiz-adv-x="2265" d="M0 324v979q0 94 28.5 122.5t123.5 28.5h1962q94 0 121.5 -28.5t27.5 -122.5v-979q0 -94 -27.5 -122t-121.5 -28h-832v-76h227v-118h-755v118h227v76h-829q-94 0 -123 28t-29 122zM76 307h2111v1057h-2111v-1057z" />
<glyph unicode="*" d="M0 1192q0 51 33 93t84 54l403 97q-129 -147 -129 -344q0 -379 518 -580q57 -23 110.5 -50.5t112 -68.5t94.5 -95t36 -114q0 -88 -72 -137t-164 -49q-119 0 -248 46t-215 124l-162 -367q115 -63 295 -125q-20 -4 -64 -17t-79 -20.5t-66 -7.5q-51 0 -93 33t-54 84 l-336 1407q-4 25 -4 37zM858 1098q0 78 71.5 120t155.5 42q100 0 225.5 -36t180.5 -96l125 349q-184 98 -381 129q4 0 92 24.5t146.5 36.5t87.5 12q51 0 93 -32.5t54 -83.5l336 -1407q4 -25 4 -37q0 -51 -33 -93t-84 -55l-297 -69q96 143 97 311q0 227 -144.5 373.5 t-378.5 224.5q-350 119 -350 287z" />
<glyph unicode="+" horiz-adv-x="2424" d="M0 -2q0 178 182.5 317.5t440.5 139.5h110q-86 82 -86 176q0 59 33 119q-20 -2 -59 -2q-213 0 -348.5 133t-135.5 327q0 186 168 325.5t383 139.5h635l-141 -102h-201q96 -37 150.5 -139.5t54.5 -227.5q0 -190 -180 -332q-76 -59 -98.5 -94t-22.5 -86q0 -39 55 -98 t111 -100q125 -88 173 -180.5t48 -231.5q0 -184 -168 -320.5t-455 -136.5q-272 0 -460.5 102.5t-188.5 270.5zM229 66q0 -141 120 -240.5t298 -99.5q244 0 353.5 90t109.5 239q0 39 -8 66q-6 23 -14.5 42t-24.5 38.5t-28.5 33t-40 34t-42 30.5t-51.5 35.5t-53 36.5 q-80 25 -158 24q-184 2 -322.5 -96t-138.5 -233zM365 1210q23 -162 124 -278.5t224 -118.5q121 -4 192.5 106.5t51 272.5t-122 274.5t-224.5 116.5t-194 -104.5t-51 -268.5zM1501 1161v103h410v409h102v-409h412v-103h-412v-411h-102v411h-410z" />
<glyph unicode="," horiz-adv-x="2265" d="M0 1378v43l4 4h510l4 -4v-41q0 -16 -20 -16l-54 -2q-68 -2 -67 -41q0 -27 14 -57q102 -250 455 -992l12 -2l227 453q-27 61 -45 100l-155 307l-41 82q-53 104 -69.5 124t-67.5 28q-29 4 -29 14v43l6 4h403l11 -2v-43q0 -16 -21 -16l-30 -4q-27 -4 -39.5 -10.5 t-11.5 -24.5t8.5 -35.5t29.5 -62.5l150 -307l166 331q33 66 10 88q-12 16 -76 23l-18 2q-8 0 -15 6q-6 2 -6 12v39l6 4q117 2 381 0l4 -4v-41q0 -16 -18 -16q-45 -2 -62.5 -9t-33.5 -32q-47 -70 -62 -98l-215 -402l-6 -14l262 -537l17 -6l413 985q25 57 -6 84q-27 25 -80 27 l-39 2q-6 0 -12 6q-8 4 -8 12v41l6 4h469l4 -4v-41q0 -14 -18 -18q-94 -4 -136 -39q-41 -33 -69 -100l-512 -1162q-20 -47 -46 -62t-49.5 2t-45.5 63q-78 154 -250 538q-215 -442 -269 -541q-84 -145 -145 -2q-66 154 -266.5 583t-265.5 587q-33 86 -58 106q-23 20 -106 27 q-29 4 -29 14z" />
<glyph unicode="-" horiz-adv-x="1923" d="M-1 1447.5q-1 22.5 12.5 42t27.5 34t48 32t55.5 26.5t67.5 28.5t71 29.5q111 45 198.5 33t110.5 -71q51 -137 209.5 -654.5t236.5 -740.5q549 180 668 215q33 12 77 8t66 -47q47 -96 66.5 -201.5t1.5 -152.5q-39 -31 -122 -66t-154.5 -59.5t-183.5 -59t-150 -47.5 q-20 -6 -78 -26.5t-109 -38t-118.5 -39t-125 -35.5t-110.5 -23.5t-91 -7.5t-52 19q-37 37 -66 106.5t-59.5 178t-38.5 135.5q-86 256 -231.5 693t-213.5 640q-12 26 -13 48.5z" />
<glyph unicode="." horiz-adv-x="1593" d="M6 -264v1587h189q0 59 1 79.5t8 64.5t23.5 61.5t50 34t83 16.5t83 -16.5t49 -33t23.5 -62.5t8 -64v-80h113v80q0 18 8 64t23.5 62.5t49.5 33t83 16.5q37 0 63.5 -8t44 -17.5t29.5 -35t17.5 -38t8.5 -50t3 -50.5v-57h110v57q0 12 3 50t8.5 50.5t17.5 38t29.5 35t44 17.5 t63.5 8q49 0 83 -16.5t49.5 -33t23.5 -62.5t8 -64v-80h188v-1587h-1589zM139 98v-229h285v229h-285zM139 143h285v244h-285v-244zM139 432h285v266h-285v-266zM139 741h285v230h-285v-230zM285 1157q0 -68 75.5 -67.5t75.5 67.5v266q0 68 -75.5 68t-75.5 -68v-266zM467 98 v-229h311v229h-311zM467 143h311v244h-311v-244zM467 432h311v266h-311v-266zM467 741h311v230h-311v-230zM725 1157q0 -68 76 -67q78 0 78 67v266q0 68 -78 68q-76 0 -76 -68v-266zM821 98v-229h312v229h-312zM821 143h312v244h-312v-244zM821 432h312v266h-312v-266z M821 741h312v230h-312v-230zM1165 1157q0 -68 78 -67q76 0 76 67v266q0 68 -76 68q-78 0 -78 -68v-266zM1176 98v-229h286v229h-286zM1176 143h286v244h-286v-244zM1176 432h286v266h-286v-266zM1176 741h286v230h-286v-230z" />
<glyph unicode="/" horiz-adv-x="2680" d="M0 225v371h459v-367q0 -57 41 -99t100 -42t101 41t42 100v867q0 240 177.5 408.5t421 168.5t420.5 -170t177 -411v-189l-274 -82l-182 86v164q0 59 -41 100t-100.5 41t-101.5 -41t-42 -100v-854q0 -246 -176 -419t-422 -173q-248 0 -424 175t-176 425zM1483 219v375 l182 -86l274 82v-377q0 -59 41 -101t100.5 -42t100.5 42t41 101v383h459v-371q0 -248 -175 -424t-423 -176t-424 174t-176 420z" />
<glyph unicode="0" horiz-adv-x="2576" d="M-10 401h243q10 -82 60.5 -131t132.5 -49q98 0 156.5 66.5t58.5 167.5q0 98 -57.5 161.5t-153.5 63.5q-78 0 -133 -50t-104 -50q-109 0 -164 4q18 106 58 328.5t58 336.5h676v-200h-497q-29 -145 -50 -275h7q35 43 103.5 65.5t133.5 22.5q231 0 328 -211 q49 123 147.5 192.5t227.5 69.5q76 0 138 -17t122.5 -62.5t92.5 -77t97 -103.5q18 -18 27 -28q72 82 102.5 113.5t94 82.5t127 70.5t143.5 19.5q184 0 296.5 -123.5t112.5 -310.5q0 -190 -112.5 -319t-300.5 -129q-238 0 -463 268q-14 -14 -80 -78.5t-87.5 -81t-75.5 -52.5 t-106.5 -47t-117.5 -11q-129 0 -227.5 67.5t-151.5 188.5q-127 -262 -416 -263q-195 0 -320.5 97.5t-125.5 283.5zM1044 463q0 -86 52.5 -139.5t138.5 -53.5q154 0 317 195q-70 72 -98.5 99.5t-97 67.5t-129.5 40q-80 0 -131.5 -63.5t-51.5 -145.5zM1841 463q55 -59 93 -93 t100.5 -67t126.5 -33q88 0 138 56.5t50 144.5q0 86 -52 143.5t-138 57.5q-51 0 -100.5 -23.5t-75 -44t-77 -74t-65.5 -67.5z" />
<glyph unicode="1" horiz-adv-x="1585" d="M0 938q0 129 54.5 256t155.5 235.5t266 176t366 67.5q326 0 534.5 -200.5t208.5 -473.5q0 -350 -177 -578t-458 -228q-92 0 -173 43t-113 104l-82 -324q-10 -39 -26.5 -78.5t-36 -76.5t-39 -70t-39 -61.5t-34 -48t-26.5 -33.5l-12 -17q-6 -8 -16.5 -6t-12.5 13 q0 2 -3 28.5t-6 56t-6 76.5t-2 91t6 97.5t15 98.5q23 96 152 641q-16 33 -26.5 79t-10.5 75l-2 30q0 131 66.5 218.5t160.5 87.5q76 0 118 -50.5t42 -126.5q0 -47 -17.5 -115.5t-46 -157.5t-41.5 -144q-20 -92 36 -160t151 -68q162 0 267 183.5t105 443.5q0 199 -129 325 t-360 126q-258 0 -419 -166t-161 -398q0 -137 78 -231q27 -31 17 -66q-4 -10 -12.5 -47t-12.5 -47q-4 -23 -20.5 -31t-36.5 2q-121 49 -181.5 169t-60.5 280z" />
<glyph unicode="2" d="M30.5 897q67.5 270 257 466t451.5 271.5t532.5 8t466 -257t271.5 -451.5t8.5 -532.5t-257 -466t-451.5 -271.5t-532.5 -8t-466 257t-271.5 451.5t-8.5 532.5zM498 342l147 -37q14 -2 41 -10t39 -10l-47 -187l113 -28l45 184q12 -4 42.5 -11t47.5 -12l-45 -184l112 -27 l45 187q98 -16 175 -15t135.5 41.5t87.5 124.5q66 184 -105 273q123 27 144 164q27 176 -226 258l47 186l-112 27l-45 -181q-16 4 -47 11.5t-43 11.5l45 180l-113 29l-45 -184q-31 4 -72 16l-155 39l-29 -121l80 -18q57 -14 53 -66l-53 -211q4 0 12 -4q-2 2 -6 2t-6 2 l-74 -295q-10 -37 -51 -26l-82 20zM872 389l62 248q2 0 40 -8t57.5 -14.5t57 -18.5t58 -26.5t43 -34t30 -45t-0.5 -56.5q-6 -23 -18.5 -39t-31 -24.5t-38 -14.5t-47 -5t-48 3t-49.5 8.5t-44 9.5t-40 9t-31 8zM963 750l55 225q6 -2 25.5 -6t34 -7.5t37 -10.5t38.5 -13 t36.5 -17.5t31 -22.5t23.5 -27.5t12 -34t-3 -39.5q-6 -27 -21 -44.5t-39 -23.5t-46.5 -9t-54 2t-49 8t-47 11.5t-33.5 8.5z" />
<glyph unicode="3" horiz-adv-x="2312" d="M0 1223h158l219 -744l147 500l-71 244h157l219 -744l220 744h157h436v-74l-223 -385q119 -41 176 -137q61 -102 62 -234q0 -168 -88 -280.5t-230 -112.5q-104 0 -184 68q-80 70 -115 182l123 51q27 -70 72 -111q41 -39 104.5 -38.5t106.5 69.5q45 70 45 172 q0 106 -47 170q-55 70 -170 70h-62v74l211 364h-254l-14 -24l-311 -1047h-15l-225 758l-227 -758h-15zM1675 369l37 -103q31 -68 68 -119q86 -119 192 -137q92 -18 180 37q39 25 72 64q41 41 57 73q8 14 23 41l-23 121q-16 -33 -32.5 -57.5t-24.5 -34.5l-8 -8 q-70 -76 -125 -101q-68 -31 -139 -22q-55 4 -123 49q-74 63 -88 88q-27 37 -66 109zM1731 768q0 172 67 299q33 61 77 98t87 41q72 8 143 -53q37 -31 76 -102l90 178l25 -156l-90 -174q-16 33 -39 61.5t-37 40.5l-16 13q-63 45 -132 30q-49 -10 -97 -61t-70 -121 q-39 -113 -39 -217q-2 -82 10 -129q-25 45 -39 108.5t-14 104.5z" />
<glyph unicode="4" horiz-adv-x="2394" d="M0 772q0 215 156.5 367.5t378.5 152.5q174 0 312 -98t193 -254l136 131l323 -311l895 913v-829l-547 -422l70 -74l-743 -723l-648 629q-219 4 -372.5 155.5t-153.5 362.5zM76 772q0 -184 133 -313t321 -129q68 0 134 18l450 -399l1198 942l2 618l-1184 -1220l-184 299 q41 88 41 184q0 182 -134 312t-322.5 130t-321.5 -130t-133 -312zM174 768q0 143 101.5 244.5t245 101.5t244.5 -100.5t101 -245.5q0 -143 -101 -244.5t-244.5 -101.5t-245 101.5t-101.5 244.5z" />
<glyph unicode="5" horiz-adv-x="1454" d="M33 1268h1431l-135 -1454l-581 -166l-582 166zM166 1391v272h92v-90h82v90h90v-272h-90v90h-82v-90h-92zM299 971l49 -545l2 4h615l-21 -231l-196 -56l-199 58l-12 139h-181l25 -279l367 -104l366 104l51 547h-653l-16 183h686l16 180h-899zM471 1571v92h250v-92h-80 v-180h-90v180h-80zM760 1391v272h96l55 -94l58 94h96v-272h-88v139l-66 -103v3l-61 96v-135h-90zM1112 1391v272h90v-180h127v-92h-217z" />
<glyph unicode="6" horiz-adv-x="1931" d="M0 -66.5q-6 72.5 14 121.5q80 287 189 490q233 442 641 721v28q-346 -145 -664 -522l-82 -106q-4 121 33 235.5t92.5 192t111.5 137t95 88.5l39 27q8 4 21.5 11t56.5 27.5t89 38t112.5 35t131 24.5t143.5 4t151 -24q131 96 263 149.5t199 59.5l68 6q102 10 158.5 -34 t63.5 -112.5t-1 -139t-24 -121.5l-19 -49l-10 10q43 117 42 191.5t-36 115.5t-75 59.5t-74 20.5l-33 4q-8 0 -23.5 -1t-66 -10t-100.5 -25.5t-123.5 -51.5t-141.5 -84q141 -23 252 -86.5t176.5 -144t111.5 -174t63.5 -181.5t26.5 -159.5t7 -114.5l-2 -45h-1141 q-6 -86 21.5 -149.5t69.5 -93.5t84 -46t73 -18l31 -2q8 0 23.5 1t54 11t70.5 28.5t63.5 58.5t44.5 95h598q-33 -121 -96.5 -219t-139.5 -158.5t-159.5 -104.5t-160.5 -64.5t-139.5 -33t-99.5 -14.5h-39q-160 0 -219 12q-123 -96 -259 -150t-212 -60l-74 -7 q-94 0 -158.5 48.5t-85 115t-26.5 139zM155 -55q-1 -49 5 -87t16 -59l8 -18q8 -6 22.5 -16.5t69 -28t117 -16.5t168 34t219.5 103q-16 4 -43.5 11t-103.5 36.5t-141.5 64.5t-136 97.5t-109.5 132.5q-45 -70 -67.5 -137.5t-23.5 -116.5zM733 813h543q2 74 -23.5 129t-65.5 80 t-79 39t-68 16l-28 2q-12 0 -30.5 -2t-68 -16t-86 -39t-66.5 -80t-28 -129z" />
<glyph unicode="7" horiz-adv-x="1843" d="M86 1190q4 35 31 65l245 246q29 25 44 -8l198 -373q16 -33 -10 -63l-90 -90q-25 -25 -29 -64q0 -61 63.5 -157.5t125.5 -163.5l63 -66q29 -29 74 -71t148.5 -110.5t162.5 -68.5q39 0 66 27l106 106q29 29 62 9l358 -211q14 -8 16 -21.5t-8 -23.5l-246 -246 q-31 -27 -65 -31q-272 -37 -703 313q-94 78 -157 142q-20 20 -54 56t-118 141.5t-145.5 206t-106.5 228.5t-31 228z" />
<glyph unicode="8" d="M0 649.5q0 278.5 137 514t372.5 372.5t514.5 137t514.5 -137t372.5 -372.5t137 -514t-137 -514t-372.5 -373t-514.5 -137.5t-514.5 137.5t-372.5 373t-137 514zM0 649.5q0 278.5 137 514t372.5 372.5t514.5 137t514.5 -137t372.5 -372.5t137 -514t-137 -514t-372.5 -373 t-514.5 -137.5t-514.5 137.5t-372.5 373t-137 514zM264 649q0 -133 74 -157q10 -4 35 -9q86 -2 174 82q84 74 119 185q51 158 20 409q-4 25 -4 35q-6 12 0 18q2 6 27 -2q78 -20 159 -59q94 -43 209 -143q92 -80 178 -183q68 -80 164 -213q84 -117 180 -157 q59 -20 97.5 -14.5t60 40.5t30.5 76t9 92q0 98 -24 197q-6 25 -17 57q-29 88 -84 172q-106 162 -277 254t-364 92q-135 0 -256 -45q-164 -57 -288 -182t-181 -291q-2 -10 -8 -28.5t-10 -28.5q-25 -103 -23 -197zM264 649q0 -133 74 -157q10 -4 35 -9q86 -2 174 82 q84 74 119 185q51 158 20 409q-4 25 -4 35q-6 12 0 18q2 6 27 -2q78 -20 159 -59q94 -43 209 -143q92 -80 178 -183q68 -80 164 -213q84 -117 180 -157q59 -20 97.5 -14.5t60 40.5t30.5 76t9 92q0 98 -24 197q-6 25 -17 57q-29 88 -84 172q-106 162 -277 254t-364 92 q-135 0 -256 -45q-164 -57 -288 -182t-181 -291q-2 -10 -8 -28.5t-10 -28.5q-25 -103 -23 -197z" />
<glyph unicode="9" horiz-adv-x="2498" d="M0 1370q-2 10 5 19.5t18 11.5q23 4 63.5 13t56.5 13q0 35 2 100.5t2 100.5q4 25 27 25q29 0 29 -29q-4 -123 -4 -186q23 4 71.5 14t71.5 16q39 6 114.5 20.5t112.5 20.5q823 141 1626 148q12 0 19.5 -9.5t5.5 -21.5q0 -23 -4 -68t-4 -67q86 -6 262 -23q10 0 18.5 -9 t6.5 -19q-45 -281 -139.5 -845t-139.5 -845q102 -16 156 -24q16 -2 21 -16.5t-1 -27t-20 -12.5h-6q-27 4 -80.5 13.5t-79.5 13.5q-2 -25 -10 -64q-4 -18 -21 -22q-2 -2 -8 -2h-8q-608 154 -1229 239q-205 4 -305 5q-113 0 -338 -5v-2q2 -2 2 -4q2 -12 -8.5 -21t-22.5 -9 q-23 0 -24 22q0 10 -3.5 31.5t-5.5 34.5h-26q-16 0 -21.5 14t1.5 27.5t24 13.5h2h14l-12 111q-12 82 -51 398t-73 514.5t-87 391.5zM61 1354q43 -160 89 -412q-6 143 -7 428q-33 -4 -82 -16zM199 1167q2 -395 43 -868q6 -82 22 -223l19 -123q137 -6 393 -26.5t373 -26.5 q725 -41 989 -72q23 328 66.5 932t60.5 842q-958 -8 -1966 -220q-2 -109 0 -215zM387 834q0 -139 87 -227.5t222 -88.5q141 0 224 88h4q-27 -143 -133 -227q-84 -68 -207 -78q-82 -8 -107 -4v-154q72 0 117 4q219 16 350 140q178 168 178 477q0 193 -96 314.5t-270 121.5 q-160 0 -264.5 -108t-104.5 -258zM580 846q0 92 46 150.5t119 58.5h3q88 0 133 -73t43 -185q0 -33 -11 -54q-53 -86 -165 -86q-78 0 -123 53.5t-45 135.5zM762 -131l196 -21l764 -81q287 -61 428 -99l7 37q-113 18 -338 51q-510 72 -1057 113zM1155 834q0 -139 88 -227.5 t221 -88.5q141 0 226 88h2q-27 -143 -131 -227q-86 -68 -209 -78q-82 -8 -107 -4v-154q72 0 117 4q219 16 350 140q178 164 178 477q0 193 -96 314.5t-268 121.5q-160 0 -265.5 -108t-105.5 -258zM1348 846q0 92 47 150.5t118 58.5h3q88 0 133 -73t43 -185q0 -33 -11 -54 q-53 -86 -165 -86q-78 0 -123 53.5t-45 135.5zM2079 -227q57 -8 88 -13q41 246 132 803t140 854q-27 2 -73 6t-84.5 7.5t-73.5 5.5q-12 -174 -55.5 -750.5t-63.5 -892.5q0 -10 -8 -18q-2 0 -2 -2z" />
<glyph unicode=":" horiz-adv-x="1708" d="M0 -369l854 2048l854 -2048h-756v277l348 174l-26 113l-322 -162v137l201 106l-29 117l-172 -92v178h-188v-321l-176 121l-33 -132l209 -143v-373h-764z" />
<glyph unicode=";" horiz-adv-x="2299" d="M-2 106v762q0 27 27 27h360v264q0 29 27 29h200v-1053q0 -29 -24 -29h-590zM221 276h137q27 0 27 29v422h-137q-27 0 -27 -29v-422zM682 106v762q0 27 27 27h200v-760q0 -29 -24 -29h-203zM682 1018v141q0 29 25 29h202v-141q0 -29 -24 -29h-203zM987 106v762q0 27 27 27 h590v-1032q0 -27 -27 -27h-590l2 141q0 29 25 29h360v100h-387zM1212 276h138q25 0 24 29v422h-137q-25 0 -25 -29v-422zM1681 -23q0 29 27 29h360v100h-387v762q0 27 27 27h588v-1032q0 -27 -25 -27h-590v141zM1905 276h137q27 0 26 29v422h-137q-27 0 -26 -29v-422z" />
<glyph unicode="&#x3c;" d="M0 673.5q0 149.5 105.5 256t254.5 106.5q129 0 234 -88l733 367q0 4 -1 11t-1 11q0 150 106.5 255.5t256 105.5t255 -105.5t105.5 -255t-105.5 -256t-254.5 -106.5q-131 0 -234 86l-733 -367q0 -2 1 -9t1 -11q0 -2 -1 -10.5t-1 -10.5l733 -366q102 86 234 86 q150 0 255 -105.5t105 -255t-105.5 -256t-254.5 -106.5q-152 0 -257.5 105.5t-105.5 256.5q0 2 1 9.5t1 11.5l-733 366q-102 -86 -234 -86q-150 0 -255 105.5t-105 255z" />
<glyph unicode="=" d="M0 653q0 279 137 514.5t372.5 372.5t514.5 137t514.5 -137t372.5 -372.5t137 -514.5q0 -207 -78 -393t-219 -328q-123 150 -298 234t-374 84q-219 0 -407.5 -101.5t-309.5 -275.5q-170 145 -266 348t-96 432zM336 948q0 -35 24.5 -60.5t61.5 -25.5q12 0 18 2 q295 119 610.5 119t610.5 -119q2 0 8 -1t10 -1q35 0 60.5 25.5t25.5 60.5q0 51 -47 76q-326 129 -667 129q-348 0 -674 -131q-41 -27 -41 -74zM430 643l12 -33q16 -27 47 -26q6 0 19 4q260 113 543 112q285 0 546 -114q8 -4 15 -4q31 0 47 26l10 35q0 27 -20 43 q-283 127 -598 127q-313 0 -600 -127q-21 -20 -21 -43zM528 348q20 -51 64 -33q221 104 459 105q229 0 448 -98q49 -27 72 24q10 27 0 47.5t-29 30.5q-217 109 -491 108q-262 0 -500 -112q-39 -21 -23 -72zM653 -301q76 98 187.5 155.5t238.5 57.5q233 0 396 -176 q-213 -106 -451 -107q-193 0 -371 70z" />
<glyph unicode="&#x3e;" horiz-adv-x="2467" d="M0 662q0 127 101.5 217t230.5 90q127 0 215 -74h10q274 168 686 168l10 8l144 547l495 -74q0 -2 4 -2q2 0 0 2q4 2 23.5 32t30.5 38q70 66 168 65q100 0 168.5 -66.5t68.5 -166.5t-68.5 -172t-168.5 -72q-117 0 -178.5 79t-61.5 198q-4 -2 -199.5 26.5t-224.5 34.5h-6 q-4 -4 -34 -109.5t-61.5 -223t-35.5 -130.5v-6l10 -8q147 0 302 -42t267 -118l7 -4q2 2 4 2t4 2q51 37 72.5 51.5t60.5 26.5t88 12q139 0 237.5 -98t98.5 -240q0 -96 -54.5 -176t-142.5 -123q0 -399 -532 -620q-84 -37 -115 -47q-66 -20 -186.5 -39t-190.5 -19 q-246 0 -473 72q-4 4 -147 78q-195 104 -312.5 237.5t-117.5 319.5h-11q-68 35 -120 102l-19 25q-31 55 -39 93t-8 104zM70 637q0 -135 116 -229q10 121 98.5 237.5t207.5 206.5q-76 53 -168 53q-100 0 -177 -83t-77 -185zM279 338q0 -111 63.5 -213t162.5 -175t209.5 -122 t215.5 -70q154 -29 299 -28q252 0 477 80.5t379 250.5h-6q61 78 87.5 140.5t26.5 148.5q0 111 -54 211.5t-142 172t-188.5 123.5t-204.5 79q-174 47 -371 47q-152 0 -310.5 -37t-307 -110.5t-242.5 -203.5t-94 -294zM659 487q0 76 46.5 122t122 46t127 -46t51.5 -122 q0 -74 -52.5 -123t-126 -49t-121 49t-47.5 123zM733 152h90q51 -92 163 -140.5t228 -48.5q119 0 225.5 48t172.5 141h84q-51 -127 -190.5 -197t-291.5 -70q-147 0 -289.5 71t-191.5 196zM1421 487q0 78 47.5 123t124.5 45q70 0 119 -49t49 -118.5t-49 -121t-119 -51.5 q-76 0 -124 48t-48 124zM1944 1446q0 -72 51 -123t123 -51q74 0 121 50t47 124q0 70 -49.5 119t-119 49t-121.5 -50t-52 -118zM1972 870q113 -74 195 -189.5t114 -244.5q121 88 121 197q0 119 -72.5 205t-189.5 86q-92 -1 -168 -54z" />
<glyph unicode="?" horiz-adv-x="1570" d="M4 55q0 45 25 131q47 178 177 323.5t302 211.5q-162 129 -162 330q0 176 128 299t304 123t304 -123t128 -299q0 -199 -157 -328q217 -78 362.5 -260t145.5 -406q0 -188 -150 -217q-6 -20 -27 -53q-12 -33 -48 -58.5t-99 -42t-101 -24.5t-116 -18.5t-80 -10.5 q-4 0 -14.5 -2t-14.5 -2h-245q-104 0 -264 34t-183 91q-35 35 -51 86q-51 10 -86 43q-78 31 -78 172z" />
<glyph unicode="@" horiz-adv-x="1581" d="M8 631v211q0 178 176 409.5t351 327.5q160 90 383 90q90 0 181 -20.5t175 -63.5t136 -118.5t52 -174.5q0 -27 -4 -50t-14 -49t-18.5 -43t-29 -43t-28.5 -38t-35.5 -40t-34 -35t-38 -35.5t-35.5 -32.5h108h236q4 -147 4 -221q0 -518 -86 -668q-72 -125 -194 -221.5 t-261 -143.5q-80 -31 -114 -30h-173q-6 0 -98 34q-246 109 -246 357q0 8 1 22.5t1 20.5q-274 141 -368 440q-27 86 -27 115zM307 897q0 -82 19.5 -166t58.5 -161.5t107.5 -127t156.5 -49.5q25 0 81 31t101 31q29 0 105 -21.5t76 -40.5q0 -43 -54 -43q-266 0 -266 -155 q0 -119 86 -179.5t211 -60.5q96 0 188.5 34t149.5 101q86 102 86 336q0 39 -2 113.5t-2 111.5q0 98 10 164h-395q-2 -16 -2 -47q0 -23 2 -70t2 -71q0 -72 -16 -115q-10 -2 -35 -2q-98 0 -164 66.5t-90.5 152.5t-24.5 182q0 92 23.5 186.5t88 172.5t159.5 78q20 0 43 -7 q-8 -45 -9 -69q0 -72 39 -119t109 -47t117 47t47 119q0 84 -63.5 143.5t-143.5 82t-162 22.5q-276 0 -456.5 -174.5t-180.5 -448.5z" />
<glyph unicode="A" horiz-adv-x="1761" d="M2 739q-3 -36 -3 -73q0 -139 42 -295q53 -199 170 -377q182 -279 352 -281q61 0 159.5 43t195.5 43h8q94 0 186 -42q96 -44 156 -44q100 2 186 84t174 213q63 98 133 248q-102 39 -173.5 117t-98.5 174q-20 72 -20 143q0 25 2 50q9 97 68.5 186.5t160.5 144.5 q-78 98 -182.5 153.5t-210.5 55.5q-98 0 -216 -44t-176 -44q-61 0 -185 44t-208 44q-119 0 -234.5 -68.5t-195.5 -189.5q-76 -115 -90 -285zM852 1268q-6 31 -6 62q0 134 108 263q55 68 142.5 115t169.5 53q5 -31 4 -60q0 -141 -103 -271q-55 -72 -142 -118 q-83 -44 -166 -44h-7z" />
<glyph unicode="B" horiz-adv-x="2039" d="M0 276v756q0 266 190.5 456.5t456.5 190.5h453q133 -16 283.5 -116.5t213.5 -235.5q2 -4 10.5 -19.5t10.5 -20.5t7 -19.5t8 -25.5t7.5 -31.5t8.5 -45t8 -59.5q18 -143 53 -174q29 -27 145.5 -30t133.5 -15l28 -23l17 -35l6 -28l-4 -525q-2 -266 -190.5 -455.5 t-454.5 -189.5h-744q-266 0 -456.5 189.5t-190.5 455.5zM530 287q0 -51 37 -87t88 -36h729q51 0 87 36t36 87t-35.5 87t-87.5 36h-729q-51 0 -88 -36t-37 -87zM530 1028q0 -51 37 -88t88 -37h359q51 0 87 37t36 88t-36 87t-87 36h-359q-51 0 -88 -36t-37 -87z" />
<glyph unicode="C" d="M0 655q0 201 78 392q76 184 225 333q295 299 719 299q428 0 731 -299q145 -145 219 -331q76 -182 76 -394q0 -213 -74 -393q-74 -182 -219 -325q-152 -147 -340 -228q-193 -78 -393 -78q-199 0 -389 78q-182 76 -331.5 225.5t-225.5 331.5t-76 389zM184 655 q0 -162 66 -317q63 -154 186 -272q123 -123 273 -183q147 -63 317 -63q166 0 320 63q152 63 278 185q240 233 240 587q0 174 -64 322q-61 156 -180 270q-246 248 -594 248q-350 0 -590 -246q-121 -121 -186 -274q-66 -156 -66 -320zM440 655q0 145 86 232q84 86 215 86 q188 0 273 -148l-137 -71q-23 49 -56 63q-31 18 -59 19q-137 0 -137 -181q0 -80 34 -131q37 -49 103 -49q90 0 127 86l127 -63q-43 -74 -113 -117q-72 -43 -158 -43q-137 0 -221 83.5t-84 233.5zM1032 655q0 145 86 231.5t215 86.5q190 0 271 -148l-136 -71q-23 47 -53 63 q-35 18 -61 19q-137 0 -137 -181q0 -84 34 -131q35 -49 103 -49q88 0 125 86l129 -63q-45 -76 -115 -117q-72 -43 -154 -43q-141 0 -223 84q-84 83 -84 233z" />
<glyph unicode="D" d="M0 655.5q0 278.5 137 514t372.5 372.5t514.5 137t514.5 -137t372.5 -372.5t137 -514t-137 -514t-372.5 -373t-514.5 -137.5t-514.5 137.5t-372.5 373t-137 514zM170 655q0 -319 215 -563q98 193 311 367t416 219q-31 72 -59 129q-352 -113 -762 -113q-80 0 -119 2 q0 -8 -1 -20.5t-1 -20.5zM197 866q45 -4 133 -4q342 0 649 92q-156 276 -342 461q-162 -82 -277.5 -227.5t-162.5 -321.5zM502 -18q231 -180 522 -181q152 0 301 58q-41 350 -160 678q-188 -41 -379.5 -207t-283.5 -348zM815 1481q180 -186 334 -465q279 117 420 297 q-238 197 -545 196q-105 1 -209 -28zM1223 870q31 -66 69 -165q152 14 330 14q127 0 252 -6q-16 279 -201 495q-133 -199 -450 -338zM1343 561q104 -303 142 -622q162 104 264 268t123 354q-150 10 -273 10q-113 0 -256 -10z" />
<glyph unicode="E" horiz-adv-x="1714" d="M0 1047q0 82 31 118q18 29 53 43q37 18 96 19h193q31 0 53.5 22.5t22.5 53.5q0 43 -3 90v120q0 51 25 91q31 43 102 63q22 12 108 12q18 0 40 -1q121 -3 201 -33q78 -33 92 -127q53 2 99 1q108 0 181 -10q199 -25 265 -49q86 -27 108 -137q20 -113 37 -430q9 -181 9 -301 q0 -90 -5 -146q-33 -352 -88 -520q-29 -86 -57.5 -140t-56 -87t-75 -47t-87 -17.5t-119.5 -3.5q-221 0 -298 52.5t-77 218.5q0 92 19.5 146t67.5 76.5t95 27.5q31 3 83 2h56q8 0 11.5 -3.5t1.5 -10.5t-5 -15t-6.5 -22.5t-3.5 -26.5q0 -18 4.5 -38t2.5 -25t-15 -5h-19h-22 q-6 0 -20.5 -1t-20.5 -3t-17 -5t-16.5 -8t-11.5 -12.5t-8 -18.5t-2 -23q0 -29 8 -47.5t15.5 -29t37 -14.5t44.5 -4h67q117 0 149.5 28t32.5 130q0 156 -37.5 210t-115.5 64q-180 18 -244 41q-109 41 -109 244q0 4 -5 4t-5 -4q0 -137 -37 -246l-16 -49q-25 -51 -77 -53h-10 q-49 0 -112 16q-260 33 -405 97q-49 23 -76 82q-35 72 -73 263t-48 273q-8 68 -8 105zM12 1290v4l375 369q0 2 2 2l-6 -12q-23 -41 -23 -99q0 -45 2 -211q0 -20 -20 -20h-190q-70 0 -121 -23q-11 -6 -19 -10zM1176 696q43 6 94 6q92 -2 166 -36q0 174 -125 178h-6 q-61 0 -91 -41q-30 -44 -38 -107z" />
<glyph unicode="F" horiz-adv-x="2156" d="M0 532q0 213 149.5 362.5t362.5 149.5t362.5 -149.5t149.5 -362.5t-149.5 -362.5t-362.5 -149.5t-362.5 149.5t-149.5 362.5zM1130 532q0 213 150 362.5t362.5 149.5t362 -149.5t149.5 -362.5t-149.5 -362.5t-362 -149.5t-362.5 149.5t-150 362.5z" />
<glyph unicode="G" horiz-adv-x="1323" d="M0 -2q0 178 182.5 317.5t440.5 139.5h110q-86 82 -86 176q0 59 33 119q-20 -2 -59 -2q-213 0 -348.5 133t-135.5 327q0 186 168 325.5t383 139.5h635l-141 -102h-201q96 -37 150.5 -139.5t54.5 -227.5q0 -190 -180 -332q-76 -59 -98.5 -94t-22.5 -86q0 -39 55 -98 t111 -100q125 -88 173 -180.5t48 -231.5q0 -184 -168 -320.5t-455 -136.5q-272 0 -460.5 102.5t-188.5 270.5zM229 66q0 -141 120 -240.5t298 -99.5q244 0 353.5 90t109.5 239q0 39 -8 66q-6 23 -14.5 42t-24.5 38.5t-28.5 33t-40 34t-42 30.5t-51.5 35.5t-53 36.5 q-80 25 -158 24h-7q-180 0 -315 -96q-139 -98 -139 -233zM365 1210q23 -162 124 -278.5t224 -118.5h8q115 0 184 107q56 86 56 203q0 33 -5 69q-20 162 -121.5 274.5t-224.5 116.5h-9q-117 0 -185 -104q-56 -84 -56 -200q0 -34 5 -69z" />
<glyph unicode="H" horiz-adv-x="1798" d="M0 397q0 -301 207 -526t532 -225q324 0 531 225q207 221 207 526q0 160 -56 299q-82 -51 -174 -69q45 -104 45 -234q0 -156 -73 -291q-76 -135 -203 -206q-127 -74 -277 -74q-154 0 -278 74q-129 76 -201 206q-76 133 -76 291q0 240 164 414q164 170 391 170 q104 0 201 -39q8 80 55 176q-117 43 -256 43q-328 0 -544 -242q-195 -219 -195 -518zM573 -121q44 -9 95 -8h20q152 96 255.5 223t148.5 254t63 259q12 85 12 162q0 43 -4 83q-10 113 -25.5 202t-31.5 140l-19 51q-45 139 -89 243.5t-64 137.5l-23 35q80 -41 128 -98.5 t59 -107.5q9 -42 8 -80v-15q-2 -45 -12 -72l-11 -26q9 -121 10 -233q0 -616 -278 -955q-121 -144 -242 -195zM1137 1185q8 81 47 130l37 51q57 63 221 104q74 16 136 71.5t89 105.5l27 47q82 -115 99 -263q8 -65 8 -119q0 -69 -13 -120l-23 -92q-25 -68 -68.5 -123 t-74.5 -76l-31 -22q-69 -41 -137 -42l-223 109q119 66 207 133.5t130 117.5t67.5 91t29.5 64l4 20q-37 -82 -99.5 -149.5t-127 -106.5t-123.5 -66.5t-96 -37.5l-37 -11q-50 90 -50 163q0 11 1 21z" />
<glyph unicode="I" horiz-adv-x="997" d="M-4 -303q209 12 266 55q61 43 62 219v1364q0 168 -62 217q-57 47 -266 58v57h1001v-57q-209 -8 -268 -58q-61 -49 -61 -217v-1364q0 -176 61.5 -219t267.5 -55v-57h-1001v57z" />
<glyph unicode="J" horiz-adv-x="2527" d="M0 297q0 330 377 711q240 238 482 332q116 45 200 46q92 0 147 -55q54 -54 54 -148q0 -64 -25 -147q-12 -43 25 -39l34 11q197 82 348.5 82t217.5 -86q31 -44 31 -107q0 -64 -33 -145q-14 -20 -5 -35t16 -19t29 -10q127 -39 217.5 -127t90.5 -219q0 -121 -84 -247 t-228.5 -230.5t-364.5 -172t-468 -67.5q-268 0 -507 79t-396.5 235.5t-157.5 357.5zM256 199q20 -207 256 -331q189 -99 429 -99q60 0 122 6q313 31 521 198q189 153 189 338q0 18 -1 37q-20 205 -258 329q-190 99 -428 99q-59 0 -121 -6q-207 -20 -375 -104t-258 -208 q-78 -107 -78 -222q0 -18 2 -37zM584 72q-26 60 -27 120q0 71 37 144q63 131 212 196q93 41 187 42q56 0 111 -15q156 -41 223 -168q35 -65 35 -135q0 -65 -31 -133q-63 -145 -223 -213q-91 -38 -181 -39q-68 0 -136 23q-150 47 -207 178zM698 110q12 -50 62 -71 q27 -12 56 -12q24 0 49 8q56 18 87 67q20 32 20 66q0 15 -4 31q-13 49 -63 69q-26 11 -53 11q-25 0 -51 -9q-55 -18 -84 -65q-22 -32 -22 -67q-1 -14 3 -28zM988 272q5 -18 26 -26q9 -4 19 -4t21 4q22 8 32 26.5t3.5 37t-24.5 26.5q-18 6 -39.5 -1t-32.5 -26q-7 -12 -7 -24 q0 -7 2 -13zM1645 1544q-2 11 -3 21q0 27 16 51q22 33 60 43q70 15 140 15q103 0 204 -33q170 -54 293 -189t160 -313q15 -71 15 -140q0 -103 -33 -200v-2q-12 -37 -49 -56q-22 -11 -44 -11q-15 0 -30 5q-39 12 -57 48q-10 21 -10 43q0 15 5 30v2q23 69 24 143q0 48 -10 99 q-26 127 -114 223t-209 134q-71 22 -143 22q-50 0 -101 -11q-11 -2 -21 -2q-28 0 -52 17q-33 22 -41 61zM1726 1223q-3 10 -2 20q0 22 13 42q18 30 53 38q39 8 76 8q137 0 235 -108q59 -68 77 -154q7 -34 7 -67q0 -51 -16 -99q-10 -33 -41 -48q-18 -9 -38 -9q-13 0 -26 4 q-33 10 -48 41q-9 18 -9 37q0 13 4 26q9 28 9 54q0 57 -44 102q-46 54 -111 54q-19 0 -40 -5q-10 -2 -19 -2q-22 0 -43 13q-29 20 -37 53z" />
<glyph unicode="K" horiz-adv-x="2224" d="M0 -373v2048h526v-760h469q174 252 527 760h585l-671 -977q0 -25 197.5 -293t394.5 -524l196 -254h-702q-96 135 -293 408.5t-293 410.5h-410v-819h-526z" />
<glyph unicode="L" horiz-adv-x="2129" d="M-10 1431.5q0 102.5 71.5 169t186 66.5t183.5 -66q71 -69 71 -175q0 -99 -70 -164q-72 -68 -188 -68h-2q-113 0 -182.5 67.5t-69.5 170zM16 -360v1368h455v-1368h-455zM723 -360h455v763q0 72 16 111q29 70 87 118t146 48q229 0 230 -309v-731h454v784q0 303 -143 459.5 t-379 156.5q-264 0 -411 -227v-4h-2l2 4v195h-455q3 -66 3 -408t-3 -960z" />
<glyph unicode="M" horiz-adv-x="2760" d="M0 565q0 72 4 215q49 16 98 17h37q35 -47 82 -143.5t64 -125.5q4 14 16 75t20.5 87.5t22.5 74.5t31.5 83t40.5 63q57 -9 94 -9q12 0 22 1q49 -111 93.5 -334t79.5 -317q-2 0 -9 2l-6 2q-18 0 -53 -11.5t-45 -13.5q-82 207 -127 416q-31 -53 -31 -182t-22 -180l-11 4 q-16 0 -44.5 -4t-43.5 -4h-37q-55 98 -116 182q-6 -12 -6 -30.5t5 -53.5t5 -51l-2 -25q-61 -31 -107 -31q-14 0 -20 2q-35 115 -35 291zM727 410q0 55 16.5 117.5t57.5 116.5t96 54q20 0 57 -10t47 -12q18 -82 19 -166q0 -57 -12 -113q-25 8 -78 9.5t-76 7.5 q-10 -41 -10 -76q0 -43 20.5 -76t61.5 -33q18 0 53 10.5t53 10.5q35 0 47 -29q-86 -33 -168 -33q-94 0 -139 62t-45 160zM846 467l16 2q6 0 16.5 -4t14.5 -4l14 6q4 29 4 45q0 37 -10 82q-45 -51 -55 -127zM1071 356q0 252 160 373q66 -6 123 -47q-2 -35 -17 -138 q-11 -80 -11 -133q0 -15 1 -28q-41 -4 -59 -4q-16 0 -88 10q-10 -25 -11 -47q0 -45 35 -77t80 -32q53 0 84 48q37 -12 43 -35q-45 -43 -129 -43q-76 0 -143.5 40.5t-67.5 112.5zM1186 444q8 -12 28 -12h19q18 39 18 100q0 27 -12 80q-6 -16 -20.5 -51t-23.5 -62.5t-9 -54.5z M1389 483q-4 53 47 54q12 0 36.5 -2.5t34.5 -2.5q6 31 6 64q0 59 -15 177t-15 177q0 88 20 148q10 -6 54.5 -11.5t82.5 -50.5q-12 -53 -12 -137q0 -41 8 -166q5 -71 5 -125q0 -40 -3 -69h13q14 0 18 12t4 25.5t8 13.5q16 0 38 -17.5t46.5 -44t30.5 -32.5 q-18 -14 -82.5 -18.5t-79.5 -8.5q-2 -25 -2 -74q0 -33 1 -67.5t3 -77.5t2 -68q-16 -2 -46.5 -4t-45.5 -4v21q0 10 1 21q0 46 -7 117q-8 89 -8 124q-12 4 -65 7t-78 19zM1829 500q0 41 4 118q23 -2 41 -10t43 -21.5t37 -19.5l-2 -55q0 -121 18 -238q39 14 63.5 48t34 83.5 t12.5 89.5t3 89v22q6 -2 18 -2q41 -4 101 -51q0 -6 1 -19.5t1 -19.5q0 -31 -8.5 -61.5t-15.5 -45t-29.5 -51.5t-28.5 -47q-31 -25 -70 -86q-43 -14 -78 -14q-145 0 -145 291zM2238 279q14 12 50 20q29 254 77 356q68 137 191 138q70 0 156 -50q35 -76 34 -153 q0 -135 -95 -243.5t-230 -139.5q-4 -66 -4 -98q0 -150 37 -240q-16 4 -76 4q-31 0 -45 4q-18 43 -34 197t-61 205zM2423 330q80 20 134 98t54 162q0 61 -31 115q-47 -43 -80.5 -114t-47 -123t-29.5 -138z" />
<glyph unicode="N" horiz-adv-x="2037" d="M0 290.5q0 57.5 41 98.5t98.5 41t97 -41t39.5 -98.5t-39.5 -98t-97 -40.5t-98.5 40.5t-41 98zM0 1018q0 57 41 98t98.5 41t97 -41t39.5 -98t-39.5 -98t-97 -41t-98.5 41t-41 98zM399 458.5q0 57.5 40 98.5t97.5 41t98.5 -41t41 -98.5t-41 -97t-98.5 -39.5t-97.5 39.5 t-40 97zM399 860.5q0 57.5 40 98t97.5 40.5t98.5 -40.5t41 -98t-41 -97.5t-98.5 -40t-97.5 40t-40 97.5zM518 -229.5q0 57.5 41 97.5t98.5 40t98.5 -40t41 -97.5t-41 -98.5t-99 -41q-59 0 -99 41t-40 98.5zM518 1540q0 57 40 98t99 41q57 0 98.5 -41t41.5 -98t-41 -97 t-98.5 -40t-98.5 40t-41 97zM676 182q0 57 41 98.5t98 41.5t97 -41t40 -98.5t-40 -98.5t-97 -41t-98 40t-41 99zM676 1138.5q0 57.5 41 98.5t98 41t97 -41t40 -98.5t-40 -98.5t-97 -41t-98 41t-41 98.5zM1073 182.5q0 57.5 41 98.5t98.5 41t98.5 -41t41 -98.5t-41 -98.5 t-98.5 -41t-98.5 41t-41 98.5zM1073 1138.5q0 57.5 41 98.5t98.5 41t98.5 -41t41 -98.5t-41 -98.5t-98.5 -41t-98.5 41t-41 98.5zM1233 1540q0 57 41 98t98.5 41t97 -41t39.5 -98t-39.5 -97t-97 -40t-98.5 40t-41 97zM1249 -229.5q0 57.5 41 97.5t98.5 40t97.5 -40t40 -97.5 t-40 -98.5t-97.5 -41t-98.5 41t-41 98.5zM1352 458.5q0 57.5 40 98.5t97 41q59 0 99 -41t40 -98.5t-41 -97t-98 -39.5t-97 39.5t-40 97zM1352 860.5q0 57.5 40 98t97 40.5q59 0 99 -40.5t40 -98t-41 -97.5t-98 -40t-97 40t-40 97.5zM1761 290.5q0 57.5 40 98.5t97 41 q59 0 99.5 -41t40.5 -98.5t-41 -98t-98.5 -40.5t-97.5 40.5t-40 98zM1761 1018q0 57 40 98t97.5 41t98.5 -41t41 -98t-41 -98t-98.5 -41t-97.5 41t-40 98z" />
<glyph unicode="O" horiz-adv-x="1744" d="M3 588q-3 38 -3 82q0 69 7 150q11 134 50 251q4 14 13.5 38t44.5 90.5t76.5 126.5t111.5 132t148.5 121t190.5 79q83 22 172 22q31 0 63 -3q219 0 391 -90t273 -237.5t152.5 -317.5t51.5 -346q0 -571 -328 -870q-113 -102 -248 -139t-321 -44q-11 -1 -22 0q-79 0 -170 25 q-103 29 -215.5 90.5t-211 180t-153.5 278.5q-6 18 -16.5 51t-30 132.5t-26.5 197.5zM460 387q7 -113 15 -163t14 -64q43 -348 265 -432q52 -19 95 -19h15q111 2 187.5 46t122 135.5t69 206t35.5 284.5q5 166 5 302q0 333 -32 491q-16 76 -31.5 127t-46 112.5t-67.5 98 t-97.5 62t-138.5 25.5q-20 3 -38 3q-62 0 -116 -30q-71 -40 -110 -104.5t-66.5 -130t-35.5 -112.5l-10 -49q-29 -211 -31 -525q-6 -89 -6 -165q0 -53 3 -99z" />
<glyph unicode="P" horiz-adv-x="2148" d="M0 424q20 285 344 354q25 182 87.5 393t146.5 299q98 100 245.5 154.5t298.5 54.5q176 0 336 -79.5t240 -225.5q39 -74 85 -267.5t62 -315.5q31 -12 70 -13q61 0 61 60q0 23 -12 68.5t-10 72.5v8h2q55 0 124 -104q71 -106 70 -166q0 -41 -19.5 -73t-37.5 -49t-68.5 -35.5 t-65.5 -23t-75 -16.5q-10 -2 -16 -4q1 -27 1 -52q0 -355 -159 -519l51 -51q8 -4 51 -24t73 -38t38 -37q-133 -104 -270 -104q-70 0 -154 35q-180 -76 -369 -76q-242 0 -479 125q-74 -16 -112 -39q-14 -8 -54.5 -37t-75 -48.5t-57.5 -19.5q-6 37 -6 76q0 162 109 258 q-123 203 -127 527l-15 2h-6q-62 0 -154 -36q-97 -38 -133 -38q-8 0 -20 4zM475 233q0 -27 14 -55q55 -197 183 -282q88 -59 217 -95.5t239 -36.5q135 0 298 57.5t245 147.5q139 150 139 527q0 463 -188 776q-25 41 -36 56t-38.5 31.5t-66.5 16.5q-102 0 -219 -125 q-156 96 -287 97q-121 0 -214 -88.5t-145.5 -214t-86 -288.5t-44 -289t-10.5 -235zM846 1067q0 45 31.5 77t74.5 32q45 0 77 -32t32 -77t-32 -75.5t-77 -30.5q-43 0 -74.5 30.5t-31.5 75.5zM961 1104q0 -25 24 -25q10 0 17.5 7.5t7.5 17.5t-7.5 18t-17.5 8q-24 1 -24 -26z M1153 981l4 4l-2 -6zM1163 991l107 107l104 -107q-45 -14 -102 -14q-60 0 -109 14zM1167 946q55 -10 103 -10q45 0 100 10l-100 -100zM1382 979v6l2 -4zM1438 1067q0 45 31.5 77t76.5 32t77 -32t32 -77t-32 -75.5t-77 -30.5t-76.5 30.5t-31.5 75.5zM1552 1104 q0 -10 8.5 -17.5t16.5 -7.5q10 0 18.5 7.5t8.5 17.5q0 27 -27 26q-10 0 -17.5 -8t-7.5 -18z" />
<glyph unicode="Q" horiz-adv-x="1779" d="M6 -334v1960q248 43 608 43q287 0 482.5 -49t339.5 -158q338 -256 338 -757q0 -532 -330 -809q-303 -258 -924 -258q-293 -1 -514 28zM457 -2q39 -8 157 -8h8q314 0 493 174q181 176 181 524q0 315 -166.5 475t-467.5 160q-135 0 -205 -18v-1307z" />
<glyph unicode="R" d="M0 -94.5q0 112.5 80 192.5t192.5 80t192.5 -80t80 -192q0 -115 -80 -194t-192.5 -79t-192.5 80t-80 192.5zM0 592v391q367 0 678 -181t492.5 -492.5t181.5 -678.5h-394q0 397 -280 678q-283 283 -678 283zM0 1286v393q416 0 795 -162.5t653 -437t437 -653.5t163 -795 h-393q0 336 -131 643.5t-353.5 528.5t-528.5 352t-642 131z" />
<glyph unicode="S" horiz-adv-x="2019" d="M0 1120q0 231 164 395t395 164q160 0 297 -86q74 14 164 15q399 0 682 -283t283 -680q0 -100 -23 -207q57 -121 57 -248q0 -231 -163.5 -395t-395.5 -164q-139 0 -264 66q-92 -16 -176 -16q-397 0 -680 282.5t-283 681.5q0 96 19 193q-76 132 -76 282zM453 371 q0 -84 61 -174q145 -213 504 -213q102 0 197.5 22.5t179.5 69.5t135 130t51 193q0 119 -60.5 201t-150.5 119t-195.5 66.5t-195.5 47t-150.5 53.5t-60.5 91q0 68 75 100.5t152 32.5q82 0 135.5 -25.5t78 -61.5t43 -72t50 -61.5t80.5 -25.5q55 0 97.5 39t42.5 94.5t-31 110.5 q-61 113 -194.5 164t-282.5 51q-94 0 -182.5 -18.5t-170 -59.5t-132 -115.5t-50.5 -177.5q0 -135 82 -218t199 -116.5t234.5 -58t199.5 -69t82 -119.5q0 -59 -47 -100.5t-103.5 -55.5t-115.5 -14q-78 0 -132.5 21.5t-79 55t-46 71.5t-37 72t-46 55.5t-75.5 21.5 q-57 0 -99 -35t-42 -92z" />
<glyph unicode="T" horiz-adv-x="2621" d="M14 285q193 -182 467 -183q293 0 492 209q-14 -2 -28 -2l-95 22q-61 28 -62 87q0 72 103 112q-21 -2 -41 -2q-77 0 -145 31q-86 39 -132 127q59 63 179 70q-252 59 -289 258q86 21 130 20h7l21 -2q-96 51 -161 131q-61 75 -61 163v11v21q410 -152 664 -291 q76 -43 194 -158q39 100 72 175t83 167t113.5 164t137.5 119q-4 -37 -39 -78q86 80 201 96q-8 -61 -135 -104q16 6 64 24.5t85 28.5t66 10q39 0 39 -26q0 -20 -44.5 -41t-107.5 -39.5t-72 -22.5q25 2 49 3q175 0 312 -132q156 -150 200 -358q41 -14 91 -14q135 0 213 47 q-59 -147 -281 -168q90 -35 213 -35q39 0 80 6q-109 -117 -309 -117q-63 -258 -263 -454.5t-454 -291.5t-522 -95q-313 0 -583 132t-452 380z" />
<glyph unicode="U" horiz-adv-x="1759" d="M-31 211q0 111 13 332q8 109 77.5 177t178.5 75q205 10 616.5 10t615.5 -10q109 -6 178.5 -75t77.5 -177q10 -184 10.5 -332t-10.5 -332q-8 -109 -77.5 -177.5t-178.5 -74.5q-205 -10 -616.5 -10t-615.5 10q-109 6 -178.5 75t-77.5 177q-13 221 -13 332zM106 500h125 v-668h121v668h125v112h-371v-112zM240 1735h122l78 -312h9l73 312h123l-94 -303q-47 -150 -47 -154v-324h-121v310q-4 29 -11 52t-18.5 54t-17.5 51zM477 -78q0 -98 74 -98q66 0 125 72v-64h106v576h-106v-439q-43 -43 -64 -43q-29 0 -28 39v443h-107v-486zM639 1100v299 q0 70 45 107.5t115 37.5q68 0 109.5 -41t41.5 -108v-297q0 -74 -41 -116t-114 -42q-72 0 -114 44t-42 116zM750 1085q0 -47 45 -47q47 0 47 52v313q0 18 -14.5 30.5t-33 12.5t-31.5 -11.5t-13 -29.5v-320zM887 -168h108v43q41 -51 103 -51q96 0 96 127v319q0 145 -104 146 q-51 0 -95 -56v252h-108v-780zM995 -59v360q23 23 45 23q45 0 45 -58v-303q0 -49 -38 -49q-29 0 -52 27zM1042 1044v486h107v-440q0 -39 29 -39q27 0 63 43v436h107v-576h-107v64q-59 -72 -125 -72q-74 0 -74 98zM1276 -6q0 -78 39 -128t117 -50q160 0 159 178v43h-110 q0 -4 1 -27.5t0 -34t-5 -28t-14.5 -24.5t-28.5 -7q-47 0 -48 82v108h205v148q0 78 -37.5 123t-115.5 45q-74 0 -118 -47t-44 -121v-260zM1386 197v61q0 63 47.5 63.5t47.5 -63.5v-61h-95z" />
<glyph unicode="V" horiz-adv-x="2347" d="M0 1122q113 133 225.5 237.5t195.5 159t148.5 88t98.5 44.5l34 8q25 5 49 4q39 0 71 -12q52 -20 87 -70.5t60.5 -113t44 -147.5t31 -159t27.5 -163t30 -144q66 -256 105.5 -363.5t84.5 -107.5q49 0 136.5 113.5t191.5 310.5q53 98 53 185q0 24 -4 47q-18 108 -103 135 q-23 7 -50 7q-72 0 -170 -53q45 266 274 428q174 123 357 123q24 0 48 -2q209 -16 285 -184q36 -78 37 -180q0 -58 -12 -125q-37 -209 -142.5 -426t-231.5 -384t-271.5 -317.5t-253 -239.5t-185.5 -140q-86 -49 -160.5 -49.5t-142 42.5t-115 98.5t-77.5 116.5 q-37 78 -200 611.5t-198 574.5q-2 4 -8 8t-27.5 9.5t-49 0t-74.5 -29t-103 -66.5z" />
<glyph unicode="W" horiz-adv-x="2525" d="M0 -150l215 760q158 88 416 92q102 0 213 -20q207 -41 295 -125l-213 -758q-74 57 -163 93t-140 42l-54 9q-70 6 -133 6q-33 0 -87 -3t-171 -28t-178 -68zM258 827l215 760q160 88 416 92q104 0 213 -20q207 -41 295 -125l-213 -760q-74 57 -163 93t-140 42l-54 9 q-70 6 -131 6q-33 0 -87 -3t-172 -27t-179 -67zM1141 -223l213 760q76 -57 165 -93t140 -43l51 -8q72 -6 133 -6q33 0 87.5 3t172 26.5t176.5 66.5l-213 -759q-160 -88 -415 -93q-104 0 -213 21q-207 41 -297 125zM1386 750l213 757q76 -57 165 -93t141 -42l51 -8 q72 -6 133 -6q33 0 87 3t171 26.5t178 66.5l-213 -758q-72 -41 -176 -64.5t-174 -25.5l-68 -4q-106 0 -211 23q-207 39 -297 125z" />
<glyph unicode="X" horiz-adv-x="2045" d="M0 655.5q0 202.5 133 357t334 189.5q31 207 189.5 342t367.5 135t367.5 -135t189.5 -342q201 -35 333 -189.5t132 -357.5q0 -223 -170 -397l-434 -444q-92 -96 -189.5 -139.5t-226.5 -43.5q-209 0 -368.5 135.5t-188.5 339.5q-203 35 -336 191t-133 358.5zM453 655 q0 -43 30.5 -73.5t73.5 -30.5t74 30.5t31 73.5t-31 74t-74 31t-73.5 -31t-30.5 -74zM721 1124q0 -125 89 -212t214 -87t214 87t89 212t-89 212t-214 87t-214 -87t-89 -212zM858 193q0 -70 49 -119t119 -49q55 0 104 38l3 -4l483 484q39 49 39 108q0 68 -48 117t-118 49 q-59 0 -109 -39l-2 2l-456 -458q-64 -63 -64 -129zM920 1124q0 43 30.5 74t75.5 31q43 0 73.5 -31t30.5 -74q0 -45 -30.5 -75.5t-73.5 -30.5q-45 0 -75.5 30.5t-30.5 75.5z" />
<glyph unicode="Y" horiz-adv-x="2824" d="M0 1421l12 -39q8 -12 15.5 -20t11.5 -10l4 -4l39 -21h227l588 -704q23 -25 23 -52v-393q0 -33 -23 -35q-229 0 -291 -6q-20 0 -20 -18v-113h1056v117q-2 14 -18 14h-295q-18 0 -18 31v414q-2 6 3 14t11 14l6 6q23 23 541 510h272q18 0 37 15l35 39q12 14 12 37v28 q-4 12 -16 12h-893l-14 -12q-4 -29 18 -53l47 -47l37 -15h235l-423 -399l-467 596h84q27 -2 45 8l139 43q2 0 6 2t9 10.5t5 18.5v29l-18 14h-1002q-16 -2 -20 -14v-17zM2437 1645l379 -15l-170 -1161l-125 6zM2464 82l8 225l225 -8l-8 -225z" />
<glyph unicode="Z" horiz-adv-x="1781" d="M0 39q0 44 88 104q14 31 33.5 73t33 67.5t13.5 31.5q0 2 5 28t14.5 66t19.5 87t25.5 106.5t31.5 110.5q27 84 64 153.5t59.5 97t34.5 37.5q20 16 6 23q-18 12 -45 44t-58 124q-23 66 -23 142q0 29 3 61q4 33 14 6q6 -16 13 -51q8 -68 54 -153t124 -116q2 0 40 14.5 t168 39t320 39.5q2 76 15 155q-31 23 -35 70q-16 -29 -41 -27q-17 1 -17 67q0 35 5 89q2 41 37.5 65.5t66.5 26.5q4 2 11 5t26.5 7t36.5 4q29 31 92 40q38 6 71 6q22 0 42 -3l47 -6q24 3 48 3q110 0 206 -62h7q56 0 85 -55q23 -37 34 -85q5 -20 4 -40q0 -29 -10 -60h-8 q-8 6 -20 35q-8 -25 -19.5 -44t-17.5 -26l-8 -8v-12q0 -90 -56 -209q-6 -16 5 -43q12 -33 46 -176q32 -135 31 -194v-7q-2 -63 -29.5 -134t-56.5 -99q1 -10 1 -21q0 -65 -44 -147q-14 -23 -35.5 -90.5t-29.5 -108.5q-11 -54 -11 -86q0 -29 9 -41q2 -2 20.5 -25.5t29.5 -42 t9 -30.5q-2 -18 -33.5 -38t-52.5 -20q-25 0 -55.5 14.5t-40.5 39.5q-13 39 -13 78q0 28 7 57q10 39 22.5 100.5t24.5 178.5q4 42 4 77q0 64 -14 105q-10 -4 -31 -11.5t-85.5 -18.5t-133.5 -11q-27 -139 -60 -219q-10 -16 -10 -232q0 -84 29 -211q36 -25 35 -56v-9 q-4 -27 -32 -42.5t-60.5 -15.5t-63.5 22.5t-31 57.5q0 6 3 102q2 57 2 97q0 27 -1 47q-8 160 -14 186q-53 199 -55 293q-14 0 -27 10q-63 -74 -108 -114q2 -10 8 -31.5t10 -38t4 -22.5q0 -16 29 -29q25 -10 52.5 -30.5t25.5 -41.5q-2 -25 -49 -27q-6 0 -12 -1q-40 0 -81 18 q-4 2 -13 22.5t-19.5 50t-19.5 58.5t-17.5 55.5t-10.5 30.5q-10 43 -2 60q31 84 31 122v9q-2 29 -46 65.5t-81 36.5q-14 0 -33.5 -10.5t-33 -21.5t-40 -32.5t-32.5 -27.5q-31 -23 -78 -66t-49 -45q-10 -6 -75.5 -124.5t-84.5 -166.5q0 -2 -5 -19t-9 -30.5t-15.5 -33 t-23.5 -33t-31.5 -21.5t-44.5 -8q-45 2 -45 39z" />
<glyph unicode="[" horiz-adv-x="2045" d="M0 608q0 154 47 319t127 296q127 213 374 334.5t509 121.5q266 0 510.5 -166.5t374.5 -412.5q102 -176 102 -438q0 -307 -145.5 -545t-393.5 -363t-553 -123q41 74 125 224.5t150.5 267.5t132.5 221l2 4q6 10 24.5 38t25.5 40t19.5 34.5t19.5 43t11 43.5q12 49 13 98 q0 164 -99 291l563 166q-584 0 -876 -2q-14 2 -45 2q-203 0 -339 -151.5t-114 -354.5q-4 18 -4 57q0 90 31 158l-418 412l406 -699q39 -147 162.5 -240.5t275.5 -93.5q35 0 67 7l-135 -566q-236 0 -457 145.5t-358 360.5q-135 209 -135 471zM639 647q0 -158 111.5 -269.5 t267.5 -111.5t267.5 111.5t111.5 269.5q0 156 -110.5 267.5t-268.5 111.5t-268.5 -111.5t-110.5 -267.5z" />
<glyph unicode="\" horiz-adv-x="1701" d="M0 -317q0 55 63 55q25 0 43.5 1t58.5 14.5t65.5 36t47 71.5t21.5 116v1258q0 260 -188 276q-31 2 -44.5 13.5t-14.5 20.5t-1 32q-4 51 47 51q8 0 127 -3t281 -6t276 -3q236 0 403 11t247.5 21.5t107.5 10.5q63 0 64 -64q0 -6 -12.5 -52t-12.5 -85q0 -33 7 -96.5t7 -89.5 q0 -37 -24.5 -56.5t-48.5 -19.5q-41 0 -43 57q0 8 1 29t0 30t-6.5 29.5t-15.5 30.5t-30.5 26.5t-49 26t-74 20.5t-103.5 17t-137 10.5t-175 4.5q-164 0 -236.5 -15.5t-88 -41t-15.5 -87.5q0 -59 1 -275t1 -237q0 -39 13 -54t46 -15h477q78 0 134.5 44t62.5 136q2 33 10 49 t17.5 19.5t29.5 3.5q29 0 46.5 -24t13.5 -69q0 -14 -9.5 -94t-9.5 -133q0 -51 9.5 -137t9.5 -117q0 -53 -46 -60.5t-61 48.5q-8 35 -13 50t-23.5 49t-42 50.5t-68.5 31.5t-105 15h-424q-37 0 -53 -22.5t-16 -77.5v-543q0 -88 45 -141t174 -53q10 0 102.5 -1t129 0t122.5 6 t134.5 15t107.5 31.5t96 50.5q49 39 70.5 95.5t40.5 164.5q8 39 53 37q57 0 76 -65q6 -23 4 -50q-2 -25 -34 -130t-32 -152q0 -12 1 -44t1 -47.5t-4 -37t-16 -30.5t-31 -9q-4 0 -68.5 14.5t-211.5 14.5q-135 0 -659.5 -3.5t-584.5 -3.5q-39 0 -51 11.5t-12 38.5z" />
<glyph unicode="]" horiz-adv-x="2129" d="M4 141v1180q0 2 6 39l695 -594l-693 -666q-8 29 -8 41zM96 1442q14 6 35 6h1870q18 0 37 -6l-697 -596l-92 -74l-182 -149l-182 149l-92 74zM98 20l699 670l270 -219l270 219l699 -670q-16 -6 -35 -6h-1870q-17 0 -33 6zM1430 766l692 594q6 -18 6 -39v-1180 q0 -18 -6 -41z" />
<glyph unicode="^" horiz-adv-x="2265" d="M0 424v309q0 20 14.5 35.5t36.5 15.5h543l-236 -411h-307q-23 0 -37 14t-14 37zM250 -76l135 -78zM270 13.5q-6 21.5 4 39.5l623 1082q10 18 30.5 23t39.5 -5l133 -76q20 -10 25 -31.5t-5 -39.5l-620 -1082q-10 -18 -32 -23t-40 5l-133 78q-19 8 -25 29.5zM901 373 l236 411h137l192 -411h-565zM1061 1652.5q2 18.5 12 24.5q20 10 72.5 -63.5t146.5 -237.5t127 -215q57 -90 154.5 -267t186.5 -346t89 -171q23 -39 -3.5 -74t-63.5 -49q-37 -16 -49.5 -18.5t-61.5 14.5q-61 31 -389 805q-10 23 -27.5 62.5t-35 77.5t-38 86t-38 90t-34.5 86 t-27.5 80t-16.5 66.5t-4 49zM1733 784h481q20 0 35.5 -15t15.5 -36v-309q0 -20 -15.5 -35.5t-35.5 -15.5h-272q-8 33 -17 47l-49 94q-131 247 -143 270zM1759 136.5q6 21.5 27 31.5l76 39q20 10 42.5 3t32.5 -28l64 -123q25 -49 -21 -79l-55 -33q-20 -10 -42.5 -5t-35.5 25 l-82 127q-12 21 -6 42.5zM1916 -160q1 33 8 43.5t26 28.5l49 18q125 25 147 -143q6 -66 -2 -156q-8 25 -90 61t-112 79q-27 36 -26 69z" />
<glyph unicode="_" horiz-adv-x="2220" d="M-2 4v182v111v424h287v-424h1648v424h289v-424v-111v-182h-2224z" />
<glyph unicode="`" d="M0 610q0 289 137 534t372.5 387t514.5 142t514.5 -142t372.5 -387t137 -534q0 -8 -1 -20t-1 -21q-16 426 -312 723t-710 297t-710 -297t-312 -723q0 8 -1 20.5t-1 20.5zM375 612q0 279 190.5 476.5t458.5 197.5t458.5 -197.5t190.5 -476.5q0 -6 -1 -20t-1 -21 q-16 264 -202.5 448.5t-444.5 184.5t-444.5 -184t-202.5 -449q0 6 -1 20.5t-1 20.5zM715 213q0 68 9 121t21.5 88t38 59.5t47 36.5t58.5 19.5t63.5 8.5t71.5 1t71.5 -1t63.5 -8.5t58.5 -19.5t47 -36.5t38 -59.5t21.5 -88t9 -121q0 -242 -91 -415t-218 -173t-218 173t-91 415 zM811 786.5q0 90.5 62.5 156t150.5 65.5t150.5 -65.5t62.5 -156t-62.5 -156t-150.5 -65.5t-150.5 65.5t-62.5 156z" />
<glyph unicode="a" horiz-adv-x="2250" d="M2 89q10 15 33 3q512 -297 1114 -297q401 0 793 150q8 4 28.5 12t28.5 12q31 12 48 -12.5t-11 -44.5q-37 -27 -94 -62q-176 -104 -393.5 -161.5t-424.5 -57.5q-319 0 -603.5 112t-510.5 314q-12 11 -12 21q0 6 4 11zM618 674q0 141 70 241.5t191 151.5q111 47 272 68 q55 6 180 16v35q0 131 -28 176q-43 61 -136 61h-16q-68 -6 -117 -43t-63 -102q-8 -41 -41 -47l-236 29q-35 8 -34 36q0 7 2 15q35 182 171 270t318 98h51q233 0 365 -120q20 -20 37.5 -44t27.5 -42.5t18.5 -53.5t12.5 -48t6 -57t2 -52v-62v-57v-377q0 -53 15.5 -97t30 -63.5 t46.5 -62.5q11 -18 12 -33q0 -17 -16 -29q-170 -147 -184 -159q-25 -18 -59 -5q-29 25 -50.5 47.5t-31 33t-30 40t-28.5 39.5q-115 -125 -225 -155q-70 -20 -172 -21q-158 0 -259.5 97.5t-101.5 275.5zM971 715q0 -80 40 -128t107 -48q6 0 17.5 2t15.5 2q86 23 133 110 q23 39 34 85t12 75t1 94v51q-119 0 -180 -16q-180 -51 -180 -227zM1830 55q3 8 13 17q51 35 99 47q77 21 151 21q20 0 39 -2q92 -7 111 -29q8 -12 8 -37v-15q0 -72 -39 -169t-109 -156q-10 -8 -18 -8q-4 0 -8 2q-12 6 -6 22q76 178 75 247q0 23 -8 34q-21 24 -115 24 q-35 0 -81 -4q-51 -6 -95 -12q-10 0 -15 5q-3 3 -3 8q0 2 1 5z" />
<glyph unicode="b" horiz-adv-x="2371" d="M0 418v1261h432v-616q324 184 754 184q322 0 595 -107.5t432 -294t159 -405.5t-159 -405.5t-432.5 -295t-594.5 -108.5q-315 0 -585.5 104.5t-430.5 286t-168 396.5h-2zM432 440.5q0 -223.5 221 -381t532.5 -157.5t532.5 157.5t221 381t-221 381t-532.5 157.5 t-532.5 -157.5t-221 -381zM686 440.5q0 -147.5 146.5 -252t353.5 -104.5t352 104.5t145 252t-145 252t-352 104.5t-353.5 -104.5t-146.5 -252z" />
<glyph unicode="c" horiz-adv-x="2267" d="M-4 514q0 213 150.5 364.5t361.5 151.5l2 -2q0 6 -1 14.5t-1 12.5q0 242 169 411.5t408 169.5q211 0 371 -135t197 -340h35q240 0 408.5 -170t168.5 -411.5t-169 -411.5t-408 -170q-16 0 -25 2v-2h-1137h-18h-19h-10v2q-203 10 -343 159.5t-140 354.5z" />
<glyph unicode="d" horiz-adv-x="2074" d="M-25 586l439 334l-439 331l637 416l416 -356l426 356l619 -395l-406 -338l406 -348l-629 -379l-416 319l-416 -319zM412 72v116l192 -112l416 317l2 -2v-727zM422 924l602 -379l606 401l-602 346zM1022 -336l2 727l4 2l414 -317l205 123v-129z" />
<glyph unicode="e" horiz-adv-x="2881" d="M0 371q0 63 10 109t44 95.5t95.5 79t171 49t263.5 19.5q180 0 303 -27q80 -16 119 -37v-329h-600q0 -43 4 -68.5t18 -62.5t54 -55.5t102 -18.5q174 0 174 125h129h4h115v-182q-55 -27 -115 -39q-139 -31 -307 -31q-188 0 -309 25.5t-178.5 80t-77 115t-19.5 152.5z M406 440h364q0 37 -3 54.5t-17.5 48t-56.5 45t-109 14.5q-63 0 -103.5 -15.5t-54.5 -47t-17 -49t-3 -50.5zM1006 68q4 0 8 4q150 74 151 178h-159v80h165q2 25 2 47q0 91 -26 155q-33 80 -141 127v375h219v-416h4q63 90 180 91q88 0 141 -54q-82 -59 -82 -209 q0 -213 156 -249q-2 -63 -11 -110.5t-31.5 -96.5t-67 -75t-109.5 -26q-131 0 -186 103h-2v-86h-211v162zM1006 68v182h159q-2 -104 -151 -178q-4 -4 -8 -4zM1006 330v329q109 -47 141 -127q26 -64 26 -155q0 -23 -2 -47h-165zM1225 307q0 -158 17.5 -220t72.5 -62 q57 0 75.5 62.5t18.5 219.5q0 182 -25 225q-20 41 -69 41q-33 0 -52.5 -17t-26.5 -60t-9 -78t-2 -111zM1468 446q0 150 82 209q35 -37 53.5 -108.5t19.5 -113.5t1 -130v-106q-156 36 -156 249zM1485 772q0 141 82 193q70 53 207 53q8 0 100 -6l219 -447v-209q0 -29 4 -80 t4 -69h-205l-10 106h-4q-68 -119 -205 -118q-37 0 -53 2v106q0 88 -1 130t-19.5 113.5t-53.5 108.5q79 60 276 61q24 0 50 -1v63q0 59 -17.5 88t-72.5 29q-53 0 -67.5 -32t-14.5 -91h-219zM1683 457q0 -127 84 -127q27 0 46.5 9t32 28.5t19.5 37t9 49t3 48t0 49.5t-1 41 q-8 0 -34.5 -1t-34.5 -2l-28 -4q-22 -3 -29 -6.5t-21.5 -10.5t-19.5 -16t-13 -22.5t-10.5 -31.5t-2.5 -41zM1821 1118h315l205 -475l223 475h293l-387 -735v-389h-289v389l-88 182v187q0 113 -44 177t-175 83zM1874 1012q131 -18 175 -83t44 -177v-187z" />
<glyph unicode="f" horiz-adv-x="1673" d="M573 580v391h316v196q0 213 138 362.5t335 149.5h313v-391h-313q-31 0 -55.5 -33.5t-24.5 -83.5v-200h393v-391h-393v-949h-393v949h-316z" />
<glyph unicode="g" horiz-adv-x="1923" d="M0 -55q0 -129 127 -221.5t307 -92.5t308 92.5t128 221.5q0 131 -128 223t-308 92q-2 0 -6 -1t-6 -1q-48 46 -48 98t48 109q145 8 245.5 112.5t100.5 247.5q0 57 -14 103q57 10 90 28v236q-99 -66 -223 -66h-15q-94 63 -207 64q-154 0 -262 -106.5t-108 -258.5 q0 -96 49 -178t131 -131q-57 -73 -57 -151q0 -75 53 -154q-94 -43 -149.5 -112.5t-55.5 -153.5zM248 829.5q0 67.5 44 115.5t103 48q61 0 104.5 -48t43.5 -115.5t-43 -115.5t-105 -48q-59 0 -103 48t-44 115.5zM254 -55q0 55 52 93t128 38t129 -38t53 -93q0 -53 -53 -92 t-129 -39t-128 39t-52 92zM932 1513.5q0 69.5 48 117.5t117.5 48t119 -48t49.5 -117.5t-49.5 -118.5t-119 -49t-117.5 49t-48 118.5zM971 188v981h274v-981h-274zM1341 961h113v-582v-2q8 -61 40 -105.5t71 -65t76.5 -32.5t62.5 -14h27q141 0 188 67l4 203q-86 -27 -133 -27 q-10 0 -18 1q-47 7 -56 34l-8 27q0 6 -2 8v488h186v208h-186v191h-252v-191h-113v-208z" />
<glyph unicode="h" horiz-adv-x="1560" d="M-82 1354v37q20 41 69.5 67.5t87.5 34.5t120 25l86 15q29 5 76 10q27 3 48 3q16 0 28 -2q28 -4 60.5 -13t53 -32.5t33.5 -58.5q11 -33 11 -58.5t-11 -44.5q-16 -27 -87 -44t-83 -36q-8 -12 -9 -131q0 -51 -8 -218q-4 -83 -4 -138t4 -82q8 -98 25 -108q18 -4 29.5 -3t35 8 t27.5 7q297 63 436 80q4 0 57.5 3t84 8t40.5 13q12 10 16.5 32t3.5 39t-6 46t-5 35q-9 79 -9.5 162t9.5 170q8 61 8 98q0 46 -12 59q-8 8 -46 15.5t-45 9.5q-57 25 -93 72q-25 32 -24 72q0 18 5 38q8 23 71 58q41 20 87.5 33.5t126 26.5t100.5 17h141h2q36 0 75 -75 q29 -57 29 -97q0 -14 -3 -26q-6 -23 -69 -48.5t-73 -37.5q-10 -14 -17 -41t-8 -64t-1 -67.5t1 -75.5t1 -68v-846q0 -150 8 -157.5t46 -7.5t46 -5q41 -14 69 -73q14 -30 14 -57q0 -26 -13 -48q-4 -8 -19.5 -15t-39 -15.5t-36.5 -14.5q-156 -75 -299 -75q-20 0 -41 2 q-51 4 -109 63q-51 52 -51 98q0 6 1 13q4 37 65 61q8 4 47 8t51.5 16.5t13.5 43.5v11q0 29 -4 74q-5 54 -5 66v107q0 94 -4 100q-8 11 -59 11t-144 -11q-233 -35 -363 -74q-6 -2 -35.5 -10t-47 -14t-39 -17.5t-32 -26t-12.5 -48t0 -62.5t7.5 -73t5.5 -56q0 -10 -1 -33.5 t-1 -42t6 -26.5q8 -12 29.5 -16.5t45 -3.5t27.5 -1q35 -12 67 -53q27 -34 26 -70q0 -7 -1 -14q-8 -70 -131 -105.5t-262 -48.5q-23 -2 -42 -2q-33 0 -56 7q-43 10 -83 57t-38 88q6 51 113 86q4 2 24.5 7t24.5 9q8 10 8 49.5t-8 108.5q-20 168 -25 492q0 82 -6 242.5 t-6 264.5q0 152 -8 162q-8 12 -46 18.5t-48 10.5q-68 29 -105 121z" />
<glyph unicode="i" d="M0 655.5q0 278.5 137 514t372.5 372.5t514.5 137t514.5 -137t372.5 -372.5t137 -514t-137 -514t-372.5 -373t-514.5 -137.5t-514.5 137.5t-372.5 373t-137 514zM205 655q0 -340 239.5 -579.5t579.5 -239.5t579.5 239.5t239.5 579.5t-239.5 580t-579.5 240t-579.5 -240 t-239.5 -580zM580 295q0 -63 44 -107.5t107 -44.5q68 0 117 49.5t49 116.5v17v534l410 76v-426q-31 10 -58 10q-68 0 -117 -49t-49 -117q0 -63 43 -107t106.5 -44t114 47t52.5 110v9v16v782l-594 -102v-614q-31 10 -57 10q-70 0 -119 -49t-49 -117z" />
<glyph unicode="j" horiz-adv-x="1564" d="M0 -375v2048h1565v-1673l-1170 6v-381h-395zM391 360h817v922h-817v-922z" />
<glyph unicode="k" d="M0 518v137v138q0 33 5 120.5t14.5 125.5t29 109t48 114t72.5 95t103 97q299 225 729 226q11 0 23 -1h10v-1591h254v426q14 -23 80 -130.5t105 -162.5q59 -82 129.5 -108.5t187.5 -26.5h74v242q-92 0 -129 14t-86 84q-29 37 -76 116t-53 89l350 487h-303l-279 -387v928 q276 -45 488 -205q59 -45 103 -97t72.5 -95t48 -114t29 -109t14.5 -126t5 -120v-138v-137q0 -33 -5 -121t-14.5 -126t-29 -108.5t-48 -113.5t-72.5 -95t-103 -97q-299 -225 -752 -225.5t-752 225.5q-59 45 -103 97t-72.5 95t-48 113.5t-29 108.5t-14.5 126t-5 121zM166 213 q135 -137 393 -137q164 0 281.5 84t117.5 241q0 104 -36.5 173t-92 93.5t-120 40t-119.5 18.5t-92 23.5t-37 61.5q0 96 143 96q117 0 178 -61l160 160q-123 123 -348 122q-160 0 -269.5 -85t-109.5 -240q0 -104 42 -171t105.5 -91.5t128 -34.5t122 -19.5t75.5 -27.5 q20 -23 21 -62q0 -94 -148 -94q-158 0 -231 74z" />
<glyph unicode="l" horiz-adv-x="2727" d="M-2 655q0 336 237.5 573.5t573.5 237.5q254 0 449.5 -130t300.5 -369q31 -74 264 -615q43 -98 76.5 -150t100 -92t163.5 -44q7 0 14 -1q138 0 228 74q95 78 96 197q0 55 -16.5 92t-60.5 65.5t-83 44t-121 42.5q-256 84 -368.5 183t-112.5 277q0 186 117.5 298t320.5 112 q260 0 391 -236l-172 -88q-92 127 -229 127q-94 0 -156.5 -58t-62.5 -148q0 -27 4 -50.5t17 -42t24.5 -33t36 -29.5t41 -23.5t51.5 -21.5t54 -19.5t64.5 -20.5t67.5 -21q221 -74 316.5 -172t95.5 -286q0 -205 -156 -340q-153 -133 -380 -133h-7q-205 0 -330 95t-211 288 l-28 67l-260 590q-68 158 -214.5 254t-324.5 96q-244 0 -417 -173t-173 -416.5t173 -416.5t417 -173q168 0 307 87t215 230l105 -242q-113 -139 -277 -218t-350 -79q-336 0 -573.5 237.5t-237.5 573.5z" />
<glyph unicode="m" horiz-adv-x="2478" d="M14 -240v1837h379l19 -16h1689l19 16h356v-1843h-350v15h-1751v-9h-361zM375 31v-164h1751v151l-707 531l-162 -133l-176 143zM375 154l629 469l-629 516v-985zM545 1466l712 -610l711 610h-1423zM1497 612l629 -471v992z" />
<glyph unicode="n" d="M0 1016l647 661v-252l617 -567l383 94l-400 -426l801 -897l-909 803l-385 -393l61 346l-522 647z" />
<glyph unicode="o" horiz-adv-x="2217" d="M0 354q-2 129 50 238.5t137 182.5t188.5 129.5t207 88t189.5 52t139 26.5l54 6v-252q-408 -33 -557 -315q-49 -90 -56 -166q-7 -33 -7 -64q0 -211 327 -350q150 -63 293 -88v-211q-199 20 -360 71.5t-259 116t-170 139.5t-104.5 144.5t-50 126t-19.5 90.5zM1044 -369 v1848l291 200v-1888zM1405 842h10q77 0 158 -30q86 -32 131 -64l43 -33l-170 -70l641 -160v502l-219 -125q-156 166 -524 209l-70 6v-235z" />
<glyph unicode="p" d="M0 -96v1503q0 113 80 192.5t192 79.5h1504q113 0 192.5 -79.5t79.5 -192.5v-1503q0 -113 -80 -193t-192 -80h-1504q-113 0 -192.5 80t-79.5 193zM78 -39q0 -104 73.5 -178t178.5 -74h1388q104 0 178 74t74 178v1389q0 104 -73.5 178t-178.5 74h-1388q-104 0 -178 -74 t-74 -178v-1389zM489 27v61h101q57 0 90 38t37 75l2 39v12v59v772q0 72 -31 112t-61 44l-31 4h-102v66h714q252 0 336 -207q20 -51 25 -90v-127q0 -63 -18.5 -113.5t-48 -81.5t-65.5 -54.5t-73 -33.5t-66.5 -15t-48.5 -5l-18 -2h-293v-344q0 -63 35 -99.5t71 -40.5l35 -4h97 v-65h-687zM936 692h223q8 0 20.5 1t44 12.5t56.5 30t44 58.5t19 95l-2 125q0 8 -1 20.5t-12 46t-29.5 60t-60.5 51.5t-97 29h-205v-529z" />
<glyph unicode="q" horiz-adv-x="1820" d="M0 749.5q0 249.5 122 462.5t331 337t456 124q377 0 644.5 -270t267.5 -653q0 -244 -117 -452t-315 -333q2 -4 7 -13t23.5 -32.5t43 -45t67.5 -44.5t92 -35v-155q-75 -14 -137 -15q-101 0 -173 37q-116 59 -188 193q-98 -27 -215 -27q-246 0 -455.5 124t-331.5 336 t-122 461.5zM453 629q0 -238 136 -407t329 -169q53 0 106 17q-4 6 -11 17t-29.5 38t-48.5 48.5t-63.5 39.5t-74.5 20v162v19q21 1 40 1q244 0 416 -184q129 166 129 398v237q0 238 -136 407t-328.5 169t-328.5 -169t-136 -407v-237z" />
<glyph unicode="r" horiz-adv-x="2459" d="M0 655.5q0 284.5 147.5 521t392 369.5t527.5 133q176 0 332 -51v-618q-131 72 -271 71q-188 0 -331 -100q-92 -68 -165 -169t-73 -196q0 -184 118 -288.5t304 -104.5q160 0 310.5 85t221.5 222q43 76 43 103v934q41 -20 244 -158q276 -188 592 -188q41 0 54.5 -15.5 t13.5 -60.5q0 -104 -108.5 -205.5t-225.5 -142.5q8 -63 8 -142q0 -285 -147.5 -521t-392 -369.5t-527.5 -133.5t-527.5 133.5t-392 370t-147.5 521z" />
<glyph unicode="s" horiz-adv-x="2361" d="M0 289q0 33 7 90t20 63q12 -6 21 -66.5t9 -86.5q0 -29 -9 -87.5t-21 -64.5q-27 15 -27 152zM131 289q0 51 10.5 151.5t12.5 124.5q0 12 12 13q8 0 12 -13q25 -264 25 -276q0 -49 -11.5 -145.5t-13.5 -120.5q-4 -14 -12 -15q-12 0 -12 15q-2 23 -12.5 120t-10.5 146z M297 289q0 49 10 150.5t10 111.5q0 18 15 18q16 0 16 -18q23 -231 23 -262t-23 -279q0 -16 -16 -16q-14 0 -15 16q0 14 -10 120t-10 159zM485 289q0 78 3.5 165t8.5 194.5t7 166.5q0 20 18 21q20 0 21 -21q2 -33 11 -228.5t9 -297.5q0 -53 -10 -157.5t-10 -119.5 q0 -20 -21 -20q-18 0 -18 20q-19 271 -19 277zM678 289q0 113 6 326.5t8 263.5q4 25 24.5 24.5t24.5 -24.5q2 -66 9.5 -273t7.5 -317q0 -51 -7.5 -147.5t-9.5 -125.5q-4 -25 -24.5 -24.5t-24.5 24.5q0 23 -7 121.5t-7 151.5zM872 289l13 553q4 31 28.5 30.5t28.5 -30.5 q2 -61 5 -174t5 -205t2 -174q0 -4 -12 -269v3q-4 -31 -28.5 -31t-28.5 28q-13 265 -13 269zM1067 287q0 6 12 719q4 37 33 36.5t33 -36.5q12 -713 12 -719q0 -2 -12 -260q-4 -35 -33 -35t-33 35q-12 258 -12 260zM1233 29v1011q-2 20 25.5 37t66.5 24t70.5 11t50.5 4 q199 0 346 -148.5t164 -365.5q57 27 112 27q119 0 204 -93.5t85 -226.5t-85 -226t-204 -93h-804q-12 0 -21.5 12.5t-9.5 26.5z" />
<glyph unicode="t" horiz-adv-x="1261" d="M0 840v290q123 41 207 113q84 68 137 176q53 104 72 260h293v-518h485v-321h-485v-525q0 -176 18 -229q18 -49 70 -80q70 -41 155 -41q158 0 310 101v-322q-129 -63 -238 -88q-106 -25 -229 -25q-139 0 -250 35q-113 39 -183 103q-74 63 -106 139q-29 70 -29 215v717 h-227z" />
<glyph unicode="u" horiz-adv-x="1875" d="M4 932q8 74 31.5 129t52.5 81.5t57.5 43t47.5 18.5l18 4q9 1 17 1q86 0 156 -74q77 -82 85 -160q5 -33 5 -68v-12q-1 -41 -11 -108.5t-56.5 -118t-121.5 -66.5q-27 -6 -53 -6q-47 0 -88 20q-62 31 -93 87.5t-44 118.5q-8 35 -7 66q0 24 4 44zM135 -66q-8 38 -8 75 q0 57 19 112q32 90 79 139t101 92l53 43q4 4 54 46t109.5 105.5t100.5 135.5q37 63 103.5 107.5t146.5 57.5q18 3 36 3q64 0 134 -37q90 -47 162 -158q16 -25 48 -64.5t136 -147t217 -195.5q53 -41 81 -101.5t28 -117t-8.5 -106.5t-18.5 -81l-12 -30q-4 -12 -15.5 -31 t-56.5 -59.5t-102.5 -64.5t-162 -24t-229.5 41q-89 28 -188 29q-80 0 -166 -18q-20 -4 -55 -10.5t-134 -16.5q-50 -5 -91 -5t-74 5h-6q-95 0 -164 68q-72 70 -94 139zM426 147q-4 -28 -4 -55q0 -66 24 -125q45 -88 162 -112h260v628l-116 2v-170h-140q-117 0 -176 -141z M475 1364q0 131 64.5 223t156.5 92t157 -92t65 -223t-65 -223t-157 -92t-156.5 92t-64.5 223zM549 47q-5 16 -5 34q0 29 13 62q20 53 80 72h113v-256h-105q-33 0 -56.5 22.5t-31.5 43.5zM932 -31q0 -74 112 -108l11 -4h299v444h-129v-334h-123q-18 2 -29.5 12.5t-15.5 18.5 l-2 8v297l-123 -2v-332zM1040 1346q10 98 101 198q76 85 148 85q13 0 26 -3q88 -20 151 -118q52 -79 52 -159q0 -18 -2 -36q-18 -115 -99 -208q-69 -81 -163 -81q-14 0 -29 2q-115 16 -157 104q-31 66 -31 153q-1 31 3 63zM1405 752q0 307 221 307q70 0 122 -30t77.5 -74 t38 -82.5t12.5 -67.5q0 -2 1 -29q1 -13 1 -23.5t-1 -17.5q-1 -14 -3 -46t-8 -52.5t-15.5 -49t-27 -48t-39 -38t-54 -27.5t-71.5 -9h-13q-77 0 -128 22q-55 25 -78 75t-29 90.5t-6 99.5z" />
<glyph unicode="v" horiz-adv-x="2070" d="M0 -43v1389q0 135 88 234t221 99h1428q143 0 238.5 -76.5t95.5 -218.5v-120q-152 29 -228 41q-109 14 -110 14q-20 6 -60.5 20.5t-70 21.5t-66.5 7q-127 0 -270 -96q-70 -6 -196 -14.5t-229.5 -18.5t-195.5 -29q-158 -31 -190 -51q-41 -31 -45 -129q-2 -31 -2 -102v-258 l-7 -37l1078 -27l163 56q-90 -162 -143 -271l-217 -96l-831 -14q-6 -6 -20.5 -7.5t-22.5 -9.5q8 -53 14 -80q25 -106 229 -121q422 -27 686 -26q78 0 246 41t260 41q133 0 228 -60v-110q0 -317 -316 -318h-1481q-125 0 -199.5 98.5t-74.5 227.5zM1413 1075.5q0 28.5 20.5 50 t49 21.5t50 -21.5t21.5 -50t-21.5 -49t-50 -20.5t-49 20.5t-20.5 49z" />
<glyph unicode="w" d="M0 653.5q0 278.5 137 514t372.5 372.5t514.5 137t514.5 -137t372.5 -372.5t137 -514t-137 -514t-372.5 -373t-514.5 -137.5t-514.5 137.5t-372.5 373t-137 514zM80 653q0 -276 146.5 -505.5t385.5 -344.5l-450 1235q-82 -182 -82 -385zM233 1171h62q98 0 252 13 q25 2 36 -16.5t3 -39t-33 -22.5l-109 -10l344 -1022l207 618l-147 404q-49 6 -98 10q-25 2 -33 22.5t3 39t36 16.5l248 -13q100 0 251 13q25 2 36.5 -16.5t3 -39t-32.5 -22.5l-107 -10l340 -1016l94 315q74 240 74 305q0 131 -80 263q-4 6 -25.5 42.5t-27.5 48t-18.5 39 t-16.5 48t-4 43.5q0 68 46 118t114 50q2 0 6 -1t6 -1q-268 248 -639 247q-244 0 -453 -114.5t-338 -311.5zM758 -254q127 -37 266 -37q164 0 313 53l-6 13l-291 796zM1499 -164q215 125 342 343t127 474q0 246 -115 453q6 -43 7 -96q0 -129 -72 -338z" />
<glyph unicode="x" horiz-adv-x="2052" d="M0 655q0 -360 223 -639q-19 52 -19 114q0 65 21 141q41 148 126 285.5t176 260.5t161 197l68 73q-301 186 -480 267q-276 -298 -276 -699zM285 -51q47 139 140 284.5t192.5 254t192.5 197.5t153 134l59 47q27 -18 70 -53t158.5 -139.5t209.5 -209t185.5 -247.5 t121.5 -268q-143 -150 -335.5 -234t-405.5 -84q-215 0 -406.5 84t-334.5 234zM360 1434q285 246 666 245q379 0 664 -245q-74 43 -170 42q-160 0 -381 -120q-68 -37 -113 -70h-2q-16 12 -46 31.5t-114 62.5t-161.5 69t-174.5 27h-4q-94 0 -164 -42zM1294 1087 q303 186 482 267q276 -297 276 -699q0 -360 -225 -639q19 53 19 116q0 64 -20 139q-40 148 -126 285.5t-177 260.5t-159 197z" />
<glyph unicode="y" horiz-adv-x="1533" d="M8 473v-26q0 -88 12 -142q10 -37 39 -52t60 -5l418 129q45 14 63 54q9 20 9 39.5t-9 39.5q-18 39 -65 53l-418 168q-29 6 -56.5 -15.5t-33.5 -62.5q-17 -74 -19 -180zM186 1450q-10 16 -9 32q0 19 12 38q24 35 77 55q166 63 350 94h10q93 0 101 -78q4 -52 17 -206 t18 -222.5t11 -179t6 -196.5q0 -67 -56 -84q-12 -4 -24 -3q-44 0 -76 52q-304 475 -437 698zM328 -117l284 340q38 44 79 44q16 0 32 -7q50 -22 50 -92q0 -10 -1 -21v-452q-4 -29 -35 -45q-18 -9 -38 -10q-15 0 -31 6q-74 12 -174.5 52t-149.5 77q-37 29 -37 60q0 23 21 48z M931 573q-13 24 -14 47q0 35 31 68l266 367q15 16 41 16q6 0 14 -1q36 -5 60 -38q51 -53 108.5 -144t75.5 -151q5 -16 6 -30q0 -18 -9 -33q-15 -27 -46 -33l-428 -109q-17 -4 -32 -4q-47 0 -73 45zM953 317q-17 -25 -17 -50q0 -32 27 -64l233 -389q15 -19 48 -19h7 q39 2 68 31q55 49 113.5 128t85.5 142q8 23 8 42q0 15 -5 28q-11 29 -40 39l-420 143q-21 8 -40 8q-42 -1 -68 -39z" />
<glyph unicode="z" horiz-adv-x="1478" d="M0 94v27v168q2 29 18 47q133 158 399.5 472t399.5 472q-117 -23 -211 -29q-47 -3 -84 -3t-64 3q-54 6 -95 20.5t-57.5 28t-24.5 25.5q-2 0 -2 2q-2 4 -5 6q-8 19 -8 48q0 15 2 32q10 100 101 225q4 4 12 14.5t12 14.5q11 11 26 11q13 0 30 -9q37 -20 40 -20 q113 -45 304 -54q45 -2 89 -2q219 0 455 49q39 6 37 -30q-2 -29 -8 -87.5t-10 -86.5q0 -8 -10 -19l-27 -26l-16 -15q-16 -18 -330 -385q-258 -299 -389 -448q-41 -49 -123 -144q-23 -27 -27 -38t-4 -48q8 0 15 1q133 0 294 -101q207 -135 336 -178q93 -25 171 -25 q133 0 224 72q9 -45 10 -92q0 -56 -14 -115q-25 -109 -103 -184q-66 -64 -157 -64q-17 0 -35 2q-131 16 -340 138q-47 27 -148 104.5t-161 108.5q-98 49 -194.5 63t-239.5 14h-63q-17 0 -25 35z" />
<glyph unicode="{" horiz-adv-x="2525" d="M-129 1122q356 68 426 146q55 61 92 186q37 -47 47 -99t2 -81l-10 -27q-12 -27 -21.5 -43t-15.5 -27.5t-19.5 -22.5t-20.5 -17.5t-32.5 -22.5t-42.5 -29q-72 -55 -68.5 -127.5t62.5 -111.5q53 -33 103.5 12t107.5 160q25 51 38 135t40 149.5t96 120.5q41 33 93.5 39 t102.5 2t105.5 0t123 48t137.5 133q10 12 28.5 31.5t77.5 59.5t120.5 57t152 -2t176.5 -91q-98 43 -184.5 43t-138.5 -31t-89 -67.5t-53 -67.5l-15 -31q-31 -76 -58.5 -126t-48 -78.5t-51 -46t-49 -23.5t-65.5 -17.5t-78 -19.5q-88 -27 -102 -111q-12 -74 45 -108 q66 -37 168 28q76 49 122 101.5t62 90.5t56 81t106 76q88 43 168 58t170 16t137 8q403 66 504 233q98 162 100 266q35 -119 23.5 -213t-54.5 -164.5t-90 -116.5t-84 -69l-37 -22q-158 -82 -263 -114t-170.5 -43t-127.5 -44q-211 -113 -106 -318q43 -84 126 -91t158 61 q12 10 28.5 28.5t46.5 80t32 124.5q41 -115 31.5 -197.5t-41.5 -130.5l-31 -45q-74 -78 -124 -109.5t-129 -37.5t-183 31q-176 43 -245 42t-126 -36q-57 -33 -88 -87t-4 -100q29 -51 69.5 -56t131.5 44q80 47 135 60.5t139 17.5q178 4 285 -78q76 -49 151 -117 q-233 137 -426 5q-35 -23 -55 -46q-92 -104 -154.5 -147t-108.5 -42t-120 30q-20 8 -80.5 34.5t-85.5 32.5v226q0 248 -188 381q-121 82 -275 81q-156 0 -274 -79q-41 59 -105 67v154q0 63 -44 107t-107 44h-37zM131 -33v332q0 133 39 203q82 145 274 145q141 0 226.5 -89 t85.5 -224v-277h-414v-137q0 -98 102 -98q92 0 103 100h209q0 -127 -84 -215q-88 -88 -228 -88q-193 0 -274 145q-39 70 -39 203zM342 215h205v115q0 115 -102.5 114.5t-102.5 -114.5v-115zM879 -193q23 74 22 146q0 23 -6 41q49 -8 70 -10q127 -12 174 -95q4 -6 9 -18 t14 -47t-1 -64q-63 49 -134 61.5t-109 -1.5z" />
<glyph unicode="|" horiz-adv-x="1742" d="M4 -114.5q6 63.5 25 134.5q23 92 147.5 718t145.5 716q25 106 49 148.5t79.5 60.5t178.5 18h493q121 0 276.5 -2t237.5 -2q84 0 103 -92q20 -98 -47 -188q-61 -82 -166 -82h-821l-103 -477l721 -7q90 0 111 -92q20 -92 -43 -172q-55 -68 -144 -67h-737l-98 -508h884 q131 0 157 -90t-34.5 -179.5t-138.5 -89.5h-1133q-61 0 -97 35t-44 94.5t-2 123z" />
<glyph unicode="}" horiz-adv-x="1777" d="M0 221q0 90 64.5 155.5t156.5 65.5q90 0 155.5 -65.5t65.5 -155.5q0 -94 -69 -160q133 -152 334 -151q141 0 237 84q96 86 96 217q0 80 -51 158q-47 78 -123 131q-70 47 -235 116q-154 61 -250 121q-86 55 -150 131q-61 74 -94 152q-29 80 -28 162q0 207 165 352 q168 145 404 145q158 0 317 -67q135 -57 232 -164q76 -66 76 -164q0 -92 -66 -156.5t-156 -64.5q-92 0 -156.5 64.5t-64.5 156.5q0 43 21 90q-66 33 -181 33q-141 0 -229 -63.5t-88 -163.5q0 -88 78 -156q82 -68 262 -145q188 -82 289 -150q104 -70 168 -151q68 -84 98 -175 q0 -2 2 -6t2 -6q-154 -127 -154 -323q0 -109 58 -213q-23 -27 -49 -56q-178 -168 -422 -168t-426.5 131.5t-284.5 397.5l6 2q-10 30 -10 59zM1255 68q0 -106 74 -181t180.5 -75t180 74.5t73.5 181.5q0 104 -73.5 179t-180 75t-180.5 -75t-74 -179z" />
<glyph unicode="~" horiz-adv-x="1359" d="M0 1649h205l16 -248h21l10 6q162 272 504 272q266 0 435 -201.5t169 -519.5q0 -190 -55.5 -340.5t-148.5 -240.5t-206.5 -137t-238.5 -47q-141 0 -257 58t-178 163l-4 6h-22l-6 -14v-775h-232v1559q0 180 -12 459zM244 803q0 -63 12 -113q39 -143 151.5 -231t258.5 -88 q207 0 331.5 156.5t124.5 418.5q0 244 -125 397.5t-321 153.5q-147 0 -262 -93t-152 -241q-18 -68 -18 -108v-252z" />
<glyph unicode="&#xa3;" horiz-adv-x="3291" d="M657 55v1229h594q223 0 320 -131q55 -76 55 -188q0 -115 -57 -181q-33 -41 -92 -69q92 -33 141 -109q47 -76 47 -180q0 -106 -55 -197q-35 -57 -86 -96q-63 -47 -140 -61q-86 -16 -172 -17h-555zM942 268h260q78 0 123 23q82 39 82 153q0 94 -78 131q-51 20 -123 21h-264 v-328zM942 799h260q80 0 129 30.5t49 108.5q0 88 -65 113q-53 20 -146 20h-227v-272zM1759 524q0 229 123 350q121 123 313 123q113 0 207 -41q94 -43 154 -131q55 -84 70 -182q8 -51 8 -174h-641q2 -131 92 -186q55 -33 127 -33q76 0 127 41q23 18 47 59h235 q-10 -78 -86 -157q-119 -129 -331 -130q-172 0 -310 109q-135 106 -135 352zM1948 1110v123h493v-123h-493zM1997 621h397q-6 94 -61 139q-57 47 -138 47q-88 0 -137 -49q-49 -53 -61 -137z" />
<glyph unicode="&#xa9;" horiz-adv-x="1581" />
<glyph unicode="&#xad;" horiz-adv-x="1923" d="M-1 1447.5q-1 22.5 12.5 42t27.5 34t48 32t55.5 26.5t67.5 28.5t71 29.5q111 45 198.5 33t110.5 -71q51 -137 209.5 -654.5t236.5 -740.5q549 180 668 215q33 12 77 8t66 -47q47 -96 66.5 -201.5t1.5 -152.5q-39 -31 -122 -66t-154.5 -59.5t-183.5 -59t-150 -47.5 q-20 -6 -78 -26.5t-109 -38t-118.5 -39t-125 -35.5t-110.5 -23.5t-91 -7.5t-52 19q-37 37 -66 106.5t-59.5 178t-38.5 135.5q-86 256 -231.5 693t-213.5 640q-12 26 -13 48.5z" />
<glyph unicode="&#xae;" horiz-adv-x="1581" />
<glyph unicode="&#xb4;" />
<glyph unicode="&#xdc;" horiz-adv-x="1761" />
<glyph unicode="&#xe5;" horiz-adv-x="2699" />
<glyph unicode="&#xe7;" horiz-adv-x="3661" />
<glyph unicode="&#x2000;" horiz-adv-x="987" />
<glyph unicode="&#x2001;" horiz-adv-x="1974" />
<glyph unicode="&#x2002;" horiz-adv-x="987" />
<glyph unicode="&#x2003;" horiz-adv-x="1974" />
<glyph unicode="&#x2004;" horiz-adv-x="657" />
<glyph unicode="&#x2005;" horiz-adv-x="493" />
<glyph unicode="&#x2006;" horiz-adv-x="327" />
<glyph unicode="&#x2007;" horiz-adv-x="327" />
<glyph unicode="&#x2008;" horiz-adv-x="245" />
<glyph unicode="&#x2009;" horiz-adv-x="393" />
<glyph unicode="&#x200a;" horiz-adv-x="108" />
<glyph unicode="&#x2010;" horiz-adv-x="1923" d="M-1 1447.5q-1 22.5 12.5 42t27.5 34t48 32t55.5 26.5t67.5 28.5t71 29.5q111 45 198.5 33t110.5 -71q51 -137 209.5 -654.5t236.5 -740.5q549 180 668 215q33 12 77 8t66 -47q47 -96 66.5 -201.5t1.5 -152.5q-39 -31 -122 -66t-154.5 -59.5t-183.5 -59t-150 -47.5 q-20 -6 -78 -26.5t-109 -38t-118.5 -39t-125 -35.5t-110.5 -23.5t-91 -7.5t-52 19q-37 37 -66 106.5t-59.5 178t-38.5 135.5q-86 256 -231.5 693t-213.5 640q-12 26 -13 48.5z" />
<glyph unicode="&#x2011;" horiz-adv-x="1923" d="M-1 1447.5q-1 22.5 12.5 42t27.5 34t48 32t55.5 26.5t67.5 28.5t71 29.5q111 45 198.5 33t110.5 -71q51 -137 209.5 -654.5t236.5 -740.5q549 180 668 215q33 12 77 8t66 -47q47 -96 66.5 -201.5t1.5 -152.5q-39 -31 -122 -66t-154.5 -59.5t-183.5 -59t-150 -47.5 q-20 -6 -78 -26.5t-109 -38t-118.5 -39t-125 -35.5t-110.5 -23.5t-91 -7.5t-52 19q-37 37 -66 106.5t-59.5 178t-38.5 135.5q-86 256 -231.5 693t-213.5 640q-12 26 -13 48.5z" />
<glyph unicode="&#x2012;" horiz-adv-x="1923" d="M-1 1447.5q-1 22.5 12.5 42t27.5 34t48 32t55.5 26.5t67.5 28.5t71 29.5q111 45 198.5 33t110.5 -71q51 -137 209.5 -654.5t236.5 -740.5q549 180 668 215q33 12 77 8t66 -47q47 -96 66.5 -201.5t1.5 -152.5q-39 -31 -122 -66t-154.5 -59.5t-183.5 -59t-150 -47.5 q-20 -6 -78 -26.5t-109 -38t-118.5 -39t-125 -35.5t-110.5 -23.5t-91 -7.5t-52 19q-37 37 -66 106.5t-59.5 178t-38.5 135.5q-86 256 -231.5 693t-213.5 640q-12 26 -13 48.5z" />
<glyph unicode="&#x2013;" horiz-adv-x="1021" d="M0 1447.5q-1 22.5 6.5 42t15 34t25.5 32t29.5 26.5t36 28.5t37.5 29.5q59 45 105.5 33t58.5 -71q27 -137 111.5 -654.5t126.5 -740.5q292 180 355 215q17 12 40.5 8t35.5 -47q25 -96 35.5 -201.5t0.5 -152.5q-21 -31 -65 -66t-82 -59.5t-97.5 -59t-79.5 -47.5 q-11 -6 -41.5 -26.5t-58 -38t-63.5 -39t-66.5 -35.5t-58.5 -23.5t-48.5 -7.5t-27.5 19q-20 37 -35 106.5t-31.5 178t-20.5 135.5q-46 256 -123.5 693t-113.5 640q-6 26 -7 48.5z" />
<glyph unicode="&#x2014;" d="M0 1447.5q-1 22.5 13 42t29.5 34t51.5 32t58.5 26.5t72 28.5t75.5 29.5q118 45 211.5 33t117.5 -71q54 -137 223 -654.5t252 -740.5q584 180 710 215q35 12 82 8t71 -47q50 -96 70.5 -201.5t0.5 -152.5q-41 -31 -129 -66t-164.5 -59.5t-195 -59t-160.5 -47.5 q-22 -6 -83 -26.5t-115.5 -38t-126 -39t-132.5 -35.5t-118 -23.5t-97 -7.5t-56 19q-39 37 -69.5 106.5t-63 178t-41.5 135.5q-92 256 -246.5 693t-226.5 640q-13 26 -14 48.5z" />
<glyph unicode="&#x202f;" horiz-adv-x="393" />
<glyph unicode="&#x205f;" horiz-adv-x="493" />
<glyph unicode="&#x20ac;" horiz-adv-x="1656" />
<glyph unicode="&#xe000;" horiz-adv-x="1680" d="M0 1680h1680v-1680h-1680v1680z" />
</font>
</defs>
</svg>
