<?xml version="1.0" standalone="no"?>
<!DOCTYPE svg PUBLIC "-//W3C//DTD SVG 1.1//EN" "http://www.w3.org/Graphics/SVG/1.1/DTD/svg11.dtd" >
<svg xmlns="http://www.w3.org/2000/svg">
<metadata>
This is a custom SVG webfont generated by Font Squirrel.
Copyright   : Copyright 2012 Adobe Systems Incorporated All rights reserved
Designer    : Sam Collins
</metadata>
<defs>
<font id="ZocialRegular" horiz-adv-x="2048" >
<font-face units-per-em="2048" ascent="1681" descent="-367" />
<missing-glyph horiz-adv-x="512" />
<glyph unicode=" "  horiz-adv-x="512" />
<glyph unicode="&#x09;" horiz-adv-x="512" />
<glyph unicode="&#xa0;" horiz-adv-x="512" />
<glyph unicode="!" d="M10 795q0 440 288 727.5t728 287.5t728 -287.5t288 -727.5q0 -373 -211 -641.5t-574 -350.5q-18 35 -68 107t-71 115q131 -53 176 -54q33 0 33 103q0 190 -35 190q-51 0 -198 -112q0 29 -31 24h-10q-53 141 -54 252q0 31 7 61q188 -92 303 -92q63 0 191 37t128 80 q0 27 -35 27q-53 0 -153.5 -14.5t-153.5 -14.5q-55 0 -121.5 28.5t-66.5 77.5q0 10 3 15.5t9 6.5t12 0t16.5 -2t18.5 -1q18 0 53 -5t52 -5q63 0 259.5 74.5t196.5 115.5q0 25 -38 35t-70 10q-29 0 -86.5 -15.5t-125 -37t-89.5 -27.5q8 41 8 66q0 96 -51.5 224t-118.5 190 q-55 49 -148 67q-57 74 -179 134.5t-216 60.5q-18 0 -56 -7.5t-48 -9.5l-45 -63l12 -2q14 0 44 4t44 4q70 0 160 -29q-57 -29 -101 -39q-4 -2 -26.5 -5t-37.5 -6t-28.5 -12t-13.5 -24q115 12 172 13q78 0 123 -15q-158 -18 -243 -108t-85 -248q0 -55 8 -103 q39 -246 150 -733q68 -315 76 -348l2 -8q-328 102 -514.5 380t-186.5 630zM590 1049q0 -12 6 -25q-2 33 37 57.5t74 24.5q16 0 41 -10q-20 27 -60 26q-35 0 -66.5 -19t-31.5 -54zM657 895q0 27 21.5 48.5t48.5 21.5t48.5 -21.5t21.5 -48.5t-21.5 -48.5t-48.5 -21.5 t-48.5 21.5t-21.5 48.5zM739 918q0 -16 18.5 -16.5t18.5 16.5q0 18 -18.5 18t-18.5 -18zM1083 1096q16 27 76 26q27 0 68 -20q-20 45 -72 45q-64 0 -72 -51zM1130 936q0 25 18.5 42t41.5 17q25 0 42 -17t17 -42q0 -23 -17.5 -41t-41.5 -18q-23 0 -41.5 18t-18.5 41z M1202 956q0 -16 15 -16q16 0 16 16q0 14 -16 15q-15 -1 -15 -15z" />
<glyph unicode="&#x22;" horiz-adv-x="2650" d="M0 885q0 215 107.5 385t279.5 269t369.5 150.5t398.5 51.5q59 0 88 -2q236 -12 463 -84q178 -57 340 -152.5t300 -223.5t221 -300t83 -361q0 -27 -2 -38q-23 -311 -247 -524.5t-550 -301.5q-219 -61 -469 -61h-16q-412 0 -645 108q-12 4 -14 13q0 4 6 4q2 0 7 -1t7 -1 q102 -25 182 -25q49 0 96.5 9.5t89.5 41t42 80.5q0 25 -13 49q-18 33 -119.5 69t-233.5 68.5t-155 41.5q-164 53 -284 135q0 2 7 19.5t12 29.5t14.5 24.5t17.5 12.5h367q18 0 33.5 -44t43 -89t72.5 -45q37 0 63.5 23.5t26.5 59.5q0 23 -172 408t-217 473q-12 31 -33 31 q-16 0 -26 -19l-6 -12q-16 -31 -107 -233l-219 -488l-14 -30q-195 223 -195 479zM446 545q0 20 111 264l10 6q12 0 66.5 -130t54.5 -142q0 -8 -10 -8h-221q-11 0 -11 10zM1075 293q0 -92 96.5 -92t96.5 92v794q0 92 -96.5 92.5t-96.5 -92.5v-794zM1454 293q0 -92 96.5 -92 t96.5 92v371l188 -379q27 -59 84 -60q66 0 94 60l187 379v-371q0 -92 96 -92q98 0 98 92v794q0 92 -96 93q-72 0 -96 -60l-283 -618l-272 618q-29 59 -99 60q-94 0 -94 -93v-794z" />
<glyph unicode="#" horiz-adv-x="2066" d="M0 -410v1026h1026v-1026h-1026zM1042 612v1026h1024v-1026h-1024z" />
<glyph unicode="$" horiz-adv-x="1994" d="M0 -127l397 1825h897q102 0 197.5 -37t173.5 -114t107.5 -193.5t-0.5 -276.5q-59 -279 -263 -438.5t-479 -159.5h-375l-129 -606h-526zM205 -350h526l129 604h377q274 0 477 159.5t264 438.5q57 276 -88 448q68 -152 25 -348q-59 -279 -263 -438.5t-478 -159.5h-375 l-129 -604h-443zM731 827h170l86 375h256q4 0 35 -6q-16 59 -64.5 95t-113.5 36h-256zM987 829q98 4 183 76t108 172q0 4 2 12.5t2 12.5h-233z" />
<glyph unicode="%" horiz-adv-x="1650" d="M0 14v879q0 305 144.5 474t443.5 169h491h443q-6 -6 -89 -90t-172.5 -173t-186.5 -185.5t-161.5 -159t-70.5 -62.5q-25 0 -25 27v264l-82 2q-199 0 -276.5 -61.5t-77.5 -255.5v-445zM115 -184q8 8 89 90t171 173t186 186t160.5 157.5t71.5 62.5q25 0 24 -26v-264l84 -2 q199 0 276.5 61t77.5 256v444l381 383v-878q0 -305 -144 -474t-443 -169h-492h-442z" />
<glyph unicode="&#x26;" horiz-adv-x="1886" d="M0 494v550q0 53 39 91.5t90 38.5q53 0 91 -38t38 -92v-550q0 -53 -38 -91t-91 -38t-91 38t-38 91zM354 289v856h1176v-856q0 -53 -38 -91t-91 -38h-918q-53 0 -91 38t-38 91zM354 1241h1176q0 236 -174 387.5t-414 151.5t-414 -151.5t-174 -387.5zM561 1888q0 16 14 17 q6 0 15 -4l100 -183l-31 -16q-98 180 -98 186zM592 -178v414q0 55 39 92t96 37q51 0 90 -39t39 -90v-414q0 -57 -39 -93t-96 -36q-53 0 -91 38t-38 91zM602 1505.5q0 32.5 24.5 56t57.5 23.5t56.5 -23.5t23.5 -56.5q0 -35 -23.5 -58.5t-58.5 -23.5q-33 0 -56.5 25 t-23.5 57.5zM1028 -178v414q0 55 40 92t95 37q53 0 91 -38t38 -91v-414q0 -57 -39 -93t-96 -36q-53 0 -91 38t-38 91zM1120 1505.5q0 32.5 24.5 56t57.5 23.5t56.5 -23.5t23.5 -56.5q0 -35 -24.5 -58.5t-57.5 -23.5t-56.5 25t-23.5 57.5zM1194 1718q4 6 28.5 58.5t48 90.5 t38 38t14.5 -19v-4l-98 -182zM1626 494v548q0 53 38 92.5t91 39.5t91 -39t38 -93v-548q0 -53 -38 -91t-91 -38t-92 38t-37 91z" />
<glyph unicode="'" horiz-adv-x="2420" d="M0 414v151q0 57 35 96t88 39h450q70 0 70 84q0 82 -70 82h-569q-4 0 -4 4v48q0 4 4 4h604q72 0 109 -38t37 -99.5t-37 -99.5t-109 -38h-430q-31 0 -49 -23.5t-18 -58.5v-151q0 -4 -5 -4h-102q-4 0 -4 4zM727 414v47q0 4 2 4h277q70 0 69 82v237q0 61 38 99.5t108 38.5 h315q4 0 4 -4v-48q0 -4 -4 -4h-279q-72 0 -71 -82v-237q0 -61 -37 -99t-109 -38h-311q-2 0 -2 4zM1645 414v47q0 4 4 4h569q72 0 72 82v6q-6 94 -72 94h-569q-4 0 -4 2v49q0 2 4 2h567h2q72 0 72 84q0 82 -72 82h-569q-4 0 -4 4v48q0 4 4 4h606q70 0 106.5 -38t36.5 -100 q0 -70 -45 -106q-2 -2 0 -6q45 -39 45 -119v-6q0 -57 -38 -97t-105 -40h-606q-4 0 -4 4z" />
<glyph unicode="(" horiz-adv-x="1169" d="M0 -190v1609q0 90 64.5 154.5t154.5 64.5h731q90 0 154.5 -64.5t64.5 -154.5v-1609q0 -90 -64.5 -155t-154.5 -65h-731q-90 0 -154.5 65t-64.5 155zM68 29h1030v1245h-1030v-1245zM408 1456q0 -20 13 -33.5t34 -13.5h260q20 0 33.5 13.5t13.5 33.5q0 18 -13.5 31.5 t-33.5 13.5h-260q-20 0 -33.5 -13.5t-13.5 -31.5zM496 -188.5q0 -38.5 27.5 -65.5t66.5 -27t65.5 27t26.5 65.5t-26.5 65.5t-65.5 27t-66.5 -27t-27.5 -65.5z" />
<glyph unicode=")" horiz-adv-x="2265" d="M0 324v979q0 94 28.5 122.5t123.5 28.5h1962q94 0 121.5 -28.5t27.5 -122.5v-979q0 -94 -27.5 -122t-121.5 -28h-832v-76h227v-118h-755v118h227v76h-829q-94 0 -123 28t-29 122zM76 307h2111v1057h-2111v-1057z" />
<glyph unicode="*" d="M0 1253q0 51 33 93.5t84 54.5l403 96q-129 -147 -129 -344q0 -379 518 -580q57 -23 110.5 -50t112 -68t94.5 -95.5t36 -113.5q0 -88 -72 -137.5t-164 -49.5q-119 0 -248 46.5t-215 123.5l-162 -366q115 -63 295 -125q-20 -4 -64 -17.5t-79 -20.5t-66 -7q-51 0 -93 32.5 t-54 84.5l-336 1407q-4 24 -4 36zM858 1159q0 78 71.5 120t155.5 42q100 0 225.5 -36t180.5 -95l125 348q-184 98 -381 129q4 0 92 24.5t146.5 37t87.5 12.5q51 0 93 -33t54 -84l336 -1407q4 -25 4 -37q0 -51 -33 -93t-84 -54l-297 -70q96 143 97 311q0 227 -144.5 374 t-378.5 224q-350 119 -350 287z" />
<glyph unicode="+" horiz-adv-x="2424" d="M0 -2q0 178 182.5 317.5t440.5 139.5h110q-86 82 -86 176q0 59 33 119q-20 -2 -59 -2q-213 0 -348.5 133t-135.5 327q0 186 168 325.5t383 139.5h635l-141 -102h-201q96 -37 150.5 -139.5t54.5 -227.5q0 -190 -180 -332q-76 -59 -98.5 -94t-22.5 -86q0 -39 55 -98 t111 -100q125 -88 173 -180.5t48 -231.5q0 -184 -168 -320.5t-455 -136.5q-272 0 -460.5 102.5t-188.5 270.5zM229 66q0 -141 120 -240.5t298 -99.5q244 0 353.5 90t109.5 239q0 39 -8 66q-6 23 -14.5 42t-24.5 38.5t-28.5 33t-40 34t-42 30.5t-51.5 35.5t-53 36.5 q-80 25 -158 24q-184 2 -322.5 -96t-138.5 -233zM365 1210q23 -162 124 -278.5t224 -118.5q121 -4 192.5 106.5t51 272.5t-122 274.5t-224.5 116.5t-194 -104.5t-51 -268.5zM1501 1161v103h410v409h102v-409h412v-103h-412v-411h-102v411h-410z" />
<glyph unicode="," horiz-adv-x="2265" d="M0 1378v43l4 4h510l4 -4v-41q0 -16 -20 -16l-54 -2q-68 -2 -67 -41q0 -27 14 -57q102 -250 455 -992l12 -2l227 453q-27 61 -45 100l-155 307l-41 82q-53 104 -69.5 124t-67.5 28q-29 4 -29 14v43l6 4h403l11 -2v-43q0 -16 -21 -16l-30 -4q-27 -4 -39.5 -10.5 t-11.5 -24.5t8.5 -35.5t29.5 -62.5l150 -307l166 331q33 66 10 88q-12 16 -76 23l-18 2q-8 0 -15 6q-6 2 -6 12v39l6 4q117 2 381 0l4 -4v-41q0 -16 -18 -16q-45 -2 -62.5 -9t-33.5 -32q-47 -70 -62 -98l-215 -402l-6 -14l262 -537l17 -6l413 985q25 57 -6 84q-27 25 -80 27 l-39 2q-6 0 -12 6q-8 4 -8 12v41l6 4h469l4 -4v-41q0 -14 -18 -18q-94 -4 -136 -39q-41 -33 -69 -100l-512 -1162q-20 -47 -46 -62t-49.5 2t-45.5 63q-78 154 -250 538q-215 -442 -269 -541q-84 -145 -145 -2q-66 154 -266.5 583t-265.5 587q-33 86 -58 106q-23 20 -106 27 q-29 4 -29 14z" />
<glyph unicode="-" horiz-adv-x="2244" d="M0 453q0 88 64.5 189t148.5 101q16 0 25 -6l4 56q10 12 32 12q37 0 69 -20.5t32 -55.5q0 -47 -29 -135t-29 -133q0 -6 5 -19l4 -4h4q37 0 121 109q-12 57 36 125.5t105 68.5q47 0 47 -61q0 -31 -36 -109.5t-38 -113.5l4 -13l11 -2q33 8 80 66.5t63 99.5q-14 16 -14 39 q0 47 54 104.5t99 57.5q53 0 53 -41q0 -12 -2 -18q-41 -23 -55 -50q6 -2 40 -12t53.5 -23.5t19.5 -33.5q0 -23 -34 -88.5t-34 -98.5q0 -4 4 -16l13 -6q23 2 61.5 38t56.5 64q4 51 20.5 128t46.5 162t77 144.5t100 59.5q61 0 61 -66q0 -59 -151 -272q-16 -123 -16 -184 q0 -53 10 -72l6 -4q33 0 60.5 57.5t27.5 93.5q0 49 -43 60q-4 16 -4 24q0 37 28.5 67t65.5 30q78 0 78 -104.5t-76 -222.5t-174 -118q-96 0 -115 117q-37 -43 -91 -83t-95 -40q-92 0 -92 80q0 35 23.5 94.5t23.5 73.5t-31 26q-49 -92 -128 -180t-152 -88q-76 0 -76 78 q0 23 2 33q-96 -102 -156 -103q-70 0 -69 78q0 12 4 37q-39 -111 -109 -111q-49 0 -71.5 40.5t-22.5 93.5zM139 494q0 -23 8 -33l9 -6l8 -2q23 0 39 24l30 199q-41 -25 -67.5 -79t-26.5 -103zM580 887q0 106 47 106q25 0 52.5 -23.5t27.5 -47.5q0 -43 -64 -117 q-31 0 -47 24.5t-16 57.5zM1421 426q0 51 25 119q-10 23 -10 59q0 45 50 100.5t93 55.5q23 0 32 -9.5t9 -31.5q0 -63 -37 -137q31 59 80 111t96 52q31 0 48.5 -18t17.5 -47q0 -45 -36 -122t-38 -118l2 -10l10 -4q37 10 113 98q2 51 19.5 129t46 162t75.5 143.5t101 59.5 q61 0 61 -66q0 -63 -149 -272q-16 -98 -17 -184q0 -53 8 -72l9 -4q33 0 60.5 57.5t27.5 93.5q0 49 -45 60q-2 8 -2 24q0 37 28.5 67t65.5 30q78 0 78 -104.5t-76 -222.5t-174 -118q-100 0 -115 119q-113 -119 -188 -119q-74 0 -74 78q0 35 23.5 100.5t23.5 79.5q0 12 -10 13 q-25 0 -78 -68q-16 -100 -23 -180q-12 -12 -36 -13q-41 0 -68 33t-27 76z" />
<glyph unicode="." horiz-adv-x="1740" d="M0 2q0 20 17.5 60t17.5 62.5t-11.5 62.5t-11.5 61q0 31 33 43t72 12t70.5 25.5t31.5 81.5q8 -25 8 -41q0 -49 -34.5 -74t-86.5 -25q-4 0 -17 1t-20.5 0t-17.5 -3t-14 -9t-4 -19q0 -23 19.5 -60t19.5 -59.5t-18.5 -59t-18.5 -55.5q0 -23 43 -37q39 -12 114.5 -26.5 t94.5 -18.5q25 -6 70.5 -22.5t84.5 -25.5t72 -9q49 0 83 26.5t34 75.5q0 82 -134.5 286t-205.5 204q-10 0 -25.5 -8.5t-17.5 -8.5q-12 0 -12 52q0 35 9 61.5t27.5 59t26.5 53.5q12 31 36.5 98.5t48.5 114.5t58 90q121 150 142 221q-18 184 -19 371q0 133 70 217t199 84 q158 0 260 -98.5t102 -256.5q0 -168 39 -277.5t145 -232.5q76 -86 132.5 -227t56.5 -252q0 -86 -37 -110q-16 -10 -61.5 -63.5t-100.5 -53.5q-43 0 -68.5 18.5t-33.5 42t-20.5 42t-30.5 18.5q-20 0 -30.5 -32t-10.5 -58q0 -29 11 -88.5t11 -88.5q0 -27 -7 -80t-7 -79 q0 -51 27.5 -84t76.5 -33q51 0 101 39q76 59 108.5 78.5t112.5 46.5q109 39 108 76q0 20 -24.5 35.5t-55 25.5t-55 44t-24.5 91q0 41 16 62q2 -70 28.5 -115t57.5 -60.5t55.5 -35t24.5 -43.5q0 -18 -13.5 -36t-39 -34t-46 -27.5t-49 -24.5t-37.5 -18q-43 -20 -108.5 -74.5 t-77.5 -62.5q-29 -23 -94 -22q-47 0 -72.5 11t-36 26.5t-24 31t-49 26.5t-97.5 11q-145 0 -216.5 -4t-148.5 -50t-114 -46q-41 0 -152.5 39t-142.5 45q-4 2 -66.5 11t-101.5 23.5t-49 36.5q-6 11 -6 25zM344 602q0 -70 27 -117q18 -33 159.5 -141t141.5 -154 q0 -29 -19.5 -48t-48.5 -21q12 -25 29.5 -51.5t25 -40t13.5 -39t6 -64.5q27 12 27 45q0 47 -46 97q4 12 29 16q61 -51 143 -51q188 0 259 104q23 35 37 35t14 -51q0 -25 -16.5 -75t-16.5 -77q0 -25 27 -24q2 8 17 86t15 119q0 29 -8 85t-8 84q0 113 84 115q2 35 31.5 53.5 t68.5 18.5q57 0 90 -27q0 23 -61 49q18 59 18 105q0 92 -44 195.5t-113 144.5q51 -45 93 -154.5t42 -185.5q0 -121 -74 -121q-45 0 -45 94q0 201 -100 328q-18 94 -54 158q-6 10 -23 36.5t-26.5 47t-9.5 43.5q0 14 7 41.5t7 42.5q0 18 -28.5 33.5t-68.5 28.5t-48 19 q-12 10 -12 43q0 78 57 78q29 0 45.5 -23.5t16.5 -51.5q0 -8 -6.5 -23.5t-6.5 -24.5q0 -14 21 -14q27 0 33 16.5t-0.5 36t2.5 35.5q-23 117 -99 117q-47 0 -75.5 -31t-28.5 -78q0 -8 2 -28.5t2 -30.5v-2h-2q-14 12 -43 12q-47 0 -47 4q0 143 -68 144q-33 0 -50 -35t-17 -70 q0 -18 10 -57t24 -39q16 0 21 20l-8 7q-14 2 -21.5 22.5t-7.5 36.5q0 53 49 53q41 0 41 -78q0 -27 -54 -65.5t-54 -61.5q0 -25 49 -53.5t80 -28.5q121 0 243 84q14 0 15 -16q0 -20 -112 -58t-144 -38q-10 0 -30 3t-30 3l-4 -2q0 -18 32 -33.5t54 -15.5q47 0 121 41t88 41 t14 -15q0 -6 -11 -13t-26.5 -15.5t-17.5 -8.5q-10 -4 -83 -55t-101 -51q-37 0 -78 58.5t-45 58.5q-4 -10 -8 -32t-6 -32q-4 -10 -35 -67.5t-31 -94.5q0 -33 14 -55q-41 -12 -85 -130t-44 -175q0 -2 1 -19.5t0 -32t-2 -30.5t-5 -26.5t-12 -10.5q-27 0 -44.5 49t-17.5 84 q0 12 3.5 33t3.5 31l-2 6q-21 -8 -21 -78zM412 831l6 -4q12 2 24.5 22.5t12.5 33.5l-9 8q-4 -2 -14 -35q-12 -17 -20 -25zM682 1468l8 9q8 0 14.5 -12.5t6.5 -22.5l-2 -17l-4 -4q-10 0 -11 13q0 25 -6 26zM717 1378q0 16 28 17h5q-8 -2 -15.5 -13.5t-11.5 -11.5zM817 1391 q10 4 18.5 -4.5t12.5 -8.5l6 6q0 12 -16 13q-3 0 -21 -6zM946 1479l8 4q12 0 21.5 -13.5t9.5 -25.5l-12 -6q-4 29 -21 35zM965 1683q0 6 8 16.5t8 16.5q0 31 14 31q12 0 49 -37q0 -6 -7 -8t-17 -2t-12 -2q-4 -2 -16.5 -11.5t-16.5 -11.5l-6 2zM1108 1237q0 -18 21.5 -44 t40 -26t18.5 25q0 10 -4 15t-8.5 7.5t-12.5 4.5t-14 6q-12 8 -31 30z" />
<glyph unicode="/" horiz-adv-x="2680" d="M0 369v370h459v-366q0 -57 41 -99.5t100 -42.5t101 41t42 101v866q0 240 177.5 409t421 169t420.5 -170t177 -412v-188l-274 -82l-182 86v163q0 59 -41 100.5t-100.5 41.5t-101.5 -41t-42 -101v-854q0 -246 -176 -418.5t-422 -172.5q-248 0 -424 175t-176 425zM1483 362 v375l182 -86l274 82v-377q0 -59 41 -101t100.5 -42t100.5 42t41 101v383h459v-370q0 -248 -175 -424t-423 -176t-424 173.5t-176 419.5z" />
<glyph unicode="0" horiz-adv-x="2164" d="M-215 565h244q10 -82 60 -131t132 -49q98 0 156.5 66.5t58.5 166.5q0 98 -57 162t-154 64q-78 0 -133 -50.5t-104 -50.5q-109 0 -164 5q18 106 58 328t59 337h675v-201h-497q-29 -145 -49 -274h6q35 43 103.5 65.5t133.5 22.5q231 0 328 -211q49 123 147.5 192.5 t227.5 69.5q76 0 138.5 -17.5t122.5 -62.5t92 -76.5t97 -103.5q18 -18 27 -29q72 82 102.5 114t94 83t127 70.5t143.5 19.5q184 0 297 -124t113 -310q0 -190 -113 -319t-301 -129q-238 0 -463 268q-14 -14 -79.5 -79t-87 -81t-76 -52t-106.5 -47.5t-118 -11.5 q-129 0 -227.5 68t-151.5 188q-127 -262 -416 -262q-195 0 -320.5 97.5t-125.5 283.5zM840 627q0 -86 52 -139.5t138 -53.5q154 0 318 195q-70 72 -98.5 99.5t-97.5 67.5t-130 40q-80 0 -131 -63.5t-51 -145.5zM1636 627q55 -59 93 -93t100.5 -67t126.5 -33q88 0 138 56.5 t50 144.5q0 86 -52 143.5t-138 57.5q-51 0 -100.5 -24t-75 -44t-77 -73.5t-65.5 -67.5z" />
<glyph unicode="1" horiz-adv-x="1585" d="M0 1081q0 129 54.5 256t155.5 235.5t266 176.5t366 68q326 0 534.5 -201t208.5 -473q0 -350 -177 -578.5t-458 -228.5q-92 0 -173 43t-113 104l-82 -323q-10 -39 -26.5 -79t-36 -77t-39 -69.5t-39 -61.5t-34 -48.5t-26.5 -33.5l-12 -16q-6 -8 -16.5 -6t-12.5 12 q0 2 -3 28.5t-6 56.5t-6 77t-2 91t6 97t15 98q23 96 152 641q-16 33 -26.5 79t-10.5 75l-2 31q0 131 66.5 218t160.5 87q76 0 118 -50t42 -126q0 -47 -17.5 -116t-46 -158t-41.5 -144q-20 -92 36 -159.5t151 -67.5q162 0 267 183t105 443q0 199 -129 325t-360 126 q-258 0 -419 -166t-161 -397q0 -137 78 -232q27 -31 17 -65q-4 -10 -12.5 -47t-12.5 -47q-4 -23 -20.5 -31t-36.5 2q-121 49 -181.5 168.5t-60.5 279.5z" />
<glyph unicode="2" d="M30.5 1020q67.5 270 257 465.5t451.5 271.5t532.5 8.5t466 -257t271.5 -451.5t8.5 -532.5t-257 -466t-451.5 -271.5t-532.5 -8.5t-466 257t-271.5 452t-8.5 532.5zM498 465l147 -37q14 -2 41 -10t39 -10l-47 -187l113 -28l45 184q12 -4 42.5 -11.5t47.5 -11.5l-45 -184 l112 -27l45 187q98 -16 175 -15.5t135.5 41.5t87.5 125q66 184 -105 273q123 27 144 164q27 176 -226 258l47 186l-112 27l-45 -181q-16 4 -47 11.5t-43 11.5l45 180l-113 29l-45 -185q-31 4 -72 17l-155 39l-29 -121l80 -19q57 -14 53 -65l-53 -211q4 0 12 -4q-2 2 -6 2 t-6 2l-74 -295q-10 -37 -51 -27l-82 21zM872 512l62 248q2 0 40 -8.5t57.5 -14.5t57 -18t58 -26.5t43 -34t30 -45t-0.5 -56.5q-6 -23 -18.5 -39t-31 -24.5t-38 -14.5t-47 -5t-48 3t-49.5 8.5t-44 9.5t-40 9t-31 8zM963 872l55 226q6 -2 25.5 -6.5t34 -7.5t37 -10t38.5 -13 t36.5 -17.5t31 -22.5t23.5 -27.5t12 -34t-3 -39.5q-6 -27 -21 -44.5t-39 -23.5t-46.5 -9t-54 2t-49 8t-47 11t-33.5 8z" />
<glyph unicode="3" horiz-adv-x="2312" d="M0 1407h158l219 -743l147 499l-71 244h157l219 -743l220 743h157h436v-74l-223 -385q119 -41 176 -137q61 -102 62 -233q0 -168 -88 -281t-230 -113q-104 0 -184 68q-80 70 -115 182l123 51q27 -70 72 -110q41 -39 104.5 -39t106.5 70q45 70 45 172q0 106 -47 170 q-55 70 -170 69h-62v74l211 364h-254l-14 -24l-311 -1047h-15l-225 758l-227 -758h-15zM1675 553l37 -102q31 -68 68 -119q86 -119 192 -137q92 -18 180 36q39 25 72 64q41 41 57 74q8 14 23 41l-23 120q-16 -33 -32.5 -57t-24.5 -35l-8 -8q-70 -76 -125 -100 q-68 -31 -139 -23q-55 4 -123 49q-74 63 -88 88q-27 37 -66 109zM1731 952q0 172 67 299q33 61 77 98t87 42q72 8 143 -54q37 -31 76 -102l90 178l25 -156l-90 -174q-16 33 -39 62t-37 41l-16 12q-63 45 -132 31q-49 -10 -97 -61.5t-70 -120.5q-39 -113 -39 -218 q-2 -82 10 -129q-25 45 -39 108.5t-14 104.5z" />
<glyph unicode="4" horiz-adv-x="2394" d="M0 854q0 215 156.5 367.5t378.5 152.5q174 0 312 -98t193 -254l136 131l323 -311l895 913v-829l-547 -422l70 -74l-743 -723l-648 629q-219 4 -372.5 155.5t-153.5 362.5zM76 854q0 -184 133 -313t321 -129q68 0 134 18l450 -399l1198 942l2 618l-1184 -1220l-184 299 q41 88 41 184q0 182 -134 312t-322.5 130t-321.5 -130t-133 -312zM174 850q0 143 101.5 244.5t245 101.5t244.5 -100.5t101 -245.5q0 -143 -101 -244.5t-244.5 -101.5t-245 101.5t-101.5 244.5z" />
<glyph unicode="5" horiz-adv-x="1454" d="M-109 1495h836h838l-158 -1702l-680 -192l-680 192zM47 1638v318h107v-105h96v105h106v-318h-106v105h-96v-105h-107zM201 1147l59 -637l2 4h719l-25 -270l-229 -66l-231 68l-15 164h-213l31 -328l428 -121l428 121l59 641h-763l-19 213h803l18 211h-1052zM403 1849v107 h293v-107h-94v-211h-106v211h-93zM743 1638v318h5h98h8l66 -109l65 109h10h97h6v-318h-103v162l-75 -117v-2v2l-74 113v-158h-103zM1153 1638v318h107v-211h149v-107h-149h-80h-27z" />
<glyph unicode="6" horiz-adv-x="1931" d="M0 56.5q-6 72.5 14 121.5q80 287 189 490q233 442 641 721v28q-346 -145 -664 -522l-82 -107q-4 121 33 236t92.5 192.5t111.5 137t95 88.5l39 26q8 4 21.5 11.5t56.5 28t89 38t112.5 34.5t131 24.5t143.5 4.5t151 -24q131 96 263 149.5t199 59.5l68 6q102 10 158.5 -34 t63.5 -112.5t-1 -139t-24 -121.5l-19 -50l-10 11q43 117 42 191.5t-36 115.5t-75 59.5t-74 20.5l-33 4q-8 0 -23.5 -1t-66 -10.5t-100.5 -25.5t-123.5 -51t-141.5 -84q141 -23 252 -86.5t176.5 -144t111.5 -174t63.5 -181.5t26.5 -159.5t7 -114.5l-2 -45h-1141 q-6 -86 21.5 -149.5t69.5 -93.5t84 -46.5t73 -18.5l31 -2q8 0 23.5 1t54 11.5t70.5 29t63.5 58.5t44.5 95h598q-33 -121 -96.5 -219t-139.5 -158.5t-159.5 -104.5t-160.5 -64.5t-139.5 -33t-99.5 -14.5h-39q-160 0 -219 12q-123 -96 -259 -150t-212 -61l-74 -6 q-94 0 -158.5 48t-85 115t-26.5 139.5zM155 67.5q-1 -49.5 5 -87t16 -58.5l8 -18q8 -6 22.5 -16.5t69 -28t117 -16.5t168 34t219.5 103q-16 4 -43.5 11t-103.5 36.5t-141.5 64.5t-136 97.5t-109.5 132.5q-45 -70 -67.5 -137.5t-23.5 -117zM733 936h543q2 74 -23.5 129 t-65.5 79.5t-79 39t-68 16.5l-28 2q-12 0 -30.5 -2t-68 -16.5t-86 -39t-66.5 -79.5t-28 -129z" />
<glyph unicode="7" horiz-adv-x="1843" d="M86 1231q4 35 31 65l245 246q29 25 44 -8l198 -373q16 -33 -10 -63l-90 -90q-25 -25 -29 -64q0 -61 63.5 -157.5t125.5 -163.5l63 -66q29 -29 74 -71t148.5 -110.5t162.5 -68.5q39 0 66 27l106 106q29 29 62 9l358 -211q14 -8 16 -21.5t-8 -23.5l-246 -246 q-31 -27 -65 -31q-272 -37 -703 313q-94 78 -157 142q-20 20 -54 56t-118 141.5t-145.5 205.5t-106.5 228.5t-31 228.5z" />
<glyph unicode="8" horiz-adv-x="1755" d="M6 203v2q-23 94 25 186q43 90 139 162q86 66 203 111q111 43 239 67q82 14 193 21l-17 323q-115 33 -188.5 128t-73.5 216q0 147 104.5 252t252 105t252 -104.5t104.5 -252.5q0 -123 -74.5 -218t-189.5 -126l-17 -323q102 -6 185 -21q133 -27 237 -67q119 -45 203 -111 q94 -68 139 -162q45 -92 25 -186v-2l-4 -21l-4 -20q-2 -2 -2 -8.5t-2 -10.5l-2 -2v-2q0 -2 -2 -7t-2 -7v-2l-3 -2q-4 -12 -6 -17q-2 -2 -2 -6l-2 -2l-6 -12q0 -2 -4 -6l-6 -12q0 -2 -4 -7q-4 -8 -6 -10q-2 -4 -7 -8l-4 -8q-16 -20 -22 -27v-2h-2q-6 -8 -23 -24l-2 -3l-4 -4 q-4 -4 -13 -12t-14 -12l-4 -2v-2l-30 -25h-2l-2 -2q-16 -12 -27 -18v-2q-4 -2 -29 -17l-4 -2l-4 -2l-18 -12q-33 -16 -52 -25q-8 -4 -14 -6l-4 -2q-23 -10 -41 -16q-4 -2 -20 -9q-8 -4 -48 -16l-6 -2q-2 0 -5 -1t-5 -3q-63 -16 -70 -18h-2h-2q-43 -12 -73 -17l-7 -2 q-53 -8 -77 -10h-4q-25 -4 -82 -8h-2h-43h-2q-14 -2 -43 -2q-57 0 -86 2h-5q-53 4 -81 8h-5q-25 4 -38 6h-3q-6 2 -19 4t-19 2h-3q-53 8 -75 17h-4q-10 4 -35 10t-35 8l-2 2h-2q-29 8 -66 23h-4v2q-12 4 -59 24l-4 2q-29 10 -60 29l-2 2q-4 0 -4 2l-4 2v2q-6 2 -14 6 q-6 4 -20.5 14.5t-22.5 14.5l-2 2l-2 2q-14 8 -39 29l-2 2l-4 2l-31 30l-2 3q-4 0 -4 2q-4 6 -15 16l-14 14l-2 4v2l-25 31v2l-2 2q-2 6 -9 16.5t-9 16.5l-2 2v2q-6 12 -14 33v2l-2 2q-2 6 -5.5 17.5t-5.5 17.5l-4 20zM238 272q6 -18 16 -41q31 -66 104 -120q78 -57 193 -95 q113 -37 258 -47l6 203v2h2h125h2v-2l6 -203q139 10 258 49q115 39 189 95q76 57 104 120q8 14 15 39v13v18q-2 6 -3 16h-272h-2v3l-8 98v2h2h233q-8 8 -12 14l-2 2l-2 2l-2 2l-6 7q0 2 -1 2t-1 2q-2 0 -2 1t-2 1l-19 18l-2 2q-6 2 -8 8q-2 0 -4 2l-2 2q-2 2 -6 5.5 t-9.5 6.5t-7.5 5l-2 2q-2 0 -2 2h-2q-16 14 -35 22l-2 2q-4 0 -4 3l-4 2q-20 10 -31 14l-2 2l-2 2q-2 0 -6 2q-2 2 -4 2l-6 2q-4 4 -8 4q-2 0 -4 2t-4 2l-5 2q-2 2 -8 4.5t-8 2.5q-6 2 -16.5 5t-14.5 5l-4 2h-2q-2 2 -4 2l-4 2h-2h-2l-4 2h-4q-4 2 -17 6q-2 2 -8 3t-8 1 t-8 2t-8.5 2t-6.5 2t-6 2t-6 1t-8 1q-4 2 -12 2q-2 0 -7.5 2.5t-7.5 2.5q-8 0 -12 2h-2h-2h-2l-6 2q-8 0 -13 2q-8 0 -12 2h-12l-10 2q-2 0 -6.5 1t-6.5 1h-12q-4 2 -12 2h-10l-9 2l-14 -283h-113l-14 283h-4q-2 0 -6 -1t-6 -1h-11h-2h-2q-2 0 -7 -1t-9 -1q-10 0 -16 -2h-5 h-2h-2h-2l-2 -2h-4q-2 0 -8 -1t-8 -1t-6 -2h-4h-5l-10 -2h-2h-4q-20 -4 -29 -7h-4v-2h-4h-2l-4 -2q-2 0 -7 -1t-7 -1q-4 -2 -11 -2l-4 -2q-2 0 -4 -1t-4 -1h-2l-4 -2q-8 -2 -20 -6h-5l-4 -2l-6 -2h-2l-4 -2q-4 -2 -10 -4t-10 -2l-5 -2l-4 -2q-2 0 -4 -2h-2l-4 -2 q-10 -2 -26 -11l-5 -2h-2h-2l-4 -2l-12 -6l-4 -2l-4 -2l-2 -2h-2q0 -2 -2 -2t-4 -2h-5l-2 -2q-4 -2 -11 -6t-11 -7l-2 -2l-2 -2h-2l-6 -4q-8 -4 -13 -8q-2 0 -5 -2t-5 -4h-2v-2q-8 -4 -12 -8q-2 0 -5.5 -2t-5.5 -4l-6 -7h-2l-8 -8q-6 -2 -8 -8q-4 -2 -8 -6l-2 -2l-4 -4 l-9 -8l-6 -7q-4 -4 -6 -8l-6 -6l-2 -2q-2 -2 -2 -4l-2 -2h237h2v-2l-10 -98v-3h-276q0 -6 -2 -8v-8v-2q0 -2 -1 -4t-1 -4v-4v-2v-2v-2v-9v-2zM487 322h31h-31zM524 410l2 10zM651 1563q-14 -43 1.5 -82t52 -53.5t74.5 6t55 61.5q14 43 -1.5 83t-52.5 54.5t-75 -6t-54 -63.5z M811 -14v-17v17zM1233 420h31h-31zM1241 322v2v-2z" />
<glyph unicode="9" horiz-adv-x="2498" d="M0 1432q-2 10 5 19t18 11q23 4 63.5 13.5t56.5 13.5q0 35 2 100.5t2 100.5q4 25 27 24q29 0 29 -28q-4 -123 -4 -187q23 4 71.5 14.5t71.5 16.5q39 6 114.5 20.5t112.5 20.5q823 141 1626 147q12 0 19.5 -9t5.5 -21q0 -23 -4 -68t-4 -68q86 -6 262 -22q10 0 18.5 -9.5 t6.5 -19.5q-45 -281 -139.5 -844t-139.5 -845q102 -16 156 -25q16 -2 21 -16.5t-1 -26.5t-20 -12h-6q-27 4 -80.5 13t-79.5 13q-2 -25 -10 -63q-4 -18 -21 -23q-2 -2 -8 -2h-8q-608 154 -1229 240q-205 4 -305 4q-113 0 -338 -4v-2q2 -2 2 -4q2 -12 -8.5 -21.5t-22.5 -9.5 q-23 0 -24 23q0 10 -3.5 31.5t-5.5 33.5h-26q-16 0 -21.5 14.5t1.5 27.5t24 13h2h14l-12 111q-12 82 -51 398.5t-73 515t-87 391.5zM61 1415q43 -160 89 -411q-6 143 -7 428q-33 -5 -82 -17zM199 1229q2 -395 43 -869q6 -82 22 -223l19 -123q137 -6 393 -26.5t373 -26.5 q725 -41 989 -72q23 328 66.5 932t60.5 842q-958 -8 -1966 -219q-2 -109 0 -215zM387 895q0 -139 87 -227t222 -88q141 0 224 88h4q-27 -143 -133 -228q-84 -68 -207 -78q-82 -8 -107 -4v-153q72 0 117 4q219 16 350 139q178 168 178 477q0 193 -96 315t-270 122 q-160 0 -264.5 -108.5t-104.5 -258.5zM580 907q0 92 46 150.5t119 58.5h3q88 0 133 -72.5t43 -185.5q0 -33 -11 -53q-53 -86 -165 -86q-78 0 -123 53t-45 135zM762 -70l196 -20l764 -82q287 -61 428 -98l7 37q-113 18 -338 51q-510 71 -1057 112zM1155 895q0 -139 88 -227 t221 -88q141 0 226 88h2q-27 -143 -131 -228q-86 -68 -209 -78q-82 -8 -107 -4v-153q72 0 117 4q219 16 350 139q178 164 178 477q0 193 -96 315t-268 122q-160 0 -265.5 -108.5t-105.5 -258.5zM1348 907q0 92 47 150.5t118 58.5h3q88 0 133 -72.5t43 -185.5q0 -33 -11 -53 q-53 -86 -165 -86q-78 0 -123 53t-45 135zM2079 -166q57 -8 88 -12q41 246 132 803t140 854q-27 2 -73 6t-84.5 7t-73.5 5q-12 -174 -55.5 -750.5t-63.5 -891.5q0 -10 -8 -19q-2 0 -2 -2z" />
<glyph unicode=":" horiz-adv-x="1708" d="M0 -266l854 2048l854 -2048h-756v276l348 174l-26 113l-322 -162v137l201 107l-29 117l-172 -93v179h-188v-322l-176 121l-33 -131l209 -144v-372h-764z" />
<glyph unicode=";" horiz-adv-x="2097" d="M0 246v692q0 25 23 25h329v239q0 27 23 27h184v-957q0 -27 -24 -26h-535zM203 399h125q25 0 24 27v383h-125q-25 0 -24 -25v-385zM623 246v692q0 25 22 25h184v-691q0 -27 -24 -26h-182zM623 1075v129q0 25 22 25h184v-129q0 -25 -24 -25h-182zM901 0v129q0 25 23 25h327 v92h-350v692q0 25 23 25h536v-938q0 -25 -24 -25h-535zM1104 399h125q23 0 22 27v383h-125q-23 0 -22 -25v-385zM1530 0v129q0 25 24 25h328v92h-352v692q0 25 24 25h535v-938q0 -25 -23 -25h-536zM1733 399h127q23 0 22 27v383h-125q-25 0 -24 -25v-385z" />
<glyph unicode="&#x3c;" d="M0 673.5q0 149.5 105.5 256t254.5 106.5q129 0 234 -88l733 367q0 4 -1 11t-1 11q0 150 106.5 255.5t256 105.5t255 -105.5t105.5 -255t-105.5 -256t-254.5 -106.5q-131 0 -234 86l-733 -367q0 -2 1 -9t1 -11q0 -2 -1 -10.5t-1 -10.5l733 -366q102 86 234 86 q150 0 255 -105.5t105 -255t-105.5 -256t-254.5 -106.5q-152 0 -257.5 105.5t-105.5 256.5q0 2 1 9.5t1 11.5l-733 366q-102 -86 -234 -86q-150 0 -255 105.5t-105 255z" />
<glyph unicode="=" d="M0 694q0 279 137 514.5t372.5 372.5t514.5 137t514.5 -137t372.5 -372.5t137 -514.5q0 -207 -78 -393t-219 -328q-123 150 -298 234t-374 84q-219 0 -407.5 -101.5t-309.5 -275.5q-170 145 -266 348t-96 432zM336 989q0 -35 24.5 -60.5t61.5 -25.5q12 0 18 2 q295 119 610.5 119t610.5 -119q2 0 8 -1t10 -1q35 0 60.5 25.5t25.5 60.5q0 51 -47 76q-326 129 -667 129q-348 0 -674 -131q-41 -27 -41 -74zM430 684l12 -33q16 -27 47 -26q6 0 19 4q260 113 543 112q285 0 546 -114q8 -4 15 -4q31 0 47 26l10 35q0 27 -20 43 q-283 127 -598 127q-313 0 -600 -127q-21 -20 -21 -43zM528 389q20 -51 64 -33q221 104 459 105q229 0 448 -99q49 -27 72 25q10 27 0 47.5t-29 30.5q-217 109 -491 108q-262 0 -500 -112q-39 -21 -23 -72zM653 -260q76 98 187.5 155.5t238.5 57.5q233 0 396 -176 q-213 -106 -451 -107q-193 0 -371 70z" />
<glyph unicode="&#x3e;" horiz-adv-x="2467" d="M0 805q0 127 101.5 217t230.5 90q127 0 215 -74h10q274 168 686 168l10 8l144 547l495 -73q0 -2 4 -2q2 0 0 2q4 2 23.5 31.5t30.5 37.5q70 66 168 66q100 0 168.5 -66.5t68.5 -167t-68.5 -172t-168.5 -71.5q-117 0 -178.5 78.5t-61.5 197.5q-4 -2 -199.5 26.5 t-224.5 34.5h-6q-4 -4 -34 -109.5t-61.5 -223t-35.5 -129.5v-7l10 -8q147 0 302 -42t267 -117l7 -5q2 2 4 2t4 3q51 37 72.5 51t60.5 26.5t88 12.5q139 0 237.5 -98.5t98.5 -239.5q0 -96 -54.5 -176t-142.5 -123q0 -399 -532 -621q-84 -37 -115 -47q-66 -20 -186.5 -38.5 t-190.5 -18.5q-246 0 -473 71q-4 4 -147 78q-195 104 -312.5 237.5t-117.5 319.5h-11q-68 35 -120 103l-19 24q-31 55 -39 93t-8 104zM70 780q0 -135 116 -229q10 121 98.5 237.5t207.5 206.5q-76 53 -168 54q-100 0 -177 -83.5t-77 -185.5zM279 481q0 -111 63.5 -213 t162.5 -175t209.5 -122t215.5 -69q154 -29 299 -29q252 0 477 81t379 251h-6q61 78 87.5 140.5t26.5 148.5q0 111 -54 211t-142 171.5t-188.5 124t-204.5 78.5q-174 47 -371 47q-152 0 -310.5 -36.5t-307 -110.5t-242.5 -204t-94 -294zM659 631q0 76 46.5 122t122 46 t127 -46t51.5 -122q0 -74 -52.5 -123t-126 -49t-121 49t-47.5 123zM733 295h90q51 -92 163 -140.5t228 -48.5q119 0 225.5 48.5t172.5 140.5h84q-51 -127 -190.5 -196.5t-291.5 -69.5q-147 0 -289.5 70.5t-191.5 195.5zM1421 631q0 78 47.5 123t124.5 45q70 0 119 -49.5 t49 -119t-49 -120.5t-119 -51q-76 0 -124 48t-48 124zM1944 1589q0 -72 51 -123t123 -51q74 0 121 50.5t47 123.5q0 70 -49.5 119t-119 49t-121.5 -50t-52 -118zM1972 1014q113 -74 195 -189.5t114 -244.5q121 88 121 196q0 119 -72.5 205t-189.5 86q-92 0 -168 -53z" />
<glyph unicode="?" horiz-adv-x="1570" d="M4 178q0 45 25 131q47 178 177 323.5t302 211.5q-162 129 -162 330q0 176 128 298.5t304 122.5t304 -122.5t128 -298.5q0 -199 -157 -328q217 -78 362.5 -260.5t145.5 -405.5q0 -188 -150 -217q-6 -20 -27 -53q-12 -33 -48 -58.5t-99 -42t-101 -24.5t-116 -18.5 t-80 -10.5q-4 0 -14.5 -2t-14.5 -2h-245q-104 0 -264 34t-183 91q-35 35 -51 86q-51 10 -86 43q-78 31 -78 172z" />
<glyph unicode="@" horiz-adv-x="1581" d="M-80 752v233q0 197 197.5 455t390.5 366q174 98 424 99q102 0 202.5 -23.5t193.5 -70t151.5 -131.5t58.5 -193q0 -33 -7 -65.5t-16.5 -57.5t-31 -56.5t-33.5 -49t-43 -49t-42 -43t-47 -46.5t-44 -41q39 -2 119 -2q174 0 262 2q4 -82 4 -245q0 -582 -94 -744 q-82 -139 -216.5 -245.5t-289.5 -159.5q-106 -33 -127 -33h-191q-6 0 -28.5 8t-49 18.5t-32.5 12.5q-137 59 -205 154.5t-68 242.5q0 31 2 47q-307 158 -409 490q-31 100 -31 127zM252 1047q0 -127 36 -248t126 -216.5t219 -95.5q29 0 90 34t113 34q29 0 114.5 -23.5 t85.5 -44.5q0 -49 -59 -49q-31 0 -53.5 -2t-53.5 -2q-80 0 -135 -51t-55 -117q0 -133 96 -199.5t234 -66.5q106 0 209.5 38t166.5 112q96 113 97 374q0 39 -2 134.5t-1 165t9 132.5h-440q-2 -18 -2 -53q0 -27 3 -79t3 -76q0 -84 -19 -130q-12 -2 -39 -2q-82 0 -145.5 42 t-97 111t-50 143.5t-16.5 150.5q0 74 16.5 151.5t49 155.5t94 127t141.5 49q14 0 47 -4q-8 -35 -8 -80q0 -78 43 -131t119 -53q78 0 131 53t53 131q0 94 -70.5 160t-160.5 91.5t-180 25.5q-307 0 -508 -193.5t-201 -498.5z" />
<glyph unicode="A" horiz-adv-x="1761" d="M2 801q-3 -36 -3 -74q0 -139 42 -295q53 -199 170 -377q182 -279 352 -280q61 0 159.5 43t195.5 43h8q94 0 186 -42q96 -44 156 -44q100 2 186 84t174 213q63 98 133 247q-102 39 -173.5 117t-98.5 174q-20 72 -20 144q0 25 2 50q9 97 68.5 186t160.5 145 q-78 98 -182.5 153t-210.5 55q-98 0 -216 -44t-176 -44q-61 0 -185 44t-208 44q-119 0 -234.5 -68.5t-195.5 -189.5q-76 -114 -90 -284zM852 1329q-6 31 -6 62q0 134 108 264q55 68 142.5 115t169.5 53q5 -31 4 -61q0 -141 -103 -271q-55 -72 -142 -118q-83 -44 -166 -44h-7 z" />
<glyph unicode="B" horiz-adv-x="2039" d="M0 338v756q0 266 190.5 456.5t456.5 190.5h453q133 -16 283.5 -116.5t213.5 -235.5q2 -4 10.5 -19.5t10.5 -21t7 -19.5t8 -25.5t7.5 -32t8.5 -45t8 -59.5q18 -143 53 -174q29 -27 145.5 -29.5t133.5 -15.5l28 -22l17 -35l6 -29l-4 -524q-2 -266 -190.5 -455.5 t-454.5 -189.5h-744q-266 0 -456.5 189.5t-190.5 455.5zM530 348q0 -51 37 -87t88 -36h729q51 0 87 36t36 87t-35.5 87t-87.5 36h-729q-51 0 -88 -36t-37 -87zM530 1089.5q0 -51.5 37 -88t88 -36.5h359q51 0 87 36.5t36 88t-36 87t-87 35.5h-359q-51 0 -88 -35.5t-37 -87z " />
<glyph unicode="C" d="M0 778q0 201 78 391q76 184 225 334q295 299 719 299q428 0 731 -299q145 -145 219 -332q76 -182 76 -393q0 -213 -74 -393q-74 -182 -219 -326q-152 -147 -340 -227q-193 -78 -393 -78q-199 0 -389 78q-182 76 -331.5 225.5t-225.5 331.5t-76 389zM184 778 q0 -162 66 -317q63 -154 186 -273q123 -123 273 -182q147 -63 317 -63q166 0 320 63q152 63 278 184q240 233 240 588q0 174 -64 322q-61 156 -180 270q-246 248 -594 248q-350 0 -590 -246q-121 -121 -186 -274q-66 -156 -66 -320zM440 778q0 145 86 232q84 86 215 86 q188 0 273 -148l-137 -71q-23 49 -56 63q-31 18 -59 18q-137 0 -137 -180q0 -80 34 -131q37 -49 103 -49q90 0 127 86l127 -63q-43 -74 -113 -117q-72 -43 -158 -43q-137 0 -221 83.5t-84 233.5zM1032 778q0 145 86 231.5t215 86.5q190 0 271 -148l-136 -71q-23 47 -53 63 q-35 18 -61 18q-137 0 -137 -180q0 -84 34 -131q35 -49 103 -49q88 0 125 86l129 -63q-45 -76 -115 -117q-72 -43 -154 -43q-141 0 -223 84q-84 83 -84 233z" />
<glyph unicode="D" d="M0 757.5q0 278.5 137 514t372.5 373t514.5 137.5t514.5 -137.5t372.5 -373t137 -514t-137 -514t-372.5 -372.5t-514.5 -137t-514.5 137t-372.5 372.5t-137 514zM170 758q0 -319 215 -563q98 193 311 366.5t416 218.5q-31 72 -59 129q-352 -113 -762 -112q-80 0 -119 2 q0 -8 -1 -20.5t-1 -20.5zM197 969q45 -4 133 -4q342 0 649 92q-156 276 -342 461q-162 -82 -277.5 -227.5t-162.5 -321.5zM502 84q231 -180 522 -180q152 0 301 57q-41 350 -160 678q-188 -41 -379.5 -207t-283.5 -348zM815 1583q180 -186 334 -465q279 117 420 297 q-238 197 -545 197q-105 0 -209 -29zM1223 973q31 -66 69 -166q152 14 330 14q127 0 252 -6q-16 279 -201 496q-133 -199 -450 -338zM1343 664q104 -303 142 -623q162 104 264 268t123 355q-150 10 -273 10q-113 0 -256 -10z" />
<glyph unicode="E" horiz-adv-x="1714" d="M0 1108q0 82 31 119q18 29 53 43q37 18 96 18h193q31 0 53.5 22.5t22.5 53.5q0 43 -3 90v121q0 51 25 90q31 43 102 64q22 12 108 11h40q121 -3 201 -34q78 -33 92 -127q53 2 99 2q108 0 181 -10q199 -25 265 -49q86 -27 108 -138q20 -113 37 -430q9 -181 9 -301 q0 -90 -5 -145q-33 -352 -88 -520q-29 -86 -57.5 -140.5t-56 -87t-75 -47t-87 -17.5t-119.5 -3q-221 0 -298 52t-77 218q0 92 19.5 146.5t67.5 77t95 26.5q31 3 83 3q26 0 56 -1q8 0 11.5 -3t1.5 -10t-5 -15.5t-6.5 -22.5t-3.5 -27q0 -18 4.5 -37.5t2.5 -24.5t-15 -5h-19 h-22q-6 0 -20.5 -1t-20.5 -3.5t-17 -5.5t-16.5 -8t-11.5 -12t-8 -18.5t-2 -23.5q0 -29 8 -47.5t15.5 -28.5t37 -14t44.5 -4h67q117 0 149.5 27.5t32.5 129.5q0 156 -37.5 210.5t-115.5 64.5q-180 18 -244 41q-109 41 -109 244q0 4 -5 4t-5 -4q0 -137 -37 -246l-16 -49 q-25 -51 -77 -54h-10q-49 0 -112 17q-260 33 -405 96q-49 23 -76 82q-35 72 -73 263.5t-48 273.5q-8 67 -8 104zM12 1352v4l375 368q0 2 2 2l-6 -12q-23 -41 -23 -98q0 -45 2 -211q0 -20 -20 -21h-190q-70 0 -121 -22q-11 -6 -19 -10zM1176 758q43 6 94 6q92 -2 166 -37 q0 174 -125 178h-6q-61 0 -91 -41q-30 -43 -38 -106z" />
<glyph unicode="F" horiz-adv-x="2156" d="M0 881q0 213 149.5 362.5t362.5 149.5t362.5 -149.5t149.5 -362.5t-149.5 -362.5t-362.5 -149.5t-362.5 149.5t-149.5 362.5zM1130 881q0 213 150 362.5t362.5 149.5t362 -149.5t149.5 -362.5t-149.5 -362.5t-362 -149.5t-362.5 149.5t-150 362.5z" />
<glyph unicode="G" horiz-adv-x="1323" d="M0 39q0 178 182.5 317.5t440.5 139.5h110q-86 82 -86 176q0 59 33 119q-20 -2 -59 -3q-213 0 -348.5 133.5t-135.5 327.5q0 186 168 325.5t383 139.5h635l-141 -102h-201q96 -37 150.5 -139.5t54.5 -227.5q0 -190 -180 -332q-76 -59 -98.5 -94t-22.5 -86q0 -39 55 -98.5 t111 -99.5q125 -88 173 -180.5t48 -231.5q0 -184 -168 -320.5t-455 -136.5q-272 0 -460.5 102.5t-188.5 270.5zM229 106q0 -141 120 -240t298 -99q244 0 353.5 90t109.5 239q0 39 -8 66q-6 23 -14.5 42t-24.5 38.5t-28.5 33t-40 34t-42 30.5t-51.5 35.5t-53 36.5 q-80 25 -158 24h-7q-180 0 -315 -96q-139 -99 -139 -234zM365 1251q23 -162 124 -278.5t224 -118.5h8q115 0 184 107q56 86 56 203q0 33 -5 69q-20 162 -121.5 274.5t-224.5 116.5h-9q-117 0 -185 -104q-56 -84 -56 -200q0 -34 5 -69z" />
<glyph unicode="H" horiz-adv-x="1798" d="M0 582q0 -301 207 -526.5t532 -225.5q324 0 531 225q207 221 207 527q0 160 -56 299q-82 -51 -174 -70q45 -104 45 -233q0 -156 -73 -291q-76 -135 -203 -207q-127 -74 -277 -74q-154 0 -278 74q-129 76 -201 207q-76 133 -76 291q0 240 164 413q164 170 391 170 q104 0 201 -39q8 80 55 176q-117 43 -256 43q-328 0 -544 -241q-195 -219 -195 -518zM573 63q44 -9 95 -8h20q152 96 255.5 223.5t148.5 254t63 259.5q12 85 12 161q0 43 -4 83q-10 113 -25.5 202t-31.5 140l-19 52q-45 139 -89 243.5t-64 136.5l-23 35q80 -41 128 -98 t59 -108q9 -42 8 -80v-15q-2 -45 -12 -71l-11 -27q9 -121 10 -232q0 -616 -278 -956q-121 -144 -242 -195zM1137 1369q8 81 47 130l37 51q57 63 221 105q74 16 136 71.5t89 104.5l27 47q82 -115 99 -263q8 -65 8 -119q0 -69 -13 -120l-23 -92q-25 -68 -68.5 -123t-74.5 -76 l-31 -22q-69 -41 -137 -41l-223 108q119 66 207 133.5t130 118t67.5 91t29.5 63.5l4 20q-37 -82 -99.5 -149.5t-127 -106t-123.5 -66.5t-96 -38l-37 -10q-50 90 -50 163q0 10 1 20z" />
<glyph unicode="I" horiz-adv-x="909" d="M0 -115q190 12 244 52q55 39 55 198v1241q0 154 -55 197q-53 43 -244 53v51h909v-51q-188 -10 -241 -53q-55 -43 -56 -197v-1241q0 -160 56 -198q53 -39 241 -52v-51h-909v51z" />
<glyph unicode="J" horiz-adv-x="2527" d="M0 440q0 330 377 711q240 238 482 333q116 45 200 45q92 0 147 -54q54 -54 54 -148q0 -64 -25 -147q-12 -43 25 -39l34 10q197 82 348.5 82t217.5 -86q31 -44 31 -106q0 -64 -33 -146q-14 -20 -5 -34.5t16 -18.5t29 -11q127 -39 217.5 -127t90.5 -219q0 -121 -84 -246.5 t-228.5 -230t-364.5 -172t-468 -67.5q-268 0 -507 78.5t-396.5 235t-157.5 357.5zM256 342q20 -207 256 -331q189 -99 429 -99q60 0 122 6q313 31 521 199q189 153 189 338q0 18 -1 37q-20 205 -258 328q-190 99 -428 100q-59 0 -121 -7q-207 -20 -375 -104t-258 -208 q-78 -107 -78 -222q0 -18 2 -37zM584 215q-26 60 -27 121q0 71 37 143q63 131 212 197q93 41 187 41q56 0 111 -15q156 -41 223 -167q35 -65 35 -135q0 -65 -31 -134q-63 -145 -223 -213q-91 -38 -181 -38q-68 0 -136 22q-150 47 -207 178zM698 253q12 -50 62 -71 q27 -12 56 -12q24 0 49 8q56 18 87 68q20 32 20 65q0 15 -4 31q-13 49 -63 70q-26 11 -53 10q-25 0 -51 -8q-55 -18 -84 -66q-22 -32 -22 -67q-1 -14 3 -28zM988 416q5 -18 26 -27q9 -4 19 -4t21 4q22 8 32 26.5t3.5 37t-24.5 26.5q-18 6 -39.5 -1t-32.5 -25q-7 -12 -7 -25 q0 -6 2 -12zM1645 1688q-2 11 -3 21q0 27 16 50q22 33 60 43q70 15 140 15q103 0 204 -32q170 -54 293 -189.5t160 -313.5q15 -71 15 -140q0 -103 -33 -200v-2q-12 -37 -49 -55q-22 -11 -44 -11q-15 0 -30 5q-39 12 -57 48q-10 21 -10 42q0 15 5 30v2q23 69 24 143 q0 48 -10 99q-26 127 -114 223.5t-209 134.5q-71 22 -143 22q-50 0 -101 -11q-11 -2 -21 -2q-28 0 -52 16q-33 23 -41 62zM1726 1366q-3 10 -2 20q0 22 13 42q18 30 53 38q39 8 76 8q137 0 235 -108q59 -68 77 -154q7 -34 7 -67q0 -51 -16 -98q-10 -33 -41 -49 q-18 -9 -38 -9q-13 0 -26 4q-33 10 -48 41q-9 18 -9 38q0 13 4 26q9 28 9 53q0 57 -44 102q-46 54 -111 54q-19 0 -40 -4q-10 -2 -19 -3q-22 0 -43 14q-29 19 -37 52z" />
<glyph unicode="K" d="M0 731.5q0 278.5 137 514t372.5 372.5t514.5 137t514.5 -137t372.5 -372.5t137 -514t-137 -514t-372.5 -373t-514.5 -137.5t-514.5 137.5t-372.5 373t-137 514zM264 731q0 -133 74 -158q10 -4 35 -8h4q84 0 170 82q84 74 119 184q32 99 32 234q0 81 -12 176q-4 25 -4 35 q-6 12 0 18q2 6 27 -2q78 -20 159 -59q94 -43 209 -143q92 -80 178 -183q68 -80 164 -213q84 -117 180 -157q46 -16 79 -16q10 0 19 1q38 6 59.5 41t30.5 76t9 92q0 98 -24 197q-6 25 -17 57q-29 88 -84 172q-106 162 -277 254t-364 92q-135 0 -256 -45q-164 -57 -288 -182 t-181 -291q-2 -10 -8 -28.5t-10 -28.5q-23 -95 -23 -182v-15z" />
<glyph unicode="L" horiz-adv-x="2035" d="M45 1503q0 94 65.5 154.5t170 60.5t167 -60.5t62.5 -154.5q2 -92 -62.5 -153.5t-171.5 -61.5h-2q-102 0 -165.5 61.5t-63.5 153.5zM70 -125v1243h413v-1243h-413zM713 -125h413v694q0 68 13 101q61 152 213 151q209 0 209 -280v-666h413v713q0 276 -130 418.5t-345 142.5 q-240 0 -373 -207v-4h-4l4 4v176h-413q3 -59 3 -370t-3 -873z" />
<glyph unicode="M" horiz-adv-x="2760" d="M0 647q0 72 4 215q49 16 98 17h37q35 -47 82 -143.5t64 -125.5q4 14 16 74.5t20.5 87.5t22.5 75t31.5 83t40.5 63q57 -9 94 -9q12 0 22 1q49 -111 93.5 -334t79.5 -317q-2 0 -9 2l-6 2q-18 0 -53 -11.5t-45 -13.5q-82 207 -127 416q-31 -53 -31 -182t-22 -180l-11 4 q-16 0 -44.5 -4.5t-43.5 -4.5h-37q-55 98 -116 183q-6 -12 -6 -30.5t5 -53.5t5 -51l-2 -25q-61 -31 -107 -31q-14 0 -20 2q-35 115 -35 291zM727 492q0 55 16.5 117.5t57.5 116.5t96 54q20 0 57 -10t47 -12q18 -82 19 -166q0 -57 -12 -113q-25 8 -78 9t-76 8 q-10 -41 -10 -76q0 -43 20.5 -76t61.5 -33q18 0 53 10.5t53 10.5q35 0 47 -29q-86 -33 -168 -33q-94 0 -139 62t-45 160zM846 549l16 2q6 0 16.5 -4t14.5 -4l14 6q4 29 4 45q0 37 -10 82q-45 -51 -55 -127zM1071 438q0 252 160 373q66 -6 123 -47q-2 -35 -17 -138 q-11 -80 -11 -133q0 -15 1 -28q-41 -4 -59 -4q-16 0 -88 10q-10 -25 -11 -47q0 -45 35 -77t80 -32q53 0 84 47q37 -12 43 -34q-45 -43 -129 -43q-76 0 -143.5 40.5t-67.5 112.5zM1186 526q8 -12 28 -12h19q18 39 18 100q0 27 -12 80q-6 -16 -20.5 -51t-23.5 -62.5t-9 -54.5z M1389 565q-4 53 47 53q12 0 36.5 -2t34.5 -2q6 31 6 64q0 59 -15 177t-15 177q0 88 20 148q10 -6 54.5 -11.5t82.5 -50.5q-12 -53 -12 -137q0 -41 8 -166q5 -71 5 -125q0 -40 -3 -69h13q14 0 18 12t4 25.5t8 13.5q16 0 38 -17.5t46.5 -44t30.5 -32.5q-18 -14 -82.5 -18.5 t-79.5 -8.5q-2 -25 -2 -74q0 -33 1 -67.5t3 -77.5t2 -68q-16 -2 -46.5 -4t-45.5 -4v20q0 10 1 22q0 46 -7 117q-8 89 -8 124q-12 4 -65 7t-78 19zM1829 582q0 41 4 118q23 -2 41 -10t43 -21.5t37 -19.5l-2 -55q0 -121 18 -238q39 14 63.5 48t34 83.5t12.5 89t3 89.5v22 q6 -2 18 -2q41 -4 101 -51q0 -6 1 -19.5t1 -19.5q0 -31 -8.5 -61.5t-15.5 -45t-29.5 -51.5t-28.5 -47q-31 -25 -70 -86q-43 -14 -78 -14q-145 0 -145 291zM2238 360q14 12 50 21q29 254 77 356q68 137 191 137q70 0 156 -49q35 -76 34 -153q0 -135 -95 -244t-230 -139 q-4 -66 -4 -99q0 -150 37 -239q-16 4 -76 4q-31 0 -45 4q-18 43 -34 196.5t-61 204.5zM2423 412q80 20 134 98t54 162q0 61 -31 114q-47 -43 -80.5 -113.5t-47 -122.5t-29.5 -138z" />
<glyph unicode="N" horiz-adv-x="2037" d="M0 434.5q0 57.5 41 98t98.5 40.5t97 -40.5t39.5 -98t-39.5 -98.5t-97 -41t-98.5 41t-41 98.5zM0 1161.5q0 57.5 41 98t98.5 40.5t97 -40.5t39.5 -98t-39.5 -98.5t-97 -41t-98.5 41t-41 98.5zM399 602q0 57 40 98t97.5 41t98.5 -41t41 -98t-41 -97t-98.5 -40t-97.5 40 t-40 97zM399 1003.5q0 57.5 40 98.5t97.5 41t98.5 -41t41 -98.5t-41 -97.5t-98.5 -40t-97.5 40t-40 97.5zM518 -86q0 57 41 97t98.5 40t98.5 -40t41 -97t-41 -98t-99 -41q-59 0 -99 41t-40 98zM518 1683.5q0 57.5 40 98.5t99 41q57 0 98.5 -41t41.5 -98.5t-41 -97.5 t-98.5 -40t-98.5 40t-41 97.5zM676 326q0 57 41 98t98 41t97 -41t40 -98.5t-40 -98.5t-97 -41t-98 40.5t-41 99.5zM676 1282q0 57 41 98t98 41t97 -41t40 -98t-40 -98t-97 -41t-98 41t-41 98zM1073 325.5q0 57.5 41 98.5t98.5 41t98.5 -41t41 -98.5t-41 -98.5t-98.5 -41 t-98.5 41t-41 98.5zM1073 1282q0 57 41 98t98.5 41t98.5 -41t41 -98t-41 -98t-98.5 -41t-98.5 41t-41 98zM1233 1683.5q0 57.5 41 98.5t98.5 41t97 -41t39.5 -98.5t-39.5 -97.5t-97 -40t-98.5 40t-41 97.5zM1249 -86q0 57 41 97t98.5 40t97.5 -40t40 -97t-40 -98t-97.5 -41 t-98.5 41t-41 98zM1352 602q0 57 40 98t97 41q59 0 99 -41t40 -98t-41 -97t-98 -40t-97 40t-40 97zM1352 1003.5q0 57.5 40 98.5t97 41q59 0 99 -41t40 -98.5t-41 -97.5t-98 -40t-97 40t-40 97.5zM1761 434.5q0 57.5 40 98t97 40.5q59 0 99.5 -40.5t40.5 -98t-41 -98.5 t-98.5 -41t-97.5 41t-40 98.5zM1761 1161.5q0 57.5 40 98t97.5 40.5t98.5 -40.5t41 -98t-41 -98.5t-98.5 -41t-97.5 41t-40 98.5z" />
<glyph unicode="O" horiz-adv-x="1744" d="M3 731q-3 38 -3 82q0 69 7 151q11 134 50 250q4 14 13.5 38t44.5 90.5t76.5 127t111.5 132t148.5 121t190.5 78.5q83 22 172 22q31 0 63 -2q219 0 391 -90.5t273 -237.5t152.5 -317t51.5 -347q0 -571 -328 -870q-113 -102 -248 -139t-321 -43q-11 -1 -22 -1 q-79 0 -170 25q-103 29 -215.5 90.5t-211 180t-153.5 278.5q-6 18 -16.5 51t-30 132.5t-26.5 197.5zM460 530q7 -113 15 -163t14 -64q43 -348 265 -432q52 -19 95 -19q8 0 15 1q111 2 187.5 46t122 135t69 205.5t35.5 284.5q5 166 5 303q0 333 -32 490q-16 76 -31.5 127 t-46 112.5t-67.5 98.5t-97.5 62.5t-138.5 25.5q-20 3 -38 3q-62 0 -116 -31q-71 -40 -110 -104.5t-66.5 -130t-35.5 -112.5l-10 -49q-29 -211 -31 -524q-6 -89 -6 -165q0 -54 3 -100z" />
<glyph unicode="P" horiz-adv-x="2148" d="M0 547q20 285 344 354q25 182 87.5 393t146.5 299q98 100 245.5 154.5t298.5 54.5q176 0 336 -80t240 -225q39 -74 85 -267.5t62 -316.5q31 -12 70 -12q61 0 61 60q0 23 -12 68.5t-10 72.5v8h2q55 0 124 -104q71 -106 70 -166q0 -41 -19.5 -73t-37.5 -49.5t-68.5 -35.5 t-65.5 -22.5t-75 -16.5q-10 -2 -16 -4q1 -27 1 -52q0 -355 -159 -519l51 -52q8 -4 51 -23.5t73 -37.5t38 -37q-133 -104 -270 -104q-70 0 -154 34q-180 -76 -369 -75q-242 0 -479 125q-74 -16 -112 -39q-14 -8 -54.5 -37t-75 -48.5t-57.5 -19.5q-6 37 -6 76q0 160 109 260 q-123 199 -127 524l-15 2q-3 0 -6 1q-62 0 -154 -36q-97 -38 -133 -38q-8 0 -20 4zM475 356q0 -27 14 -55q55 -197 183 -283q88 -59 217 -95t239 -36q135 0 298 57.5t245 147.5q139 150 139 526q0 463 -188 777q-25 41 -36 56t-38.5 31.5t-66.5 16.5q-102 0 -219 -125 q-156 96 -287 96q-121 0 -214 -88t-145.5 -214t-86 -288.5t-44 -288.5t-10.5 -235zM846 1190q0 45 31.5 76.5t74.5 31.5q45 0 77 -31.5t32 -76.5t-32 -76t-77 -31q-43 0 -74.5 31t-31.5 76zM961 1227q0 -25 24 -25q10 0 17.5 7.5t7.5 17.5t-7.5 18t-17.5 8q-24 1 -24 -26z M1153 1104l4 4l-2 -6zM1163 1114l107 107l104 -107q-45 -14 -102 -14q-60 0 -109 14zM1167 1069q55 -10 103 -10q45 0 100 10l-100 -100zM1382 1102v6l2 -4zM1438 1190q0 45 31.5 76.5t76.5 31.5t77 -31.5t32 -76.5t-32 -76t-77 -31t-76.5 31t-31.5 76zM1552 1227 q0 -10 8.5 -17.5t16.5 -7.5q10 0 18.5 7.5t8.5 17.5q0 27 -27 26q-10 0 -17.5 -8t-7.5 -18z" />
<glyph unicode="Q" horiz-adv-x="1779" d="M86 -121v1782q221 39 553 39q498 0 745 -189q307 -229 308 -690q0 -481 -299 -735q-274 -233 -840 -233q-281 -1 -467 26zM496 180q35 -8 143 -8h7q284 0 448 159q166 161 166 478q0 287 -152 431t-426 144q-117 0 -186 -16v-1188z" />
<glyph unicode="R" d="M0 -94.5q0 112.5 80 192.5t192.5 80t192.5 -80t80 -192q0 -115 -80 -194t-192.5 -79t-192.5 80t-80 192.5zM0 592v391q367 0 678 -181t492.5 -492.5t181.5 -678.5h-394q0 397 -280 678q-283 283 -678 283zM0 1286v393q416 0 795 -162.5t653 -437t437 -653.5t163 -795 h-393q0 336 -131 643.5t-353.5 528.5t-528.5 352t-642 131z" />
<glyph unicode="S" horiz-adv-x="2019" d="M0 1202q0 231 164 395t395 164q160 0 297 -86q74 14 164 15q399 0 682 -283t283 -680q0 -100 -23 -207q57 -121 57 -248q0 -231 -163.5 -395t-395.5 -164q-139 0 -264 66q-92 -16 -176 -17q-397 0 -680 283t-283 682q0 96 19 193q-76 132 -76 282zM453 453q0 -84 61 -174 q145 -213 504 -213q102 0 197.5 22.5t179.5 69.5t135 130t51 193q0 119 -60.5 201t-150.5 119t-195.5 66.5t-195.5 47t-150.5 53.5t-60.5 91q0 68 75 100.5t152 32.5q82 0 135.5 -25.5t78 -61.5t43 -72t50 -61.5t80.5 -25.5q55 0 97.5 39t42.5 94.5t-31 110.5 q-61 113 -194.5 164t-282.5 51q-94 0 -182.5 -18.5t-170 -59.5t-132 -115.5t-50.5 -177.5q0 -135 82 -218t199 -116.5t234.5 -58.5t199.5 -69t82 -119q0 -59 -47 -100.5t-103.5 -55.5t-115.5 -14q-78 0 -132.5 21.5t-79 55t-46 71.5t-37 72t-46 55.5t-75.5 21.5 q-57 0 -99 -35t-42 -92z" />
<glyph unicode="T" horiz-adv-x="2398" d="M8 457q176 -170 432 -170q268 0 455 192q-13 -2 -27 -2l-88 21q-57 27 -57 82q0 61 96 104q-21 -2 -41 -2q-71 0 -132 28q-79 36 -120 117q53 59 164 66q-233 53 -268 237q83 21 120 21h7l20 -2q-90 47 -149 121q-56 69 -56 150q0 6 1 12v18q369 -137 614 -270 q68 -37 180 -146q49 131 90 219t118 194.5t167 164.5q-6 -37 -37 -72q80 74 186 90q-8 -53 -124 -98q12 4 44.5 17.5t54 20.5t50.5 14t49 7q35 0 35 -24q0 -18 -39 -38t-99.5 -37t-66.5 -19q22 2 44 2q162 0 290 -122q145 -138 186 -333q33 -12 84 -12q125 0 197 45 q-59 -139 -260 -156q80 -33 196 -33q49 0 74 4q-99 -107 -272 -106h-12q-59 -240 -243.5 -422t-421.5 -270t-484 -88q-289 0 -539 122t-418 353z" />
<glyph unicode="U" horiz-adv-x="1708" d="M-129 262q0 156 14 367q8 121 85 197.5t198 82.5q266 14 686 14.5t684 -14.5q121 -6 199 -82.5t86 -197.5q12 -182 12 -366.5t-12 -368.5q-8 -119 -86 -196t-199 -85q-270 -12 -684 -12t-686 12q-121 8 -197.5 85t-85.5 196q-14 214 -14 368zM25 582h139v-742h133v742 h139v127h-411v-127zM172 1956h135l86 -348h10l82 348h138l-105 -338q-4 -16 -24.5 -73.5t-28.5 -96.5v-361h-133v345q-6 31 -14.5 57.5t-19.5 59t-19 57.5zM434 -59q0 -111 84 -111q66 0 137 80v-70h119v641h-119v-487q-37 -47 -69.5 -47t-32.5 43v491h-119v-540zM616 1249 v332q0 78 49.5 121t127.5 43q74 0 122 -47t48 -121v-330q0 -82 -46.5 -129t-128.5 -47q-80 0 -126 48t-46 130zM739 1235q0 -53 49 -53q51 0 52 55v350q0 20 -15.5 32.5t-36 12.5t-35 -12t-14.5 -31v-354zM891 -160h121v49q45 -57 112 -57q109 0 109 141v355q0 162 -117 161 q-59 0 -104 -61v281h-121v-869zM1012 -39v399q23 27 49 27q49 0 49 -63v-336q0 -55 -43 -56q-30 0 -55 29zM1063 1188v541h119v-492q0 -43 32.5 -43t69.5 47v488h119v-642h-119v70q-72 -80 -137 -80q-84 0 -84 111zM1323 20q0 -86 44 -142t128 -56q178 0 178 198v50h-123 q0 -4 1 -31t0 -39t-5 -30.5t-16 -27t-33 -8.5q-51 0 -51 91v120h227v164q0 86 -42 137.5t-128 51.5q-82 0 -131 -53.5t-49 -135.5v-289zM1446 244v69q0 72 53 72q51 0 51 -72v-69h-104z" />
<glyph unicode="V" horiz-adv-x="2347" d="M0 1204q113 133 225.5 237.5t195.5 159t148.5 88t98.5 44.5l34 8q25 5 49 4q39 0 71 -12q52 -20 87 -70.5t60.5 -113t44 -147.5t31 -159t27.5 -163t30 -144q66 -256 105.5 -363.5t84.5 -107.5q49 0 136.5 113.5t191.5 310.5q53 98 53 185q0 24 -4 47q-18 108 -103 134 q-23 7 -50 8q-72 0 -170 -53q45 266 274 428q174 123 357 123q24 0 48 -2q209 -16 285 -184q36 -78 37 -181q0 -58 -12 -124q-37 -209 -142.5 -426t-231.5 -384t-271.5 -317.5t-253 -239.5t-185.5 -141q-86 -49 -160.5 -49t-142 43t-115 98.5t-77.5 116.5q-37 78 -200 611.5 t-198 574.5q-2 4 -8 8t-27.5 9.5t-49 0t-74.5 -29t-103 -66.5z" />
<glyph unicode="W" horiz-adv-x="2525" d="M0 -47l215 760q158 88 416 92q102 0 213 -21q207 -41 295 -125l-213 -757q-74 57 -163 93t-140 42l-54 8q-70 6 -133 6q-33 0 -87 -3t-171 -27.5t-178 -67.5zM258 930l215 760q160 88 416 92q104 0 213 -21q207 -41 295 -125l-213 -759q-74 57 -163 93t-140 42l-54 8 q-70 6 -131 6q-33 0 -87 -3t-172 -26.5t-179 -66.5zM1141 -121l213 760q76 -57 165 -93t140 -42l51 -8q72 -6 133 -7q33 0 87.5 3.5t172 27t176.5 66.5l-213 -760q-160 -88 -415 -92q-104 0 -213 20q-207 41 -297 125zM1386 852l213 758q76 -57 165 -93t141 -42l51 -9 q72 -6 133 -6q33 0 87 3t171 26.5t178 66.5l-213 -757q-72 -41 -176 -64.5t-174 -25.5l-68 -4q-106 0 -211 22q-207 39 -297 125z" />
<glyph unicode="X" horiz-adv-x="2045" d="M0 798.5q0 202.5 133 357.5t334 190q31 207 189.5 342t367.5 135t367.5 -135.5t189.5 -341.5q201 -35 333 -190t132 -357q0 -223 -170 -398l-434 -444q-92 -96 -189.5 -139t-226.5 -43q-209 0 -368.5 135t-188.5 340q-203 35 -336 190.5t-133 358zM453 799 q0 -43 30.5 -74t73.5 -31t74 31t31 74t-31 73.5t-74 30.5t-73.5 -30.5t-30.5 -73.5zM721 1268q0 -125 89 -212t214 -87t214 87t89 212t-89 212t-214 87t-214 -87t-89 -212zM858 336q0 -70 49 -119t119 -49q55 0 104 39l3 -4l483 483q39 49 39 109q0 68 -48 117t-118 49 q-59 0 -109 -39l-2 2l-456 -459q-64 -63 -64 -129zM920 1268q0 43 30.5 73.5t75.5 30.5q43 0 73.5 -30.5t30.5 -73.5q0 -45 -30.5 -76t-73.5 -31q-45 0 -75.5 31t-30.5 76z" />
<glyph unicode="Y" horiz-adv-x="2824" d="M0 1298l12 -38q8 -12 15.5 -20.5t11.5 -10.5l4 -4l39 -21h227l588 -704q23 -25 23 -51v-394q0 -33 -23 -35q-229 0 -291 -6q-20 0 -20 -18v-113h1056v117q-2 14 -18 14h-295q-18 0 -18 31v414q-2 6 3 14t11 14l6 7q23 23 541 510h272q18 0 37 14l35 39q12 14 12 37v28 q-4 12 -16 13h-893l-14 -13q-4 -29 18 -53l47 -47l37 -14h235l-423 -400l-467 596h84q27 -2 45 8l139 43q2 0 6 2.5t9 10.5t5 18v29l-18 14h-1002q-16 -2 -20 -14v-17zM2437 1522l379 -15l-170 -1161l-125 6zM2464 -41l8 225l225 -8l-8 -225z" />
<glyph unicode="Z" horiz-adv-x="1781" d="M0 59q0 44 88 105q14 31 33.5 73t33 67.5t13.5 31.5q0 2 5 27.5t14.5 65.5t19.5 87t25.5 106.5t31.5 110.5q27 84 64 153.5t59.5 97.5t34.5 38q20 16 6 22q-18 12 -45 44t-58 124q-23 66 -23 143q0 29 3 60q4 33 14 6q6 -16 13 -51q8 -68 54 -152.5t124 -115.5q2 0 40 14 t168 39t320 39q2 76 15 156q-31 23 -35 69q-16 -29 -41 -26q-17 1 -17 66q0 35 5 89q2 41 37.5 65.5t66.5 26.5l11 5.5t26.5 7.5t36.5 4q29 31 92 40q38 6 71 5q22 0 42 -2l47 -6q24 3 48 3q110 0 206 -63q4 0 7 1q56 0 85 -56q23 -37 34 -85q5 -20 4 -40q0 -29 -10 -59h-8 q-8 6 -20 35q-8 -25 -19.5 -44.5t-17.5 -25.5l-8 -8v-13q0 -90 -56 -209q-6 -16 5 -43q12 -33 46 -176q32 -135 31 -194v-6q-2 -63 -29.5 -134t-56.5 -100q1 -10 1 -20q0 -65 -44 -148q-14 -23 -35.5 -90t-29.5 -108q-11 -54 -11 -87q0 -29 9 -40q2 -2 20.5 -26t29.5 -42 t9 -31q-2 -18 -33.5 -37.5t-52.5 -19.5q-25 0 -55.5 14.5t-40.5 38.5q-13 39 -13 78q0 28 7 57q10 39 22.5 100.5t24.5 179.5q4 42 4 76q0 64 -14 105q-10 -4 -31 -11t-85.5 -18.5t-133.5 -11.5q-27 -139 -60 -219q-10 -16 -10 -231q0 -84 29 -211q36 -25 35 -56v-10 q-4 -27 -32 -42t-60.5 -15t-63.5 22.5t-31 57.5q0 6 3 101q2 57 2 98q0 27 -1 46q-8 160 -14 187q-53 199 -55 293q-14 0 -27 10q-63 -74 -108 -115q2 -10 8 -31.5t10 -38t4 -22.5q0 -16 29 -29q25 -10 52.5 -30.5t25.5 -40.5q-2 -25 -49 -28h-12q-40 0 -81 18 q-4 2 -13 22.5t-19.5 50t-19.5 58t-17.5 55t-10.5 31.5q-10 43 -2 59q31 84 31 123v8q-2 29 -46 65.5t-81 36.5q-14 0 -33.5 -10t-33 -21.5t-40 -33t-32.5 -27.5q-31 -23 -78 -65.5t-49 -44.5q-10 -6 -75.5 -125t-84.5 -166q0 -2 -5 -19.5t-9 -31t-15.5 -33t-23.5 -32.5 t-31.5 -21.5t-44.5 -8.5q-45 2 -45 39z" />
<glyph unicode="[" horiz-adv-x="2138" d="M0 803q0 199 80 386t225 327q111 104 176 104q4 0 -2 -6l-4 -4q-6 -2 -8 -6.5t-2 -8.5l-27 -22q-16 -57 -16 -84q0 -66 24.5 -141.5t63.5 -128.5l-8 8q6 -8 29.5 -36t32.5 -41t23.5 -36.5t20.5 -45t6 -46.5q0 -168 85 -292t243 -165l4 -20q-6 -4 -33.5 -24.5t-46 -34 t-52.5 -39t-58 -46.5l-56 -46q-31 -26 -51 -47t-39.5 -43.5t-30 -42t-10.5 -34.5q0 -63 99.5 -162.5t173.5 -140.5q76 -43 295 -110h-144q-59 0 -119 12q-373 74 -623.5 357.5t-250.5 658.5zM487 1526q0 27 13.5 79t15.5 64q250 154 574 154q199 0 405.5 -86t339.5 -230 q113 -123 113 -354q0 -47 -17 -55q-66 27 -178.5 44t-196.5 17q-37 0 -63.5 11.5t-38.5 22.5t-45 46q-156 152 -354 152q-244 0 -369 -170l-24 12q-10 16 -57.5 86t-82.5 127t-35 80zM684 160q0 6 35 39.5t88 81t104.5 91.5t96.5 84t53 46q207 14 339 123.5t132 310.5 q0 82 -25 156q41 -45 239 -101.5t247 -83.5q-2 33 -1 92.5t-1 108.5t-11 92q-2 14 -53 172l31 -41l-27 47q207 -246 207 -567q0 -319 -170 -573q-121 -180 -343 -312.5t-427 -132.5q-86 0 -207 53.5t-214 141.5t-93 172zM741 944v14q-2 131 96.5 213t231.5 82 q131 0 229.5 -86t98.5 -217q0 -129 -98.5 -215t-229.5 -86t-230.5 87t-97.5 216v-8z" />
<glyph unicode="\" horiz-adv-x="1701" d="M0 -154q0 55 63 56q25 0 43.5 1t58.5 14t65.5 35.5t47 72t21.5 116.5v1258q0 260 -188 276q-31 2 -44.5 13.5t-14.5 20.5t-1 32q-4 51 47 51q8 0 127 -3t281 -6t276 -3q236 0 403 11t247.5 21.5t107.5 10.5q63 0 64 -64q0 -6 -12.5 -52t-12.5 -85q0 -33 7 -96.5t7 -89.5 q0 -37 -24.5 -56.5t-48.5 -19.5q-41 0 -43 57q0 8 1 28.5t0 30t-6.5 30t-15.5 30.5t-30.5 26.5t-49 25.5t-74 20.5t-103.5 17.5t-137 10t-175 4q-164 0 -236.5 -15t-88 -40.5t-15.5 -87.5q0 -59 1 -275t1 -237q0 -39 13 -54.5t46 -15.5h477q78 0 134.5 44.5t62.5 136.5 q2 33 10 49t17.5 19t29.5 3q29 0 46.5 -23.5t13.5 -68.5q0 -14 -9.5 -94t-9.5 -133q0 -51 9.5 -137t9.5 -117q0 -53 -46 -60.5t-61 48.5q-8 35 -13 50t-23.5 49t-42 50.5t-68.5 31.5t-105 15h-424q-37 0 -53 -22.5t-16 -77.5v-543q0 -88 45 -141t174 -53q10 0 102.5 -1 t129 0t122.5 6t134.5 15t107.5 31.5t96 50.5q49 39 70.5 95.5t40.5 164.5q8 39 53 37q57 0 76 -66q6 -23 4 -49q-2 -25 -34 -130t-32 -152q0 -12 1 -44t1 -47.5t-4 -37t-16 -30.5t-31 -9q-4 0 -68.5 14t-211.5 14q-135 0 -659.5 -3t-584.5 -3q-39 0 -51 11t-12 38z" />
<glyph unicode="]" horiz-adv-x="2605" d="M229 141v1180q0 2 7 39l694 -594l-692 -666q-9 29 -9 41zM322 1442q14 6 34 6h1870q18 0 37 -6l-696 -596l-92 -74l-183 -149l-182 149l-92 74zM324 20l698 670l270 -219l271 219l698 -670q-16 -6 -35 -6h-1870q-16 0 -32 6zM1655 766l692 594q6 -18 6 -39v-1180 q0 -18 -6 -41z" />
<glyph unicode="^" horiz-adv-x="2265" d="M0 506v309q0 20 14.5 35.5t36.5 15.5h543l-236 -411h-307q-23 0 -37 14t-14 37zM250 6l135 -78zM270 95.5q-6 21.5 4 39.5l623 1082q10 18 30.5 23t39.5 -5l133 -76q20 -10 25 -31.5t-5 -40.5l-620 -1081q-10 -18 -32 -23.5t-40 5.5l-133 78q-19 8 -25 29.5zM901 455 l236 411h137l192 -411h-565zM1061 1734.5q2 18.5 12 24.5q20 10 72.5 -63.5t146.5 -237.5t127 -215q57 -90 154.5 -267t186.5 -346t89 -171q23 -39 -3.5 -74t-63.5 -49q-37 -16 -49.5 -18.5t-61.5 14.5q-61 31 -389 805q-10 23 -27.5 62.5t-35 77.5t-38 86t-38 90t-34.5 86 t-27.5 80t-16.5 66.5t-4 49zM1733 866h481q20 0 35.5 -15t15.5 -36v-309q0 -20 -15.5 -35.5t-35.5 -15.5h-272q-8 33 -17 47l-49 94q-131 247 -143 270zM1759 218.5q6 21.5 27 31.5l76 39q20 10 42.5 3t32.5 -28l64 -123q25 -49 -21 -80l-55 -32q-20 -10 -42.5 -5t-35.5 25 l-82 127q-12 21 -6 42.5zM1916 -78q1 33 8 43t26 29l49 18q125 25 147 -143q6 -66 -2 -156q-8 25 -90 61t-112 79q-27 36 -26 69z" />
<glyph unicode="_" horiz-adv-x="2867" d="M367 270v183v110v424h286v-424h1649v424h289v-424v-110v-183h-2224z" />
<glyph unicode="`" d="M0 774q0 289 137 533.5t372.5 387t514.5 142.5t514.5 -142.5t372.5 -387t137 -533.5q0 -8 -1 -20.5t-1 -20.5q-16 426 -312 723t-710 297t-710 -297t-312 -723q0 8 -1 20.5t-1 20.5zM375 776q0 279 190.5 476.5t458.5 197.5t458.5 -197.5t190.5 -476.5q0 -6 -1 -20.5 t-1 -20.5q-16 264 -202.5 448.5t-444.5 184.5t-444.5 -184.5t-202.5 -448.5q0 6 -1 20.5t-1 20.5zM715 377q0 68 9 121t21.5 88t38 59.5t47 36.5t58.5 19.5t63.5 8.5t71.5 1t71.5 -1t63.5 -8.5t58.5 -19.5t47 -36.5t38 -59.5t21.5 -88.5t9 -120.5q0 -242 -91 -415t-218 -173 t-218 173t-91 415zM811 950q0 90 62.5 155.5t150.5 65.5t150.5 -65.5t62.5 -155.5t-62.5 -155.5t-150.5 -65.5t-150.5 65.5t-62.5 155.5z" />
<glyph unicode="a" horiz-adv-x="2250" d="M2 89q10 15 33 3q512 -297 1114 -297q401 0 793 150q8 4 28.5 12t28.5 12q31 12 48 -12.5t-11 -44.5q-37 -27 -94 -62q-176 -104 -393.5 -161.5t-424.5 -57.5q-319 0 -603.5 112t-510.5 314q-12 11 -12 21q0 6 4 11zM618 674q0 141 70 241.5t191 151.5q111 47 272 68 q55 6 180 16v35q0 131 -28 176q-43 61 -136 61h-16q-68 -6 -117 -43t-63 -102q-8 -41 -41 -47l-236 29q-35 8 -34 36q0 7 2 15q35 182 171 270t318 98h51q233 0 365 -120q20 -20 37.5 -44t27.5 -42.5t18.5 -53.5t12.5 -48t6 -57t2 -52v-62v-57v-377q0 -53 15.5 -97t30 -63.5 t46.5 -62.5q11 -18 12 -33q0 -17 -16 -29q-170 -147 -184 -159q-25 -18 -59 -5q-29 25 -50.5 47.5t-31 33t-30 40t-28.5 39.5q-115 -125 -225 -155q-70 -20 -172 -21q-158 0 -259.5 97.5t-101.5 275.5zM971 715q0 -80 40 -128t107 -48q6 0 17.5 2t15.5 2q86 23 133 110 q23 39 34 85t12 75t1 94v51q-119 0 -180 -16q-180 -51 -180 -227zM1830 55q3 8 13 17q51 35 99 47q77 21 151 21q20 0 39 -2q92 -7 111 -29q8 -12 8 -37v-15q0 -72 -39 -169t-109 -156q-10 -8 -18 -8q-4 0 -8 2q-12 6 -6 22q76 178 75 247q0 23 -8 34q-21 24 -115 24 q-35 0 -81 -4q-51 -6 -95 -12q-10 0 -15 5q-3 3 -3 8q0 2 1 5z" />
<glyph unicode="b" horiz-adv-x="2371" d="M0 561v1262h432v-617q324 184 754 185q322 0 595 -107.5t432 -294t159 -405.5t-159 -405.5t-432.5 -295t-594.5 -108.5q-315 0 -585.5 104.5t-430.5 285.5t-168 396h-2zM432 583.5q0 -223.5 221 -381t532.5 -157.5t532.5 157.5t221 381t-221 381t-532.5 157.5 t-532.5 -157.5t-221 -381zM686 583.5q0 -147.5 146.5 -252t353.5 -104.5t352 104.5t145 252t-145 252t-352 104.5t-353.5 -104.5t-146.5 -252z" />
<glyph unicode="c" horiz-adv-x="2267" d="M-4 391q0 213 150.5 364.5t361.5 151.5l2 -2q0 6 -1 14.5t-1 12.5q0 242 169 411.5t408 169.5q211 0 371 -135t197 -340h35q240 0 408.5 -170t168.5 -411.5t-169 -411.5t-408 -170q-16 0 -25 2v-2h-1137h-18h-19h-10v2q-203 10 -343 159.5t-140 354.5z" />
<glyph unicode="d" horiz-adv-x="2596" d="M125 596l487 371l-487 370l706 461l463 -395l473 395l689 -438l-453 -377l453 -387l-699 -418l-463 354l-463 -354zM610 27v131l213 -127l461 352l4 -2v-807zM621 973l669 -422l674 446l-668 385zM1288 -426l2 807l4 4l461 -354l227 135v-143z" />
<glyph unicode="e" horiz-adv-x="2881" d="M0 473q0 63 10 109.5t44 95.5t95.5 78.5t171 49t263.5 19.5q180 0 303 -26q80 -16 119 -37v-330h-600q0 -43 4 -68.5t18 -62.5t54 -55.5t102 -18.5q174 0 174 125h129h4h115v-182q-55 -27 -115 -39q-139 -31 -307 -31q-188 0 -309 26t-178.5 80t-77 114.5t-19.5 152.5z M406 543h364q0 37 -3 54t-17.5 48t-56.5 45.5t-109 14.5q-63 0 -103.5 -15.5t-54.5 -47.5t-17 -49t-3 -50zM1006 8v162q4 0 8 4q150 74 151 178h-159v80h165q2 25 2 48q0 91 -26 155q-33 80 -141 127v375h219v-416h4q63 90 180 90q88 0 141 -53q-82 -59 -82 -209 q0 -213 156 -250q-2 -63 -11 -110.5t-31.5 -96.5t-67 -74.5t-109.5 -25.5q-131 0 -186 102h-2v-86h-211zM1006 170v182h159q-2 -104 -151 -178q-4 -4 -8 -4zM1006 432v330q109 -47 141 -127q26 -64 26 -155q0 -23 -2 -48h-165zM1225 410q0 -158 17.5 -220.5t72.5 -62.5 q57 0 75.5 62.5t18.5 220.5q0 182 -25 225q-20 41 -69 41q-33 0 -52.5 -17.5t-26.5 -60.5t-9 -77.5t-2 -110.5zM1468 549q0 150 82 209q35 -37 53.5 -108.5t19.5 -113.5t1 -130v-107q-156 37 -156 250zM1485 874q0 141 82 193q70 53 207 53q8 0 100 -6l219 -446v-209 q0 -29 4 -80t4 -70h-205l-10 107h-4q-68 -119 -205 -119q-37 0 -53 2v107q0 88 -1 130t-19.5 113.5t-53.5 108.5q79 60 276 60q24 0 50 -1v64q0 59 -17.5 87.5t-72.5 28.5q-53 0 -67.5 -31.5t-14.5 -91.5h-219zM1683 559q0 -127 84 -127q27 0 46.5 9.5t32 28.5t19.5 36.5 t9 49.5t3 48.5t0 49t-1 40.5q-8 0 -34.5 -1t-34.5 -2l-28 -4q-22 -3 -29 -6t-21.5 -10t-19.5 -16.5t-13 -23t-10.5 -31.5t-2.5 -41zM1821 1221h315l205 -476l223 476h293l-387 -736v-389h-289v389l-88 183v186q0 113 -44 177.5t-175 82.5zM1874 1114q131 -18 175 -82.5 t44 -177.5v-186z" />
<glyph unicode="f" horiz-adv-x="1673" d="M369 662v391h315v196q0 213 138.5 362.5t334.5 149.5h313v-391h-313q-31 0 -55.5 -33.5t-24.5 -83.5v-200h393v-391h-393v-949h-393v949h-315z" />
<glyph unicode="g" horiz-adv-x="1923" d="M0 -96q0 -129 127 -221.5t307 -92.5t308 92.5t128 221.5q0 131 -128 223t-308 92q-2 0 -6 -1t-6 -1q-48 46 -48 98t48 109q145 8 245.5 112.5t100.5 247.5q0 57 -14 103q57 10 90 28v236q-99 -66 -223 -66h-15q-94 63 -207 64q-154 0 -262 -106.5t-108 -258.5 q0 -96 49 -178t131 -131q-57 -73 -57 -151q0 -75 53 -154q-94 -43 -149.5 -112.5t-55.5 -153.5zM248 788.5q0 67.5 44 115.5t103 48q61 0 104.5 -48t43.5 -115.5t-43 -115.5t-105 -48q-59 0 -103 48t-44 115.5zM254 -96q0 55 52 93t128 38t129 -38t53 -93q0 -53 -53 -92 t-129 -39t-128 39t-52 92zM932 1472.5q0 69.5 48 117.5t117.5 48t119 -48t49.5 -117.5t-49.5 -118.5t-119 -49t-117.5 49t-48 118.5zM971 147v981h274v-981h-274zM1341 920h113v-582v-2q8 -61 40 -105.5t71 -65t76.5 -32.5t62.5 -14h27q141 0 188 67l4 203q-86 -27 -133 -27 q-10 0 -18 2q-47 7 -56 33l-8 27q0 6 -2 8v488h186v208h-186v191h-252v-191h-113v-208z" />
<glyph unicode="h" horiz-adv-x="1656" d="M0 1497v37q20 41 69.5 67.5t87.5 35t119 24.5l86 15q29 5 77 11q27 3 47 2q16 0 29 -1q28 -4 60.5 -13.5t53 -33t33.5 -58.5q11 -33 11 -58.5t-11 -43.5q-16 -27 -87 -44.5t-83 -35.5q-8 -12 -9 -131q0 -51 -8 -218q-4 -83 -4 -138.5t4 -82.5q8 -98 25 -108 q18 -4 29.5 -3t35 8t27.5 7q297 63 436 80q4 0 57.5 3t84 8t40.5 14q12 10 16.5 31.5t3.5 39t-6 46t-5 34.5q-9 79 -9.5 162t9.5 170q8 61 8 99q0 46 -13 59q-8 8 -46 15t-44 9q-57 25 -93 72q-25 32 -24 72q0 18 5 39q8 23 71 57q41 20 87.5 33.5t126 27t100.5 17.5h141h2 q36 0 75 -76q29 -57 29 -97q0 -14 -4 -26q-6 -23 -68.5 -48.5t-72.5 -37.5q-10 -14 -17 -41t-8 -63.5t-1 -67.5t1 -76t1 -67v-846q0 -150 8 -158t46 -8t46 -4q41 -14 69 -74q14 -30 14 -57q0 -26 -13 -47q-4 -8 -19.5 -15.5t-39 -15.5t-36.5 -14q-156 -75 -299 -76 q-20 0 -41 2q-51 4 -109 63q-51 52 -51 98q0 6 1 13q4 37 65 61q8 4 47 8.5t51.5 16.5t13.5 43v11q0 29 -4 74q-5 54 -5 67v106q0 94 -5 100q-8 11 -58.5 11.5t-143.5 -11.5q-233 -35 -363 -73q-6 -2 -35.5 -10.5t-47 -14.5t-39 -17.5t-32 -25.5t-12.5 -48t0 -62.5 t7.5 -72.5t5.5 -57q0 -10 -1 -33.5t-1 -42t6 -26.5q8 -12 29.5 -16t45 -3t27.5 -1q35 -12 67 -54q27 -34 26 -70q0 -7 -1 -14q-8 -70 -131 -105.5t-262 -47.5q-23 -2 -43 -3q-33 0 -55 7q-43 10 -83 57t-38 88q6 51 113 86q4 2 24.5 7.5t24.5 9.5q8 10 8 49.5t-8 107.5 q-20 168 -25 492q0 82 -6 242.5t-6 265.5q0 152 -8 162q-8 12 -46 18t-49 10q-67 29 -104 121z" />
<glyph unicode="i" d="M0 778.5q0 278.5 137 514t372.5 372.5t514.5 137t514.5 -137t372.5 -372.5t137 -514t-137 -514t-372.5 -373t-514.5 -137.5t-514.5 137.5t-372.5 373t-137 514zM205 778q0 -340 239.5 -579.5t579.5 -239.5t579.5 239.5t239.5 579.5t-239.5 579.5t-579.5 239.5 t-579.5 -239.5t-239.5 -579.5zM580 418q0 -63 44 -107.5t107 -44.5q68 0 117 49.5t49 116.5v17v534l410 76v-426q-31 10 -58 10q-68 0 -117 -49t-49 -117q0 -63 43 -107t106.5 -44t114 47t52.5 110v9v16v782l-594 -102v-615q-31 10 -57 11q-70 0 -119 -49t-49 -117z" />
<glyph unicode="j" horiz-adv-x="1564" d="M0 -354v2048h1565v-1674l-1170 7v-381h-395zM391 381h817v922h-817v-922z" />
<glyph unicode="k" d="M0 580v137v137q0 33 5 121t14.5 126t29 108.5t48 113.5t72.5 95t103 98q299 225 729 225h23h10v-1591h254v425q14 -23 80 -130t105 -162q59 -82 129.5 -109t187.5 -27h74v242q-92 0 -129 14.5t-86 83.5q-29 37 -76 116t-53 89l350 488h-303l-279 -387v927 q276 -45 488 -204q59 -45 103 -97.5t72.5 -95.5t48 -113.5t29 -108.5t14.5 -126t5 -121v-137v-137q0 -33 -5 -121t-14.5 -126t-29 -108.5t-48 -113.5t-72.5 -95.5t-103 -97.5q-299 -225 -752 -225t-752 225q-59 45 -103 97.5t-72.5 95.5t-48 113.5t-29 108.5t-14.5 126 t-5 121zM166 274q135 -137 393 -137q164 0 281.5 84t117.5 242q0 104 -36.5 173t-92 93.5t-120 39.5t-119.5 18.5t-92 23.5t-37 61q0 96 143 97q117 0 178 -62l160 160q-123 123 -348 123q-160 0 -269.5 -85t-109.5 -241q0 -104 42 -170.5t105.5 -91t128 -35t122 -19.5 t75.5 -28q20 -23 21 -61q0 -94 -148 -94q-158 0 -231 73z" />
<glyph unicode="l" horiz-adv-x="2074" d="M0 717q0 254 180 434t434 180q193 0 341.5 -99t226.5 -280q25 -55 200 -465q51 -113 102.5 -163t155.5 -54h8q107 0 177 57q72 58 71 146q0 41 -12 69.5t-46 50t-62.5 33t-92.5 33.5q-195 63 -279.5 139t-84.5 212q0 139 89 224t243 85q197 0 297 -178l-131 -68 q-68 96 -175 96q-72 0 -118.5 -44t-46.5 -111q0 -27 5 -48.5t22.5 -38t28.5 -27.5t43 -24.5t48 -19.5t61.5 -20.5t63.5 -20.5q168 -55 240.5 -129t72.5 -217q0 -156 -117.5 -258t-293.5 -102q-154 2 -248 73.5t-162 218.5l-22 50l-197 446q-51 119 -161.5 192.5t-246.5 73.5 q-184 0 -315 -131t-131 -315.5t131 -315.5t315 -131q127 0 232.5 65.5t163.5 174.5l80 -182q-86 -104 -210 -165t-266 -61q-254 0 -434 180.5t-180 434.5z" />
<glyph unicode="m" horiz-adv-x="2736" d="M137 -117v1837h379l19 -16h1689l19 16h356v-1843h-350v14h-1751v-8h-361zM498 -10h1751v151l-707 531l-162 -133l-176 143l-706 -528v-164zM498 276l628 469l-628 517v-986zM668 1589l712 -610l711 610h-1423zM1620 735l629 -471v991z" />
<glyph unicode="n" d="M0 1200l647 662v-252l617 -568l383 95l-400 -426l801 -897l-909 802l-385 -393l61 346l-522 648z" />
<glyph unicode="o" horiz-adv-x="2217" d="M0 498q-2 129 50 238.5t137 182t188.5 129t207 88t189.5 52t139 26.5l54 7v-252q-408 -33 -557 -316q-49 -90 -56 -166q-7 -33 -7 -63q0 -211 327 -350q150 -63 293 -88v-211q-199 20 -360 71.5t-259 116t-170 139t-104.5 144t-50 126t-19.5 91.5zM1044 -225v1847 l291 201v-1889zM1405 985h10q77 0 158 -30q86 -32 131 -64l43 -33l-170 -70l641 -159v501l-219 -124q-156 166 -524 208l-70 7v-236z" />
<glyph unicode="p" d="M0 68v1503q0 113 80 192.5t192 79.5h1504q113 0 192.5 -80t79.5 -192v-1503q0 -113 -80 -193t-192 -80h-1504q-113 0 -192.5 80t-79.5 193zM78 125q0 -104 73.5 -178t178.5 -74h1388q104 0 178 73.5t74 178.5v1388q0 104 -73.5 178t-178.5 74h-1388q-104 0 -178 -73.5 t-74 -178.5v-1388zM489 190v62h101q57 0 90 38t37 75l2 38v13v59v772q0 72 -31 112t-61 44l-31 4h-102v66h714q252 0 336 -207q20 -51 25 -90v-127q0 -63 -18.5 -113.5t-48 -81.5t-65.5 -54.5t-73 -33.5t-66.5 -15.5t-48.5 -5.5l-18 -2h-293v-344q0 -63 35 -99t71 -40l35 -4 h97v-66h-687zM936 856h223q8 0 20.5 1t44 12.5t56.5 30t44 58t19 95.5l-2 125q0 8 -1 20t-12 46t-29.5 60.5t-60.5 51t-97 28.5h-205v-528z" />
<glyph unicode="q" horiz-adv-x="1820" d="M0 770q0 250 122 463t331 337t456 124q377 0 644.5 -270.5t267.5 -653.5q0 -244 -117 -451.5t-315 -332.5q2 -4 7 -13.5t23.5 -33t43 -45t67.5 -44t92 -34.5v-156q-75 -14 -137 -14q-101 0 -173 37q-116 59 -188 192q-98 -27 -215 -27q-246 0 -455.5 124t-331.5 336 t-122 462zM453 649q0 -238 136 -406.5t329 -168.5q53 0 106 16q-4 6 -11 17.5t-29.5 38t-48.5 48t-63.5 40t-74.5 20.5v162v18q21 1 40 1q244 0 416 -183q129 166 129 397v238q0 238 -136 406.5t-328.5 168.5t-328.5 -169t-136 -406v-238z" />
<glyph unicode="r" horiz-adv-x="2459" d="M0 819.5q0 284.5 147.5 521t392 369.5t527.5 133q176 0 332 -51v-618q-131 72 -271 71q-188 0 -331 -100q-92 -68 -165 -169.5t-73 -195.5q0 -184 118 -288.5t304 -104.5q160 0 310.5 85t221.5 222q43 76 43 103v934q41 -20 244 -158q276 -188 592 -189q41 0 54.5 -15 t13.5 -60q0 -104 -108.5 -206t-225.5 -142q8 -63 8 -142q0 -285 -147.5 -521.5t-392 -369.5t-527.5 -133t-527.5 133t-392 370t-147.5 521.5z" />
<glyph unicode="s" horiz-adv-x="2361" d="M0 494q0 33 7 90t20 63q12 -6 21 -66.5t9 -86.5q0 -29 -9 -87.5t-21 -64.5q-27 15 -27 152zM131 494q0 51 10.5 151t12.5 125q0 12 12 12q8 0 12 -12q25 -264 25 -276q0 -49 -11.5 -145.5t-13.5 -121.5q-4 -14 -12 -14q-12 0 -12 14q-2 23 -12.5 120.5t-10.5 146.5z M297 494q0 49 10 150t10 112q0 18 15 18q16 0 16 -18q23 -231 23 -262t-23 -279q0 -16 -16 -16q-14 0 -15 16q0 14 -10 120t-10 159zM485 494q0 78 3.5 164.5t8.5 194.5t7 167q0 20 18 20q20 0 21 -20q2 -33 11 -228.5t9 -297.5q0 -53 -10 -158t-10 -119q0 -20 -21 -20 q-18 0 -18 20q-19 271 -19 277zM678 494q0 113 6 326.5t8 262.5q4 25 24.5 25t24.5 -25q2 -66 9.5 -272.5t7.5 -316.5q0 -51 -7.5 -147.5t-9.5 -125.5q-4 -25 -24.5 -24.5t-24.5 24.5q0 23 -7 121.5t-7 151.5zM872 494l13 553q4 31 28.5 30.5t28.5 -30.5q2 -61 5 -174 t5 -205.5t2 -173.5q0 -4 -12 -269v2q-4 -31 -28.5 -30.5t-28.5 28.5q-13 265 -13 269zM1067 492q0 6 12 718q4 37 33 37t33 -37q12 -713 12 -718q0 -2 -12 -261q-4 -35 -33 -34.5t-33 34.5q-12 259 -12 261zM1233 233v1012q-2 20 25.5 36.5t66.5 24t70.5 11.5t50.5 4 q199 0 346 -148.5t164 -365.5q57 27 112 27q119 0 204 -93.5t85 -226.5t-85 -226t-204 -93h-804q-12 0 -21.5 12t-9.5 26z" />
<glyph unicode="t" horiz-adv-x="1261" d="M0 942v291q123 41 207 113q84 68 137 176q53 104 72 260h293v-518h485v-322h-485v-524q0 -176 18 -230q18 -49 70 -79q70 -41 155 -41q158 0 310 100v-322q-129 -63 -238 -88q-106 -25 -229 -24q-139 0 -250 35q-113 39 -183 102q-74 63 -106 139q-29 70 -29 215v717 h-227z" />
<glyph unicode="u" horiz-adv-x="1875" d="M4 973q8 74 31.5 129t52.5 81.5t57.5 43t47.5 18.5l18 4q9 1 17 1q86 0 156 -74q77 -82 85 -160q5 -33 5 -68v-12q-1 -41 -11 -108.5t-56.5 -118t-121.5 -66.5q-27 -6 -53 -6q-47 0 -88 20q-62 31 -93 87.5t-44 118.5q-8 35 -7 66q0 24 4 44zM135 -25q-8 38 -8 75 q0 57 19 112q32 90 79 139t101 92l53 43q4 4 54 46t109.5 105.5t100.5 135.5q37 63 103.5 107t146.5 58q18 3 36 3q64 0 134 -37q90 -47 162 -158q16 -25 48 -64.5t136 -147t217 -195.5q53 -41 81 -101.5t28 -117t-8.5 -106.5t-18.5 -81l-12 -30q-4 -12 -15.5 -31t-56.5 -60 t-102.5 -64.5t-162 -23.5t-229.5 41q-89 28 -188 29q-80 0 -166 -18q-20 -4 -55 -10.5t-134 -16.5q-50 -5 -91 -5t-74 5h-6q-95 0 -164 68q-72 70 -94 139zM426 188q-4 -28 -4 -55q0 -66 24 -125q45 -88 162 -112h260v628l-116 2v-170h-140q-117 0 -176 -141zM475 1405 q0 131 64.5 223t156.5 92t157 -92t65 -223t-65 -223t-157 -92t-156.5 92t-64.5 223zM549 88q-5 16 -5 34q0 29 13 62q20 53 80 72h113v-256h-105q-33 0 -56.5 22.5t-31.5 43.5zM932 10q0 -74 112 -108l11 -4h299v444h-129v-334h-123q-18 2 -29.5 12.5t-15.5 18.5l-2 8v297 l-123 -2v-332zM1040 1386q10 98 101 199q76 85 148 85q13 0 26 -3q88 -20 151 -118q52 -79 52 -159q0 -18 -2 -36q-18 -115 -99 -208q-69 -81 -163 -81q-14 0 -29 2q-115 16 -157 104q-31 66 -31 153q-1 30 3 62zM1405 793q0 307 221 307q70 0 122 -30t77.5 -74t38 -83 t12.5 -67q0 -2 1 -29q1 -13 1 -23.5t-1 -17.5q-1 -14 -3 -46t-8 -52.5t-15.5 -49t-27 -48t-39 -38t-54 -27.5t-71.5 -9h-13q-77 0 -128 22q-55 25 -78 75t-29 90.5t-6 99.5z" />
<glyph unicode="v" horiz-adv-x="2070" d="M-156 -27v1600q0 154 101.5 268.5t253.5 114.5h1642q168 0 276.5 -88t108.5 -252v-137q-225 41 -270 47q-106 12 -119 14q-27 6 -71 22.5t-80.5 25.5t-75.5 9q-143 0 -310 -110q-76 -8 -224 -17.5t-266 -20.5t-222 -32q-170 -33 -203 -49q-57 -33 -68 -135 q-4 -41 -4 -111v-327q2 0 20.5 -4.5t26.5 -8.5q12 -8 32 -69.5t54 -85.5q4 12 10.5 40.5t8.5 35t9 23.5t16.5 23.5t24.5 18.5t40 27q41 -131 113 -193q14 29 24 73t27.5 71.5t64.5 48.5q4 -10 19.5 -47t25 -54.5t26.5 -42t40 -39.5q8 23 17.5 55.5t15.5 48t25.5 35 t54.5 33.5q45 -98 98 -141q16 41 24.5 58.5t28 37t49.5 37.5q14 -14 36 -53t42 -53q31 74 74 100l184 -49l191 65q-115 -205 -166 -311l-250 -110q-51 25 -57 65q-29 -20 -56 -72q-41 20 -73 103q-33 -8 -47.5 -27.5t-25.5 -49.5t-26 -46q-25 16 -38 35.5t-25.5 55.5 t-18.5 48q-39 -10 -57 -26.5t-38.5 -59.5t-27.5 -55q-35 10 -51 35.5t-25.5 68.5t-17.5 60q-47 -27 -76.5 -89.5t-46.5 -80.5h-6q-121 63 -166 182q-37 -20 -51 -88t-24 -76q-8 -6 -27 -10t-25 -8l17 -94q25 -123 264 -138q436 -31 788 -30q100 0 291 46t291 46 q156 0 262 -68v-125q0 -180 -92 -273t-272 -93h-1702q-143 0 -229.5 112.5t-86.5 259.5zM1501 1229q0 55 39 95t94.5 40t95 -40t39.5 -95t-39.5 -96t-95 -41t-94.5 41t-39 96z" />
<glyph unicode="w" d="M0 817.5q0 278.5 137 514t372.5 372.5t514.5 137t514.5 -137t372.5 -372.5t137 -514t-137 -514t-372.5 -373t-514.5 -137.5t-514.5 137.5t-372.5 373t-137 514zM80 817q0 -276 146.5 -505.5t385.5 -344.5l-450 1235q-82 -182 -82 -385zM233 1335h62q98 0 252 13 q25 2 36 -16.5t3 -39t-33 -22.5l-109 -10l344 -1022l207 618l-147 404q-49 6 -98 10q-25 2 -33 22.5t3 39t36 16.5l248 -13q100 0 251 13q25 2 36.5 -16.5t3 -39t-32.5 -22.5l-107 -10l340 -1016l94 315q74 240 74 305q0 131 -80 262q-4 6 -25.5 43t-27.5 48.5t-18.5 39 t-16.5 48t-4 43.5q0 68 46 118t114 50q2 0 6 -1.5t6 -1.5q-268 248 -639 248q-244 0 -453 -114.5t-338 -311.5zM758 -90q127 -37 266 -37q164 0 313 53l-6 13l-291 796zM1499 0q215 125 342 343t127 474q0 246 -115 453q6 -43 7 -96q0 -129 -72 -338z" />
<glyph unicode="x" horiz-adv-x="2052" d="M0 799q0 -360 223 -639q-19 52 -19 113q0 65 21 142q41 148 126 285.5t176 260t161 196.5l68 74q-301 186 -480 266q-276 -297 -276 -698zM285 92q47 139 140 284.5t192.5 254t192.5 198t153 134.5l59 47q27 -18 70 -53t158.5 -139.5t209.5 -209t185.5 -248t121.5 -268.5 q-143 -150 -335.5 -233.5t-405.5 -83.5q-215 0 -406.5 83.5t-334.5 233.5zM360 1577q285 246 666 246q379 0 664 -246q-74 43 -170 43q-160 0 -381 -121q-68 -37 -113 -69h-2q-16 12 -46 31.5t-114 62.5t-161.5 68.5t-174.5 26.5h-4q-94 0 -164 -42zM1294 1231 q303 186 482 266q276 -297 276 -698q0 -360 -225 -639q19 53 19 115q0 64 -20 140q-40 148 -126 285.5t-177 260t-159 196.5z" />
<glyph unicode="y" horiz-adv-x="1533" d="M-76 617v-26q0 -101 15 -161q10 -43 42 -59q18 -9 36 -10q14 0 28 6l467 143q78 25 78 103.5t-80 103.5l-465 186q-6 1 -13 1q-25 0 -49 -18q-32 -24 -38 -69q-19 -80 -21 -200zM121 1702q-9 18 -9 35q0 21 13 43q25 39 84 61q178 66 391 105h10q105 0 113 -88 q6 -81 19 -232t19.5 -239t13 -206.5t6.5 -213.5q0 -77 -62 -95q-13 -4 -26 -3q-49 0 -87 57q-305 473 -485 776zM259 -88q0 29 20 49l315 377q43 50 87 50q18 0 36 -8q56 -24 56 -105q0 -10 -1 -21v-502q-4 -31 -39 -49q-21 -11 -45 -11q-16 0 -33 5q-82 14 -192.5 58 t-165.5 85q-38 32 -38 72zM948 727q-14 26 -14 51q0 39 35 78l297 408q14 18 42 17q8 0 16 -1q40 -6 67 -43q59 -59 122.5 -159.5t83.5 -166.5q5 -18 6 -33q0 -22 -11 -38q-17 -29 -50 -37l-477 -121q-19 -5 -36 -5q-53 0 -81 50zM974 443q-19 -27 -19 -56q0 -35 28 -72 l260 -432q17 -21 55 -20h7q43 2 73 35q63 53 128 142t93 159q9 25 10 46q0 16 -5 30q-12 34 -45 44l-465 158q-24 8 -45 8q-46 0 -75 -42z" />
<glyph unicode="z" horiz-adv-x="1478" d="M0 74v26v168q2 29 18 47q133 158 399.5 472.5t399.5 472.5q-117 -23 -211 -29q-47 -3 -84 -3t-64 3q-54 6 -95 20.5t-57.5 27.5t-24.5 26q-2 0 -2 2q-2 4 -5 6q-8 19 -8 48q0 15 2 32q10 100 101 225q4 4 12 14l12 15q11 11 26 10q13 0 30 -8q37 -20 40 -21 q113 -45 304 -53q45 -2 89 -2q219 0 455 49q39 6 37 -31q-2 -29 -8 -87t-10 -87q0 -8 -10 -18l-27 -27l-16 -14q-16 -18 -330 -385q-258 -299 -389 -449q-41 -49 -123 -143q-23 -27 -27 -38t-4 -48h15q133 0 294 -100q207 -135 336 -179q93 -25 171 -25q133 0 224 72 q9 -45 10 -91q0 -56 -14 -115q-25 -109 -103 -185q-66 -64 -157 -63q-17 0 -35 2q-131 16 -340 137q-47 27 -148 104.5t-161 108.5q-98 49 -194.5 63.5t-239.5 14.5h-63q-17 0 -25 35z" />
<glyph unicode="{" horiz-adv-x="2525" d="M-129 1122q356 68 426 146q55 61 92 186q37 -47 47 -99t2 -81l-10 -27q-12 -27 -21.5 -43t-15.5 -27.5t-19.5 -22.5t-20.5 -17.5t-32.5 -22.5t-42.5 -29q-72 -55 -68.5 -127.5t62.5 -111.5q53 -33 103.5 12t107.5 160q25 51 38 135t40 149.5t96 120.5q41 33 93.5 39 t102.5 2t105.5 0t123 48t137.5 133q10 12 28.5 31.5t77.5 59.5t120.5 57t152 -2t176.5 -91q-98 43 -184.5 43t-138.5 -31t-89 -67.5t-53 -67.5l-15 -31q-31 -76 -58.5 -126t-48 -78.5t-51 -46t-49 -23.5t-65.5 -17.5t-78 -19.5q-88 -27 -102 -111q-12 -74 45 -108 q66 -37 168 28q76 49 122 101.5t62 90.5t56 81t106 76q88 43 168 58t170 16t137 8q403 66 504 233q98 162 100 266q35 -119 23.5 -213t-54.5 -164.5t-90 -116.5t-84 -69l-37 -22q-158 -82 -263 -114t-170.5 -43t-127.5 -44q-211 -113 -106 -318q43 -84 126 -91t158 61 q12 10 28.5 28.5t46.5 80t32 124.5q41 -115 31.5 -197.5t-41.5 -130.5l-31 -45q-74 -78 -124 -109.5t-129 -37.5t-183 31q-176 43 -245 42t-126 -36q-57 -33 -88 -87t-4 -100q29 -51 69.5 -56t131.5 44q80 47 135 60.5t139 17.5q178 4 285 -78q76 -49 151 -117 q-233 137 -426 5q-35 -23 -55 -46q-92 -104 -154.5 -147t-108.5 -42t-120 30q-20 8 -80.5 34.5t-85.5 32.5v226q0 248 -188 381q-121 82 -275 81q-156 0 -274 -79q-41 59 -105 67v154q0 63 -44 107t-107 44h-37zM131 -33v332q0 133 39 203q82 145 274 145q141 0 226.5 -89 t85.5 -224v-277h-414v-137q0 -98 102 -98q92 0 103 100h209q0 -127 -84 -215q-88 -88 -228 -88q-193 0 -274 145q-39 70 -39 203zM342 215h205v115q0 115 -102.5 114.5t-102.5 -114.5v-115zM879 -193q23 74 22 146q0 23 -6 41q49 -8 70 -10q127 -12 174 -95q4 -6 9 -18 t14 -47t-1 -64q-63 49 -134 61.5t-109 -1.5z" />
<glyph unicode="|" horiz-adv-x="948" d="M0 -266v2048l926 -21v-331l-592 8v-477l557 -5v-331h-557v-547l614 8v-332z" />
<glyph unicode="}" horiz-adv-x="1777" d="M0 242q0 90 64.5 155.5t156.5 65.5q90 0 155.5 -65.5t65.5 -155.5q0 -94 -69 -160q133 -152 334 -152q141 0 237 84q96 86 96 217q0 80 -51 158q-47 78 -123 131q-70 47 -235 117q-154 61 -250 121q-86 55 -150 131q-61 74 -94 151q-29 80 -28 162q0 207 165 352 q168 145 404 146q158 0 317 -68q135 -57 232 -164q76 -66 76 -163q0 -92 -66 -157t-156 -65q-92 0 -156.5 64.5t-64.5 157.5q0 43 21 90q-66 33 -181 32q-141 0 -229 -63.5t-88 -163.5q0 -88 78 -156q82 -68 262 -145q188 -82 289 -149q104 -70 168 -152q68 -84 98 -174 q0 -2 2 -6t2 -6q-154 -127 -154 -324q0 -109 58 -213q-23 -27 -49 -55q-178 -168 -422 -168t-426.5 131t-284.5 397l6 2q-10 31 -10 60zM1255 88q0 -106 74 -181t180.5 -75t180 75t73.5 181q0 104 -73.5 179t-180 75t-180.5 -75t-74 -179z" />
<glyph unicode="~" horiz-adv-x="1359" d="M0 1587h205l16 -248h21l10 7q162 272 504 272q266 0 435 -202t169 -519q0 -190 -55.5 -340.5t-148.5 -241t-206.5 -137.5t-238.5 -47q-141 0 -257 58.5t-178 162.5l-4 6h-22l-6 -14v-774h-232v1558q0 180 -12 459zM244 741q0 -63 12 -112q39 -143 151.5 -231.5 t258.5 -88.5q207 0 331.5 157t124.5 419q0 244 -125 397.5t-321 153.5q-147 0 -262 -93.5t-152 -240.5q-18 -68 -18 -109v-252z" />
<glyph unicode="&#xa3;" horiz-adv-x="3291" d="M657 55v1229h594q223 0 320 -131q55 -76 55 -188q0 -115 -57 -181q-33 -41 -92 -69q92 -33 141 -109q47 -76 47 -180q0 -106 -55 -197q-35 -57 -86 -96q-63 -47 -140 -61q-86 -16 -172 -17h-555zM942 268h260q78 0 123 23q82 39 82 153q0 94 -78 131q-51 20 -123 21h-264 v-328zM942 799h260q80 0 129 30.5t49 108.5q0 88 -65 113q-53 20 -146 20h-227v-272zM1759 524q0 229 123 350q121 123 313 123q113 0 207 -41q94 -43 154 -131q55 -84 70 -182q8 -51 8 -174h-641q2 -131 92 -186q55 -33 127 -33q76 0 127 41q23 18 47 59h235 q-10 -78 -86 -157q-119 -129 -331 -130q-172 0 -310 109q-135 106 -135 352zM1948 1110v123h493v-123h-493zM1997 621h397q-6 94 -61 139q-57 47 -138 47q-88 0 -137 -49q-49 -53 -61 -137z" />
<glyph unicode="&#xa9;" horiz-adv-x="1581" />
<glyph unicode="&#xad;" horiz-adv-x="2244" d="M0 453q0 88 64.5 189t148.5 101q16 0 25 -6l4 56q10 12 32 12q37 0 69 -20.5t32 -55.5q0 -47 -29 -135t-29 -133q0 -6 5 -19l4 -4h4q37 0 121 109q-12 57 36 125.5t105 68.5q47 0 47 -61q0 -31 -36 -109.5t-38 -113.5l4 -13l11 -2q33 8 80 66.5t63 99.5q-14 16 -14 39 q0 47 54 104.5t99 57.5q53 0 53 -41q0 -12 -2 -18q-41 -23 -55 -50q6 -2 40 -12t53.5 -23.5t19.5 -33.5q0 -23 -34 -88.5t-34 -98.5q0 -4 4 -16l13 -6q23 2 61.5 38t56.5 64q4 51 20.5 128t46.5 162t77 144.5t100 59.5q61 0 61 -66q0 -59 -151 -272q-16 -123 -16 -184 q0 -53 10 -72l6 -4q33 0 60.5 57.5t27.5 93.5q0 49 -43 60q-4 16 -4 24q0 37 28.5 67t65.5 30q78 0 78 -104.5t-76 -222.5t-174 -118q-96 0 -115 117q-37 -43 -91 -83t-95 -40q-92 0 -92 80q0 35 23.5 94.5t23.5 73.5t-31 26q-49 -92 -128 -180t-152 -88q-76 0 -76 78 q0 23 2 33q-96 -102 -156 -103q-70 0 -69 78q0 12 4 37q-39 -111 -109 -111q-49 0 -71.5 40.5t-22.5 93.5zM139 494q0 -23 8 -33l9 -6l8 -2q23 0 39 24l30 199q-41 -25 -67.5 -79t-26.5 -103zM580 887q0 106 47 106q25 0 52.5 -23.5t27.5 -47.5q0 -43 -64 -117 q-31 0 -47 24.5t-16 57.5zM1421 426q0 51 25 119q-10 23 -10 59q0 45 50 100.5t93 55.5q23 0 32 -9.5t9 -31.5q0 -63 -37 -137q31 59 80 111t96 52q31 0 48.5 -18t17.5 -47q0 -45 -36 -122t-38 -118l2 -10l10 -4q37 10 113 98q2 51 19.5 129t46 162t75.5 143.5t101 59.5 q61 0 61 -66q0 -63 -149 -272q-16 -98 -17 -184q0 -53 8 -72l9 -4q33 0 60.5 57.5t27.5 93.5q0 49 -45 60q-2 8 -2 24q0 37 28.5 67t65.5 30q78 0 78 -104.5t-76 -222.5t-174 -118q-100 0 -115 119q-113 -119 -188 -119q-74 0 -74 78q0 35 23.5 100.5t23.5 79.5q0 12 -10 13 q-25 0 -78 -68q-16 -100 -23 -180q-12 -12 -36 -13q-41 0 -68 33t-27 76z" />
<glyph unicode="&#xae;" horiz-adv-x="1581" />
<glyph unicode="&#xb4;" />
<glyph unicode="&#xdc;" horiz-adv-x="1761" />
<glyph unicode="&#xe5;" horiz-adv-x="2699" />
<glyph unicode="&#xe7;" horiz-adv-x="3661" />
<glyph unicode="&#x2000;" horiz-adv-x="987" />
<glyph unicode="&#x2001;" horiz-adv-x="1974" />
<glyph unicode="&#x2002;" horiz-adv-x="987" />
<glyph unicode="&#x2003;" horiz-adv-x="1974" />
<glyph unicode="&#x2004;" horiz-adv-x="657" />
<glyph unicode="&#x2005;" horiz-adv-x="493" />
<glyph unicode="&#x2006;" horiz-adv-x="327" />
<glyph unicode="&#x2007;" horiz-adv-x="327" />
<glyph unicode="&#x2008;" horiz-adv-x="245" />
<glyph unicode="&#x2009;" horiz-adv-x="393" />
<glyph unicode="&#x200a;" horiz-adv-x="108" />
<glyph unicode="&#x2010;" horiz-adv-x="2244" d="M0 453q0 88 64.5 189t148.5 101q16 0 25 -6l4 56q10 12 32 12q37 0 69 -20.5t32 -55.5q0 -47 -29 -135t-29 -133q0 -6 5 -19l4 -4h4q37 0 121 109q-12 57 36 125.5t105 68.5q47 0 47 -61q0 -31 -36 -109.5t-38 -113.5l4 -13l11 -2q33 8 80 66.5t63 99.5q-14 16 -14 39 q0 47 54 104.5t99 57.5q53 0 53 -41q0 -12 -2 -18q-41 -23 -55 -50q6 -2 40 -12t53.5 -23.5t19.5 -33.5q0 -23 -34 -88.5t-34 -98.5q0 -4 4 -16l13 -6q23 2 61.5 38t56.5 64q4 51 20.5 128t46.5 162t77 144.5t100 59.5q61 0 61 -66q0 -59 -151 -272q-16 -123 -16 -184 q0 -53 10 -72l6 -4q33 0 60.5 57.5t27.5 93.5q0 49 -43 60q-4 16 -4 24q0 37 28.5 67t65.5 30q78 0 78 -104.5t-76 -222.5t-174 -118q-96 0 -115 117q-37 -43 -91 -83t-95 -40q-92 0 -92 80q0 35 23.5 94.5t23.5 73.5t-31 26q-49 -92 -128 -180t-152 -88q-76 0 -76 78 q0 23 2 33q-96 -102 -156 -103q-70 0 -69 78q0 12 4 37q-39 -111 -109 -111q-49 0 -71.5 40.5t-22.5 93.5zM139 494q0 -23 8 -33l9 -6l8 -2q23 0 39 24l30 199q-41 -25 -67.5 -79t-26.5 -103zM580 887q0 106 47 106q25 0 52.5 -23.5t27.5 -47.5q0 -43 -64 -117 q-31 0 -47 24.5t-16 57.5zM1421 426q0 51 25 119q-10 23 -10 59q0 45 50 100.5t93 55.5q23 0 32 -9.5t9 -31.5q0 -63 -37 -137q31 59 80 111t96 52q31 0 48.5 -18t17.5 -47q0 -45 -36 -122t-38 -118l2 -10l10 -4q37 10 113 98q2 51 19.5 129t46 162t75.5 143.5t101 59.5 q61 0 61 -66q0 -63 -149 -272q-16 -98 -17 -184q0 -53 8 -72l9 -4q33 0 60.5 57.5t27.5 93.5q0 49 -45 60q-2 8 -2 24q0 37 28.5 67t65.5 30q78 0 78 -104.5t-76 -222.5t-174 -118q-100 0 -115 119q-113 -119 -188 -119q-74 0 -74 78q0 35 23.5 100.5t23.5 79.5q0 12 -10 13 q-25 0 -78 -68q-16 -100 -23 -180q-12 -12 -36 -13q-41 0 -68 33t-27 76z" />
<glyph unicode="&#x2011;" horiz-adv-x="2244" d="M0 453q0 88 64.5 189t148.5 101q16 0 25 -6l4 56q10 12 32 12q37 0 69 -20.5t32 -55.5q0 -47 -29 -135t-29 -133q0 -6 5 -19l4 -4h4q37 0 121 109q-12 57 36 125.5t105 68.5q47 0 47 -61q0 -31 -36 -109.5t-38 -113.5l4 -13l11 -2q33 8 80 66.5t63 99.5q-14 16 -14 39 q0 47 54 104.5t99 57.5q53 0 53 -41q0 -12 -2 -18q-41 -23 -55 -50q6 -2 40 -12t53.5 -23.5t19.5 -33.5q0 -23 -34 -88.5t-34 -98.5q0 -4 4 -16l13 -6q23 2 61.5 38t56.5 64q4 51 20.5 128t46.5 162t77 144.5t100 59.5q61 0 61 -66q0 -59 -151 -272q-16 -123 -16 -184 q0 -53 10 -72l6 -4q33 0 60.5 57.5t27.5 93.5q0 49 -43 60q-4 16 -4 24q0 37 28.5 67t65.5 30q78 0 78 -104.5t-76 -222.5t-174 -118q-96 0 -115 117q-37 -43 -91 -83t-95 -40q-92 0 -92 80q0 35 23.5 94.5t23.5 73.5t-31 26q-49 -92 -128 -180t-152 -88q-76 0 -76 78 q0 23 2 33q-96 -102 -156 -103q-70 0 -69 78q0 12 4 37q-39 -111 -109 -111q-49 0 -71.5 40.5t-22.5 93.5zM139 494q0 -23 8 -33l9 -6l8 -2q23 0 39 24l30 199q-41 -25 -67.5 -79t-26.5 -103zM580 887q0 106 47 106q25 0 52.5 -23.5t27.5 -47.5q0 -43 -64 -117 q-31 0 -47 24.5t-16 57.5zM1421 426q0 51 25 119q-10 23 -10 59q0 45 50 100.5t93 55.5q23 0 32 -9.5t9 -31.5q0 -63 -37 -137q31 59 80 111t96 52q31 0 48.5 -18t17.5 -47q0 -45 -36 -122t-38 -118l2 -10l10 -4q37 10 113 98q2 51 19.5 129t46 162t75.5 143.5t101 59.5 q61 0 61 -66q0 -63 -149 -272q-16 -98 -17 -184q0 -53 8 -72l9 -4q33 0 60.5 57.5t27.5 93.5q0 49 -45 60q-2 8 -2 24q0 37 28.5 67t65.5 30q78 0 78 -104.5t-76 -222.5t-174 -118q-100 0 -115 119q-113 -119 -188 -119q-74 0 -74 78q0 35 23.5 100.5t23.5 79.5q0 12 -10 13 q-25 0 -78 -68q-16 -100 -23 -180q-12 -12 -36 -13q-41 0 -68 33t-27 76z" />
<glyph unicode="&#x2012;" horiz-adv-x="2244" d="M0 453q0 88 64.5 189t148.5 101q16 0 25 -6l4 56q10 12 32 12q37 0 69 -20.5t32 -55.5q0 -47 -29 -135t-29 -133q0 -6 5 -19l4 -4h4q37 0 121 109q-12 57 36 125.5t105 68.5q47 0 47 -61q0 -31 -36 -109.5t-38 -113.5l4 -13l11 -2q33 8 80 66.5t63 99.5q-14 16 -14 39 q0 47 54 104.5t99 57.5q53 0 53 -41q0 -12 -2 -18q-41 -23 -55 -50q6 -2 40 -12t53.5 -23.5t19.5 -33.5q0 -23 -34 -88.5t-34 -98.5q0 -4 4 -16l13 -6q23 2 61.5 38t56.5 64q4 51 20.5 128t46.5 162t77 144.5t100 59.5q61 0 61 -66q0 -59 -151 -272q-16 -123 -16 -184 q0 -53 10 -72l6 -4q33 0 60.5 57.5t27.5 93.5q0 49 -43 60q-4 16 -4 24q0 37 28.5 67t65.5 30q78 0 78 -104.5t-76 -222.5t-174 -118q-96 0 -115 117q-37 -43 -91 -83t-95 -40q-92 0 -92 80q0 35 23.5 94.5t23.5 73.5t-31 26q-49 -92 -128 -180t-152 -88q-76 0 -76 78 q0 23 2 33q-96 -102 -156 -103q-70 0 -69 78q0 12 4 37q-39 -111 -109 -111q-49 0 -71.5 40.5t-22.5 93.5zM139 494q0 -23 8 -33l9 -6l8 -2q23 0 39 24l30 199q-41 -25 -67.5 -79t-26.5 -103zM580 887q0 106 47 106q25 0 52.5 -23.5t27.5 -47.5q0 -43 -64 -117 q-31 0 -47 24.5t-16 57.5zM1421 426q0 51 25 119q-10 23 -10 59q0 45 50 100.5t93 55.5q23 0 32 -9.5t9 -31.5q0 -63 -37 -137q31 59 80 111t96 52q31 0 48.5 -18t17.5 -47q0 -45 -36 -122t-38 -118l2 -10l10 -4q37 10 113 98q2 51 19.5 129t46 162t75.5 143.5t101 59.5 q61 0 61 -66q0 -63 -149 -272q-16 -98 -17 -184q0 -53 8 -72l9 -4q33 0 60.5 57.5t27.5 93.5q0 49 -45 60q-2 8 -2 24q0 37 28.5 67t65.5 30q78 0 78 -104.5t-76 -222.5t-174 -118q-100 0 -115 119q-113 -119 -188 -119q-74 0 -74 78q0 35 23.5 100.5t23.5 79.5q0 12 -10 13 q-25 0 -78 -68q-16 -100 -23 -180q-12 -12 -36 -13q-41 0 -68 33t-27 76z" />
<glyph unicode="&#x2013;" horiz-adv-x="1026" d="M0 453q0 88 29.5 189t67.5 101q7 0 11 -6l2 56q5 12 15 12q17 0 31.5 -20.5t14.5 -55.5q0 -47 -13 -135t-13 -133q0 -6 2 -19l2 -4h2q17 0 55 109q-6 57 16 125.5t48 68.5q22 0 22 -61q0 -31 -16.5 -109.5t-17.5 -113.5l2 -13l5 -2q15 8 36.5 66.5t28.5 99.5q-7 16 -6 39 q0 47 24.5 104.5t45.5 57.5q24 0 24 -41q0 -12 -1 -18q-19 -23 -25 -50l18 -12t24 -23.5t9 -33.5q0 -23 -15.5 -88.5t-15.5 -98.5q0 -4 2 -16l6 -6q10 2 28 38t26 64q2 51 9.5 128t21 162t35 144.5t45.5 59.5q28 0 28 -66q0 -59 -69 -272q-7 -123 -7 -184q0 -53 4 -72l3 -4 q15 0 27.5 57.5t12.5 93.5q0 49 -19 60q-2 16 -2 24q0 37 13 67t30 30q36 0 36 -104.5t-35 -222.5t-80 -118q-44 0 -52 117q-17 -43 -41.5 -83t-43.5 -40q-42 0 -42 80q0 35 10.5 94.5t10.5 73.5t-14 26q-22 -92 -58 -180t-70 -88q-35 0 -34 78q0 23 1 33q-44 -102 -71 -103 q-32 0 -32 78q0 12 2 37q-18 -111 -50 -111q-22 0 -32.5 40.5t-10.5 93.5zM64 494q0 -23 3 -33l4 -6l4 -2q10 0 18 24l14 199q-19 -25 -31 -79t-12 -103zM265 887q0 106 21 106q11 0 24 -23.5t13 -47.5q0 -43 -29 -117q-14 0 -21.5 24.5t-7.5 57.5zM649 426q0 51 11 119 q-5 23 -4 59q0 45 22.5 100.5t42.5 55.5q10 0 14.5 -9.5t4.5 -31.5q0 -63 -17 -137q14 59 36.5 111t43.5 52q14 0 22 -18t8 -47q0 -45 -16.5 -122t-16.5 -118v-10l5 -4q17 10 52 98q1 51 8.5 129t21 162t35 143.5t45.5 59.5q28 0 28 -66q0 -63 -68 -272q-7 -98 -8 -184 q0 -53 4 -72l4 -4q15 0 27.5 57.5t12.5 93.5q0 49 -21 60q-1 8 -1 24q0 37 13.5 67t29.5 30q36 0 36 -104.5t-34.5 -222.5t-79.5 -118q-46 0 -52 119q-51 -119 -86 -119q-34 0 -34 78q0 35 10.5 100.5t10.5 79.5q0 12 -4 13q-11 0 -36 -68q-7 -100 -10 -180q-6 -12 -17 -13 q-19 0 -31 33t-12 76z" />
<glyph unicode="&#x2014;" horiz-adv-x="2050" d="M0 453q0 88 59 189t136 101q15 0 22 -6l4 56q9 12 30 12q34 0 62.5 -20.5t28.5 -55.5q0 -47 -26 -135t-26 -133q0 -6 4 -19l3 -4h4q34 0 110 109q-11 57 33 125.5t97 68.5q43 0 43 -61q0 -31 -33 -109.5t-35 -113.5l4 -13l9 -2q30 8 73 66.5t58 99.5q-13 16 -13 39 q0 47 49.5 104.5t90.5 57.5q49 0 49 -41q0 -12 -2 -18q-37 -23 -50 -50q6 -2 36.5 -12t48.5 -23.5t18 -33.5q0 -23 -31 -88.5t-31 -98.5q0 -4 4 -16l11 -6q21 2 56 38t52 64q4 51 19 128t42 162t70 144.5t92 59.5q56 0 56 -66q0 -59 -138 -272q-15 -123 -15 -184 q0 -53 9 -72l6 -4q30 0 55 57.5t25 93.5q0 49 -39 60q-4 16 -4 24q0 37 26 67t60 30q71 0 71 -104.5t-69 -222.5t-159 -118q-88 0 -105 117q-34 -43 -83.5 -83t-86.5 -40q-84 0 -84 80q0 35 21.5 94.5t21.5 73.5t-28 26q-45 -92 -117 -180t-140 -88q-69 0 -69 78q0 23 2 33 q-88 -102 -142 -103q-64 0 -64 78q0 12 4 37q-36 -111 -99 -111q-45 0 -65.5 40.5t-20.5 93.5zM127 494q0 -23 8 -33l7 -6l8 -2q21 0 35 24l28 199q-37 -25 -61.5 -79t-24.5 -103zM529 887q0 106 43 106q22 0 47.5 -23.5t25.5 -47.5q0 -43 -58 -117q-28 0 -43 24.5t-15 57.5 zM1298 426q0 51 22 119q-9 23 -9 59q0 45 46 100.5t85 55.5q21 0 29 -9.5t8 -31.5q0 -63 -33 -137q28 59 73 111t88 52q28 0 43.5 -18t15.5 -47q0 -45 -32.5 -122t-34.5 -118l2 -10l9 -4q34 10 103 98q2 51 18 129t42 162t69 143.5t92 59.5q56 0 56 -66q0 -63 -137 -272 q-15 -98 -14 -184q0 -53 7 -72l7 -4q30 0 55.5 57.5t25.5 93.5q0 49 -41 60q-2 8 -2 24q0 37 26 67t60 30q71 0 71 -104.5t-69 -222.5t-159 -118q-92 0 -105 119q-103 -119 -172 -119q-67 0 -67 78q0 35 21.5 100.5t21.5 79.5q0 12 -10 13q-22 0 -71 -68q-15 -100 -20 -180 q-11 -12 -34 -13q-37 0 -61.5 33t-24.5 76z" />
<glyph unicode="&#x202f;" horiz-adv-x="393" />
<glyph unicode="&#x205f;" horiz-adv-x="493" />
<glyph unicode="&#x20ac;" horiz-adv-x="1656" />
<glyph unicode="&#xe000;" horiz-adv-x="1825" d="M0 1825h1825v-1825h-1825v1825z" />
</font>
</defs>
</svg>
