<svg width="150" height="150" viewBox="0 0 150 150" fill="none" xmlns="http://www.w3.org/2000/svg">
<g clip-path="url(#clip0_3_21)">
<path d="M46.9971 31H38.4596H29.7097L23.7972 67.7584C23.6723 67.7751 23.5473 67.7834 23.4181 67.8C10.3556 69.5324 0.218202 80.4973 0.3307 92.7583C0.380701 97.8855 2.13485 101.891 5.28067 105.173C8.12233 108.14 11.9931 109.748 15.9014 109.748C17.4306 109.748 18.964 109.503 20.4431 108.996C27.4847 106.578 29.8223 100.686 30.9181 95.2929C30.9181 95.297 30.9138 95.3053 30.9138 95.3136C31.2304 89.2932 28.0055 83.3476 21.8555 79.8284L19.9097 92.0811C19.2848 95.5588 18.4723 97.6363 16.7306 98.2346C15.6889 98.5919 14.4056 98.2221 13.5389 97.3163C12.4223 96.1488 11.7681 94.8484 11.7473 92.6503C11.689 86.5219 16.5223 81.7106 21.8555 79.8284C23.5307 79.2258 25.2723 78.9433 27.2181 78.9433C29.193 78.9433 31.2723 79.3214 33.1722 79.9571C40.3763 81.6524 44.7429 89.2723 45.822 97.524L46.4554 102.149H58.4428L46.9971 31ZM34.7012 68.5479L38.1387 42.2431H38.243H38.5638L42.4012 71.5976C39.9638 70.272 37.3721 69.2376 34.7012 68.5479ZM149.705 50.8437V102.144H137.742V50.8437H149.705ZM114.788 119.915C130.496 119.915 131.709 110.986 131.709 98.3676L131.813 50.848H125.622C123.392 50.848 120.659 52.514 120.472 54.6622L120.326 56.3199L119.747 54.7576C118.593 51.654 115.688 50.0128 111.347 50.0128C106.984 50.0128 103.763 51.683 101.772 54.9738C99.8342 58.1731 99.43 62.3113 99.43 65.2198V85.1674C99.43 90.1159 100.155 93.7597 101.647 96.3026C103.459 99.3938 106.393 100.898 110.622 100.898C114.622 100.898 117.647 99.2026 119.138 96.1239L119.851 94.6571V96.286V101.999C119.851 107.022 119.538 110.579 115.518 110.579C114.597 110.579 111.601 110.267 111.601 106.258V106.112H99.5343V106.362C99.5343 110.259 100.593 113.396 102.68 115.681C105.238 118.49 109.313 119.915 114.788 119.915ZM119.642 83.0941C119.642 87.9845 118.951 90.6352 115.309 90.6352C111.859 90.6352 111.392 87.3486 111.392 84.1328V66.2627C111.392 62.2365 112.842 60.2796 115.83 60.2796C119.188 60.2796 119.642 63.5661 119.642 66.782V83.0941ZM150.33 39.5633C150.33 43.1988 147.43 46.0449 143.726 46.0449C140.08 46.0449 137.226 43.1988 137.226 39.5633C137.226 35.8695 140.08 32.9777 143.726 32.9777C147.367 32.9777 150.33 35.9319 150.33 39.5633ZM74.2219 67.4053V102.149H62.1553L62.0512 50.848H68.7594C71.0636 50.848 73.7219 52.4684 74.0137 54.8823L74.147 55.9876L74.7094 55.0277C76.6552 51.7039 79.8052 50.017 84.076 50.017C90.9467 50.017 94.4342 54.4336 94.4342 63.1506V102.153H82.472V65.8471C82.472 62.1534 81.1886 60.2796 78.6594 60.2796C75.3844 60.2796 74.2219 62.1451 74.2219 67.4053Z" fill="#090909"/>
<path d="M30.9138 95.3136C31.5181 92.7417 32.918 82.8656 33.1681 79.9573C31.2723 79.3257 29.1889 78.9434 27.214 78.9434C25.2682 78.9434 23.5264 79.2301 21.8514 79.8284C28.0057 83.3476 31.2306 89.2932 30.9138 95.3136Z" fill="#090909"/>
</g>
<defs>
<clipPath id="clip0_3_21">
<rect width="150" height="150" fill="white"/>
</clipPath>
</defs>
</svg>
