<?xml version="1.0" encoding="UTF-8" standalone="no"?>
<!-- Created with Inkscape (http://www.inkscape.org/) -->

<svg
   xmlns:dc="http://purl.org/dc/elements/1.1/"
   xmlns:cc="http://creativecommons.org/ns#"
   xmlns:rdf="http://www.w3.org/1999/02/22-rdf-syntax-ns#"
   xmlns:svg="http://www.w3.org/2000/svg"
   xmlns="http://www.w3.org/2000/svg"
   xmlns:sodipodi="http://sodipodi.sourceforge.net/DTD/sodipodi-0.dtd"
   xmlns:inkscape="http://www.inkscape.org/namespaces/inkscape"
   id="svg2"
   version="1.1"
   inkscape:version="0.91 r13725"
   width="128"
   height="128"
   viewBox="0 0 128 128"
   sodipodi:docname="askfm.svg">
  <metadata
     id="metadata8">
    <rdf:RDF>
      <cc:Work
         rdf:about="">
        <dc:format>image/svg+xml</dc:format>
        <dc:type
           rdf:resource="http://purl.org/dc/dcmitype/StillImage" />
        <dc:title></dc:title>
      </cc:Work>
    </rdf:RDF>
  </metadata>
  <defs
     id="defs6" />
  <sodipodi:namedview
     pagecolor="#ffffff"
     bordercolor="#666666"
     borderopacity="1"
     objecttolerance="10"
     gridtolerance="10"
     guidetolerance="10"
     inkscape:pageopacity="0"
     inkscape:pageshadow="2"
     inkscape:window-width="1920"
     inkscape:window-height="1016"
     id="namedview4"
     showgrid="false"
     inkscape:zoom="1.7481481"
     inkscape:cx="104.48169"
     inkscape:cy="40.462504"
     inkscape:window-x="1366"
     inkscape:window-y="27"
     inkscape:window-maximized="1"
     inkscape:current-layer="svg2" />
  <path
     style="opacity:1;fill:#000000;fill-opacity:1;stroke:none;stroke-width:0.2;stroke-miterlimit:4;stroke-dasharray:none;stroke-opacity:1"
     d="m 40.540223,3.8641098e-4 c -0.99609,-0.007000001 -1.98192,0.090399999 -2.81029,0.29788999902 -3.35578,0.84060999 -6.37728,3.16886999 -8.69672,6.70117999 -1.30826,1.99235 -1.59547,2.64069 -5.11546,11.5541896 -1.71471,4.34204 -4.00278,9.99063 -5.08462,12.55243 -5.45941,12.92776 -6.53138,16.61316 -7.30221,25.10487 -0.41781,4.60266 -0.66277,6.13502 -1.50244,9.39459 -1.0403496,4.03854 -1.2029396,5.14283 -1.2952096,8.80187 -0.0877,3.47626 0.0479,5.19466 0.61892,7.85576 0.26297,1.22553 0.3279,2.16443 0.35526,5.1315 0.0361,3.91391 0.18918,4.90676 1.0984596,7.12427 0.92137,2.24699 2.81819,4.65951 4.54125,5.776024 0.62023,0.4019 0.79653,0.61927 0.92453,1.14009 0.33952,1.38135 1.10346,3.576 1.63382,4.69359 2.30129,4.84954 6.62872,8.44529 11.02717,9.16269 0.63335,0.10329 1.22908,0.24484 1.32358,0.31455 0.0945,0.0697 0.26223,0.42954 0.37284,0.79964 0.1106,0.3701 0.51449,1.30292 0.89739,2.07295 2.85407,5.73957 7.68326,9.09757 13.08379,9.09757 2.55534,0 4.66835,-0.6226 6.90469,-2.035 l 1.04974,-0.663 0.6658,0.4203 c 3.54333,2.2368 8.58771,2.5896 12.38775,0.8666 l 1.04203,-0.4725 1.36953,0.6837 c 1.41485,0.7064 2.92713,1.2586 4.14375,1.5133 1.09006,0.2281 5.27458,0.079 6.38354,-0.227 3.15082,-0.8703 6.36607,-3.2425 8.24647,-6.0841 0.68415,-1.0338 0.76766,-1.0997 1.39913,-1.1028 0.76616,0 2.88681,-0.5948 3.99542,-1.1136 1.42187,-0.6653 2.90061,-1.76018 4.27975,-3.16828 l 1.18419,-1.20887 1.10155,-0.10608 c 4.080167,-0.39227 7.934907,-3.45377 9.643757,-7.65932 0.25108,-0.61791 0.77315,-1.41359 1.39635,-2.12815 1.23792,-1.41943 2.16726,-2.96804 2.76651,-4.61002 0.51724,-1.417244 0.96,-3.382294 0.96,-4.260624 0,-0.35292 0.27382,-1.17933 0.69509,-2.09886 1.99917,-4.36364 3.1364,-9.2153 3.57602,-15.25325 0.0948,-1.30261 0.46886,-4.21573 0.8311,-6.47359 l 0.65869,-4.10519 -0.006,-5.99991 -0.006,-5.9999 -0.89525,-6.55253 c -0.49238,-3.60389 -1.53877,-11.49061 -2.3252,-17.52604 -0.80155,-6.15156 -1.59357,-11.63263 -1.80249,-12.47349 -1.53776,-6.18956 -5.18689,-10.4625596 -9.98206,-11.6889596 -1.53285,-0.39203 -4.10184,-0.41797 -5.575567,-0.0564 -1.30939,0.32122 -3.30361,1.24157 -4.60757,2.1262996 -2.10794,1.43026 -4.92259,4.51528 -6.61483,7.25071 -0.62599,1.0119 -2.09815,2.85331 -2.87443,3.59544 l -0.54029,0.51685 -1.98785,-0.54491 c -6.41279,-1.75756 -14.58363,-2.90329 -21.59514,-3.02802 -3.30012,-0.0587 -3.73361,-0.0964 -3.92079,-0.342 -0.48947,-0.6423 -1.60571,-3.08492 -2.14666,-4.69729 -2.16203,-6.4442896 -5.78954,-10.7923396 -10.29014,-12.33440959 -1.00212,-0.34336 -2.29992,-0.52557 -3.58063,-0.53472999902 z M 40.505123,6.0801564 c 1.43243,1.1e-4 1.65888,0.0423 2.43899,0.45271 2.39696,1.26115 4.33711,4.0815796 5.77941,8.4018996 1.25876,3.77058 4.5037,9.20583 5.52438,9.25304 0.17033,0.008 1.33987,-0.0751 2.59906,-0.18441 6.6107,-0.57366 19.37122,1.16451 26.59498,3.62258 0.77615,0.2641 1.53223,0.48015 1.68007,0.48015 0.34411,0 2.00801,-1.22224 3.20841,-2.35666 1.36132,-1.28649 3.0976,-3.41731 4.42408,-5.42971 2.00209,-3.03733 3.83187,-4.86705 5.9043,-5.904 0.9798,-0.49024 1.350027,-0.58744 2.447327,-0.64298 1.52161,-0.077 2.62111,0.2593 3.80576,1.16384 1.41812,1.08282 2.79951,3.52885 3.49029,6.18093 0.12969,0.49794 1.16009,7.95509 2.29005,16.57159 1.12997,8.6165 2.16642,16.3979 2.303,17.29167 0.16656,1.08994 0.27413,3.23658 0.32688,6.51953 0.0714,4.44363 0.0475,5.09835 -0.2581,7.10515 -0.83279,5.46834 -1.1067,7.57962 -1.26993,9.78932 -0.44158,5.97737 -1.65725,10.81466 -3.58959,14.28246 -0.49516,0.88861 -0.57532,1.1824 -0.62416,2.28944 -0.12336,2.79617 -1.03328,4.92371 -2.8695,6.708574 -1.06239,1.03269 -1.2654,1.31996 -1.51231,2.14018 -1.15863,3.84878 -3.849817,5.70926 -7.083567,4.89713 -1.47049,-0.36933 -1.74797,-0.26937 -2.30301,0.83017 -1.93164,3.82655 -5.28524,5.65004 -8.80744,4.78888 -1.07649,-0.26319 -1.36216,-0.0958 -1.79015,1.04881 -1.24131,3.31962 -3.32788,5.54369 -5.96506,6.35829 -1.17648,0.3633 -3.31403,0.4038 -4.47095,0.085 -1.69815,-0.4684 -3.14943,-1.3164 -4.84532,-2.83161 -0.54604,-0.48787 -1.13826,-0.88722 -1.31617,-0.88722 -0.17792,0 -0.76152,0.41396 -1.29676,0.91991 -1.28671,1.21632 -1.74543,1.51762 -2.90867,1.90952 -2.72266,0.9172 -5.75929,-0.039 -8.40652,-2.64687 -1.98036,-1.95093 -2.13876,-1.96066 -3.36569,-0.2097 -1.26699,1.80817 -2.74636,2.89197 -4.57456,3.35147 -1.00963,0.2538 -2.82302,0.1123 -3.90166,-0.3043 -3.40231,-1.3142 -6.15605,-5.61863 -6.7792,-10.59701 -0.114,-0.91074 -0.22685,-1.2464 -0.49125,-1.4605 -0.42693,-0.34571 -0.47777,-0.34455 -1.70382,0.0398 -1.3224,0.41453 -2.90664,0.4103 -4.15732,-0.0111 -3.60842,-1.2156 -6.50795,-5.51848 -7.10114,-10.537774 -0.18773,-1.58847 -0.5042,-2.24256 -1.08489,-2.24256 -0.57811,0 -2.19987,-0.98706 -2.98392,-1.81607 -0.98686,-1.04345 -1.65207,-2.40587 -2.00387,-4.10489 -0.21333,-1.0302 -0.24052,-1.71445 -0.14741,-3.71047 0.0628,-1.34603 0.11949,-2.66048 0.12582,-2.921 0.006,-0.26052 -0.13961,-1.02412 -0.32411,-1.69704 -1.15779,-4.22249 -1.0999,-9.42414 0.15758,-14.16589 1.11365,-4.19936 1.37702,-5.77792 1.85801,-11.13665 0.68074,-7.58413 1.67424,-11.00288 6.57504,-22.62454 1.26237,-2.99355 3.70681,-9.01534 5.43186,-13.38167 1.72507,-4.36633 3.36211,-8.38893 3.63801,-8.93942 1.14101,-2.2764596 3.07232,-4.3892396 4.812,-5.2640996 0.85898,-0.43197 1.08082,-0.47379 2.52074,-0.47368 z m -1.33007,12.2773596 c -0.53008,-0.0118 -1.07133,0.16 -1.61931,0.51747 -0.31954,0.20845 -0.80833,0.70965 -1.08644,1.11388 -0.47515,0.69059 -5.51667,12.82301 -5.51667,13.2759 0,0.40321 0.4412,0.20314 1.36552,-0.61924 4.09025,-3.63914 8.60112,-6.10098 11.93906,-6.51583 0.50047,-0.0622 0.95065,-0.17887 1.0004,-0.25935 0.0497,-0.0805 -0.27149,-0.61513 -0.71391,-1.1882 -0.4424,-0.57307 -1.15716,-1.77898 -1.58849,-2.67985 -1.1426,-2.3864 -2.42549,-3.6147 -3.78016,-3.64478 z m 60.53287,6.68914 c -0.48569,-0.008 -0.97284,0.1 -1.43243,0.33861 -1.04005,0.53995 -1.59849,1.09331 -3.01538,2.98915 -0.73276,0.98047 -1.64647,2.04029 -2.0307,2.35513 -0.38421,0.31484 -0.6988,0.67624 -0.6988,0.80303 0,0.12678 0.30197,0.34548 0.67104,0.48601 1.50363,0.57253 4.38532,2.14829 5.66346,3.09679 2.495307,1.85174 4.659917,4.13268 6.196347,6.53001 0.65006,1.0143 1.04788,1.25508 1.04788,0.63404 0,-0.6893 -2.56886,-13.63401 -2.86211,-14.42247 -0.63934,-1.71901 -2.08222,-2.78658 -3.539307,-2.8103 z m -50.05003,14.61459 c -0.94865,-0.003 -1.90655,0.11639 -2.83712,0.36143 -1.20867,0.31826 -3.25921,1.29356 -4.51998,2.14974 -1.93783,1.31595 -4.46722,4.03266 -5.94038,6.38076 -2.39973,3.82495 -3.8289,8.77364 -3.8289,13.25801 0,3.40216 0.51859,5.72355 1.87004,8.37322 1.348,2.64294 4.04297,4.8939 6.60032,5.51297 1.40246,0.3395 3.72108,0.30915 5.20151,-0.0681 4.54579,-1.15852 8.92906,-5.07345 11.66212,-10.41657 3.57269,-6.98457 3.79891,-14.8866 0.58533,-20.4489 -0.83423,-1.44393 -2.87554,-3.38385 -4.29641,-4.0833 -1.36005,-0.66951 -2.91545,-1.01427 -4.49653,-1.01921 z m 33.32296,4.6458 c -2.71287,-0.0168 -4.93294,0.88202 -7.01417,2.8399 -5.93117,5.57962 -7.06151,16.75671 -2.58271,25.53907 3.34865,6.56623 9.02105,9.98803 14.31361,8.63442 1.90553,-0.48734 3.29054,-1.29969 4.8478,-2.8436 3.47508,-3.44528 5.25428,-8.73984 4.98902,-14.84495 -0.45868,-10.55677 -7.02673,-19.27818 -14.55355,-19.32484 z m -35.72558,3.55812 c 2.20803,-0.0177 3.92181,0.72957 5.51513,2.3909 1.45796,1.52018 2.4976,4.35208 2.4976,6.80293 0,1.89352 -0.63326,4.32006 -1.55056,5.94132 -0.9927,1.75453 -2.79946,3.57042 -4.35004,4.37226 -1.36969,0.70829 -3.75522,1.13689 -4.99396,0.89708 -2.64233,-0.51152 -4.55434,-2.01761 -5.83276,-4.59429 -1.33498,-2.69066 -1.29196,-6.75597 0.10206,-9.63235 0.29714,-0.61309 0.51871,-0.89054 0.67815,-0.84837 0.65781,0.17403 2.08343,0.18854 2.5753,0.0262 1.44215,-0.47596 2.95066,-2.58974 2.95092,-4.13512 8e-5,-0.46136 0.0885,-0.80417 0.24022,-0.93008 0.13768,-0.11427 0.87215,-0.23228 1.71986,-0.27662 0.1517,-0.008 0.30088,-0.0127 0.44808,-0.0139 z m 36.50518,4.43209 c 3.08338,-0.0441 6.01061,1.81966 7.58438,5.09788 0.72877,1.51806 1.02687,2.72189 1.13547,4.58535 0.37261,6.39385 -4.30452,11.7269 -9.6601,11.01484 -3.1593,-0.42005 -5.95554,-3.00807 -7.13199,-6.60033 -0.33008,-1.00787 -0.4274,-1.66199 -0.48139,-3.23679 -0.0372,-1.08551 -0.006,-2.25786 0.0691,-2.60522 0.13475,-0.62172 0.14874,-0.63189 0.88598,-0.66611 1.00495,-0.0466 1.72545,-0.41514 2.47324,-1.26468 0.97101,-1.10313 1.31605,-2.19947 1.21348,-3.8551 l -0.0845,-1.36521 0.90542,-0.40614 c 1.01817,-0.45693 2.06313,-0.6838 3.09092,-0.69849 z m -19.96627,16.47414 c -1.18143,-0.004 -2.11567,0.42225 -3.39684,1.54963 -1.05217,0.92585 -1.08303,1.46975 -0.26706,4.6791 1.57692,6.20229 2.14387,7.23041 3.33176,6.03938 0.50878,-0.51013 2.17239,-3.27683 3.59143,-5.97339 1.37967,-2.62175 1.35802,-3.03127 -0.25687,-4.84871 -0.94306,-1.06135 -1.73238,-1.44154 -3.00242,-1.44601 z"
     id="rect4164"
     inkscape:connector-curvature="0"
     sodipodi:nodetypes="csssssssssssccccssscccccssccsscccscssssccccsscsssscccssssccsssssssssssssssssscssscsssssssssssssssscssscsccsssscsscccsssccscssscsssssssssssssssssssssssssscssssssccssscccsssssccsscccssssssss" />
</svg>
