<svg width="150" height="150" viewBox="0 0 150 150" fill="none" xmlns="http://www.w3.org/2000/svg">
<g clip-path="url(#clip0_6_19)">
<path d="M57.0534 91.9946C53.6385 91.9946 50.2227 91.2987 47.4348 90.0361C44.2385 88.5875 42.0553 86.4717 41.1222 83.9186C40.3139 81.6922 41.2394 79.2126 43.1855 78.3911C44.2264 77.9519 45.1222 77.7388 45.9222 77.7388C47.5157 77.7388 48.4515 78.6265 49.2041 79.4582C49.6525 79.9532 50.1167 80.3961 50.5846 80.7739C52.5297 82.349 54.7353 83.1473 57.139 83.1473C59.4208 83.1473 62.4543 82.885 62.4543 80.6194C62.4543 78.8116 61.152 78.2124 58.3892 77.363L53.8367 75.8101C41.9892 72.027 41.9901 66.76 41.9911 63.2746V63.2002C41.9911 57.4893 49.1901 52.4791 57.3976 52.4791C64.1157 52.4791 69.3325 54.7465 71.7073 58.7007C72.5399 59.9977 72.8301 61.1608 72.5734 62.1619C72.2943 63.2467 71.4199 63.9176 70.7352 64.2897C69.3269 65.0182 68.2339 65.3588 67.2962 65.3588C65.9418 65.3588 64.9687 64.6507 63.6218 63.671L63.2497 63.4012C61.578 62.2093 60.019 61.6539 58.3427 61.6539C55.5418 61.6539 53.8022 62.5908 53.8022 64.0999C53.8022 65.5625 55.2208 66.2957 57.3511 66.9479L63.4534 68.9092C67.632 70.2109 70.6673 72.1889 72.4766 74.7894C74.0329 77.0252 74.2646 79.1456 74.2646 80.211C74.2646 83.8768 72.3818 86.9443 68.8171 89.0824C65.7325 90.933 61.445 91.9946 57.0534 91.9946Z" fill="black"/>
<path d="M103.359 96.7703C103.261 95.0034 104.245 94.3261 105.112 94.006C106.63 93.4469 107.872 92.4039 108.464 91.0324C108.815 90.2202 109.018 89.313 109.248 88.2152C109.312 87.7937 109.376 87.3713 109.437 86.9498C109.474 86.6921 109.506 86.4334 109.538 86.1738C109.569 85.9226 109.6 85.6695 109.636 85.4183C109.689 85.0499 109.746 84.6824 109.803 84.3149C109.857 83.9576 109.912 83.5984 109.964 83.2402C110.001 82.9872 110.032 82.7322 110.064 82.4792C110.096 82.2289 110.127 81.9795 110.163 81.7302C110.208 81.4166 110.258 81.1031 110.308 80.7905C110.34 80.5886 110.372 80.3867 110.403 80.1848C110.425 80.0405 110.444 79.8954 110.464 79.7503L110.5 79.4869L110.61 78.7101C110.692 78.1397 110.773 77.5694 110.851 76.999C110.896 76.6697 110.938 76.3422 110.981 76.0128C111.033 75.6043 111.087 75.1959 111.145 74.7884C111.248 74.0496 111.363 73.3155 111.475 72.6047C111.493 72.494 111.489 72.4586 111.484 72.4502C111.477 72.4437 111.448 72.4335 111.331 72.4326C111.207 72.4316 110.742 72.4316 110.361 72.4316L109.852 72.4307C109.311 72.4288 108.917 72.1804 108.712 71.7115C108.652 71.5738 108.585 71.3691 108.611 71.1635C108.692 70.514 108.776 69.8423 108.916 69.1919C109.075 68.4439 109.84 68.0326 110.514 68.0131C110.611 68.0112 110.833 68.0103 111.086 68.0103C111.345 68.0103 111.637 68.0112 111.861 68.0112L112.102 68.0122C112.13 67.8354 112.155 67.6605 112.179 67.4883C112.243 67.0538 112.302 66.6435 112.392 66.2332C112.643 65.1046 113.03 64.1333 113.578 63.2643C114.29 62.1347 115.247 61.2639 116.421 60.6768C116.9 60.4377 117.536 60.1399 118.211 59.9669C118.689 59.8441 119.21 59.7501 119.899 59.6617C120.669 59.5631 121.365 59.5147 122.028 59.5147C122.182 59.5147 122.336 59.5175 122.49 59.5231C123.059 59.5426 123.612 59.5929 124.134 59.6719C124.712 59.7594 125.297 60.3111 125.232 61.0499C125.192 61.4965 125.126 61.9449 125.062 62.3664C125.017 62.6548 124.961 62.9461 124.907 63.2261L124.867 63.4317C124.779 63.8811 124.334 64.2552 123.878 64.2663C123.825 64.2673 123.772 64.2682 123.72 64.2682C123.536 64.2682 123.351 64.2617 123.166 64.2542C123.026 64.2477 122.885 64.2431 122.744 64.2403C122.587 64.2375 122.429 64.2338 122.273 64.2291C122.03 64.2235 121.788 64.217 121.546 64.217C121.356 64.217 121.188 64.2207 121.029 64.2282C120.601 64.2514 120.175 64.3668 119.763 64.5724C119.167 64.8683 118.709 65.3456 118.403 65.9913C118.14 66.5449 117.981 67.1701 117.888 68.0112C118.696 68.0122 119.505 68.0131 120.314 68.0131L125.619 68.0177L125.625 68.0671L125.634 68.0754L125.645 68.0177H125.682C126.104 68.0298 126.478 68.1899 126.736 68.4662C126.997 68.7472 127.125 69.1259 127.107 69.5594C127.099 69.7232 127.101 69.8879 127.103 70.0637C127.104 70.0879 127.104 70.113 127.104 70.1382C127.145 70.1019 127.186 70.0656 127.226 70.0302C127.41 69.8656 127.584 69.7092 127.767 69.5613C128.388 69.057 129.142 68.5006 130.027 68.1917C131.229 67.7712 132.45 67.6828 133.264 67.6828C133.851 67.6828 134.223 67.7284 134.235 67.7293C134.88 67.7889 135.503 67.975 136.143 68.3015C136.922 68.6988 137.527 69.3175 137.944 70.141C138.005 70.2619 138.053 70.3875 138.104 70.5206C138.113 70.5475 138.124 70.5755 138.135 70.6024L138.18 70.5615C138.262 70.4852 138.338 70.4154 138.412 70.3438C138.545 70.2145 138.678 70.0926 138.809 69.9819C140.338 68.6867 141.709 67.9703 143.119 67.7256C143.529 67.6549 143.951 67.6195 144.411 67.6195C144.829 67.6195 145.283 67.6493 145.802 67.7107C146.567 67.7991 147.25 68.0066 147.887 68.3443C148.601 68.7211 149.128 69.2645 149.497 70.007C149.863 70.7411 149.996 71.517 150.083 72.4549C150.161 73.2764 150.068 74.0971 149.977 74.8907L149.962 75.0321C149.904 75.5383 149.84 76.1114 149.763 76.6752C149.726 76.9497 149.683 77.2233 149.639 77.4968C149.603 77.7313 149.565 77.9667 149.532 78.202C149.494 78.4709 149.459 78.7417 149.425 79.0115C149.392 79.2674 149.361 79.5223 149.324 79.7772C149.275 80.1327 149.221 80.4881 149.167 80.8435L149.091 81.3487L149.058 81.5608C149.034 81.7227 149.01 81.8837 148.987 82.0456L148.911 82.5778C148.817 83.2449 148.723 83.9111 148.632 84.5782C148.6 84.8191 148.57 85.0611 148.54 85.303C148.504 85.6016 148.468 85.9003 148.425 86.1999C148.376 86.546 148.321 86.8921 148.267 87.2382C148.211 87.5881 148.156 87.9388 148.106 88.2905C148.073 88.5222 148.046 88.7548 148.018 88.9865C147.984 89.2823 147.949 89.5875 147.9 89.888L147.884 89.9876C147.827 90.3532 147.767 90.7319 147.629 91.0771C147.454 91.5144 147.103 91.8252 146.666 91.9284C146.424 91.9861 146.154 92.0159 145.843 92.0205C145.453 92.0243 145.064 92.0261 144.673 92.0261C144.375 92.0261 144.076 92.0252 143.778 92.0243L143.315 92.0233C142.738 92.0215 142.34 91.7879 142.134 91.3265C142.033 91.1004 141.991 90.9143 142.005 90.757C142.04 90.3932 142.096 90.0285 142.15 89.674C142.173 89.5317 142.195 89.3893 142.216 89.247L142.242 89.0609C142.271 88.8609 142.299 88.6608 142.326 88.4598C142.363 88.1798 142.399 87.8979 142.435 87.6169C142.494 87.161 142.551 86.706 142.614 86.2501C142.692 85.6705 142.774 85.0908 142.856 84.5121L142.973 83.6729L143.116 82.6476L143.323 81.1617L143.404 80.5793C143.466 80.1317 143.528 79.6851 143.593 79.2376C143.631 78.9762 143.673 78.7156 143.715 78.4533C143.784 78.0262 143.855 77.5843 143.909 77.1488L143.919 77.0753C144.021 76.2519 144.127 75.4015 144.173 74.5632C144.203 73.9984 144.109 73.5351 143.883 73.1471C143.651 72.7452 143.27 72.6056 142.929 72.5219C142.682 72.4623 142.431 72.4316 142.184 72.4316C141.824 72.4316 141.469 72.4949 141.13 72.6196C141.032 72.6559 140.935 72.694 140.839 72.7349C140.14 73.0373 139.481 73.5211 138.822 74.2162C138.75 74.2915 138.688 74.3594 138.637 74.4181C138.526 74.5437 138.457 74.6981 138.437 74.8647L138.176 77.0279L137.738 80.1969C137.7 80.4667 137.668 80.7374 137.634 81.0082C137.603 81.2631 137.572 81.5171 137.536 81.772C137.488 82.1219 137.436 82.4717 137.383 82.8206C137.356 83.0011 137.328 83.1825 137.302 83.364C137.267 83.604 137.232 83.8431 137.199 84.0832L137.096 84.8257C137.011 85.4304 136.926 86.0352 136.845 86.64C136.798 86.9926 136.753 87.3452 136.709 87.6988C136.657 88.1054 136.606 88.511 136.55 88.9167C136.534 89.0441 136.517 89.1725 136.5 89.3019C136.444 89.7373 136.388 90.1886 136.286 90.6231C136.085 91.4921 135.465 92.0159 134.627 92.0215C134.226 92.0252 133.826 92.0261 133.425 92.0261C133.002 92.0261 132.577 92.0243 132.154 92.0233L131.856 92.0224C131.178 92.0215 130.776 91.7442 130.589 91.1487C130.512 90.9022 130.536 90.6296 130.561 90.3653L130.57 90.2621C130.586 90.076 130.619 89.8899 130.652 89.7113C130.674 89.5884 130.697 89.4656 130.714 89.3428C130.764 88.9688 130.813 88.5957 130.861 88.2217C130.909 87.8514 130.957 87.4801 131.008 87.1098C131.083 86.5581 131.162 86.0082 131.241 85.4583L131.357 84.6424L131.71 82.134L131.82 81.3478C131.903 80.757 131.986 80.1652 132.071 79.5753C132.11 79.3092 132.152 79.0441 132.195 78.7798C132.259 78.3705 132.327 77.9471 132.379 77.5284C132.411 77.2791 132.447 77.0288 132.483 76.7785C132.611 75.8946 132.743 74.9819 132.657 74.0747C132.586 73.3267 132.311 72.8773 131.79 72.6614C131.44 72.5154 131.081 72.4419 130.723 72.4419C130.587 72.4419 130.447 72.453 130.309 72.4744C128.83 72.7061 127.806 73.6319 127 74.5074C126.896 74.619 126.83 74.7605 126.81 74.9121C126.785 75.1066 126.76 75.302 126.735 75.4964C126.702 75.7569 126.669 76.0165 126.633 76.277C126.583 76.6334 126.529 76.9897 126.475 77.347L126.393 77.8932L126.368 78.0597C126.34 78.2439 126.312 78.4281 126.288 78.6124C126.251 78.8915 126.215 79.1715 126.179 79.4516C126.122 79.8935 126.065 80.3355 126.004 80.7774C125.926 81.3506 125.844 81.9228 125.762 82.4959L125.649 83.2868L125.425 84.8806L125.289 85.8445L125.174 86.6642C125.096 87.2196 125.017 87.776 124.937 88.3333C124.909 88.5371 124.88 88.7427 124.851 88.9474C124.771 89.527 124.687 90.1253 124.585 90.7105C124.483 91.2939 124.014 91.7982 123.444 91.9377C123.229 91.9889 122.998 92.0187 122.775 92.0205C122.292 92.0243 121.808 92.0271 121.325 92.0271C120.907 92.0271 120.488 92.0252 120.069 92.0205C119.458 92.014 119.046 91.734 118.91 91.2334C118.827 90.9264 118.848 90.5933 118.869 90.2723L118.87 90.2481C118.883 90.0443 118.922 89.8424 118.958 89.6461C118.979 89.5326 119 89.4191 119.016 89.3047C119.134 88.4906 119.249 87.6755 119.36 86.8605C119.393 86.6055 119.424 86.3515 119.455 86.0957C119.489 85.81 119.523 85.5235 119.563 85.2378C119.599 84.9773 119.641 84.7168 119.683 84.4572C119.721 84.2162 119.759 83.9762 119.793 83.7352C119.831 83.4654 119.866 83.1956 119.9 82.9248C119.932 82.6699 119.964 82.414 120 82.16C120.045 81.8279 120.096 81.4976 120.146 81.1663C120.177 80.9598 120.209 80.7532 120.239 80.5467C120.271 80.328 120.299 80.1113 120.328 79.8926L120.339 79.8042C120.371 79.5586 120.402 79.313 120.433 79.0673C120.496 78.5686 120.56 78.069 120.629 77.5703C120.684 77.1777 120.743 76.786 120.803 76.3943C120.856 76.037 120.91 75.6806 120.961 75.3234C120.998 75.0591 121.03 74.7939 121.063 74.5288C121.094 74.2757 121.124 74.0236 121.16 73.7714C121.222 73.3174 121.296 72.8661 121.363 72.414L117.443 72.427C117.334 72.427 117.243 72.5107 117.233 72.6224C117.194 73.0187 117.132 73.4188 117.071 73.8058C117.048 73.9556 117.025 74.1045 117.002 74.2534C116.989 74.3436 116.976 74.4348 116.962 74.5251C116.937 74.6739 116.914 74.8228 116.895 74.9726C116.857 75.2517 116.822 75.5318 116.786 75.8118C116.728 76.2603 116.671 76.7087 116.608 77.1572C116.555 77.5331 116.496 77.908 116.439 78.283C116.385 78.6272 116.332 78.9715 116.282 79.3167C116.244 79.5837 116.211 79.8517 116.178 80.1196C116.147 80.3783 116.114 80.636 116.078 80.8937C116.039 81.1691 115.995 81.4436 115.951 81.719C115.912 81.9674 115.873 82.214 115.837 82.4624C115.802 82.7099 115.77 82.9574 115.738 83.2058C115.708 83.4459 115.677 83.6859 115.643 83.9269C115.597 84.2469 115.548 84.567 115.497 84.8871C115.467 85.089 115.434 85.2927 115.404 85.4965C115.368 85.7356 115.335 85.9738 115.303 86.2138C115.27 86.4669 115.239 86.719 115.207 86.9712C115.147 87.455 115.083 87.9556 115.011 88.4478C113.599 98.1529 108.783 98.6823 106.644 98.9651C106.01 99.0489 105.356 98.9865 104.771 98.726C104.102 98.4264 103.418 97.857 103.359 96.7703Z" fill="black"/>
<path d="M18.5981 81.3705C14.2437 81.3705 11.7563 77.9382 11.7563 73.1019C11.7563 67.3036 14.2437 64.8333 18.5981 64.8333C22.5172 64.8333 25.0195 67.0319 25.0195 73.1019C25.0195 78.0424 22.5172 81.3705 18.5981 81.3705ZM33.2102 52.8924C27.5833 52.8924 27.5833 56.7499 27.5833 58.6033V59.4034L27.2828 58.6619C27.2781 58.6498 26.774 57.4356 25.2288 56.2242C23.7926 55.0984 21.1451 53.7558 16.6902 53.7558C7.33116 53.7558 0 61.9844 0 72.4888C0 83.3876 6.8986 91.606 16.0465 91.606C16.2567 91.606 16.4698 91.6022 16.6837 91.5929C19.1163 91.4962 21.3674 90.9072 23.374 89.8419C25.0056 88.9757 26.3563 87.7261 27.2791 86.2291L27.5833 85.7369V86.6999C27.5972 88.9729 28.1963 91.9949 33.2102 91.9949C35.6121 91.9949 37.2679 91.1166 38.1312 89.3841C38.8372 87.9662 38.8372 86.3203 38.8372 85.5304V60.7767C38.8372 57.6375 38.8372 52.8924 33.2102 52.8924" fill="black"/>
<path d="M82.023 91.9946C76.596 91.9946 76.4806 87.6598 76.4044 84.7914L76.396 84.4862V60.1522L76.4044 59.8451C76.4816 56.9125 76.5997 52.4791 82.023 52.4791C83.9848 52.4791 85.449 52.9592 86.3727 53.9054C87.7393 55.3029 87.6909 57.4103 87.6583 58.804C87.6537 58.992 87.6499 59.165 87.6499 59.3204V64.259L94.7253 56.2165C95.1913 55.6871 95.6267 55.2498 96.0537 54.8814C97.3783 53.7379 98.556 53.2067 99.7597 53.2067C100.697 53.2067 101.638 53.5286 102.636 54.191C103.025 54.4497 103.376 54.739 103.679 55.0526C106.122 57.5777 105.116 60.3085 103.512 61.88L95.7848 70.1941L105.398 83.9847C107.019 86.1265 106.616 89.1522 104.482 90.8763C103.584 91.6076 102.471 91.9946 101.265 91.9946C101.194 91.9946 101.123 91.9928 101.053 91.99C99.382 91.9258 97.7895 91.0084 96.7913 89.5374L87.6499 76.0632V84.6983C87.6499 88.2283 87.2155 91.9946 82.023 91.9946Z" fill="black"/>
</g>
<defs>
<clipPath id="clip0_6_19">
<rect width="150" height="150" fill="white"/>
</clipPath>
</defs>
</svg>
