<?xml version="1.0" encoding="UTF-8" standalone="no"?>
<!-- Created with Inkscape (http://www.inkscape.org/) -->

<svg
   xmlns:dc="http://purl.org/dc/elements/1.1/"
   xmlns:cc="http://creativecommons.org/ns#"
   xmlns:rdf="http://www.w3.org/1999/02/22-rdf-syntax-ns#"
   xmlns:svg="http://www.w3.org/2000/svg"
   xmlns="http://www.w3.org/2000/svg"
   xmlns:sodipodi="http://sodipodi.sourceforge.net/DTD/sodipodi-0.dtd"
   xmlns:inkscape="http://www.inkscape.org/namespaces/inkscape"
   id="svg2"
   version="1.1"
   inkscape:version="0.91 r13725"
   width="64"
   height="64"
   viewBox="0 0 64 64"
   sodipodi:docname="betaseries.svg">
  <metadata
     id="metadata8">
    <rdf:RDF>
      <cc:Work
         rdf:about="">
        <dc:format>image/svg+xml</dc:format>
        <dc:type
           rdf:resource="http://purl.org/dc/dcmitype/StillImage" />
        <dc:title></dc:title>
      </cc:Work>
    </rdf:RDF>
  </metadata>
  <defs
     id="defs6" />
  <sodipodi:namedview
     pagecolor="#ffffff"
     bordercolor="#666666"
     borderopacity="1"
     objecttolerance="10"
     gridtolerance="10"
     guidetolerance="10"
     inkscape:pageopacity="0"
     inkscape:pageshadow="2"
     inkscape:window-width="1920"
     inkscape:window-height="1016"
     id="namedview4"
     showgrid="false"
     inkscape:zoom="0.91189727"
     inkscape:cx="102.88038"
     inkscape:cy="341.02264"
     inkscape:window-x="1366"
     inkscape:window-y="27"
     inkscape:window-maximized="1"
     inkscape:current-layer="svg2" />
  <path
     style="fill:#000000"
     d="M 14.30863,54.12485 C 12.892298,53.87434 12.473715,53.7766 11.66066,53.50659 9.2314156,52.69982 6.6916685,50.86012 5.4177297,48.98445 5.2239659,48.69917 5.2140972,48.80641 5.2140972,51.19746 l 0,2.51281 -2.6064411,0 -2.60644221,0 L 6.0139193e-4,31.76214 1.3916362e-6,9.8140001 l 2.6070921083638,0 2.6070926,0 0,8.6364699 c 0,8.05333 0.013459,8.61623 0.1993237,8.33665 0.3857338,-0.5802 1.6902138,-1.85214 2.5997088,-2.53485 1.611212,-1.20944 3.5264734,-2.02288 5.6285674,-2.39053 1.671555,-0.29234 4.573861,-0.17261 6.224715,0.25682 5.879283,1.52932 10.321206,6.18214 11.741043,12.29845 0.287092,1.23673 0.326587,1.65728 0.325751,3.46878 -0.0014,3.06653 -0.448423,4.92994 -1.820315,7.58822 -1.285746,2.49137 -3.183275,4.6208 -5.436494,6.1009 -2.743239,1.802 -4.917856,2.48713 -8.12445,2.55966 -1.067093,0.0241 -2.076585,0.0198 -2.243318,-0.01 z m 3.759073,-5.03899 c 4.351682,-0.78454 7.770604,-4.38322 8.608121,-9.06075 0.139705,-0.78025 0.184002,-3.22318 0.06839,-3.77149 -0.03459,-0.16405 -0.09568,-0.51811 -0.135755,-0.78676 -0.160555,-1.07647 -1.157598,-3.43731 -1.856398,-4.39565 -3.6123,-4.95395 -10.069177,-6.03892 -14.9998409,-2.52046 -1.3586484,0.96951 -2.9107046,2.92912 -3.5316709,4.45903 -0.6662313,1.64145 -0.8845525,2.62626 -0.959975,4.33034 -0.1364113,3.08195 0.5956687,5.41465 2.5177,8.02241 2.1839534,2.9631 6.2815878,4.44589 10.2894308,3.72333 z m 30.532777,4.92159 c -1.362833,-0.21223 -3.453934,-0.90929 -4.526781,-1.50899 -2.471458,-1.38151 -4.203184,-3.58905 -4.898785,-6.24477 -0.28624,-1.09283 -0.316873,-1.62052 -0.09884,-1.70265 0.28003,-0.10547 4.62918,-1.02664 4.84713,-1.02664 0.161985,0 0.215851,0.0979 0.216933,0.3941 0.0039,1.06562 0.587003,2.37662 1.474445,3.31495 1.383574,1.46293 4.361855,2.27544 7.315497,1.99577 2.134415,-0.20212 3.645209,-0.78961 4.672667,-1.81708 0.864815,-0.86481 1.121413,-1.44711 1.178857,-2.67514 0.04414,-0.94363 0.01925,-1.08705 -0.294557,-1.69761 -0.775657,-1.50914 -2.585128,-2.29315 -8.224697,-3.56365 -2.533873,-0.57084 -3.945714,-1.03389 -5.57798,-1.82948 -3.005176,-1.46474 -4.287744,-3.21077 -4.503425,-6.13073 -0.317634,-4.30027 2.900284,-8.06758 8.038083,-9.41042 2.195064,-0.57372 5.822736,-0.53376 8.105039,0.0892 3.068315,0.83757 5.616504,3.06064 6.774276,5.90993 0.320854,0.78962 0.621906,1.942 0.531069,2.03283 -0.06202,0.062 -3.814974,0.85475 -4.601149,0.97188 -0.415858,0.062 -0.456233,0.041 -0.533866,-0.27653 -0.268994,-1.10042 -1.180564,-2.39304 -2.145467,-3.04233 -1.436341,-0.9665 -3.86849,-1.47444 -5.93277,-1.239 -2.254286,0.25711 -3.709703,0.97545 -4.600987,2.27089 -0.303997,0.44184 -0.388737,0.70701 -0.4357,1.36338 -0.03319,0.46382 0.0027,0.99971 0.08332,1.24397 0.401823,1.21755 2.151944,2.08699 6.162724,3.06164 4.915394,1.19447 5.794808,1.46686 7.49118,2.32032 3.349624,1.6852 4.665879,3.59908 4.867033,7.07684 0.258159,4.46334 -2.567288,8.00553 -7.671924,9.61808 -2.072228,0.65461 -5.35565,0.86803 -7.711328,0.50119 z"
     id="path4138"
     inkscape:connector-curvature="0"
     sodipodi:nodetypes="cssscccccccssssssssssccsssssssssssssssssssssssssssssssssscsssss" />
</svg>
