<svg width="150" height="150" viewBox="0 0 150 150" fill="none" xmlns="http://www.w3.org/2000/svg">
<g clip-path="url(#clip0_37_206)">
<path d="M0 71.4299C2.75471 62.6088 7.02856 54.8207 14.8471 49.4024C29.208 39.4368 43.9741 42.2523 58.8313 47.5997C58.8313 60.5326 58.6895 73.0605 58.8313 85.5782C59.0136 98.2478 65.9814 106.542 77.061 111.556C82.0134 113.804 87.3911 115.1 93.1841 117.035L66.6802 149.757C66.6802 144.511 66.8422 140.277 66.6802 136.054C66.5588 132.711 66.135 129.386 65.4142 126.119C63.2874 116.933 59.2263 113.814 49.919 113.804C45.3919 113.804 40.8649 113.804 36.348 113.804C19.1614 113.682 6.18797 104.071 1.01276 87.705C0.7267 86.953 0.388284 86.2221 0 85.5174L0 71.4299Z" fill="black"/>
<path d="M79.4713 0C82.0336 0.668422 84.6161 1.2457 87.0974 2.02552C102.066 6.61333 112.416 16.2042 117.369 31.0107C118.445 34.4842 118.522 38.1902 117.592 41.7055C114.644 52.4408 107.464 60.2593 99.3619 66.5586C86.0846 59.0642 73.4757 51.4381 60.4111 44.7843C51.5191 40.2572 41.594 39.1331 30.8486 39.7205C31.0393 37.6298 31.3777 35.5552 31.8614 33.5123C37.3033 15.5526 49.2336 4.69921 67.6524 0.951995C68.5947 0.698471 69.5185 0.380387 70.4172 0L79.4713 0Z" fill="black"/>
<path d="M62.9531 91.9282C74.2758 85.2541 85.4162 79.4003 95.7362 72.3414C102.804 67.5974 109.141 61.8447 114.543 55.2662C118.594 50.2024 120.417 43.184 123.304 36.8542C145.837 42.5358 157.697 73.0199 144.45 94.1866C136.51 106.897 124.995 114.077 109.814 113.561C100.494 113.393 91.2155 112.269 82.1247 110.209C72.8478 107.97 65.9408 101.843 62.9531 91.9282Z" fill="black"/>
</g>
<defs>
<clipPath id="clip0_37_206">
<rect width="150" height="150" fill="white"/>
</clipPath>
</defs>
</svg>
