<?xml version="1.0" encoding="UTF-8" standalone="no"?>
<!-- Generator: Adobe Illustrator 16.0.0, SVG Export Plug-In . SVG Version: 6.00 Build 0)  -->

<svg
   xmlns:dc="http://purl.org/dc/elements/1.1/"
   xmlns:cc="http://creativecommons.org/ns#"
   xmlns:rdf="http://www.w3.org/1999/02/22-rdf-syntax-ns#"
   xmlns:svg="http://www.w3.org/2000/svg"
   xmlns="http://www.w3.org/2000/svg"
   xmlns:sodipodi="http://sodipodi.sourceforge.net/DTD/sodipodi-0.dtd"
   xmlns:inkscape="http://www.inkscape.org/namespaces/inkscape"
   version="1.1"
   x="0px"
   y="0px"
   width="128"
   height="128"
   viewBox="0 0 128 128"
   enable-background="new 0 0 986.951 395.98"
   xml:space="preserve"
   id="svg2"
   inkscape:version="0.91 r13725"
   sodipodi:docname="deviantart.svg"><metadata
     id="metadata174"><rdf:RDF><cc:Work
         rdf:about=""><dc:format>image/svg+xml</dc:format><dc:type
           rdf:resource="http://purl.org/dc/dcmitype/StillImage" /><dc:title></dc:title></cc:Work></rdf:RDF></metadata><defs
     id="defs172" /><sodipodi:namedview
     pagecolor="#ffffff"
     bordercolor="#666666"
     borderopacity="1"
     objecttolerance="10"
     gridtolerance="10"
     guidetolerance="10"
     inkscape:pageopacity="0"
     inkscape:pageshadow="2"
     inkscape:window-width="1920"
     inkscape:window-height="1016"
     id="namedview170"
     showgrid="false"
     inkscape:zoom="1.6333131"
     inkscape:cx="170.99916"
     inkscape:cy="175.09522"
     inkscape:window-x="1366"
     inkscape:window-y="27"
     inkscape:window-maximized="1"
     inkscape:current-layer="svg2" /><polygon
     points="130.832,301.221 134.54,297.483 152.069,264.077 157.581,260.359 220.143,260.359 220.143,209.343 185.749,209.343 182.689,205.613 220.143,134.061 220.143,96.913 220.131,96.913 182.994,96.913 179.287,100.651 161.757,134.057 156.246,137.775 93.684,137.775 93.684,188.791 128.078,188.791 131.141,192.496 93.684,264.072 93.684,301.221 93.695,301.221 "
     id="polygon8"
     style="fill:#000000;fill-opacity:1"
     transform="matrix(0.62650508,0,0,0.62650508,-34.307105,-60.716487)" /><g
     id="Construction"
     display="none"
     style="display:none"
     transform="translate(0,-267.98001)"><line
       display="inline"
       stroke-miterlimit="10"
       x1="225.09"
       y1="340.436"
       x2="372.871"
       y2="58.310001"
       id="line35"
       style="display:inline;fill:none;stroke:#868686;stroke-width:0.40000001;stroke-miterlimit:10;stroke-dasharray:2" /><line
       display="inline"
       stroke-miterlimit="10"
       x1="453.29501"
       y1="340.436"
       x2="601.07703"
       y2="58.310001"
       id="line37"
       style="display:inline;fill:none;stroke:#868686;stroke-width:0.40000001;stroke-miterlimit:10;stroke-dasharray:2" /><line
       display="inline"
       stroke-miterlimit="10"
       x1="539.56598"
       y1="340.435"
       x2="687.27899"
       y2="58.566002"
       id="line39"
       style="display:inline;fill:none;stroke:#868686;stroke-width:0.40000001;stroke-miterlimit:10;stroke-dasharray:2" /><line
       display="inline"
       stroke-miterlimit="10"
       x1="776.92102"
       y1="340.436"
       x2="924.703"
       y2="58.310001"
       id="line41"
       style="display:inline;fill:none;stroke:#868686;stroke-width:0.40000001;stroke-miterlimit:10;stroke-dasharray:2" /><line
       display="inline"
       stroke-miterlimit="10"
       x1="110.935"
       y1="342.52802"
       x2="259.81201"
       y2="58.310001"
       id="line43"
       style="display:inline;fill:none;stroke:#868686;stroke-width:0.40000001;stroke-miterlimit:10;stroke-dasharray:2" /><line
       display="inline"
       stroke-miterlimit="10"
       x1="52.557999"
       y1="342.52802"
       x2="201.435"
       y2="58.310001"
       id="line45"
       style="display:inline;fill:none;stroke:#868686;stroke-width:0.40000001;stroke-miterlimit:10;stroke-dasharray:2" /><line
       display="inline"
       stroke-miterlimit="10"
       x1="67.070999"
       y1="188.778"
       x2="921.72198"
       y2="188.778"
       id="line47"
       style="display:inline;fill:none;stroke:#9c9b9b;stroke-width:0.25;stroke-miterlimit:10;stroke-dasharray:2" /><line
       display="inline"
       stroke-miterlimit="10"
       x1="67.070999"
       y1="96.913002"
       x2="921.72198"
       y2="96.913002"
       id="line49"
       style="display:inline;fill:none;stroke:#9c9b9b;stroke-width:0.25;stroke-miterlimit:10;stroke-dasharray:2" /><line
       display="inline"
       stroke-miterlimit="10"
       x1="67.070999"
       y1="301.22101"
       x2="921.72198"
       y2="301.22101"
       id="line51"
       style="display:inline;fill:none;stroke:#9c9b9b;stroke-width:0.25;stroke-miterlimit:10;stroke-dasharray:2" /><line
       display="inline"
       stroke-miterlimit="10"
       x1="67.070999"
       y1="209.34"
       x2="921.72198"
       y2="209.34"
       id="line53"
       style="display:inline;fill:none;stroke:#9c9b9b;stroke-width:0.25;stroke-miterlimit:10;stroke-dasharray:2" /><line
       display="inline"
       stroke-miterlimit="10"
       x1="354.46301"
       y1="340.435"
       x2="287.14001"
       y2="58.310001"
       id="line55"
       style="display:inline;fill:none;stroke:#868686;stroke-width:0.2;stroke-miterlimit:10;stroke-dasharray:2" /><line
       display="inline"
       stroke-miterlimit="10"
       x1="539.56598"
       y1="340.436"
       x2="472.66299"
       y2="60.07"
       id="line57"
       style="display:inline;fill:none;stroke:#868686;stroke-width:0.2;stroke-miterlimit:10;stroke-dasharray:2" /><line
       display="inline"
       stroke-miterlimit="10"
       x1="754.54102"
       y1="340.436"
       x2="687.21802"
       y2="58.310001"
       id="line59"
       style="display:inline;fill:none;stroke:#868686;stroke-width:0.2;stroke-miterlimit:10;stroke-dasharray:2" /></g><g
     id="Guidelines"
     display="none"
     style="display:none"
     transform="translate(0,-267.98001)"><line
       display="inline"
       stroke-miterlimit="10"
       x1="27.070999"
       y1="188.778"
       x2="904.47498"
       y2="188.778"
       id="line62"
       style="display:inline;fill:none;stroke:#9c9b9b;stroke-width:0.25;stroke-miterlimit:10;stroke-dasharray:2" /><line
       display="inline"
       stroke-miterlimit="10"
       x1="27.070999"
       y1="137.778"
       x2="93.683998"
       y2="137.778"
       id="line64"
       style="display:inline;fill:none;stroke:#9c9b9b;stroke-width:0.25;stroke-miterlimit:10;stroke-dasharray:2" /><line
       display="inline"
       stroke-miterlimit="10"
       x1="220.14301"
       y1="96.905998"
       x2="220.14301"
       y2="364.52802"
       id="line66"
       style="display:inline;fill:none;stroke:#9c9b9b;stroke-width:0.25;stroke-miterlimit:10;stroke-dasharray:2" /><line
       display="inline"
       stroke-miterlimit="10"
       x1="245.649"
       y1="96.905998"
       x2="245.649"
       y2="364.52802"
       id="line68"
       style="display:inline;fill:none;stroke:#9c9b9b;stroke-width:0.25;stroke-miterlimit:10;stroke-dasharray:2" /><g
       display="inline"
       id="g70"
       style="display:inline"><path
         d="m -0.272,163.624 3.727,5.654 -3.223,0 -2.196,-3.403 -2.197,3.403 -3.151,0 3.727,-5.654 -3.547,-5.401 3.223,0 1.999,3.151 2.053,-3.151 3.133,0 -3.548,5.401 z"
         id="path72"
         inkscape:connector-curvature="0"
         style="fill:#6f6f6e" /></g><g
       display="inline"
       id="g74"
       style="display:inline"><g
         id="g76"><line
           stroke-miterlimit="10"
           x1="12.807"
           y1="139.028"
           x2="12.807"
           y2="187.76601"
           id="line78"
           style="fill:none;stroke:#6f6f6e;stroke-width:0.5;stroke-miterlimit:10" /><g
           id="g80"><circle
             cx="12.807"
             cy="139.09399"
             r="1.316"
             id="circle82"
             style="fill:#6f6f6e" /></g><g
           id="g84"><circle
             cx="12.807"
             cy="187.7"
             r="1.316"
             id="circle86"
             style="fill:#6f6f6e" /></g></g></g><g
       display="inline"
       id="g88"
       style="display:inline"><path
         d="m 215.662,386 c 0,-3.367 1.854,-5.708 4.573,-5.708 2.719,0 4.591,2.341 4.591,5.708 0,3.367 -1.873,5.707 -4.591,5.707 -2.718,0 -4.573,-2.339 -4.573,-5.707 z m 2.791,0 c 0,1.71 0.504,3.168 1.782,3.168 1.278,0 1.783,-1.458 1.783,-3.168 0,-1.711 -0.504,-3.17 -1.783,-3.17 -1.279,0 -1.782,1.46 -1.782,3.17 z"
         id="path90"
         inkscape:connector-curvature="0"
         style="fill:#6f6f6e" /><path
         d="m 226.84,388.287 c 0.937,0 1.675,0.721 1.675,1.675 0,0.954 -0.738,1.692 -1.675,1.692 -0.918,0 -1.656,-0.738 -1.656,-1.692 0,-0.954 0.738,-1.675 1.656,-1.675 z"
         id="path92"
         inkscape:connector-curvature="0"
         style="fill:#6f6f6e" /><path
         d="m 232.096,387.081 -2.322,0 0,-6.607 6.806,0 0,2.467 -4.483,0 0,1.656 c 0.342,-0.198 0.973,-0.396 1.675,-0.396 2.232,0 3.619,1.512 3.619,3.691 0,2.286 -1.584,3.816 -3.979,3.816 -2.502,0 -4.051,-1.477 -4.213,-3.727 l 2.809,0 c 0.09,0.773 0.576,1.297 1.422,1.297 0.756,0 1.278,-0.559 1.278,-1.387 0,-0.793 -0.486,-1.387 -1.333,-1.387 -0.541,0 -0.955,0.252 -1.279,0.577 z"
         id="path94"
         inkscape:connector-curvature="0"
         style="fill:#6f6f6e" /><path
         d="m 248.478,385.874 3.727,5.654 -3.223,0 -2.197,-3.402 -2.196,3.402 -3.151,0 3.727,-5.654 -3.547,-5.4 3.223,0 1.999,3.15 2.053,-3.15 3.133,0 -3.548,5.4 z"
         id="path96"
         inkscape:connector-curvature="0"
         style="fill:#6f6f6e" /></g><g
       display="inline"
       id="g98"
       style="display:inline"><g
         id="g100"><line
           stroke-miterlimit="10"
           x1="221.306"
           y1="368.77802"
           x2="245.13901"
           y2="368.77802"
           id="line102"
           style="fill:none;stroke:#6f6f6e;stroke-width:0.5;stroke-miterlimit:10" /><g
           id="g104"><circle
             cx="221.37199"
             cy="368.77802"
             r="1.316"
             id="circle106"
             style="fill:#6f6f6e" /></g><g
           id="g108"><circle
             cx="245.073"
             cy="368.77802"
             r="1.316"
             id="circle110"
             style="fill:#6f6f6e" /></g></g></g><g
       display="inline"
       id="g112"
       style="display:inline"><g
         id="g114"><line
           stroke-miterlimit="10"
           x1="38.055"
           y1="47.027"
           x2="38.055"
           y2="95.765999"
           id="line116"
           style="fill:none;stroke:#6f6f6e;stroke-width:0.5;stroke-miterlimit:10" /><g
           id="g118"><circle
             cx="38.055"
             cy="47.092999"
             r="1.316"
             id="circle120"
             style="fill:#6f6f6e" /></g><g
           id="g122"><circle
             cx="38.055"
             cy="95.699997"
             r="1.316"
             id="circle124"
             style="fill:#6f6f6e" /></g></g></g><g
       display="inline"
       id="g126"
       style="display:inline"><path
         d="m 70.062,29.161 3.727,5.654 -3.223,0 -2.196,-3.403 -2.197,3.403 -3.151,0 3.727,-5.654 -3.547,-5.401 3.223,0 1.999,3.151 2.053,-3.151 3.133,0 -3.548,5.401 z"
         id="path128"
         inkscape:connector-curvature="0"
         style="fill:#6f6f6e" /></g><g
       display="inline"
       id="g130"
       style="display:inline"><path
         d="m 26.562,70.327 3.727,5.654 -3.223,0 -2.196,-3.403 -2.197,3.403 -3.151,0 3.727,-5.654 -3.547,-5.401 3.223,0 1.999,3.151 2.053,-3.151 3.133,0 -3.548,5.401 z"
         id="path132"
         inkscape:connector-curvature="0"
         style="fill:#6f6f6e" /></g><g
       display="inline"
       id="g134"
       style="display:inline"><g
         id="g136"><line
           stroke-miterlimit="10"
           x1="92.542999"
           y1="41.528"
           x2="43.805"
           y2="41.528"
           id="line138"
           style="fill:none;stroke:#6f6f6e;stroke-width:0.5;stroke-miterlimit:10" /><g
           id="g140"><circle
             cx="92.477997"
             cy="41.528"
             r="1.316"
             id="circle142"
             style="fill:#6f6f6e" /></g><g
           id="g144"><circle
             cx="43.870998"
             cy="41.528"
             r="1.316"
             id="circle146"
             style="fill:#6f6f6e" /></g></g></g><rect
       x="16.805"
       y="137.88699"
       display="inline"
       width="8.1239996"
       height="51.02"
       id="rect148"
       style="display:inline;fill:#d9d9d9" /><rect
       x="93.683998"
       y="45.886002"
       display="inline"
       width="8.1239996"
       height="51.02"
       id="rect150"
       style="display:inline;fill:#d9d9d9" /><rect
       x="896.34998"
       y="45.886002"
       display="inline"
       width="8.1239996"
       height="51.02"
       id="rect152"
       style="display:inline;fill:#d9d9d9" /><rect
       x="93.683998"
       y="301.23001"
       display="inline"
       width="8.1239996"
       height="51.021"
       id="rect154"
       style="display:inline;fill:#d9d9d9" /><rect
       x="896.34998"
       y="301.23001"
       display="inline"
       width="8.1239996"
       height="51.021"
       id="rect156"
       style="display:inline;fill:#d9d9d9" /><rect
       x="42.665001"
       y="96.913002"
       display="inline"
       width="51.02"
       height="8.1239996"
       id="rect158"
       style="display:inline;fill:#d9d9d9" /><rect
       x="42.665001"
       y="293.091"
       display="inline"
       width="51.02"
       height="8.1239996"
       id="rect160"
       style="display:inline;fill:#d9d9d9" /><rect
       x="904.47498"
       y="96.913002"
       display="inline"
       width="51.02"
       height="8.1239996"
       id="rect162"
       style="display:inline;fill:#d9d9d9" /><rect
       x="904.47498"
       y="293.091"
       display="inline"
       width="51.02"
       height="8.1239996"
       id="rect164"
       style="display:inline;fill:#d9d9d9" /><rect
       x="93.683998"
       y="96.905998"
       display="inline"
       stroke-miterlimit="10"
       width="810.78998"
       height="204.32401"
       id="rect166"
       style="display:inline;fill:none;stroke:#9c9b9b;stroke-width:0.25;stroke-miterlimit:10;stroke-dasharray:2" /><rect
       x="42.665001"
       y="45.886002"
       display="inline"
       stroke-miterlimit="10"
       width="912.83002"
       height="306.36301"
       id="rect168"
       style="display:inline;fill:none;stroke:#9c9b9b;stroke-width:0.25;stroke-miterlimit:10;stroke-dasharray:2" /></g></svg>