<svg width="150" height="150" viewBox="0 0 150 150" fill="none" xmlns="http://www.w3.org/2000/svg">
<path d="M0 74.8605C0 33.5233 33.4884 0.0349121 74.8256 0.0349121C116.163 0.0349121 149.651 33.5233 149.651 74.8605C149.651 116.198 116.163 149.686 74.8256 149.686C33.4884 149.599 0 116.11 0 74.8605Z" fill="#1D1D1B"/>
<path d="M108.488 44.4245C102.122 41.5466 95.4942 39.4535 88.6046 38.3198C87.7325 39.8896 86.7732 41.8954 86.0756 43.5524C78.75 42.4187 71.3372 42.4187 64.0116 43.5524C63.2267 41.721 62.3546 39.9768 61.3953 38.3198C54.5058 39.4535 47.7907 41.5466 41.5116 44.5117C28.9535 63.2617 25.5523 81.4884 27.2093 99.5408C34.6221 105.035 42.8197 109.221 51.6279 111.837C53.6337 109.134 55.3779 106.343 56.8604 103.378C53.9825 102.331 51.2791 101.023 48.6628 99.4535C49.3604 98.9303 49.9709 98.407 50.6686 97.8838C66.1046 105.209 84.0698 105.209 99.5058 97.8838C100.203 98.407 100.814 98.9303 101.512 99.4535C98.8953 101.023 96.1046 102.331 93.2267 103.378C94.7093 106.343 96.4535 109.134 98.4593 111.837C107.267 109.134 115.552 105.035 122.878 99.5408C124.796 78.6105 119.39 60.471 108.488 44.4245ZM58.9535 88.378C54.157 88.378 50.3197 84.0175 50.3197 78.6977C50.3197 73.378 54.157 68.9303 58.9535 68.9303C63.8372 68.9303 67.6744 73.2908 67.6744 78.6977C67.5872 84.0175 63.8372 88.378 58.9535 88.378ZM91.0465 88.378C86.25 88.378 82.4128 84.0175 82.4128 78.6977C82.4128 73.378 86.25 68.9303 91.0465 68.9303C95.9302 68.9303 99.7674 73.2908 99.6802 78.6977C99.593 84.1047 95.843 88.378 91.0465 88.378Z" fill="white"/>
</svg>
