<svg width="150" height="150" viewBox="0 0 150 150" fill="none" xmlns="http://www.w3.org/2000/svg">
<path d="M77.7356 148C59.9104 148 43.6122 141.472 31.0112 130.674L0 134.919L11.9806 105.286C7.80648 96.0554 5.46475 85.8083 5.46475 75C5.46475 34.6856 37.8216 2 77.7356 2C117.646 2 150 34.6856 150 75C150 115.322 117.647 148 77.7356 148ZM117.196 74.7913V74.588C117.196 53.5229 102.373 38.5022 76.8151 38.5022H49.2108V111.502H76.4061C102.163 111.503 117.196 95.8553 117.196 74.7913ZM77.1194 93.5669H69.0453V56.4429H77.1194C88.9781 56.4429 96.8493 63.2183 96.8493 74.9037V75.1071C96.8493 86.8909 88.9781 93.5669 77.1194 93.5669Z" fill="#0D0D0D"/>
</svg>
