<svg width="150" height="150" viewBox="0 0 150 150" fill="none" xmlns="http://www.w3.org/2000/svg">
<path d="M133.809 35.9067L79.194 4.13172C77.9193 3.39031 76.4734 3 75.0017 3C73.5299 3 72.0841 3.39031 70.8094 4.13172L16.1923 35.9067C14.9175 36.6483 13.8589 37.7151 13.123 38.9998C12.3871 40.2845 11.9998 41.7417 12 43.2251V106.775C12 109.794 13.5979 112.584 16.1923 114.093L70.8077 145.868C72.0824 146.61 73.5282 147 75 147C76.4718 147 77.9176 146.61 79.1923 145.868L133.808 114.093C135.082 113.352 136.141 112.285 136.877 111C137.613 109.716 138 108.258 138 106.775V43.2251C138.001 41.7418 137.614 40.2844 136.878 38.9997C136.143 37.715 135.084 36.6482 133.809 35.9067V35.9067ZM39.1972 59.1125V95.8311L20.3863 106.775V43.2251L75.0017 11.4501V33.4036L43.3911 51.7941C42.1161 52.5357 41.0573 53.6025 40.3211 54.8871C39.585 56.1718 39.1973 57.6291 39.1972 59.1125V59.1125ZM70.8077 67.6816C69.5329 68.4233 68.4744 69.4901 67.7384 70.7747C67.0025 72.0594 66.6152 73.5167 66.6154 75V111.59L47.5834 122.662V59.1125L102.199 27.3376V49.4194L70.8077 67.6816ZM129.615 106.775L75.0017 138.55V75L129.617 43.2251L129.615 106.775Z" fill="url(#paint0_linear_7_33)"/>
<defs>
<linearGradient id="paint0_linear_7_33" x1="16.1571" y1="134.298" x2="136.809" y2="14.5693" gradientUnits="userSpaceOnUse">
<stop/>
<stop offset="0.999"/>
</linearGradient>
</defs>
</svg>
