<svg width="150" height="150" viewBox="0 0 150 150" fill="none" xmlns="http://www.w3.org/2000/svg">
<path d="M75 150C116.421 150 150 116.421 150 75C150 33.5786 116.421 0 75 0C33.5786 0 0 33.5786 0 75C0 116.421 33.5786 150 75 150Z" fill="black"/>
<path d="M68.8332 48.4741C80.1401 45.9615 91.4469 50.568 97.7286 59.3622L47.7549 70.6691C49.43 59.9206 57.5263 50.9867 68.8332 48.4741ZM98.0077 89.9327C94.0992 95.656 88.0968 99.7041 81.2568 101.24C69.9499 103.752 58.5034 99.1457 52.2218 90.2119L102.335 78.905L110.431 77.0903L126.066 73.6005C125.926 70.2503 125.507 66.9002 124.809 63.6896C118.528 36.7484 91.0282 19.8579 63.5287 26.1395C36.0292 32.4211 18.8595 59.2226 25.2807 86.3033C31.7019 113.384 59.0618 130.135 86.5613 123.853C102.754 120.224 115.317 109.336 121.738 95.5164L98.0077 89.9327Z" fill="white"/>
</svg>
