<svg width="150" height="150" viewBox="0 0 150 150" fill="none" xmlns="http://www.w3.org/2000/svg">
<g clip-path="url(#clip0_35_196)">
<path d="M76.261 86.4492C75.0274 89.9341 73.961 93.4888 72.5043 96.8761C71.3845 99.4828 69.8929 101.952 68.3503 104.345C66.329 107.48 63.2716 109.006 59.5753 109.224C50.3449 109.766 41.5954 108.063 33.4129 103.634C23.6992 98.3723 17.8074 90.1943 15.3587 79.57C13.737 72.5421 12.4755 65.4282 11.2186 58.3144C10.589 54.7504 11.2813 51.3701 13.7928 48.5682C15.5585 46.5957 17.7633 45.5665 20.4397 45.5712C28.4039 45.5712 36.3704 45.6014 44.3346 45.5503C45.9549 45.5571 47.5707 45.3794 49.1507 45.0206C53.1468 44.0541 55.3028 41.3963 55.6327 37.2841C55.7163 36.2455 55.7581 35.1931 55.7581 34.1569C55.7581 26.1532 55.9091 18.1472 55.7117 10.1482C55.5909 5.29254 59.1966 0.878317 64.5401 0.239416C68.4972 -0.247614 72.5095 -0.0257596 76.3888 0.89458C81.0981 2.0144 84.1114 4.95567 85.7121 9.38848C86.0769 10.3991 86.5694 10.736 87.5336 10.9009C96.4387 12.4227 105.346 13.9467 114.237 15.5475C117.745 16.155 121.124 17.3563 124.227 19.0998C130.449 22.6288 133.548 28.1605 134.736 35.0514C137.271 49.8766 138.613 64.8811 138.75 79.9208C138.85 89.5136 138.632 99.0971 137.719 108.646C136.906 117.126 135.256 125.42 130.723 132.808C123.586 144.441 112.969 149.979 99.4613 150C92.4915 150 86.3139 147.591 81.3653 142.617C71.3915 132.592 76.3029 115.42 90.1264 111.889C91.8446 111.447 93.6179 111.256 95.3909 111.322C98.2509 111.448 100.27 113.645 100.47 116.403C100.669 119.161 98.9618 121.514 96.2064 122.249C95.5349 122.425 94.8519 122.558 94.1665 122.676C91.7178 123.099 90.0567 124.486 89.4294 126.874C88.8021 129.263 89.5502 131.337 91.2648 133.017C94.8891 136.567 99.2522 137.199 103.945 135.833C112.95 133.203 117.376 123.373 113.501 114.459C110.413 107.352 104.823 103.386 97.1938 102.32C93.3069 101.774 89.527 100.912 86.0281 99.0669C80.8356 96.3231 77.1183 92.4665 76.261 86.4492ZM117.722 72.8674C117.734 72.786 117.743 72.707 117.755 72.635C118.257 72.635 118.758 72.6536 119.26 72.635C120.631 72.57 120.875 72.3074 120.859 70.953C120.859 70.038 120.654 69.1346 120.257 68.31C119.861 67.4855 119.283 66.7609 118.568 66.1903C115.987 64.0203 112.971 63.5371 109.739 64.1946C107.518 64.6453 105.736 65.786 104.672 67.8653C103.587 69.9911 103.815 70.7578 106.162 71.1876C110 71.8869 113.87 72.3214 117.722 72.8674Z" fill="black"/>
<path d="M51.9269 5.15991C50.9605 7.89905 51.058 10.6614 51.0418 13.3913C50.9976 20.0358 51.0418 26.6804 51.0185 33.325C51.0372 34.3276 50.9657 35.3299 50.8048 36.3197C50.2728 39.1471 48.83 40.4691 45.9863 40.8152C45.1043 40.9202 44.2168 40.973 43.3285 40.9732C36.5306 40.9964 29.7327 40.9546 22.9348 41.0429C20.651 41.0731 18.3719 41.4262 16.1973 41.6214L51.9269 5.15991Z" fill="black"/>
</g>
<defs>
<clipPath id="clip0_35_196">
<rect width="150" height="150" fill="white"/>
</clipPath>
</defs>
</svg>
