<svg width="150" height="150" viewBox="0 0 150 150" fill="none" xmlns="http://www.w3.org/2000/svg">
<g clip-path="url(#clip0_9_45)">
<path d="M11.913 76.05C11.913 40.7628 40.2 12.0798 75 12.0798C75.3 12.0798 100.017 12.0798 109.092 12.095L90.81 30.6329L99.21 39.1505L136.893 0H112.2H75C55.1088 0 36.0322 8.01239 21.967 22.2745C7.90177 36.5367 0 55.8803 0 76.05L0 135.187L11.934 124.041V123.432C11.922 121.884 11.913 76.5063 11.913 76.05Z" fill="black"/>
<path d="M150 16.9106L138.063 28.0596V28.668C138.063 30.2164 138.084 75.5939 138.084 76.0502C138.084 111.337 109.782 140.02 74.997 140.02C74.697 140.02 49.98 140.02 40.905 140.005L59.19 121.467L50.79 112.95L13.107 152.1H37.8H75C94.8912 152.1 113.968 144.088 128.033 129.826C142.098 115.564 150 96.2199 150 76.0502V16.9106Z" fill="black"/>
</g>
<defs>
<clipPath id="clip0_9_45">
<rect width="150" height="150" fill="white"/>
</clipPath>
</defs>
</svg>
