<svg width="150" height="150" viewBox="0 0 150 150" fill="none" xmlns="http://www.w3.org/2000/svg">
<g clip-path="url(#clip0_35_202)">
<path d="M21 76.8917C21 56.1378 21 35.3838 21 14.6299C21 5.44894 25.8629 0.164496 35.0336 0.113091C61.9082 -0.0376971 88.7862 -0.0376971 115.668 0.113091C126.031 0.174777 130.061 5.98355 127.881 17.5908C125.764 28.8999 123.327 40.2091 120.973 51.5182C118.341 64.1844 115.74 76.83 112.933 89.4448C110.805 99.0062 107.104 101.782 97.244 101.864C89.6155 101.947 80.9692 99.9829 74.6258 102.892C68.2824 105.802 64.2625 113.79 59.2659 119.578C51.8122 128.204 44.3585 136.82 36.9973 145.517C34.0055 149.075 30.5202 151.131 25.8629 149.352C21.3907 147.666 21 143.801 21 139.668C21.0514 118.746 21 97.8136 21 76.8917ZM37.2543 120.514L38.2824 120.884C46.7025 110.428 55.133 100.034 63.4195 89.4962C64.3896 88.1095 65.6951 86.991 67.2141 86.245C68.7332 85.4989 70.4164 85.1496 72.1069 85.2296C78.7382 85.353 85.3694 85.1371 92.0007 85.2296C95.8766 85.2913 97.9945 83.708 98.6422 79.8115C99.403 75.2982 100.472 70.8259 101.356 66.3331C102.467 60.7402 101.171 59.0747 95.5888 59.0336C88.1042 59.0336 80.6196 59.0336 73.1453 59.0336C67.1412 59.0336 64.9205 56.6073 64.9205 50.6134C64.9205 44.8869 67.0898 42.7485 73.0117 42.7073C82.1926 42.6457 91.3735 42.6045 100.554 42.7073C104.41 42.7587 106.61 41.268 107.289 37.3818C108.039 33.0329 109.077 28.7354 109.921 24.4071C111.185 17.9609 109.921 16.4085 103.454 16.3982C83.8993 16.3982 64.3653 16.3982 44.852 16.3982C38.2927 16.3982 37.3057 17.4263 37.3057 24.2118C37.3057 48.0089 37.3057 71.8095 37.3057 95.6134L37.2543 120.514Z" fill="black"/>
</g>
<defs>
<clipPath id="clip0_35_202">
<rect width="150" height="150" fill="white"/>
</clipPath>
</defs>
</svg>
