<svg width="154" height="150" viewBox="0 0 154 150" fill="none" xmlns="http://www.w3.org/2000/svg">
<g clip-path="url(#clip0_34_187)">
<path d="M68.1996 0.771686C32.7012 4.63021 4.14811 33.1833 0.289589 67.9099C-3.56893 104.18 17.2671 136.592 48.907 148.939C51.2221 149.711 53.5372 148.167 53.5372 145.08V132.733C53.5372 132.733 50.4504 133.505 46.5918 133.505C35.788 133.505 31.1578 124.244 30.3861 118.842C29.6144 115.756 28.0709 113.44 25.7558 111.125C23.4407 110.354 22.669 110.354 22.669 109.582C22.669 108.039 24.9841 108.039 25.7558 108.039C30.3861 108.039 34.2446 113.44 35.788 115.756C39.6465 121.929 44.2767 123.473 46.5918 123.473C49.6787 123.473 51.9938 122.701 53.5372 121.929C54.3089 116.527 56.624 111.125 61.2542 108.039C43.505 104.18 30.3861 94.1479 30.3861 77.1704C30.3861 68.6817 34.2446 60.1929 39.6465 54.0193C38.8748 52.4759 38.1031 48.6173 38.1031 43.2154C38.1031 40.1286 38.1031 35.4984 40.4182 30.8681C40.4182 30.8681 51.2221 30.8682 62.0259 40.9003C65.8845 39.3569 71.2864 38.5852 76.6883 38.5852C82.0902 38.5852 87.4922 39.3569 92.1224 40.9003C102.155 30.8682 113.73 30.8681 113.73 30.8681C115.274 35.4984 115.274 40.1286 115.274 43.2154C115.274 49.389 114.502 52.4759 113.73 54.0193C119.132 60.1929 122.991 67.9099 122.991 77.1704C122.991 94.1479 109.872 104.18 92.1224 108.039C96.7526 111.897 99.8394 118.842 99.8394 125.788V145.852C99.8394 148.167 102.155 150.482 105.241 149.711C133.794 138.135 153.859 110.354 153.859 77.9421C153.859 31.6399 114.502 -4.63024 68.1996 0.771686Z" fill="black"/>
</g>
<defs>
<clipPath id="clip0_34_187">
<rect width="153.859" height="150" fill="white"/>
</clipPath>
</defs>
</svg>
