<svg width="150" height="150" viewBox="0 0 150 150" fill="none" xmlns="http://www.w3.org/2000/svg">
<g clip-path="url(#clip0_34_189)">
<path d="M12 149.864V0.0843136C12.3898 0.0535802 12.7209 4.45166e-05 13.051 4.45166e-05C22.6563 -0.00392109 32.2616 -0.00392109 41.8669 4.45166e-05C42.0534 4.45166e-05 42.2399 0.0109499 42.4264 0.00896713C42.8591 0.00896713 43.0419 0.246903 43.04 0.687086C43.04 1.01821 43.0465 1.34835 43.0465 1.67849C43.0465 12.4187 43.0465 23.1588 43.0465 33.899C43.0465 34.1965 43.0465 34.4939 43.0465 34.7913C43.0587 35.9086 43.0577 35.9155 44.0584 36.2199C57.6662 40.3613 71.2737 44.5044 84.8809 48.6491C94.876 51.6947 104.869 54.7446 114.861 57.7987C122.231 60.0459 129.601 62.2891 136.971 64.5284C137.964 64.8258 137.984 64.8635 137.997 65.959C137.997 66.1573 137.997 66.3555 137.997 66.5538C137.997 93.8504 137.997 121.147 137.997 148.444V149.702C137.859 149.835 137.838 149.859 137.811 149.88C137.784 149.901 137.763 149.93 137.736 149.936C137.617 149.97 137.495 149.992 137.371 150C122.047 150 106.722 150 91.3966 150C91.2397 149.984 91.0839 149.957 90.9303 149.92C90.907 149.51 90.8641 149.097 90.8632 148.683C90.8595 140.455 90.8595 132.226 90.8632 123.998V104.368C90.8632 104.203 90.8632 104.038 90.8632 103.872C90.8548 102.677 90.8408 102.652 89.7106 102.651C79.8877 102.651 70.0648 102.651 60.2419 102.651C60.0871 102.651 59.9304 102.645 59.7756 102.659C59.1853 102.712 59.0902 102.81 59.0529 103.442C59.0333 103.771 59.0454 104.102 59.0454 104.433C59.0454 119.106 59.0454 133.779 59.0454 148.451V149.725C58.9279 149.845 58.9065 149.87 58.8822 149.89C58.858 149.91 58.8328 149.939 58.8058 149.942C58.5922 149.975 58.3771 149.997 58.1614 150.006C42.8992 150.006 27.6364 150.001 12.373 149.99C12.2882 149.984 12.2005 149.931 12 149.864Z" fill="black"/>
</g>
<defs>
<clipPath id="clip0_34_189">
<rect width="150" height="150" fill="white"/>
</clipPath>
</defs>
</svg>
