<svg viewBox="0 0 114 114" height="32mm" width="32mm"><g><rect ry="14.8" y="10.2" x="62.7" height="41.4" width="48.7" style="opacity:1;fill:#000000;fill-opacity:1;fill-rule:nonzero;stroke:none;stroke-width:1;stroke-linecap:butt;stroke-miterlimit:4;stroke-dasharray:none;stroke-dashoffset:0;stroke-opacity:1"/><rect style="opacity:1;fill:#000000;fill-opacity:1;fill-rule:nonzero;stroke:none;stroke-width:1;stroke-linecap:butt;stroke-miterlimit:4;stroke-dasharray:none;stroke-dashoffset:0;stroke-opacity:1" width="48.7" height="41.4" x="62.7" y="61.8" ry="14.8"/><path d="m 21.6 61.8 c -8.2 0 -19.6 7.1 -19.6 15.3 l 0 11.8 c 0 6.6 11.4 14.3 19.6 14.3 l 19.1 0 c 8.2 0 14.8 -6.6 14.8 -14.8 l 0 -11.8 c 0 -8.2 -6.6 -14.8 -14.8 -14.8 l -19.1 0 z m 2.2 10.5 a 5.4 6.7 0 0 1 5.4 6.7 5.4 6.7 0 0 1 -5.4 6.7 5.4 6.7 0 0 1 -5.4 -6.7 5.4 6.7 0 0 1 5.4 -6.7 z" style="opacity:1;fill:#000000;fill-opacity:1;fill-rule:nonzero;stroke:none;stroke-width:1;stroke-linecap:butt;stroke-miterlimit:4;stroke-dasharray:none;stroke-dashoffset:0;stroke-opacity:1"/><path d="m 26.8 19.4 18.5 -2.3 c 5.8 -0.7 10.6 4.7 10.6 10.6 l 0 8.5 c 0 5.9 -4.8 11.5 -10.6 10.6 l -18 -2.7 c 0 0 -10.9 -3.6 -10.9 -7.8 l 0 -8.5 c 0 -5.4 10.4 -8.3 10.4 -8.3 z" style="opacity:1;fill:none;fill-opacity:1;fill-rule:nonzero;stroke:#000000;stroke-width:3.71715331;stroke-linecap:butt;stroke-miterlimit:4;stroke-dasharray:none;stroke-dashoffset:0;stroke-opacity:1"/></g><g style="display:inline" transform="matrix(1.0258204,0,0,1.0258204,-1.4638352,-2.6649558)"><path d="m 77.5 10.2 19.1 0 c 8.2 0 14.8 6.6 14.8 14.8 l 0 11.8 c 0 8.2 -6.6 14.8 -14.8 14.8 l -19.1 0 c -8.2 0 -14.8 -6.6 -14.8 -14.8 l 0 -11.8 c 0 -8.2 6.6 -14.8 14.8 -14.8 z" style="opacity:1;fill:#000000;fill-opacity:1;fill-rule:nonzero;stroke:none;stroke-width:1;stroke-linecap:butt;stroke-miterlimit:4;stroke-dasharray:none;stroke-dashoffset:0;stroke-opacity:1" inkscape:connector-curvature="0"/><path d="m 77.5 61.8 19.1 0 c 8.2 0 14.8 6.6 14.8 14.8 l 0 11.8 c 0 8.2 -6.6 14.8 -14.8 14.8 l -19.1 0 c -8.2 0 -14.8 -6.6 -14.8 -14.8 l 0 -11.8 c 0 -8.2 6.6 -14.8 14.8 -14.8 z" style="opacity:1;fill:#000000;fill-opacity:1;fill-rule:nonzero;stroke:none;stroke-width:1;stroke-linecap:butt;stroke-miterlimit:4;stroke-dasharray:none;stroke-dashoffset:0;stroke-opacity:1" inkscape:connector-curvature="0"/><path d="m 21.6 61.8 c -8.2 0 -19.6 7.1 -19.6 15.3 l 0 11.8 c 0 6.6 11.4 14.3 19.6 14.3 l 19.1 0 c 8.2 0 14.8 -6.6 14.8 -14.8 l 0 -11.8 c 0 -8.2 -6.6 -14.8 -14.8 -14.8 l -19.1 0 z m 2.2 10.5 a 5.4 6.7 0 0 1 5.4 6.7 5.4 6.7 0 0 1 -5.4 6.7 5.4 6.7 0 0 1 -5.4 -6.7 5.4 6.7 0 0 1 5.4 -6.7 z" style="opacity:1;fill:#000000;fill-opacity:1;fill-rule:nonzero;stroke:none;stroke-width:1;stroke-linecap:butt;stroke-miterlimit:4;stroke-dasharray:none;stroke-dashoffset:0;stroke-opacity:1" inkscape:connector-curvature="0"/><path d="m 26.8 19.4 18.5 -2.3 c 5.8 -0.7 10.6 4.7 10.6 10.6 l 0 8.5 c 0 5.9 -4.8 11.5 -10.6 10.6 l -18 -2.7 c 0 0 -10.9 -3.6 -10.9 -7.8 l 0 -8.5 c 0 -5.4 10.4 -8.3 10.4 -8.3 z" style="opacity:1;fill:none;fill-opacity:1;fill-rule:nonzero;stroke:#000000;stroke-width:3.71715331;stroke-linecap:butt;stroke-miterlimit:4;stroke-dasharray:none;stroke-dashoffset:0;stroke-opacity:1"/></g></svg>
