<?xml version="1.0" encoding="utf-8"?>
<!-- Generated by IcoMoon.io -->
<!DOCTYPE svg PUBLIC "-//W3C//DTD SVG 1.1//EN" "http://www.w3.org/Graphics/SVG/1.1/DTD/svg11.dtd">
<svg version="1.1" xmlns="http://www.w3.org/2000/svg" xmlns:xlink="http://www.w3.org/1999/xlink" width="32" height="32" viewBox="0 0 32 32">
<g>
</g>
	<path d="M0 29.44v-25.6q0-1.312 0.944-2.256t2.256-0.944h25.6q1.312 0 2.256 0.944t0.944 2.256v25.6q0 1.312-0.944 2.256t-2.256 0.944h-25.6q-1.312 0-2.256-0.944t-0.944-2.256zM6.4 16.64q0 3.968 2.816 6.784t6.784 2.816 6.784-2.816 2.816-6.784-2.816-6.784-6.784-2.816-6.784 2.816-2.816 6.784zM9.6 16.64q0-2.624 1.888-4.512t4.512-1.888 4.512 1.888 1.888 4.512-1.888 4.512-4.512 1.888-4.512-1.888-1.888-4.512z" fill="#000000" />
</svg>
