<svg width="150" height="150" viewBox="0 0 150 150" fill="none" xmlns="http://www.w3.org/2000/svg">
<g clip-path="url(#clip0_9_66)">
<path d="M103.906 0.129883C105.396 0.129883 106.886 0.130947 108.376 0.139991C109.884 0.149035 111.392 0.166591 112.9 0.207023C116.185 0.295867 119.499 0.489516 122.748 1.07365C126.044 1.66577 129.111 2.63242 132.106 4.15607C135.049 5.65419 137.742 7.61089 140.078 9.94585C142.413 12.2803 144.37 14.9717 145.868 17.9142C147.394 20.9093 148.36 23.9774 148.953 27.2742C149.537 30.521 149.73 33.8327 149.819 37.1162C149.86 38.6234 149.877 40.1306 149.886 41.6383C149.895 43.0763 149.896 44.5143 149.896 45.9523V104.167C149.896 105.605 149.895 107.043 149.886 108.481C149.877 109.989 149.86 111.496 149.819 113.003C149.73 116.287 149.537 119.598 148.953 122.845C148.36 126.142 147.394 129.21 145.868 132.205C144.37 135.147 142.413 137.839 140.078 140.173C137.742 142.508 135.049 144.465 132.106 145.963C129.111 147.487 126.044 148.454 122.748 149.046C119.499 149.63 116.185 149.823 112.9 149.912C111.392 149.953 109.884 149.97 108.376 149.979C106.888 149.988 105.399 149.989 103.91 149.989H103.005H46.8857H45.9805C44.4921 149.989 43.0031 149.988 41.5147 149.979C40.0066 149.97 38.499 149.953 36.9909 149.912C33.7059 149.823 30.3917 149.63 27.1429 149.046C23.8473 148.454 20.7794 147.487 17.785 145.963C14.8417 144.465 12.1485 142.508 9.8134 140.173C7.47833 137.839 5.52108 135.147 4.02307 132.205C2.4974 129.21 1.52994 126.142 0.937661 122.845C0.354424 119.598 0.160721 116.287 0.0718518 113.003C0.0314083 111.496 0.0138474 109.989 0.00480081 108.481C-0.00424576 107.045 -0.00531006 105.61 -0.00531006 104.174V103.112V47.0077V45.9453C-0.00531006 44.5095 -0.00424576 43.0741 0.00480081 41.6383C0.0138474 40.1306 0.0314083 38.6234 0.0718518 37.1162C0.160721 33.8327 0.354424 30.521 0.937661 27.2742C1.52994 23.9774 2.4974 20.9093 4.02307 17.9142C5.52108 14.9717 7.47833 12.2803 9.8134 9.94585C12.1485 7.61089 14.8417 5.65419 17.785 4.15607C20.7794 2.63242 23.8473 1.66577 27.1429 1.07365C30.3917 0.489516 33.7059 0.295867 36.9909 0.207023C38.499 0.166591 40.0066 0.149035 41.5147 0.139991C43.0047 0.130947 44.4947 0.129883 45.9848 0.129883H103.906V0.129883ZM130.344 59.1661C130.249 58.8746 130.069 58.6118 129.809 58.3899C129.544 58.1633 129.215 57.9915 128.818 57.8521C128.753 57.8287 128.687 57.8068 128.619 57.7861C128.058 57.6121 127.475 57.5217 126.888 57.4908C125.172 57.3983 123.454 57.352 121.735 57.352L89.3167 57.3509L79.3 26.5299C78.7684 24.8962 78.1942 23.2762 77.5758 21.6733C77.3651 21.1253 77.099 20.5981 76.76 20.1183C76.7191 20.0608 76.677 20.0044 76.6355 19.9491C76.3806 19.6155 76.1145 19.3559 75.8176 19.1739C75.526 18.9957 75.2205 18.9048 74.914 18.9048C74.6075 18.9048 74.302 18.9957 74.0099 19.1739C73.7129 19.3559 73.4485 19.6155 73.1925 19.9491C73.1505 20.0044 73.109 20.0608 73.0675 20.1183C72.7295 20.5981 72.4624 21.1253 72.2517 21.6733C71.6333 23.2762 71.0591 24.8962 70.528 26.5299L60.5092 57.352H28.0933C26.3745 57.352 24.6562 57.3983 22.9394 57.4908C22.353 57.5217 21.7698 57.6121 21.2083 57.7861C21.1408 57.8068 21.0748 57.8287 21.0093 57.8521C20.6123 57.9915 20.2835 58.1633 20.019 58.3899C19.7588 58.6118 19.5784 58.8746 19.4836 59.1661C19.3884 59.4577 19.3804 59.7763 19.4602 60.1088C19.5411 60.4472 19.7061 60.7797 19.9456 61.126C19.9849 61.1824 20.0254 61.2393 20.0674 61.2962C20.4197 61.7665 20.8385 62.1826 21.2946 62.5523C22.6297 63.6355 23.992 64.6824 25.3825 65.6927L51.6059 84.7405L41.5913 115.564C41.0597 117.198 40.5733 118.846 40.1295 120.506C39.9784 121.074 39.8836 121.657 39.8767 122.243C39.8751 122.314 39.8751 122.384 39.8773 122.453C39.8879 122.874 39.9491 123.239 40.0832 123.562C40.2141 123.877 40.4073 124.13 40.6558 124.31C40.9048 124.491 41.2044 124.596 41.5461 124.624C41.8925 124.651 42.2602 124.597 42.6631 124.477C42.7301 124.457 42.7956 124.436 42.8632 124.413C43.4193 124.224 43.9445 123.954 44.4373 123.635C45.88 122.701 47.2976 121.728 48.6876 120.719L74.9184 101.668L101.036 120.637C102.426 121.647 103.843 122.62 105.286 123.553C105.779 123.872 106.304 124.143 106.861 124.332C106.928 124.354 106.994 124.376 107.06 124.395C107.464 124.516 107.831 124.57 108.178 124.542C108.518 124.515 108.819 124.409 109.067 124.229C109.316 124.049 109.509 123.796 109.64 123.48C109.774 123.158 109.835 122.792 109.847 122.372C109.848 122.302 109.848 122.233 109.847 122.162C109.839 121.575 109.744 120.992 109.593 120.425C109.151 118.765 108.664 117.117 108.133 115.482L98.1574 84.7889L98.2202 84.7426L98.2197 84.7416L124.446 65.6927C125.837 64.6824 127.2 63.6355 128.533 62.5523C128.99 62.1826 129.409 61.7665 129.761 61.2962C129.803 61.2393 129.844 61.1824 129.883 61.126C130.122 60.7797 130.287 60.4472 130.368 60.1088C130.447 59.7763 130.44 59.4577 130.344 59.1661Z" fill="black"/>
</g>
<defs>
<clipPath id="clip0_9_66">
<rect width="150" height="150" fill="white"/>
</clipPath>
</defs>
</svg>
