<svg width="150" height="151" viewBox="0 0 150 151" fill="none" xmlns="http://www.w3.org/2000/svg">
<g clip-path="url(#clip0_34_185)">
<path d="M0 75.0907C0 54.6464 0 34.2097 0 13.7806C0 3.85313 3.87579 0 13.8713 0H135.993C146.419 0 150.068 3.64914 150.068 14.1206C150.068 54.8126 150.068 95.4971 150.068 136.174C150.068 146.51 146.328 150.227 135.925 150.227H13.7806C3.87579 150.249 0 146.374 0 136.423C0 115.979 0 95.5349 0 75.0907ZM58.9302 56.6636V127.561H80.6664C80.6664 120.376 80.6664 113.418 80.6664 106.482C80.5781 99.0971 80.8883 91.7126 81.5956 84.3608C82.5023 77.3345 86.6954 74.3654 93.5857 74.32C100.476 74.2747 103.513 76.8586 104.918 84.2022C105.44 87.553 105.668 90.9431 105.598 94.3336C105.598 105.304 105.598 116.251 105.598 127.357H127.72C127.72 114.619 127.878 102.425 127.72 90.2312C127.742 84.2405 127.204 78.2609 126.111 72.3708C123.844 61.7634 117.362 56.505 106.618 54.9411C101.666 53.9721 96.5402 54.4436 91.848 56.2996C87.1558 58.1555 83.0943 61.3182 80.1451 65.4125L79.3291 56.6636H58.9302ZM22.6655 56.6636V127.448H43.971V56.6636H22.6655ZM46.3055 33.9982C46.3275 30.5605 45.0225 27.2469 42.6623 24.7474C40.3022 22.248 37.0688 20.7553 33.6355 20.5802C30.2895 20.6036 27.0738 21.8806 24.6232 24.1591C22.1727 26.4376 20.6654 29.5521 20.3989 32.8876C20.3256 36.3048 21.5658 39.62 23.8639 42.15C26.162 44.6801 29.3431 46.2323 32.7516 46.4869C36.183 46.5464 39.5055 45.2822 42.0294 42.9567C44.5533 40.6312 46.0846 37.423 46.3055 33.9982V33.9982Z" fill="black"/>
</g>
<defs>
<clipPath id="clip0_34_185">
<rect width="150" height="150.272" fill="white"/>
</clipPath>
</defs>
</svg>
