<svg width="150" height="150" viewBox="0 0 150 150" fill="none" xmlns="http://www.w3.org/2000/svg">
<g clip-path="url(#clip0_34_174)">
<path d="M78.3358 141.422C76.1191 142.75 74.7698 144.132 73.3883 144.164C72.5423 144.164 70.7432 141.829 70.9895 141.047C71.2803 140.346 71.7325 139.724 72.3094 139.231C72.8863 138.738 73.5715 138.388 74.3093 138.21C75.2838 138.145 76.4725 139.848 78.3358 141.422Z" fill="black"/>
<path d="M67.6056 19.6044C68.8478 19.6044 70.2721 19.1975 71.3002 19.6686C80.8525 23.9522 91.026 23.1705 101.103 23.9522C113.204 24.8946 122.018 35.9141 124.299 50.157C124.823 52.5504 126.196 54.6731 128.165 56.1326C135.607 61.2943 137.803 70.4504 132.555 77.9895C130.542 80.8702 130.51 83.012 131.752 86.139C138.756 103.766 127.704 121.81 108.942 124.059C107.917 124.272 106.946 124.691 106.088 125.291C105.23 125.891 104.503 126.66 103.952 127.55C98.2867 137.713 88.1132 140.894 77.7255 135.775C76.7067 135.308 75.6045 135.05 74.4842 135.017C73.364 134.984 72.2484 135.176 71.2038 135.582C55.0226 143.678 38.2203 136.214 34.0545 118.576C33.3584 115.653 32.3946 114.164 29.5032 113.029C13.4612 106.743 8.96348 90.7331 18.8692 76.6723C19.4316 75.7797 19.8061 74.7819 19.97 73.7398C20.1338 72.6977 20.0836 71.6331 19.8223 70.611C15.2818 57.3748 20.6362 46.3339 33.8617 41.4185C36.0035 40.6153 37.899 38.2058 39.2162 36.1176C45.4809 25.6121 55.6866 19.508 67.6056 19.6044ZM93.8746 63.843L95.6844 64.9781C94.999 66.8736 94.4636 68.8226 93.6176 70.6432C91.1652 75.9976 88.6594 81.2236 86.0464 86.4388C83.1014 92.2966 82.6516 98.0687 86.9566 103.359C91.4008 108.831 97.7619 109.784 104.273 109.409C107.271 109.227 110.987 108.028 110.238 104.216C109.831 102.192 106.875 99.4716 104.766 99.1717C96.5733 98.0045 96.584 94.7811 98.8864 88.5271C101.821 80.5703 105.312 72.8278 108.407 64.9674C110.206 60.309 110.548 55.5007 106.865 51.5063C103.181 47.5119 98.6187 48.3579 93.9389 48.7862C91.6509 49.0267 89.342 48.6028 87.2886 47.5654C83.005 45.1773 78.9571 44.8989 75.5088 48.2294C72.0605 51.5598 69.1798 51.442 65.164 49.4609C56.5968 45.2951 48.7472 48.1865 45.4167 57.1606C41.2402 68.4157 37.6848 79.9171 34.1937 91.4292C32.9301 95.6057 33.3691 99.8785 37.053 103.145C43.2963 108.703 51.7885 106.775 55.1725 98.7327C59.1348 89.3945 62.6045 79.9706 66.524 70.6324C67.2094 69.0154 69.2119 67.9552 70.6041 66.6487C70.8932 68.5335 71.8785 70.6539 71.3537 72.2709C69.2119 78.6963 66.3741 84.7789 64.4679 91.2043C63.8575 93.239 64.6392 97.1906 66.0528 97.9616C68.0447 99.0325 71.5679 98.7541 73.7632 97.6725C75.7122 96.7301 76.9759 94.0422 78.1111 91.8897C82.234 84.0614 86.1106 76.1047 90.2336 68.33C91.2852 66.7098 92.5057 65.2057 93.8746 63.843V63.843Z" fill="black"/>
<path d="M121.557 134.522C120.915 139.876 118.976 142.757 115.303 141.836C113.001 141.258 111.287 138.323 109.306 136.482C111.319 134.404 113.119 131.031 115.421 130.634C117.381 130.302 119.94 133.387 121.557 134.522Z" fill="black"/>
<path d="M93.4353 11.6583C91.2936 13.2004 89.1518 15.9419 87.01 15.9419C85.1359 15.9419 82.3623 13.0505 81.7198 10.9194C80.7238 7.41757 83.6474 4.83671 86.7423 5.00806C89.034 5.13656 91.1865 7.67458 93.3925 9.1417L93.4353 11.6583Z" fill="black"/>
<path d="M4.0265 65.4385C9.02757 66.5736 10.7624 68.6512 10.6339 72.2386C10.5054 75.8261 8.39575 77.9786 5.19378 77.047C3.05199 76.4258 0.107034 73.8343 -5.56208e-05 71.9602C-0.107145 69.8613 2.57009 67.6231 4.0265 65.4385Z" fill="black"/>
<path d="M140.801 46.4731C138.959 47.5439 137.042 49.4501 135.275 49.3323C133.851 49.2252 131.452 46.5587 131.559 45.188C131.688 43.6352 134.086 41.1293 135.554 41.0972C137.299 41.0972 139.088 43.239 140.908 44.3955L140.801 46.4731Z" fill="black"/>
<path d="M36.0677 29.2531C33.4333 31.1165 31.7841 33.2369 30.2956 33.0762C28.807 32.9156 26.5796 30.4847 26.601 29.0818C26.6224 27.6789 28.9784 25.3658 30.4562 25.248C31.934 25.1302 33.5082 27.3041 36.0677 29.2531Z" fill="black"/>
<path d="M150 83.0548C147.858 84.6825 146.605 86.2674 145.331 86.2674C144.356 86.2674 142.621 84.4898 142.493 83.3439C142.618 82.6699 142.92 82.0412 143.368 81.5219C143.816 81.0027 144.393 80.6115 145.042 80.3882C146.337 80.3775 147.687 81.7376 150 83.0548Z" fill="black"/>
</g>
<defs>
<clipPath id="clip0_34_174">
<rect width="150" height="150" fill="white"/>
</clipPath>
</defs>
</svg>
