<svg width="150" height="150" viewBox="0 0 150 150" fill="none" xmlns="http://www.w3.org/2000/svg">
<g clip-path="url(#clip0_10_75)">
<path d="M134.914 64.4097V37.8945H150V111.745H135.909C135.808 110.223 135.701 108.673 135.566 106.658C127.494 115.257 118.118 115.522 108.515 111.204C98.6797 106.789 94.6703 98.1611 93.7524 87.1956C93.0472 88.2246 92.6366 88.7463 92.3033 89.3066C88.3325 96.1951 84.3328 103.064 80.449 110.001C79.6471 111.45 78.7776 112.049 77.0917 112.01C72.1306 111.899 67.16 111.972 61.7062 111.972C65.7156 104.967 69.5173 98.3157 73.546 91.2678C63.822 90.0747 56.4264 85.5532 51.3252 77.0369C50.6586 78.1189 50.1466 78.8966 49.6828 79.7034C43.8861 89.7993 38.0556 99.876 32.3313 110.015C31.5101 111.465 30.6309 112.044 28.9499 112.01C23.984 111.904 19.0181 111.972 13.5934 111.972C17.5834 104.982 21.3803 98.3205 25.2689 91.519C8.33766 87.9637 -0.859818 78.1721 0.0628274 60.5452C0.613517 49.9855 8.75792 40.5465 19.2886 37.2375C28.7325 34.2667 42.6156 36.3776 51.2962 49.9468C58.8755 38.7253 69.2516 33.5228 82.502 37.136C95.7523 40.7493 101.993 50.4009 102.955 64.0232C113.577 57.0237 124.084 55.7387 134.914 64.4097ZM135.668 85.872C135.639 78.2493 130.045 72.6845 122.417 72.6941C114.611 72.6941 108.998 78.2928 109.032 86.017C109.065 93.8232 114.654 99.4944 122.316 99.4944C130.108 99.4992 135.701 93.7942 135.668 85.872V85.872ZM75.285 76.4234C76.9771 76.4272 78.6531 76.0965 80.2168 75.4501C81.7806 74.8038 83.201 73.8547 84.3966 72.6573C85.5921 71.46 86.5391 70.0381 87.1831 68.4734C87.8271 66.9087 88.1553 65.2322 88.1489 63.5401C88.1093 60.1682 86.7574 56.9443 84.3801 54.5526C82.0028 52.1608 78.7872 50.7894 75.4155 50.7294C68.4207 50.6907 62.5226 56.6227 62.5612 63.6609C62.5802 67.0349 63.9269 70.2657 66.31 72.6542C68.693 75.0427 71.9208 76.3968 75.2947 76.4234H75.285ZM27.293 76.4234C30.6642 76.3967 33.8889 75.0417 36.2673 72.6524C38.6458 70.2631 39.9861 67.0322 39.9975 63.6609C40.0264 56.5986 34.1476 50.6907 27.148 50.7439C23.7781 50.8102 20.5664 52.1864 18.1939 54.5805C15.8214 56.9747 14.4745 60.1987 14.4387 63.5691C14.4349 65.2591 14.7651 66.9331 15.4103 68.495C16.0556 70.0569 17.0031 71.4759 18.1985 72.6704C19.3939 73.8649 20.8136 74.8114 22.376 75.4555C23.9384 76.0995 25.6127 76.4285 27.3026 76.4234H27.293Z" fill="black"/>
</g>
<defs>
<clipPath id="clip0_10_75">
<rect width="150" height="150" fill="white"/>
</clipPath>
</defs>
</svg>
