<svg width="150" height="150" viewBox="0 0 150 150" fill="none" xmlns="http://www.w3.org/2000/svg">
<path d="M0 149.99V0H149.99V149.879H143.276L0 149.99ZM89.9537 35.8265C84.7605 35.7188 79.5978 36.6448 74.7658 38.5508C69.9338 40.4567 65.529 43.3045 61.8077 46.9284C58.0865 50.5523 55.1229 54.88 53.0896 59.6597C51.0562 64.4395 49.9936 69.5759 49.9636 74.7701C49.9335 79.9643 50.9367 85.1126 52.9146 89.9156C54.8926 94.7185 57.8059 99.0802 61.485 102.747C65.1641 106.414 69.5357 109.312 74.3453 111.274C79.1549 113.235 84.3066 114.221 89.5007 114.174C111.576 114.284 129.122 97.0606 129.152 75.2164C129.215 70.0423 128.246 64.9076 126.301 60.1126C124.356 55.3177 121.474 50.9588 117.824 47.291C114.174 43.6231 109.829 40.72 105.043 38.7515C100.258 36.783 95.1281 35.7886 89.9537 35.8265V35.8265ZM20.8577 75.0856C20.8978 77.0217 21.5111 78.9026 22.6199 80.4903C23.7287 82.0781 25.2833 83.3015 27.0872 84.006C28.8911 84.7105 30.8634 84.8644 32.7548 84.4483C34.6461 84.0322 36.3717 83.0647 37.7134 81.6682C39.0551 80.2716 39.9526 78.5087 40.2927 76.6022C40.6327 74.6957 40.4 72.7312 39.6238 70.9569C38.8476 69.1826 37.5629 67.6783 35.932 66.6339C34.3012 65.5896 32.3973 65.0522 30.461 65.0896C27.8719 65.1607 25.4143 66.2463 23.6179 68.1123C21.8216 69.9783 20.8303 72.4754 20.8577 75.0654V75.0856Z" fill="black"/>
<path d="M99.527 74.8842C99.531 76.1742 99.2794 77.4521 98.7867 78.6442C98.294 79.8364 97.57 80.919 96.6565 81.8298C95.743 82.7405 94.658 83.4611 93.4644 83.9502C92.2708 84.4392 90.9921 84.6869 89.7022 84.6789C88.4068 84.6993 87.1204 84.4596 85.9193 83.9739C84.7183 83.4882 83.6268 82.7665 82.7097 81.8514C81.7926 80.9363 81.0684 79.8465 80.5801 78.6465C80.0917 77.4465 79.8491 76.1607 79.8666 74.8653C79.8841 73.5698 80.1614 72.291 80.682 71.1047C81.2026 69.9183 81.956 68.8485 82.8976 67.9586C83.8391 67.0686 84.9496 66.3766 86.1634 65.9236C87.3772 65.4706 88.6695 65.2657 89.9639 65.3211C92.4833 65.375 94.8845 66.3999 96.6664 68.1818C98.4482 69.9637 99.4731 72.3649 99.527 74.8842V74.8842Z" fill="black"/>
</svg>
