<svg xmlns="http://www.w3.org/2000/svg" width="342.51" height="406.04" viewBox="0 0 342.51 406.04">
  <title>pandora</title>
  <g id="Layer_2" data-name="Layer 2">
    <g id="Layer_1-2" data-name="Layer 1">
      <path d="M127.24,309.69c0,1.7,0,2.92,0,4.13q0,36.43,0,72.87c0,11.7-7.48,19.24-19.27,19.31-8.28.05-16.57,0-24.85,0H0V.07H4.46C64,.07,123.55.21,183.1,0c26.55-.09,52.26,4,76.73,14.34,42.67,18,69.33,49.52,79,95.07a167.22,167.22,0,0,1,3.64,38.27c-.62,30.23-6.52,59.2-22.25,85.54-18.14,30.39-44.84,50.18-77.61,62.34-15.65,5.81-31.87,9.23-48.41,11.56-20.58,2.91-41.24,2.52-61.91,2.56Z"/>
    </g>
  </g>
</svg>
