<svg width="150" height="150" viewBox="0 0 150 150" fill="none" xmlns="http://www.w3.org/2000/svg">
<g clip-path="url(#clip0_10_83)">
<path d="M0 120.281C0.582004 117.861 1.18064 115.446 1.74435 113.024C7.12206 89.8819 12.4915 66.7393 17.8525 43.5963C20.6639 31.4715 23.4747 19.3468 26.285 7.22206C27.3824 2.50966 30.2077 0.195902 35.0499 0.0394326C37.1551 -0.0288148 39.262 0.00947032 41.3688 0.014464C54.3941 0.0361035 67.4193 0.014464 80.4462 0.109345C85.7674 0.14763 91.0969 0.432271 96.3349 1.441C101.882 2.49967 107.323 4.10431 112.152 7.07224C119.015 11.2953 123.864 17.2461 125.345 25.3392C128.671 43.5097 123.465 58.6307 108.843 70.2577C101.072 76.4332 92.2143 80.2285 82.6262 82.4939C72.9949 84.7711 63.2056 85.4902 53.3415 85.4685C51.8732 85.4685 50.4032 85.4685 48.9349 85.4685C45.6357 85.4868 43.1032 87.0332 41.1194 89.5434C40.6333 90.1861 40.2862 90.923 40.1001 91.7073C37.8219 100.957 35.4191 110.194 33.4236 119.516C32.6587 123.073 28.5764 126.705 25.3488 126.913C23.3533 127.043 21.3579 126.971 19.3624 126.973C14.9558 126.973 10.5498 126.973 6.1443 126.973C2.80193 126.973 1.08419 125.695 0.126378 122.494C0.0939018 122.417 0.0514068 122.345 0 122.279L0 120.281ZM67.2015 23.3784C66.0541 23.3784 64.3912 23.3384 62.73 23.3784C58.488 23.4949 55.7177 25.5423 54.4556 29.4507C54.3109 29.8985 54.1879 30.3546 54.0815 30.8124C52.2739 38.6358 50.5395 46.4943 48.6389 54.3028C48.4204 55.1491 48.4007 56.0346 48.5813 56.8898C48.762 57.7451 49.1381 58.5468 49.6802 59.2321C50.2222 59.9175 50.9155 60.4678 51.7057 60.84C52.4958 61.2121 53.3614 61.396 54.2344 61.3772C56.3962 61.3323 58.5579 61.4022 60.7196 61.3522C65.0264 61.254 69.2801 60.763 73.4273 59.5212C77.1887 58.3926 80.6325 56.6631 83.6572 54.1446C89.4124 49.3523 91.2183 43.0336 90.6413 35.8227C90.4941 33.9064 89.9111 32.0491 88.9368 30.3929C87.1825 27.3967 84.3689 25.8869 81.1978 24.8998C76.8045 23.5265 72.2749 23.3151 67.2015 23.3784Z" fill="black"/>
<path d="M149.658 60.683C149.464 62.2477 149.302 63.8174 149.068 65.3754C147.571 75.3146 142.915 83.5558 135.599 90.344C127.884 97.4883 118.804 102.089 108.707 104.797C101.745 106.666 94.603 107.782 87.4036 108.127C82.3701 108.371 77.3233 108.493 72.2848 108.444C68.7779 108.411 63.6729 111.607 62.7184 116.078C60.8609 124.751 58.779 133.375 56.7703 142.016C56.5601 142.904 56.2702 143.772 55.9039 144.609C54.419 148.013 51.8183 149.904 48.0885 149.936C41.6881 150.004 35.2844 150.035 28.8873 149.936C24.7634 149.871 22.3306 146.553 23.2485 142.543C23.5013 141.435 23.8289 140.343 24.0451 139.229C24.1648 138.612 24.4308 138.437 25.0428 138.442C28.5614 138.467 32.0883 138.307 35.5987 138.485C39.7758 138.698 44.4717 134.458 45.2832 130.74C47.2071 121.918 49.319 113.125 51.3477 104.32C51.948 101.711 53.0754 99.4625 55.5198 98.1009C56.8658 97.3691 58.3731 96.9857 59.9048 96.9856C63.8375 96.9257 67.7751 96.9673 71.7112 96.8291C83.3828 96.418 94.825 94.6985 105.728 90.309C114.809 86.6469 122.69 81.307 128.857 73.605C135.773 64.9626 138.623 55.0251 138.101 44.0456C137.87 39.1717 136.866 34.486 134.581 30.1281C134.539 29.9962 134.509 29.8609 134.491 29.7236C135.189 30.1048 135.801 30.3895 136.37 30.7557C143.472 35.2683 147.678 41.7035 149.008 50.0064C149.284 51.7226 149.444 53.4571 149.658 55.1832V60.683Z" fill="black"/>
</g>
<defs>
<clipPath id="clip0_10_83">
<rect width="150" height="150" fill="white"/>
</clipPath>
</defs>
</svg>
