<svg width="150" height="150" viewBox="0 0 150 150" fill="none" xmlns="http://www.w3.org/2000/svg">
<g clip-path="url(#clip0_34_191)">
<path d="M70.3108 0H79.6863C80.2118 0.0939316 80.7342 0.199605 81.2597 0.293536C84.6353 0.789613 88.058 1.06847 91.3749 1.81112C108.092 5.5449 121.947 14.0897 132.858 27.2607C142.576 39.0022 148.221 52.5048 149.645 67.7071C150.525 77.0826 149.806 86.3437 147.226 95.4022C143.237 109.407 135.799 121.316 124.917 130.999C115.847 139.083 105.421 144.716 93.5999 147.702C84.3509 150.059 74.7336 150.607 65.2766 149.316C61.4607 148.797 57.674 147.848 53.406 147.003C61.625 135.916 62.9225 122.836 66.5799 110.525C66.7179 110.618 66.8449 110.727 66.9586 110.848C70.7188 116.328 76.2109 118.979 82.563 119.44C95.8367 120.403 106.386 114.993 114.426 104.599C120.077 97.2956 123.089 88.8358 124.477 79.7832C125.466 73.3459 125.989 66.8676 124.603 60.4098C121.172 44.4854 111.13 34.285 96.3269 28.4378C87.741 25.0504 78.7676 24.6013 69.6709 25.7255C54.8121 27.5631 42.2604 33.6716 33.3017 45.956C23.4888 59.4176 21.4458 74.0034 28.0709 89.4816C30.2636 94.6038 34.0737 98.32 39.2253 100.563C41.5471 101.575 42.6626 101.05 43.3759 98.6165C43.8543 96.9815 44.1978 95.3024 44.7115 93.6792C45.325 91.733 44.8905 90.1157 43.7311 88.463C42.4835 86.6813 41.2653 84.7997 40.464 82.7919C38.1715 77.0445 38.4474 71.0828 39.9004 65.2296C42.6215 54.269 49.091 46.1645 59.3472 41.3534C67.3549 37.5991 75.8557 37.147 84.4093 38.8466C97.4335 41.4356 105.544 50.2329 106.806 63.3569C107.532 71.1635 106.607 79.0355 104.091 86.4611C102.203 92.1205 99.6086 97.3954 95.2555 101.599C91.011 105.708 85.924 107.393 80.0855 106.278C75.0954 105.324 69.1425 100.075 71.573 91.4336C73.2021 85.6128 74.9398 79.8243 76.5924 74.0123C77.5142 70.7628 78.201 67.4693 77.9192 64.0584C77.523 59.309 74.5113 54.6976 68.802 54.3717C63.9117 54.0782 60.2366 56.1623 57.586 59.9959C52.3786 67.5134 52.543 75.6913 55.1848 84.0717C55.4637 84.9524 55.7719 85.9915 55.5635 86.8457C53.2416 96.867 50.9021 106.88 48.4335 116.866C46.32 125.457 44.324 134.052 44.8641 142.99C44.8438 143.223 44.7985 143.454 44.7291 143.677C42.8152 142.717 41.0129 141.878 39.2664 140.936C28.4055 135.065 19.5994 126.916 12.7043 116.71C7.09184 108.415 3.16432 99.3914 1.42072 89.4904C0.839514 86.15 0.469658 82.7772 0 79.3928V70.3108C0.0998024 69.6973 0.237764 69.0838 0.293536 68.4644C0.760923 62.2388 2.05403 56.103 4.13886 50.2182C9.71605 34.8105 19.1356 22.3322 32.6794 13.0536C41.5941 6.94507 51.3689 2.8385 62.0741 1.13011C64.8099 0.692746 67.5662 0.372791 70.3108 0Z" fill="black"/>
</g>
<defs>
<clipPath id="clip0_34_191">
<rect width="150" height="149.997" fill="white"/>
</clipPath>
</defs>
</svg>
