<svg width="150" height="150" viewBox="0 0 150 150" fill="none" xmlns="http://www.w3.org/2000/svg">
<path d="M74.9932 146.653C33.8175 146.669 -0.0487424 114.907 5.26627e-05 75.1934C0.0317695 36.0531 33.7248 3.08886 76.9694 4.01923C116.794 4.87535 151.219 36.2688 149.967 77.669C148.825 115.341 116.313 146.588 74.9932 146.653ZM81.2854 44.6027C81.297 44.4279 81.3223 44.2542 81.361 44.083C83.2396 38.4962 85.1329 32.914 86.992 27.3225C87.2359 26.6264 87.6434 26.5708 88.2777 26.703C93.4329 27.7656 98.593 28.7911 103.738 29.9001C104.112 29.9813 104.551 30.4848 104.661 30.8676C104.997 32.1446 105.598 33.3451 106.427 34.3987C107.257 35.4524 108.3 36.3382 109.494 37.0043C112.714 38.8604 117.201 38.7537 120.304 36.5705C123.637 34.2271 125.089 31.0463 124.293 27.1462C123.525 23.3783 120.878 21.1788 117.094 20.2206C113.205 19.2322 109.865 20.2809 107.203 23.1323C106.612 23.7657 106.105 23.9514 105.229 23.7704C98.9663 22.4642 92.6937 21.2183 86.4235 19.9422C83.9837 19.448 82.7199 20.1116 81.9807 22.3412C79.7288 29.109 77.4549 35.8721 75.2714 42.6585C74.92 43.7466 74.4077 44.032 73.2561 44.0668C61.5234 44.4148 50.6201 47.3683 40.7732 53.5792C40.5616 53.6798 40.33 53.7365 40.0937 53.7457C39.8573 53.7549 39.6216 53.7164 39.4021 53.6326C38.1505 53.092 36.9867 52.3589 35.7303 51.8229C26.8032 48.0179 17.1881 53.6117 17.1052 62.6486C17.0637 67.4767 19.5449 71.001 23.5705 73.6877C24.1024 74.0427 24.4537 74.3164 24.3244 75.0542C23.0045 82.6155 24.7221 89.548 29.2698 95.8425C34.081 102.506 40.6952 107.123 48.3804 110.267C62.1504 115.9 76.4498 117.014 91.0566 113.879C102.082 111.513 111.858 106.886 119.358 98.6127C125.533 91.8101 128.07 83.9287 126.65 74.9638C126.643 74.7589 126.68 74.5547 126.76 74.3643C126.84 74.1738 126.96 74.0011 127.114 73.8571C127.938 73.1193 128.907 72.5253 129.724 71.7829C134.919 67.0754 135.158 59.6695 130.307 54.6001C125.633 49.7116 117.301 49.1501 112.151 53.4238C111.529 53.9412 111.143 53.911 110.501 53.5096C103.182 48.9228 95.131 46.2686 86.482 45.134C84.7791 44.9113 83.0518 44.7814 81.2854 44.6027V44.6027Z" fill="black"/>
<path d="M76.0235 102.571C68.9522 102.537 62.7887 100.977 57.3248 97.211C56.9265 96.9467 56.5652 96.6343 56.25 96.2815C55.1824 95.0547 55.0783 93.6141 55.9498 92.7056C57.1844 91.416 58.8161 91.1906 60.2662 92.1107C70.0779 98.3263 81.1097 98.3402 90.8803 92.1456C92.4611 91.1441 94.3276 91.4485 95.4557 92.9124C95.7508 93.2651 95.915 93.7022 95.9225 94.1545C95.9299 94.6068 95.7802 95.0487 95.4969 95.4102C94.8728 96.3019 94.098 97.0872 93.2043 97.7338C87.9365 101.296 81.9328 102.478 76.0235 102.571Z" fill="black"/>
<path d="M49.5708 73.4946C49.5708 69.3821 53.2345 65.851 57.5306 65.837C61.9448 65.8229 65.6799 69.3868 65.6652 73.5978C65.648 77.5133 61.8366 81.1733 57.7915 81.1428C53.2296 81.1077 49.5708 77.7032 49.5708 73.4946Z" fill="black"/>
<path d="M85.6236 73.4922C85.5445 69.414 89.1997 65.889 93.5593 65.8374C97.9708 65.7882 101.609 69.1726 101.715 73.4195C101.809 77.4883 98.1388 81.0836 93.8312 81.1422C89.3109 81.2032 85.7076 77.8422 85.6236 73.4922Z" fill="black"/>
</svg>
