<?xml version="1.0" standalone="yes"?><svg xmlns="http://www.w3.org/2000/svg" viewBox="0 0 48 48" width="96px" height="96px" style="zoom: 4;"><path fill="#000000" d="M36.5,12 c-1.326,0 -2.59,0.256 -3.758,0.705 C31.321,10.48 28.836,9 26,9 c-2.107,0 -4.018,0.821 -5.447,2.152 C18.815,9.221 16.303,8 13.5,8 C8.253,8 4,12.253 4,17.5 c0,0.792 0.108,1.558 0.29,2.293 C2.291,21.349 1,23.771 1,26.5 C1,31.194 4.806,35 9.5,35 c0.413,0 0.816,-0.039 1.214,-0.096 C12.027,37.903 15.017,40 18.5,40 c3.162,0 5.916,-1.731 7.38,-4.293 C26.556,35.893 27.265,36 28,36 c2.62,0 4.938,-1.265 6.398,-3.211 C35.077,32.927 35.78,33 36.5,33 C42.299,33 47,28.299 47,22.5 C47,16.701 42.299,12 36.5,12  z "></path></svg>
