<svg width="150" height="150" viewBox="0 0 150 150" fill="none" xmlns="http://www.w3.org/2000/svg">
<path d="M15 123.136L34.1638 100.414L44.8856 108.726L34.3701 121.151C39.3044 124.985 44.7439 128.127 50.5365 130.49C60.939 134.798 71.7935 136.896 83.051 136.358C93.2766 135.869 103.06 133.712 110.917 126.578C115.452 122.471 119.226 117.777 118.931 111.083C118.755 107.108 116.312 105.147 112.391 106.066C107.242 107.274 102.2 108.022 97.0995 105.577C84.6332 99.5778 84.363 84.0385 90.9573 75.2273C98.7751 64.7879 116.71 65.404 125.354 73.2323C131.157 78.4936 134.071 85.1289 135.221 92.6198C136.56 100.921 135.984 109.417 133.535 117.464C129.049 132.045 118.661 140.837 104.711 145.873C94.731 149.477 84.358 150.107 73.8032 149.403C58.9046 148.425 45.0576 144.176 32.5275 136.201C26.5179 132.348 21.039 127.669 15 123.136Z" fill="black"/>
<path d="M130.67 21.9546C125.28 29.6607 120.155 36.9805 114.892 44.4959L103.551 37.0148L111.905 24.9178C107.62 21.7199 102.991 19.5391 98.1756 17.7446C89.1261 14.3307 79.4557 12.8513 69.7936 13.4026C58.9096 14.0187 49.0918 17.3486 41.8096 25.9837C38.9454 29.2848 37.4118 33.5248 37.5051 37.8851C37.569 42.0267 39.5198 43.8309 43.6768 43.4447C45.5374 43.2177 47.3844 42.8913 49.2098 42.4667C58.7179 40.5109 68.6536 49.0042 69.7445 57.962C71.1105 69.1642 63.6661 80.3127 52.6887 81.804C38.4387 83.7354 27.0044 77.1637 22.921 63.3945C17.9483 46.5838 19.3536 30.4529 31.4612 16.6249C39.4313 7.50571 49.9272 2.67962 61.7301 0.978023C82.1616 -2.02422 101.252 1.99507 118.681 13.1239C122.794 15.7497 126.567 18.9133 130.67 21.9546Z" fill="black"/>
</svg>
