<svg width="256" height="256" viewBox="0 0 256 256" xmlns="http://www.w3.org/2000/svg" preserveAspectRatio="xMidYMid"><path d="M165.964 15.838C162.074 3.863 149.212-2.69 137.24 1.202c-11.976 3.89-18.53 16.752-14.637 28.725l58.947 181.365c4.048 11.187 16.132 17.473 27.732 14.135 12.1-3.483 19.475-16.334 15.614-28.217L165.964 15.838" fill="#000000"/><path d="M74.626 45.516C70.734 33.542 57.873 26.99 45.9 30.88c-11.976 3.89-18.53 16.75-14.637 28.726L90.21 240.972c4.048 11.186 16.133 17.473 27.733 14.132 12.1-3.48 19.474-16.332 15.613-28.217l-58.93-181.37" fill="#000000"/><path d="M240.162 166.045c11.975-3.89 18.526-16.75 14.636-28.726-3.89-11.974-16.752-18.528-28.725-14.637l-181.365 58.95c-11.187 4.045-17.473 16.13-14.135 27.73 3.483 12.098 16.334 19.474 28.217 15.613l181.372-58.93" fill="#000000"/><path d="M82.508 217.27l43.347-14.084-14.086-43.352-43.35 14.09 14.088 43.347" fill="#000000"/><path d="M173.847 187.59c16.388-5.322 31.62-10.272 43.348-14.083l-14.088-43.36-43.35 14.09 14.09 43.354" fill="#000000"/><path d="M210.484 74.706c11.974-3.89 18.527-16.75 14.637-28.727-3.89-11.974-16.75-18.527-28.726-14.637L15.028 90.293C3.842 94.337-2.445 106.422.896 118.022c3.48 12.098 16.332 19.474 28.217 15.613l181.37-58.93" fill="#000000"/><path d="M52.822 125.933c11.805-3.836 27.025-8.782 43.354-14.086-5.323-16.39-10.273-31.622-14.084-43.352l-43.36 14.092 14.09 43.346" fill="#000000"/><path d="M144.16 96.256l43.356-14.088c-5.326-16.393-10.276-31.63-14.09-43.36L130.07 52.9l14.09 43.356" fill="#000000"/></svg>