<svg width="150" height="151" viewBox="0 0 150 151" fill="none" xmlns="http://www.w3.org/2000/svg">
<g clip-path="url(#clip0_11_113)">
<path d="M96.2105 0C98.0687 0.552169 100.06 0.84196 101.764 1.7035C106.7 4.19805 109.376 8.36085 109.895 13.8747C110.005 15.0495 110.013 16.2244 110.015 17.3992C110.023 29.7297 110.023 42.0608 110.015 54.3925C110.015 57.3453 109.441 60.1414 107.926 62.7221C102.911 71.2709 91.0863 72.665 84.2332 65.5045C81.3509 62.4989 80.0704 58.8647 80.0645 54.7587C80.0475 41.6098 80.0475 28.4628 80.0645 15.3178C80.0841 8.02799 84.5367 2.28308 91.4819 0.469931C92.2651 0.274126 93.0698 0.154686 93.8648 0H96.2105Z" fill="black"/>
<path d="M53.3842 150.378C52.2309 150.061 51.0521 149.81 49.9243 149.415C44.2088 147.41 40.1478 141.935 40.1184 135.873C40.0544 121.977 40.0544 108.08 40.1184 94.1801C40.1478 88.306 44.7335 82.6649 50.6586 80.8791C60.345 77.9616 69.9022 85.0752 69.9727 95.3197C70.0295 103.671 69.9845 112.022 69.9845 120.383C69.9845 125.213 69.9845 130.042 69.9845 134.872C69.9747 142.857 64.9836 148.808 57.1417 150.204C56.989 150.252 56.8425 150.318 56.705 150.4L53.3842 150.378Z" fill="black"/>
<path d="M0 53.4546C0.53063 51.7922 0.85175 50.0261 1.62714 48.489C4.24896 43.2884 8.56253 40.3181 14.376 40.2104C24.4384 40.0146 34.5066 40.1458 44.571 40.1399C48.0563 40.1399 51.5416 40.1007 55.027 40.1497C62.2443 40.2496 68.1654 45.0722 69.6105 51.9665C71.5685 61.3083 64.8779 69.9374 55.1346 70.0804C41.4577 70.2762 27.7729 70.1998 14.094 70.0549C7.24085 69.9825 1.13371 64.2102 0.215385 57.4236C0.159968 57.1409 0.0880499 56.8617 0 56.5875L0 53.4546Z" fill="black"/>
<path d="M93.2774 150.378C91.7677 149.904 90.1719 149.61 88.7739 148.927C83.121 146.176 80.2329 141.543 80.084 135.301C79.9685 130.543 80.0586 125.779 80.0605 121.019C80.0605 120.86 80.0899 120.704 80.1115 120.49C80.3317 120.438 80.5555 120.403 80.7811 120.385C85.8622 120.396 90.9434 120.312 96.0186 120.461C103.197 120.67 109.333 126.877 109.933 134.03C110.587 141.759 105.202 148.982 97.2248 150.192C97.0749 150.238 96.932 150.303 96.7999 150.388L93.2774 150.378Z" fill="black"/>
<path d="M0 93.5945C0.283917 92.4961 0.495385 91.3741 0.863498 90.305C2.82154 84.66 8.09652 80.2739 14.9379 80.2426C19.7273 80.2191 24.5186 80.2426 29.308 80.2426C29.4858 80.2525 29.663 80.2721 29.8387 80.3014C29.8883 80.5179 29.9216 80.7378 29.9385 80.9593C29.9385 85.9836 29.9992 91.0099 29.8954 96.0362C29.7623 102.797 24.3777 108.897 17.7066 110.015C9.12841 111.452 1.45483 105.864 0.191888 97.2658C0.145201 97.0807 0.0809466 96.9004 0 96.7274L0 93.5945Z" fill="black"/>
<path d="M56.1234 0C57.8093 0.456225 59.6028 0.685316 61.1654 1.41175C66.3992 3.84756 69.4988 8.06911 69.8493 13.8121C70.1763 19.136 69.9198 24.4971 69.9198 29.9072C69.7447 29.9537 69.5658 29.9845 69.3852 29.9992C64.2943 29.9875 59.2171 30.0834 54.1379 29.9268C46.529 29.6918 40.2848 23.2205 40.0988 15.5782C39.9167 8.10435 44.7158 1.95805 51.9723 0.354406C52.5715 0.223217 53.1746 0.117483 53.7757 0H56.1234Z" fill="black"/>
<path d="M115.133 110.238C108.517 110.238 101.901 110.265 95.2863 110.238C87.5638 110.197 81.6035 105.161 80.274 97.6182C78.7526 88.9891 85.4001 80.5833 94.1252 80.3229C100.019 80.1466 105.922 80.2387 111.82 80.2426C119.934 80.2426 128.05 80.174 136.162 80.3326C142.82 80.4619 148.815 86.2557 149.82 92.8641C151.016 100.733 145.955 108.235 138.267 109.876C137.056 110.118 135.823 110.235 134.588 110.226C128.097 110.255 121.612 110.238 115.133 110.238Z" fill="black"/>
<path d="M120.136 70.0727C120.12 69.7124 120.095 69.3952 120.095 69.076C120.095 64.5079 120.081 59.9398 120.095 55.3697C120.116 48.0466 124.702 42.2391 131.827 40.4886C139.939 38.4914 148.567 44.4575 149.824 52.6911C151.032 60.6212 145.908 68.0911 138.308 69.7261C137.197 69.9696 136.064 70.1008 134.927 70.1177C130.228 70.1608 125.544 70.1373 120.851 70.1334C120.631 70.1432 120.42 70.0981 120.136 70.0727Z" fill="black"/>
</g>
<defs>
<clipPath id="clip0_11_113">
<rect width="150" height="150.378" fill="white"/>
</clipPath>
</defs>
</svg>
