<svg width="150" height="150" viewBox="0 0 150 150" fill="none" xmlns="http://www.w3.org/2000/svg">
<g clip-path="url(#clip0_11_122)">
<path fill-rule="evenodd" clip-rule="evenodd" d="M117.452 96.7742H130.758V150H11V96.7742H24.3065V136.694H117.452V96.7742Z" fill="black"/>
<path d="M38.8079 92.8185L104.161 106.554L106.908 93.4898L41.5551 79.7479L38.8079 92.8185ZM47.4559 61.5253L107.995 89.7205L113.635 77.6128L53.0942 49.4177L47.4559 61.5253ZM64.2075 31.8241L115.532 74.5632L124.079 64.2991L72.7551 21.5612L64.2075 31.8241ZM97.337 0.232178L86.6192 8.20395L126.476 61.7927L137.193 53.8221L97.337 0.232178ZM37.6129 123.387H104.145V110.081H37.6129V123.387Z" fill="black"/>
</g>
<defs>
<clipPath id="clip0_11_122">
<rect width="150" height="150" fill="white"/>
</clipPath>
</defs>
</svg>
