<svg width="150" height="150" viewBox="0 0 150 150" fill="none" xmlns="http://www.w3.org/2000/svg">
<g clip-path="url(#clip0_11_133)">
<path d="M35.4417 82.2784L13.2304 72.1895C9.75001 70.6118 6.259 69.0482 2.78217 67.4563C0.382761 66.3562 -0.223293 65.1676 0.216184 62.5428C5.51472 30.7762 31.4439 5.38763 63.2599 0.80305C102.345 -4.83216 138.846 19.7392 147.966 57.8238C157.556 97.854 132.173 138.726 91.9677 148.001C53.0598 156.976 14.4992 135.019 2.48091 96.9837C1.41766 93.5205 0.751354 89.9123 0.0354316 86.343C-0.102791 85.6638 0.180743 84.5742 0.673383 84.1887C1.16602 83.8031 2.2718 83.8349 2.91684 84.1144C11.3839 87.8075 19.8048 91.6068 28.2719 95.2928C29.4166 95.7916 29.2713 96.5557 29.2784 97.4153C29.3528 107.225 35.0979 115.456 44.2348 118.881C57.3482 123.77 72.2657 115.043 74.1831 101.222C74.5587 98.5049 75.5086 96.5592 77.9824 95.3742C78.5608 95.0808 79.1051 94.7249 79.6056 94.3129C83.3873 91.3131 87.5091 89.9335 92.4993 89.6576C106.003 88.9218 117.369 78.083 119.435 64.7855C122.001 48.4035 111.521 33.454 95.1929 30.1996C78.0746 26.7894 61.1299 39.4819 59.6484 56.8439C59.5244 58.2978 59.7087 59.7835 59.5704 61.2339C59.4677 62.2952 59.3082 63.4979 58.7659 64.3893C56.9584 67.3538 55.0398 70.2462 53.0102 73.0668C52.4431 73.8557 51.4082 74.687 50.5044 74.7931C44.5999 75.49 39.5813 77.8919 35.4417 82.2784Z" fill="black"/>
<path d="M89.7243 44.8059C93.6825 44.8726 97.4557 46.4906 100.229 49.3104C103.002 52.1302 104.553 55.9256 104.547 59.8769C104.54 63.8283 102.977 67.6186 100.194 70.4293C97.4116 73.2399 93.6331 74.8455 89.6747 74.8992C87.6756 74.9264 85.691 74.5564 83.8366 73.8108C81.9821 73.0653 80.2947 71.959 78.8726 70.5564C77.4504 69.1539 76.322 67.483 75.5529 65.6411C74.7838 63.7991 74.3895 61.8229 74.3928 59.8274C74.396 57.8319 74.7969 55.857 75.5721 54.0176C76.3472 52.1782 77.4812 50.511 78.9079 49.1131C80.3347 47.7153 82.0257 46.6145 83.8826 45.8751C85.7396 45.1356 87.7253 44.7722 89.7243 44.8059V44.8059Z" fill="black"/>
<path d="M51.8512 105C50.3667 104.987 48.9192 104.535 47.6918 103.702C46.4645 102.868 45.5124 101.69 44.9559 100.316C44.3995 98.9419 44.2637 97.4342 44.5657 95.9834C44.8677 94.5325 45.594 93.2036 46.6527 92.1648C47.7113 91.1259 49.0549 90.4237 50.5134 90.147C51.9719 89.8702 53.4799 90.0314 54.8466 90.61C56.2134 91.1887 57.3775 92.1589 58.1919 93.3979C59.0062 94.6369 59.4341 96.0892 59.4216 97.5709C59.4256 98.5584 59.2316 99.5367 58.8509 100.448C58.4703 101.36 57.9108 102.186 57.2053 102.878C56.4998 103.57 55.6626 104.115 54.7431 104.479C53.8236 104.843 52.8403 105.02 51.8512 105Z" fill="black"/>
</g>
<defs>
<clipPath id="clip0_11_133">
<rect width="150" height="150" fill="white"/>
</clipPath>
</defs>
</svg>
