<svg width="150" height="150" viewBox="0 0 150 150" fill="none" xmlns="http://www.w3.org/2000/svg">
<g clip-path="url(#clip0_35_204)">
<path d="M24.6355 102.692C35.5221 106.229 45.7443 110.256 56.3242 112.74C62.8971 114.273 70.0322 113.762 76.8912 113.558C78.8773 113.564 80.8019 112.87 82.3259 111.596C83.85 110.323 84.8757 108.552 85.2223 106.597C85.7379 104.593 85.5441 102.474 84.6739 100.597C83.8037 98.7207 82.3107 97.2033 80.4486 96.3029C75.2761 93.502 69.7766 91.3043 64.3589 88.9838C58.3176 86.3874 52.0923 84.2203 46.143 81.3785C31.7706 74.4479 23 63.5613 23 46.889C23 29.7566 29.8591 16.4883 44.9163 7.85054C55.3429 1.87058 66.8122 0.0714789 78.5983 -7.62618e-05C90.9705 -0.189747 103.276 1.84617 114.928 6.01055C116.645 6.63411 119.109 8.55587 119.15 9.94609C119.487 21.5789 119.344 33.2322 119.344 45.4477C118.127 45.1544 116.929 44.7892 115.756 44.3539C104.869 39.1819 93.0447 36.2746 81.0005 35.8082C77.6988 35.6957 74.1108 35.5935 71.0442 36.7997C68.5806 37.7708 65.5344 40.3979 65.1358 42.7081C64.686 45.2637 66.2602 49.005 68.2024 50.9472C70.5944 53.3085 74.213 54.576 77.4739 55.8947C85.7743 59.2373 94.3507 61.9462 102.477 65.6466C119.211 73.2519 127.849 86.2238 127.266 104.971C126.683 123.719 117.402 136.66 100.515 143.908C80.469 152.504 59.8509 151.063 39.3555 145.584C24.5333 141.597 24.6151 141.332 24.6151 126.244L24.6355 102.692Z" fill="black"/>
</g>
<defs>
<clipPath id="clip0_35_204">
<rect width="150" height="150" fill="white"/>
</clipPath>
</defs>
</svg>
