<svg width="150" height="150" viewBox="0 0 150 150" fill="none" xmlns="http://www.w3.org/2000/svg">
<path d="M134.244 45.1165C134.335 46.429 134.335 47.7415 134.335 49.0661C134.335 89.427 103.609 135.975 47.4253 135.975V135.951C30.8285 135.975 14.5765 131.221 0.604736 122.258C3.01804 122.548 5.44345 122.693 7.8749 122.699C21.6289 122.711 34.9898 118.096 45.8104 109.598C32.7398 109.35 21.2781 100.828 17.2741 88.3867C21.8527 89.2697 26.5705 89.0883 31.0644 87.8605C16.8144 84.9814 6.5624 72.4613 6.5624 57.9209C6.5624 57.7879 6.5624 57.6609 6.5624 57.5338C10.8084 59.8988 15.5624 61.2113 20.4253 61.3564C7.00393 52.3867 2.86683 34.5318 10.9717 20.5722C26.4797 39.6548 49.3608 51.2556 73.9233 52.4834C71.4616 41.8746 74.8245 30.7576 82.76 23.3C95.0624 11.7355 114.411 12.3282 125.976 24.6246C132.816 23.2758 139.373 20.7657 145.373 17.2092C143.093 24.2798 138.32 30.2859 131.945 34.1024C138 33.3887 143.915 31.7677 149.486 29.2939C145.385 35.4391 140.22 40.7919 134.244 45.1165Z" fill="black"/>
</svg>
