<svg width="150" height="150" viewBox="0 0 150 150" fill="none" xmlns="http://www.w3.org/2000/svg">
<g clip-path="url(#clip0_11_141)">
<path d="M0 71.0926V0C0.45176 0.0312907 0.901565 0.0899609 1.35332 0.0899609C24.1043 0.0899609 46.8553 0.0899609 69.6063 0.0899609C71.0007 0.0899609 71.0006 0.0899609 71.0006 1.45893V69.6219C71.0006 70.9909 71.0007 70.9909 69.6063 70.9909C46.8566 70.9909 24.1056 70.9909 1.35332 70.9909C0.901565 71.0046 0.45176 71.0613 0 71.0926Z" fill="black"/>
<path d="M71.0945 150H0V78.9055C0.449804 78.9368 0.901565 78.9955 1.35137 78.9955C24.0906 78.9955 46.8292 78.9955 69.5672 78.9955C71.0007 78.9955 71.0007 78.9955 71.0007 80.427C71.0007 103.165 71.0007 125.904 71.0007 148.643C71.0046 149.097 71.0632 149.548 71.0945 150Z" fill="black"/>
<path d="M150 150H78.9055C78.9368 149.55 78.9955 149.098 78.9955 148.647C78.9955 125.897 78.9955 103.146 78.9955 80.3937C78.9955 78.9993 78.9955 78.9993 80.3644 78.9993H148.52C149.889 78.9993 149.889 78.9993 149.889 80.3937C149.889 103.143 149.889 125.894 149.889 148.647C149.91 149.096 149.969 149.548 150 150Z" fill="black"/>
<path d="M114.354 71.0008H80.2744C79.0012 71.0008 78.9993 71.0008 78.9993 69.6983V1.44145C78.9993 0.0939941 78.9993 0.0939941 80.3233 0.0939941H148.576C149.9 0.0939941 149.9 0.0939941 149.9 1.44341V69.6964C149.9 70.9949 149.9 70.9949 148.623 70.9969L114.354 71.0008Z" fill="black"/>
</g>
<defs>
<clipPath id="clip0_11_141">
<rect width="150" height="149.998" fill="white"/>
</clipPath>
</defs>
</svg>
