<svg width="150" height="150" viewBox="0 0 150 150" fill="none" xmlns="http://www.w3.org/2000/svg">
<path d="M0.44902 74.8473C0.484948 33.5502 33.9565 0.128017 75.1818 0.224574C116.477 0.312149 149.775 33.6355 149.775 74.8743C149.775 116.156 116.367 149.576 75.0987 149.551C33.8308 149.526 0.40411 116.109 0.44902 74.8473ZM75.1391 4.61454C36.357 4.55841 4.95576 35.9282 4.83674 74.8339C4.71549 113.562 36.0808 144.984 75.0291 145.163C113.753 145.341 145.394 113.726 145.388 74.8788C145.381 36.0315 114.004 4.66844 75.1391 4.61454Z" fill="black"/>
<path d="M116.865 28.857C109.345 28.6684 104.007 36.1347 106.469 43.7537C107.317 46.3854 108.647 48.9004 110.028 51.3143C112.067 54.8802 114.26 58.3495 115.581 62.2769C117.588 68.2365 117.602 74.2881 115.958 80.2679C113.885 87.8173 111.521 95.2859 109.257 102.781C108.31 105.925 107.293 109.033 106.201 112.491L83.7732 45.7746C85.6056 45.6152 87.3076 45.4715 89.0075 45.3255C89.6385 45.2694 90.274 45.211 90.8982 45.101C92.4117 44.8562 93.2919 43.7537 93.1617 42.2761C93.0314 40.7986 91.9693 39.8487 90.4177 39.9206C87.768 40.0441 85.1228 40.2282 82.4776 40.4169C75.5659 40.9041 68.6609 40.6931 61.7605 40.208C60.3818 40.1115 59.0053 39.9835 57.6243 39.9206C55.9491 39.8398 54.8084 40.7919 54.6849 42.3233C54.5659 43.9266 55.3945 44.9101 57.1707 45.1347C59.0592 45.3592 60.9611 45.4917 62.8496 45.741C63.0471 45.7824 63.2328 45.8677 63.3929 45.9905C63.553 46.1133 63.6835 46.2705 63.7747 46.4505C66.8601 54.8128 69.9154 63.1871 72.9409 71.5733C73.0923 72.0255 73.0994 72.5136 72.9611 72.97C68.6318 86.0239 64.2837 99.0763 59.9169 112.127C59.8608 112.293 59.7867 112.453 59.6003 112.915C52.0375 90.4064 44.5554 68.1646 37.0442 45.7746C38.8181 45.6175 40.5068 45.4737 42.1909 45.3255C42.8241 45.2672 43.4574 45.2088 44.0839 45.101C45.6557 44.8585 46.5764 43.7245 46.4259 42.2267C46.2822 40.7896 45.1976 39.833 43.637 39.9116C40.8773 40.0508 38.122 40.3203 35.3623 40.4236C31.7425 40.5583 28.1183 40.5898 24.4963 40.6481C24.1206 40.6349 23.7458 40.6019 23.3735 40.5493C42.9925 9.61296 88.2665 2.59799 116.865 28.857Z" fill="black"/>
<path d="M57.5703 134.607C63.7664 116.598 69.9371 98.6618 76.0823 80.798L76.3248 80.7666C82.747 98.3594 89.1841 115.988 95.6362 133.653C83.0838 137.926 70.4528 138.254 57.5703 134.607Z" fill="black"/>
<path d="M47.8293 130.758C15.6871 115.024 5.4341 77.4858 18.2807 49.8188C28.1272 76.7964 37.9334 103.666 47.8293 130.758Z" fill="black"/>
<path d="M129.855 45.4333C145.307 73.7268 136.336 111.002 106.646 128.466C106.756 128.055 106.814 127.754 106.913 127.469C113.059 109.675 119.162 91.866 125.389 74.1018C127.185 68.9887 128.953 63.8982 129.709 58.5089C130.34 54.1763 130.389 49.779 129.855 45.4333V45.4333Z" fill="black"/>
</svg>
