<svg width="150" height="150" viewBox="0 0 150 150" fill="none" xmlns="http://www.w3.org/2000/svg">
<g clip-path="url(#clip0_11_163)">
<path d="M68.161 23H81.8997C82.1863 23.0583 82.4762 23.0982 82.7679 23.1197C95.3704 23.2751 107.971 23.5002 120.54 24.488C124.497 24.797 128.484 25.1436 132.367 25.951C139.798 27.4837 144.693 32.0478 146.813 39.3646C148.433 44.9772 148.876 50.7971 149.278 56.5884C149.657 62.0665 149.89 67.5559 149.979 73.0566C150.132 81.2555 149.795 89.4562 148.971 97.6151C148.524 101.883 148.014 106.168 147.129 110.359C145.532 117.931 140.868 122.956 133.353 124.862C129.645 125.802 125.751 126.112 121.921 126.425C115.913 126.907 109.886 127.179 103.864 127.47C100.599 127.629 97.3265 127.688 94.0575 127.72C85.1991 127.813 76.3371 128.043 67.4822 127.899C55.8943 127.7 44.3099 127.281 32.7327 126.764C28.0293 126.554 23.3331 125.966 18.6654 125.319C13.4975 124.605 9.32465 122.038 6.17892 117.843C3.96208 114.889 2.99568 111.457 2.37403 107.899C0.964619 99.8926 0.535899 91.8041 0.21436 83.7067C0.153624 82.199 0.0714532 80.6985 0 79.1855V71.8722C0.0535899 71.4935 0.133975 71.1184 0.153624 70.7379C0.466232 64.9288 0.627002 59.1053 1.1236 53.3105C1.45827 49.0576 2.06689 44.8307 2.94566 40.6561C4.63196 32.9231 9.40325 27.7945 17.1916 26.1118C21.8361 25.1061 26.6324 24.6827 31.3858 24.3415C37.9024 23.8628 44.4403 23.6449 50.9712 23.4198C55.8746 23.2412 60.7817 23.2412 65.687 23.159C66.5122 23.1447 67.3447 23.0554 68.161 23ZM98.9127 75.5289L60.035 53.0818V97.9777L98.9127 75.5289Z" fill="black"/>
</g>
<defs>
<clipPath id="clip0_11_163">
<rect width="150" height="150" fill="white"/>
</clipPath>
</defs>
</svg>
